<svg xmlns="http://www.w3.org/2000/svg" width="101.011" height="38.839" viewBox="0 0 101.011 38.839">
  <g id="Gruppe_371" data-name="Gruppe 371" transform="translate(-227 -51.942)">
    <g id="Gruppe_56" data-name="Gruppe 56" transform="translate(227 51.942)">
      <path id="Pfad_79" data-name="Pfad 79" d="M413.563,436.144h-8.879l-1.474,4.322h-6.031l8.678-23.521h6.6l8.678,23.521h-6.1Zm-1.474-4.356-2.949-8.712-2.982,8.712Z" transform="translate(-397.179 -416.777)" fill="#474369"/>
      <path id="Pfad_80" data-name="Pfad 80" d="M573.868,436.144h-8.879l-1.474,4.322h-6.031l8.678-23.521h6.6l8.678,23.521h-6.1Zm-1.474-4.356-2.949-8.712-2.982,8.712Z" transform="translate(-532.404 -416.777)" fill="#474369"/>
      <path id="Pfad_81" data-name="Pfad 81" d="M733.171,415.874l-5.663,23.689h-7.1l-3.786-15.848-3.82,15.848h-7.1l-5.663-23.689h6.232l3.049,17.155,4.155-17.155h6.265l4.155,17.155,3.082-17.155Z" transform="translate(-652.651 -415.874)" fill="#474369"/>
      <path id="Pfad_82" data-name="Pfad 82" d="M933.972,431.253v8.31h-5.73V415.874h9.281q4.222,0,6.433,2.094a7.407,7.407,0,0,1,2.211,5.646,7.781,7.781,0,0,1-.988,3.937,6.853,6.853,0,0,1-2.932,2.714,10.326,10.326,0,0,1-4.724.988Zm6.366-7.639q0-3.116-3.451-3.116h-2.915v6.165h2.915Q940.337,426.663,940.338,423.614Z" transform="translate(-845.157 -415.874)" fill="#474369"/>
      <path id="Pfad_83" data-name="Pfad 83" d="M443.365,593.126l-.147.1c-6.39,4.207-13.831,5.826-21.521,5.826s-15.13-1.62-21.52-5.826l-.147-.1-2.851,4.33.147.1c7.238,4.765,15.666,6.681,24.37,6.681s17.133-1.915,24.372-6.681l.147-.1Z" transform="translate(-397.179 -565.395)" fill="#fe6578"/>
    </g>
  </g>
</svg>
