<svg id="aawp-icon-advanced-ads-border" xmlns="http://www.w3.org/2000/svg" viewBox="0 0 100 100">
  <path id="Pfad_1738" data-name="Pfad 1738" d="M19.875,99A18.9,18.9,0,0,1,1,80.125V2A1,1,0,0,1,2,1H80.125A18.9,18.9,0,0,1,99,19.875V98a1,1,0,0,1-1,1Z" fill="#fff"/>
  <path id="Pfad_1739" data-name="Pfad 1739" d="M80.125,2A17.892,17.892,0,0,1,98,19.875V98H19.875A17.9,17.9,0,0,1,2,80.125V2H80.125m0-2H2A2,2,0,0,0,0,2V80.125A19.9,19.9,0,0,0,19.875,100H98a2,2,0,0,0,2-2V19.875A19.9,19.9,0,0,0,80.125,0Z" fill="#0074a2"/>
  <g id="Gruppe_1842" data-name="Gruppe 1842" transform="translate(-217.176 -17.39)">
    <g id="Gruppe_371" data-name="Gruppe 371" transform="translate(227 51.943)">
      <g id="Gruppe_56" data-name="Gruppe 56">
        <path id="Pfad_79" data-name="Pfad 79" d="M410.212,432.217h-7.063l-1.173,3.438h-4.8l6.9-18.711h5.251l6.9,18.711h-4.851Zm-1.173-3.465-2.346-6.93-2.372,6.93Z" transform="translate(-397.179 -416.812)" fill="#474369"/>
        <path id="Pfad_80" data-name="Pfad 80" d="M570.517,432.217h-7.063l-1.173,3.438h-4.8l6.9-18.711h5.251l6.9,18.711H571.69Zm-1.173-3.465L567,421.823l-2.372,6.93Z" transform="translate(-537.534 -416.812)" fill="#474369"/>
        <path id="Pfad_81" data-name="Pfad 81" d="M726.393,415.874l-4.5,18.844h-5.65l-3.012-12.607-3.039,12.607h-5.651l-4.5-18.844h4.958l2.425,13.647,3.305-13.647h4.984l3.305,13.647,2.452-13.647Z" transform="translate(-662.342 -415.874)" fill="#474369"/>
        <path id="Pfad_82" data-name="Pfad 82" d="M932.8,428.108v6.61h-4.558V415.874h7.383a7.17,7.17,0,0,1,5.117,1.666,5.892,5.892,0,0,1,1.759,4.491,6.19,6.19,0,0,1-.786,3.132,5.452,5.452,0,0,1-2.332,2.159,8.215,8.215,0,0,1-3.758.786Zm5.064-6.077q0-2.479-2.745-2.479H932.8v4.9h2.319Q937.863,424.456,937.864,422.031Z" transform="translate(-862.15 -415.874)" fill="#474369"/>
        <path id="Pfad_83" data-name="Pfad 83" d="M433.918,593.126l-.117.077c-5.083,3.346-11,4.635-17.119,4.635s-12.035-1.289-17.118-4.635l-.117-.077-2.268,3.445.117.077c5.758,3.791,12.462,5.314,19.386,5.314s13.629-1.524,19.387-5.314l.117-.077Z" transform="translate(-397.179 -571.067)" fill="#fe6578"/>
      </g>
    </g>
  </g>
</svg>
