<svg xmlns="http://www.w3.org/2000/svg" width="96.01" height="99.14" viewBox="0 0 96.01 99.14">
  <g id="api-key" transform="translate(-8.947 7.203)">
    <g id="plug" transform="translate(8.509 -7.203)">
      <g id="Gruppe_1878" data-name="Gruppe 1878" transform="translate(0.438 0)">
        <path id="Pfad_1770" data-name="Pfad 1770" d="M46.04,91.195C21.533,91.7-.061,70.109.446,45.6-.059,21.1,21.532-.5,46.04.008,99.313,1.337,108.929,74.5,57.84,89.641a1.781,1.781,0,1,1-.922-3.441A42.091,42.091,0,0,0,88.071,45.6c-2.113-55.684-81.958-55.668-84.063,0A42.084,42.084,0,0,0,44.258,87.6V63.411a1.781,1.781,0,0,1,3.562,0v26a1.781,1.781,0,0,1-1.781,1.781Z" transform="translate(-0.438 0)" fill="#120b46"/>
      </g>
      <path id="Pfad_1771" data-name="Pfad 1771" d="M171.485,231.047v16.919a7.145,7.145,0,0,0,7.124,7.124h16.029a7.145,7.145,0,0,0,7.124-7.124V231.047Z" transform="translate(-140.584 -189.898)" fill="#fed6ff" fill-rule="evenodd"/>
      <g id="Gruppe_1879" data-name="Gruppe 1879" transform="translate(28.241 25.155)">
        <path id="Pfad_1773" data-name="Pfad 1773" d="M190.376,155.456h-1.781v-8.9a5.343,5.343,0,0,0-10.686,0v8.9h-7.124v-8.9a5.343,5.343,0,0,0-10.686,0v8.9h-1.781a1.781,1.781,0,0,0,0,3.562h32.058A1.781,1.781,0,0,0,190.376,155.456Zm-8.905-8.905a1.781,1.781,0,0,1,3.562,0v8.9h-3.562Zm-17.81,0a1.781,1.781,0,0,1,3.562,0v8.9h-3.562Z" transform="translate(-156.548 -141.243)" fill="#120b46"/>
        <path id="Pfad_1787" data-name="Pfad 1787" d="M5.555,0H7.48L4.862-7.7H2.618L0,0H1.925L2.31-1.21H5.17ZM2.838-2.86l.9-2.827.9,2.827ZM11.055-7.7H8.14V0H9.9V-2.42h1.155A2.646,2.646,0,0,0,13.75-5.06,2.646,2.646,0,0,0,11.055-7.7Zm0,3.63H9.9V-6.05h1.155a.941.941,0,0,1,.935.99A.941.941,0,0,1,11.055-4.07ZM14.63-7.7V0h1.76V-7.7Z" transform="translate(9.441 31.984)" fill="#120b46"/>
      </g>
    </g>
    <g id="Gruppe_1706" data-name="Gruppe 1706" transform="translate(70.957 57.937)">
      <g id="Gruppe_1698" data-name="Gruppe 1698">
        <g id="Pfad_1444" data-name="Pfad 1444" fill="#fff">
          <path d="M 17 32.5 C 12.85980033874512 32.5 8.967410087585449 30.88772010803223 6.039850234985352 27.96014976501465 C 3.112279891967773 25.03259086608887 1.5 21.14019966125488 1.5 17 C 1.5 12.85980033874512 3.112279891967773 8.967410087585449 6.039850234985352 6.039850234985352 C 8.967410087585449 3.112279891967773 12.85980033874512 1.5 17 1.5 C 21.14019966125488 1.5 25.03259086608887 3.112279891967773 27.96014976501465 6.039850234985352 C 30.88772010803223 8.967410087585449 32.5 12.85980033874512 32.5 17 C 32.5 21.14019966125488 30.88772010803223 25.03259086608887 27.96014976501465 27.96014976501465 C 25.03259086608887 30.88772010803223 21.14019966125488 32.5 17 32.5 Z" stroke="none"/>
          <path d="M 17 3 C 13.26045989990234 3 9.744760513305664 4.456249237060547 7.100509643554688 7.100509643554688 C 4.456249237060547 9.744760513305664 3 13.26045989990234 3 17 C 3 20.73954010009766 4.456249237060547 24.25524139404297 7.100509643554688 26.89949035644531 C 9.744760513305664 29.54375076293945 13.26045989990234 31 17 31 C 20.73954010009766 31 24.25524139404297 29.54375076293945 26.89949035644531 26.89949035644531 C 29.54375076293945 24.25524139404297 31 20.73954010009766 31 17 C 31 13.26045989990234 29.54375076293945 9.744760513305664 26.89949035644531 7.100509643554688 C 24.25524139404297 4.456249237060547 20.73954010009766 3 17 3 M 17 0 C 26.38883972167969 0 34 7.611160278320312 34 17 C 34 26.38883972167969 26.38883972167969 34 17 34 C 7.611160278320312 34 0 26.38883972167969 0 17 C 0 7.611160278320312 7.611160278320312 0 17 0 Z" stroke="none" fill="#120b46"/>
        </g>
      </g>
      <path id="Pfad_1785" data-name="Pfad 1785" d="M-7.822,0H2.006V-2.793H-3.517L-.641-5.67a6.841,6.841,0,0,0,2.415-4.7,4.592,4.592,0,0,0-4.851-4.62,5.173,5.173,0,0,0-4.851,3.108l2.436,1.428A2.663,2.663,0,0,1-3.034-12.18a1.808,1.808,0,0,1,1.911,1.911A4.765,4.765,0,0,1-2.8-7.329L-7.822-2.163Zm13.4.273A1.784,1.784,0,0,0,7.361-1.512,1.784,1.784,0,0,0,5.576-3.3,1.784,1.784,0,0,0,3.791-1.512,1.784,1.784,0,0,0,5.576.273Z" transform="translate(19 23.898)" fill="#120b46"/>
    </g>
  </g>
</svg>
