<svg id="awp-logo" xmlns="http://www.w3.org/2000/svg" xmlns:xlink="http://www.w3.org/1999/xlink" width="335.791" height="115.651" viewBox="0 0 335.791 115.651">
  <defs>
    <clipPath id="clip-path">
      <rect id="Rechteck_33" data-name="Rechteck 33" width="335.791" height="115.651" fill="#495e73"/>
    </clipPath>
  </defs>
  <g id="Gruppe_11" data-name="Gruppe 11" clip-path="url(#clip-path)">
    <path id="Pfad_25" data-name="Pfad 25" d="M75.439,70.025a10.067,10.067,0,0,1-1.266,9.762,10.859,10.859,0,0,1-9.28,4.76h-.241A11.268,11.268,0,0,1,57.9,82.378a10.343,10.343,0,0,1-3.918-5.484L50.309,65.746H26.386L23.011,76.713a10.247,10.247,0,0,1-3.977,5.605,11.077,11.077,0,0,1-6.75,2.229H11.26a10.649,10.649,0,0,1-9.22-4.7,10.116,10.116,0,0,1-1.386-9.7L20.661,11.992a17.11,17.11,0,0,1,6.327-8.5A17.393,17.393,0,0,1,37.474.121h.181a17.366,17.366,0,0,1,10.3,3.253,17.043,17.043,0,0,1,6.448,8.377ZM44.163,47.185l.723,1.446Q40,33.386,37.112,20.549h2.17q-2.111,10.005-7.111,26.636Z" fill="#495e73"/>
    <path id="Pfad_26" data-name="Pfad 26" d="M155.516,70.025a10.067,10.067,0,0,1-1.266,9.762,10.86,10.86,0,0,1-9.28,4.76h-.241a11.268,11.268,0,0,1-6.749-2.169,10.343,10.343,0,0,1-3.918-5.484l-3.676-11.148H106.463l-3.375,10.967a10.247,10.247,0,0,1-3.977,5.605,11.077,11.077,0,0,1-6.75,2.229H91.337a10.651,10.651,0,0,1-9.221-4.7,10.118,10.118,0,0,1-1.385-9.7l20.007-58.153a17.11,17.11,0,0,1,6.327-8.5A17.393,17.393,0,0,1,117.551.121h.181a17.366,17.366,0,0,1,10.3,3.253,17.048,17.048,0,0,1,6.448,8.377ZM124.24,47.185l.723,1.446q-4.881-15.245-7.774-28.082h2.17q-2.11,10.005-7.111,26.636Z" fill="#495e73"/>
    <path id="Pfad_27" data-name="Pfad 27" d="M258.172.422a10.857,10.857,0,0,1,9.279,4.761,10.041,10.041,0,0,1,1.266,9.762L247.506,73.64a16.134,16.134,0,0,1-6.146,8.076,17.043,17.043,0,0,1-9.883,3.073h-.242a16.782,16.782,0,0,1-10.606-3.616,16.336,16.336,0,0,1-5.967-9.04l-7.291-28.564L200.02,72.133a16.279,16.279,0,0,1-6.088,9.161,16.572,16.572,0,0,1-10.424,3.5h-.242a17.039,17.039,0,0,1-9.883-3.073,16.455,16.455,0,0,1-6.207-8.076L145.964,14.945a10.154,10.154,0,0,1,1.326-9.762A10.666,10.666,0,0,1,156.571.422h.24A11.188,11.188,0,0,1,163.5,2.591a10.7,10.7,0,0,1,3.977,5.424l9.041,28.323q4.881,15.247,7.834,28.082h-2.17q1.506-7.653,12.9-54.6a11.9,11.9,0,0,1,4.278-6.689A12.543,12.543,0,0,1,207.25.422h.182a12.144,12.144,0,0,1,7.834,2.712A11.805,11.805,0,0,1,219.6,9.823q11.328,46.945,12.957,54.6h-2.17q2.892-12.9,7.773-28.082l9.1-28.263a10.359,10.359,0,0,1,3.918-5.484,11.275,11.275,0,0,1,6.75-2.169Z" fill="#495e73"/>
    <path id="Pfad_28" data-name="Pfad 28" d="M295.836,55.863v18.26a10.435,10.435,0,0,1-3.194,7.653,10.724,10.724,0,0,1-7.893,3.194h-.181a10.6,10.6,0,0,1-7.955-3.315,10.043,10.043,0,0,1-3.194-7.532V10.908a10.242,10.242,0,0,1,3.194-7.593A10.99,10.99,0,0,1,284.688,0h22.839a35.947,35.947,0,0,1,3.917.242l.6.18a27.152,27.152,0,0,1,16.935,9.4,26.6,26.6,0,0,1,6.81,18.079,30.2,30.2,0,0,1-5.245,16.512q-7.111,11.208-20.85,11.329Zm.061-17.174h8.016a9.4,9.4,0,0,0,7.17-3.194,11.415,11.415,0,0,0,3.194-8.136,11.492,11.492,0,0,0-3.194-8.195,9.407,9.407,0,0,0-7.17-3.194H295.9Z" fill="#495e73"/>
    <path id="Pfad_29" data-name="Pfad 29" d="M144.158,92.723c-15.713,13.271-39.231,21.324-59.846,22.677A110.758,110.758,0,0,1,7.84,91.837C6.2,90.543,7.456,88.544,9.385,89.5a150.474,150.474,0,0,0,75.947,14.907,148.833,148.833,0,0,0,56.173-15.387c2.715-1.369,5.254,1.5,2.653,3.7" fill="#495e73" fill-rule="evenodd"/>
  </g>
</svg>
