<svg xmlns="http://www.w3.org/2000/svg" width="330" height="149" viewBox="0 0 330 149">
  <g id="Gruppe_1605" data-name="Gruppe 1605" transform="translate(-217 -952)">
    <rect id="Rechteck_219" data-name="Rechteck 219" width="330" height="149" rx="10" transform="translate(217 952)" fill="#feddd6"/>
    <g id="cloud-storage" transform="translate(333.04 977.208)">
      <path id="Pfad_1427" data-name="Pfad 1427" d="M50,121.8v49.888h79.053V121.8H113.729a7.707,7.707,0,0,1-7.685,7.675H70.866a5.573,5.573,0,0,1-5.11-7.675Z" transform="translate(-40.407 -98.471)" fill="#fff" fill-rule="evenodd"/>
      <path id="Pfad_1428" data-name="Pfad 1428" d="M92.484,13.934H68.065C66.1-1.714,44.715-5.028,38.138,9.373a10.825,10.825,0,0,0-7.649,4.561H5.756A5.763,5.763,0,0,0,0,19.69V77.253a5.763,5.763,0,0,0,5.756,5.756H39.22L36.136,94.522H33.77a1.919,1.919,0,0,0,0,3.838h30.7a1.919,1.919,0,0,0,0-3.838H62.1L59.02,83.009H92.484a5.763,5.763,0,0,0,5.756-5.756V19.69a5.763,5.763,0,0,0-5.756-5.756Zm-53.127-.792a1.925,1.925,0,0,0,1.911-1.276c4.59-12.437,22.887-9.319,23.074,3.958A1.919,1.919,0,0,0,66.1,17.771a5.766,5.766,0,0,1-.468,11.513H30.459a3.622,3.622,0,0,1,0-7.244,1.919,1.919,0,0,0,1.919-1.919A6.987,6.987,0,0,1,39.357,13.142Zm9.763,43a2.878,2.878,0,1,1-2.878,2.878A2.881,2.881,0,0,1,49.12,56.146ZM5.756,17.771H28.8q-.071.32-.123.647c-8.436,2.258-7.036,14.5,1.785,14.7h7.149v7.128l-4.569,3.224a6.711,6.711,0,1,0,1.975,3.3l5.619-3.966a1.919,1.919,0,0,0,.812-1.568V33.121H47.2V52.588a6.716,6.716,0,1,0,3.838,0V33.121H56.8v8.122a1.919,1.919,0,0,0,.812,1.568l5.619,3.966a6.717,6.717,0,1,0,1.975-3.3l-4.569-3.224V33.121h5c7.833.071,12.434-9.185,7.672-15.35H92.484A1.921,1.921,0,0,1,94.4,19.69V71.5H3.838V19.69A1.921,1.921,0,0,1,5.756,17.771ZM31.38,48.42A2.878,2.878,0,1,1,28.5,45.542,2.881,2.881,0,0,1,31.38,48.42Zm38.359-2.878a2.878,2.878,0,1,1-2.878,2.878A2.881,2.881,0,0,1,69.739,45.542ZM58.132,94.522H40.108l3.085-11.513H55.047ZM92.484,79.171H5.756a1.921,1.921,0,0,1-1.919-1.919V75.334H94.4v1.919A1.921,1.921,0,0,1,92.484,79.171Z" transform="translate(0 -0.193)" fill="#120b46"/>
    </g>
  </g>
</svg>
