<svg xmlns="http://www.w3.org/2000/svg" width="47.676" height="41.131" viewBox="0 0 47.676 41.131">
  <g id="beginners-guide" transform="translate(0 -35.143)">
    <g id="XMLID_367_" transform="translate(4.671 39.814)">
      <path id="XMLID_786_" d="M50.163,85.306H88.5v20.569H50.163Z" transform="translate(-50.163 -85.306)" fill="#f6f5f8"/>
    </g>
    <g id="XMLID_1568_" transform="translate(0 35.143)">
      <path id="XMLID_1571_" d="M43.951,35.143H3.725A3.729,3.729,0,0,0,0,38.868v26.2a3.729,3.729,0,0,0,3.725,3.725H18.7v5.617H16.825a.931.931,0,0,0,0,1.862H30.85a.931.931,0,0,0,0-1.862H28.976V68.794H43.951a3.729,3.729,0,0,0,3.725-3.725v-26.2A3.729,3.729,0,0,0,43.951,35.143ZM27.114,74.412H20.562V68.794h6.552Zm18.7-9.342a1.864,1.864,0,0,1-1.862,1.862H3.725A1.864,1.864,0,0,1,1.862,65.07v-26.2a1.864,1.864,0,0,1,1.862-1.862H43.951a1.864,1.864,0,0,1,1.862,1.862Z" transform="translate(0 -35.143)" fill="#120b46"/>
      <path id="XMLID_1573_" d="M238.76,336.367h-1.87a.931.931,0,0,0,0,1.862h1.87a.931.931,0,1,0,0-1.862Z" transform="translate(-213.987 -308.318)" fill="#120b46"/>
      <path id="XMLID_1574_" d="M287.094,207.7h.935a.931.931,0,0,0,0-1.862h-.935a.931.931,0,1,0,0,1.862Z" transform="translate(-259.516 -189.942)" fill="#120b46"/>
      <path id="XMLID_1575_" d="M287.094,167.536h.935a.931.931,0,0,0,0-1.862h-.935a.931.931,0,1,0,0,1.862Z" transform="translate(-259.516 -153.519)" fill="#120b46"/>
      <path id="XMLID_1576_" d="M197.662,205.836h-.935a.931.931,0,1,0,0,1.862h.935a.931.931,0,1,0,0-1.862Z" transform="translate(-177.564 -189.942)" fill="#120b46"/>
      <path id="XMLID_1577_" d="M197.662,165.674h-.935a.931.931,0,1,0,0,1.862h.935a.931.931,0,0,0,0-1.862Z" transform="translate(-177.564 -153.519)" fill="#120b46"/>
      <path id="XMLID_1580_" d="M173.393,115.469h-5.621a3.716,3.716,0,0,0-2.793,1.265,3.716,3.716,0,0,0-2.793-1.265h-5.621a.931.931,0,0,0-.931.931v13.09a.931.931,0,0,0,.931.931h16.829a.931.931,0,0,0,.931-.931V116.4A.931.931,0,0,0,173.393,115.469Zm-9.346,13.09H157.5V117.331h4.69a1.864,1.864,0,0,1,1.862,1.862Zm8.415,0H165.91v-9.365a1.864,1.864,0,0,1,1.862-1.862h4.69Z" transform="translate(-141.141 -107.989)" fill="#120b46"/>
    </g>
  </g>
</svg>
