<svg xmlns="http://www.w3.org/2000/svg" viewBox="0 0 61.74 53.56"><defs><style>.cls-1{fill:#eaf3fe;}.cls-1,.cls-10,.cls-2,.cls-3,.cls-5,.cls-6,.cls-7,.cls-8,.cls-9{stroke:#303349;}.cls-1,.cls-10,.cls-2,.cls-3,.cls-4,.cls-5,.cls-6,.cls-7,.cls-8,.cls-9{stroke-miterlimit:10;}.cls-2{fill:#9789ff;}.cls-2,.cls-3,.cls-4,.cls-6,.cls-7,.cls-8{stroke-linecap:round;}.cls-3,.cls-4,.cls-8{fill:none;}.cls-3{stroke-width:1.25px;}.cls-4{stroke:#79a5c6;}.cls-5{fill:#ffe78a;stroke-width:0.5px;}.cls-6{fill:#ff9b89;}.cls-7{fill:#0091ea;}.cls-8{stroke-width:1.5px;}.cls-9{fill:#1de9b6;}.cls-10{fill:#44c0cc;}</style></defs><title>Bestsellers</title><g id="Capa_2" data-name="Capa 2"><g id="Bestsellers"><rect class="cls-1" x="0.5" y="0.5" width="38" height="16" rx="2" ry="2"/><path class="cls-2" d="M15.67,6.5v6a1,1,0,0,1-1,1h-10a1,1,0,0,1-1-1v-6a1,1,0,0,1,1-1h1.5L6.89,4a1,1,0,0,1,.9-.55h3.76a1,1,0,0,1,.9.55l.73,1.45h1.49A1,1,0,0,1,15.67,6.5Z"/><circle class="cls-1" cx="9.67" cy="9.18" r="2.5"/><line class="cls-3" x1="18.02" y1="4.39" x2="30.02" y2="4.39"/><line class="cls-4" x1="18.02" y1="7.39" x2="34.02" y2="7.39"/><line class="cls-4" x1="18.02" y1="9.39" x2="32.02" y2="9.39"/><rect class="cls-5" x="23.82" y="11.49" width="12" height="3" rx="1" ry="1"/><rect class="cls-1" x="0.5" y="18.78" width="38" height="16" rx="2" ry="2"/><path class="cls-6" d="M15.29,25.4l-.68.68a.79.79,0,0,1-1.12,0l-.26-.26a.14.14,0,0,0-.24.1v4.87a1,1,0,0,1-1,1H7.33a1,1,0,0,1-1-1V25.92a.14.14,0,0,0-.24-.1l-.26.26a.79.79,0,0,1-1.12,0L4,25.4A1,1,0,0,1,4,24l2-2a.79.79,0,0,1,.54-.23H8.16a.14.14,0,0,1,.14.13,1.37,1.37,0,0,0,2.72,0,.14.14,0,0,1,.14-.13h1.62a.79.79,0,0,1,.54.23l2,2A1,1,0,0,1,15.29,25.4Z"/><line class="cls-3" x1="18.02" y1="22.67" x2="32.02" y2="22.67"/><line class="cls-4" x1="18.02" y1="25.67" x2="34.02" y2="25.67"/><line class="cls-4" x1="18.02" y1="27.67" x2="24.02" y2="27.67"/><rect class="cls-5" x="23.82" y="29.77" width="12" height="3" rx="1" ry="1"/><rect class="cls-1" x="0.5" y="37.06" width="38" height="16" rx="2" ry="2"/><line class="cls-3" x1="18.02" y1="40.95" x2="34.02" y2="40.95"/><line class="cls-4" x1="18.02" y1="43.95" x2="34.02" y2="43.95"/><line class="cls-4" x1="18.02" y1="45.95" x2="30.02" y2="45.95"/><rect class="cls-5" x="23.82" y="48.05" width="12" height="3" rx="1" ry="1"/><path class="cls-7" d="M5.4,39.46h6.31a1,1,0,0,1,1,1v8a1,1,0,0,1-1,1H5.4a0,0,0,0,1,0,0v-10a0,0,0,0,1,0,0Z" transform="translate(-35.4 53.51) rotate(-90)"/><line class="cls-8" x1="3.05" y1="49.32" x2="15.05" y2="49.32"/><path class="cls-9" d="M56.46,39.8l3.6,1.38a.89.89,0,0,0,1-1.42L51.87,26.66a1,1,0,0,0-1.31-.3l-5.9,4.13a1,1,0,0,0-.16,1.34l9.18,13.11a.89.89,0,0,0,1.67-.44l-.07-3.86A.85.85,0,0,1,56.46,39.8Z"/><path class="cls-9" d="M32.08,39.8l-3.6,1.38a.89.89,0,0,1-1-1.42l9.18-13.11a1,1,0,0,1,1.31-.3l5.9,4.13A1,1,0,0,1,44,31.82L34.87,44.92a.89.89,0,0,1-1.67-.44l.07-3.86A.85.85,0,0,0,32.08,39.8Z"/><path class="cls-7" d="M47.5,11.64l1.18-.57a1.24,1.24,0,0,1,1.71.71L50.82,13a1.24,1.24,0,0,0,1.24.83l1.31-.08a1.24,1.24,0,0,1,1.31,1.31l-.07,1.31a1.24,1.24,0,0,0,.83,1.24l1.24.43a1.24,1.24,0,0,1,.71,1.71l-.57,1.18a1.24,1.24,0,0,0,.29,1.47l1,.87a1.24,1.24,0,0,1,0,1.85l-1,.87a1.24,1.24,0,0,0-.29,1.47l.57,1.18a1.24,1.24,0,0,1-.71,1.71l-1.23.43A1.24,1.24,0,0,0,54.65,32l.08,1.31a1.24,1.24,0,0,1-1.31,1.31l-1.31-.07a1.24,1.24,0,0,0-1.24.83l-.43,1.24a1.24,1.24,0,0,1-1.71.71l-1.18-.57a1.24,1.24,0,0,0-1.47.29l-.87,1a1.24,1.24,0,0,1-1.85,0l-.87-1A1.24,1.24,0,0,0,41,36.78l-1.18.57a1.24,1.24,0,0,1-1.71-.71l-.43-1.23a1.24,1.24,0,0,0-1.24-.83l-1.31.08a1.24,1.24,0,0,1-1.31-1.31l.07-1.31a1.24,1.24,0,0,0-.83-1.24l-1.24-.43a1.24,1.24,0,0,1-.71-1.71l.57-1.18A1.24,1.24,0,0,0,31.42,26l-1-.87a1.24,1.24,0,0,1,0-1.85l1-.87A1.24,1.24,0,0,0,31.7,21l-.57-1.18a1.24,1.24,0,0,1,.71-1.71l1.23-.43a1.24,1.24,0,0,0,.83-1.24l-.08-1.31a1.24,1.24,0,0,1,1.31-1.31l1.31.07A1.24,1.24,0,0,0,37.67,13l.43-1.24a1.24,1.24,0,0,1,1.71-.71l1.18.57a1.24,1.24,0,0,0,1.47-.29l.87-1a1.24,1.24,0,0,1,1.85,0l.87,1A1.24,1.24,0,0,0,47.5,11.64Z"/><circle class="cls-10" cx="44.27" cy="24.21" r="8.62"/></g></g></svg>