<svg width="63" height="50" viewBox="0 0 63 50" fill="none" xmlns="http://www.w3.org/2000/svg">
<path d="M20.97 24.573H9.60501L7.72 30.105H0.00100708L11.108 0H19.556L30.663 30.105H22.858L20.97 24.573ZM19.083 18.998L15.309 7.84799L11.493 18.998H19.083Z" fill="#120B45"/>
<path d="M53.07 24.573H41.705L39.815 30.105H32.096L43.203 0H51.651L62.758 30.105H54.953L53.07 24.573ZM51.183 18.998L47.409 7.84799L43.592 18.998H51.183Z" fill="#120B45"/>
<path d="M59.113 35.279L58.925 35.403C50.747 40.787 41.225 42.86 31.38 42.86C21.535 42.86 12.015 40.787 3.83701 35.403L3.64902 35.279L0 40.822L0.188019 40.946C9.45202 47.046 20.239 49.497 31.38 49.497C42.521 49.497 53.309 47.046 62.574 40.946L62.762 40.822L59.113 35.279Z" fill="#FE6578"/>
</svg>
