<svg xmlns="http://www.w3.org/2000/svg" viewBox="0 0 48 52.08"><defs><style>.cls-1,.cls-6{fill:none;}.cls-1,.cls-2,.cls-3,.cls-4,.cls-5,.cls-6{stroke:#303349;}.cls-1,.cls-2,.cls-3,.cls-5,.cls-6{stroke-linecap:round;}.cls-1,.cls-3,.cls-4,.cls-5,.cls-6{stroke-miterlimit:10;}.cls-1{stroke-width:2px;}.cls-2{fill:#ff93b4;stroke-linejoin:round;}.cls-3{fill:#1de9b6;}.cls-4{fill:#eaf3fe;}.cls-5{fill:#9789ff;}</style></defs><title>Comparison Tables</title><g id="Capa_2" data-name="Capa 2"><g id="Comparison_Tables" data-name="Comparison Tables"><rect class="cls-1" x="1" y="1" width="46" height="50.08" rx="2" ry="2"/><path class="cls-2" d="M1,16.08H24V1H3A2,2,0,0,0,1,3Z"/><rect class="cls-3" x="1" y="16.08" width="23" height="7"/><rect class="cls-4" x="1" y="23.08" width="23" height="7"/><rect class="cls-3" x="1" y="30.08" width="23" height="7"/><rect class="cls-3" x="1" y="37.08" width="23" height="7"/><path class="cls-4" d="M1,44.08H24a0,0,0,0,1,0,0v7a0,0,0,0,1,0,0H3a2,2,0,0,1-2-2v-5A0,0,0,0,1,1,44.08Z"/><path class="cls-5" d="M47,16.08H24V1H45a2,2,0,0,1,2,2Z"/><rect class="cls-4" x="24" y="16.08" width="23" height="7" transform="translate(71 39.15) rotate(-180)"/><rect class="cls-3" x="24.01" y="23.08" width="23" height="7" transform="translate(71.02 53.15) rotate(-180)"/><rect class="cls-4" x="24" y="30.08" width="23" height="7" transform="translate(71 67.15) rotate(-180)"/><rect class="cls-3" x="24" y="37.08" width="23" height="7" transform="translate(71 81.15) rotate(-180)"/><path class="cls-3" d="M26,44.08H47a0,0,0,0,1,0,0v7a0,0,0,0,1,0,0H24a0,0,0,0,1,0,0v-5A2,2,0,0,1,26,44.08Z" transform="translate(71.01 95.15) rotate(-180)"/><line class="cls-6" x1="10.73" y1="19.79" x2="11.72" y2="20.78"/><line class="cls-6" x1="14.27" y1="18.21" x2="11.89" y2="20.94"/><line class="cls-6" x1="33.74" y1="26.79" x2="34.73" y2="27.78"/><line class="cls-6" x1="37.28" y1="25.21" x2="34.9" y2="27.94"/><line class="cls-6" x1="33.73" y1="40.79" x2="34.72" y2="41.78"/><line class="cls-6" x1="37.27" y1="39.21" x2="34.89" y2="41.94"/><line class="cls-6" x1="10.73" y1="33.79" x2="11.72" y2="34.78"/><line class="cls-6" x1="14.27" y1="32.21" x2="11.89" y2="34.94"/><line class="cls-6" x1="10.73" y1="40.79" x2="11.72" y2="41.78"/><line class="cls-6" x1="14.27" y1="39.21" x2="11.89" y2="41.94"/><line class="cls-6" x1="33.74" y1="47.79" x2="34.73" y2="48.78"/><line class="cls-6" x1="37.27" y1="46.21" x2="34.9" y2="48.94"/></g></g></svg>