<svg xmlns="http://www.w3.org/2000/svg" viewBox="0 0 60 56"><defs><style>.cls-1{fill:#0091ea;}.cls-1,.cls-10,.cls-2,.cls-6,.cls-9{stroke:#303349;}.cls-1,.cls-10,.cls-6,.cls-8,.cls-9{stroke-linecap:round;}.cls-1,.cls-10,.cls-2,.cls-6,.cls-8,.cls-9{stroke-miterlimit:10;}.cls-1,.cls-2,.cls-8,.cls-9{stroke-width:2px;}.cls-2{fill:#eaf3fe;}.cls-3{fill:#d85050;}.cls-4{fill:#ffe78a;}.cls-5{fill:#1de9b6;}.cls-6{fill:#ff9b89;}.cls-7{fill:#303349;}.cls-8,.cls-9{fill:none;}.cls-8{stroke:#79a5c6;}.cls-10{fill:#59fadb;stroke-width:0.5px;}</style></defs><title>Data Fields</title><g id="Capa_2" data-name="Capa 2"><g id="Data_Fields" data-name="Data Fields"><path class="cls-1" d="M59,3v8.6H1V3A2,2,0,0,1,3.07,1H56.93A2,2,0,0,1,59,3Z"/><path class="cls-2" d="M59,11V53.06A2,2,0,0,1,56.93,55H3.07A2,2,0,0,1,1,53.06V11Z"/><circle class="cls-3" cx="7.01" cy="6.02" r="2"/><circle class="cls-4" cx="12.93" cy="6.02" r="2"/><circle class="cls-5" cx="18.99" cy="6.02" r="2"/><path class="cls-6" d="M27.5,24.5v12a2.11,2.11,0,0,1-2.2,2H7.7a2.11,2.11,0,0,1-2.2-2v-12a2.11,2.11,0,0,1,2.2-2H25.3A2.11,2.11,0,0,1,27.5,24.5Z"/><path class="cls-7" d="M25,31.24V35.5a.58.58,0,0,1-.63.5H13.63c-.54,0-.83-.51-.47-.84l7.58-7a.71.71,0,0,1,.95,0Z"/><circle class="cls-7" cx="10.5" cy="27.5" r="2.5"/><line class="cls-8" x1="32" y1="23" x2="54" y2="23"/><line class="cls-9" x1="6" y1="17" x2="36" y2="17"/><line class="cls-8" x1="32" y1="28" x2="54" y2="28"/><line class="cls-8" x1="32" y1="33" x2="54" y2="33"/><line class="cls-8" x1="32" y1="38" x2="54" y2="38"/><line class="cls-8" x1="6" y1="43" x2="28" y2="43"/><line class="cls-8" x1="6" y1="48" x2="28" y2="48"/><rect class="cls-10" x="31.5" y="42.5" width="23" height="6" rx="2" ry="2"/></g></g></svg>