<svg xmlns="http://www.w3.org/2000/svg" width="43.211" height="41.354" viewBox="0 0 43.211 41.354">
  <g id="documentation" transform="translate(0 -11)">
    <path id="XMLID_104_" d="M80.467,111v14.347H54.3V111H50v21.943H84.771V111Z" transform="translate(-45.78 -91.56)" fill="#f6f5f8"/>
    <g id="XMLID_92_" transform="translate(0 11)">
      <path id="XMLID_93_" d="M39.835,15.22h-4.3V11.844A.844.844,0,0,0,34.687,11H8.524a.844.844,0,0,0-.844.844V15.22h-4.3A3.38,3.38,0,0,0,0,18.6V42.226A3.38,3.38,0,0,0,3.376,45.6H16.12v5.064H14.432a.844.844,0,1,0,0,1.688H28.779a.844.844,0,1,0,0-1.688H27.091V45.6H39.835a3.38,3.38,0,0,0,3.376-3.376V18.6A3.38,3.38,0,0,0,39.835,15.22ZM9.368,12.688H33.843V32.943H9.368ZM25.4,50.666h-7.6V45.6h7.6Zm16.12-8.44a1.69,1.69,0,0,1-1.688,1.688H3.376a1.69,1.69,0,0,1-1.688-1.688V18.6a1.69,1.69,0,0,1,1.688-1.688h4.3V33.787a.844.844,0,0,0,.844.844H34.687a.844.844,0,0,0,.844-.844V16.908h4.3A1.69,1.69,0,0,1,41.523,18.6Z" transform="translate(0 -11)" fill="#120b46"/>
      <path id="XMLID_98_" d="M231.844,442.688h2.532a.844.844,0,1,0,0-1.688h-2.532a.844.844,0,0,0,0,1.688Z" transform="translate(-211.505 -404.71)" fill="#120b46"/>
      <path id="XMLID_99_" d="M141.844,67.752h5.064a.844.844,0,0,0,.844-.844V61.844a.844.844,0,0,0-.844-.844h-5.064a.844.844,0,0,0-.844.844v5.064A.844.844,0,0,0,141.844,67.752Zm.844-5.064h3.376v3.376h-3.376Z" transform="translate(-129.1 -56.78)" fill="#120b46"/>
      <path id="XMLID_102_" d="M251.844,122.688h8.44a.844.844,0,0,0,0-1.688h-8.44a.844.844,0,0,0,0,1.688Z" transform="translate(-229.817 -111.716)" fill="#120b46"/>
      <path id="XMLID_103_" d="M141.844,167.752h5.064a.844.844,0,0,0,.844-.844v-5.064a.844.844,0,0,0-.844-.844h-5.064a.844.844,0,0,0-.844.844v5.064A.844.844,0,0,0,141.844,167.752Zm.844-5.064h3.376v3.376h-3.376Z" transform="translate(-129.1 -148.341)" fill="#120b46"/>
      <path id="XMLID_130_" d="M251.844,222.688h8.44a.844.844,0,0,0,0-1.688h-8.44a.844.844,0,0,0,0,1.688Z" transform="translate(-229.817 -203.277)" fill="#120b46"/>
      <path id="XMLID_131_" d="M251.844,182.688h4.22a.844.844,0,1,0,0-1.688h-4.22a.844.844,0,0,0,0,1.688Z" transform="translate(-229.817 -166.653)" fill="#120b46"/>
      <path id="XMLID_132_" d="M251.844,82.688h4.22a.844.844,0,0,0,0-1.688h-4.22a.844.844,0,1,0,0,1.688Z" transform="translate(-229.817 -75.092)" fill="#120b46"/>
    </g>
  </g>
</svg>
