<svg width="63" height="50" viewBox="0 0 63 50" fill="none" xmlns="http://www.w3.org/2000/svg">
<path d="M20.971 24.573H9.60599L7.72098 30.105H0.00198364L11.109 7.62939e-06H19.557L30.664 30.105H22.859L20.971 24.573ZM19.084 18.998L15.31 7.848L11.494 18.998H19.084Z" fill="white"/>
<path d="M53.071 24.573H41.706L39.816 30.105H32.097L43.204 7.62939e-06H51.652L62.759 30.105H54.954L53.071 24.573ZM51.184 18.998L47.41 7.848L43.593 18.998H51.184Z" fill="white"/>
<path d="M59.114 35.279L58.926 35.403C50.748 40.787 41.226 42.86 31.381 42.86C21.536 42.86 12.016 40.787 3.83798 35.403L3.64999 35.279L0.000976562 40.822L0.188995 40.946C9.453 47.046 20.24 49.497 31.381 49.497C42.522 49.497 53.31 47.046 62.575 40.946L62.763 40.822L59.114 35.279Z" fill="white"/>
</svg>
