<svg xmlns="http://www.w3.org/2000/svg" width="62.763" height="49.496" viewBox="0 0 62.763 49.496">
  <g id="Gruppe_1610" data-name="Gruppe 1610" transform="translate(-227 -52.11)">
    <g id="Gruppe_56" data-name="Gruppe 56" transform="translate(227 52.11)">
      <path id="Pfad_79" data-name="Pfad 79" d="M418.15,441.518H406.785L404.9,447.05h-7.719l11.107-30.105h8.448l11.107,30.105h-7.805Zm-1.887-5.575-3.774-11.15-3.816,11.15Z" transform="translate(-397.179 -416.945)" fill="#fff"/>
      <path id="Pfad_80" data-name="Pfad 80" d="M578.455,441.518H567.09L565.2,447.05h-7.719l11.107-30.105h8.448l11.107,30.105h-7.805Zm-1.887-5.575-3.774-11.15-3.817,11.15Z" transform="translate(-525.384 -416.945)" fill="#fff"/>
      <path id="Pfad_83" data-name="Pfad 83" d="M456.293,593.126l-.188.124c-8.178,5.384-17.7,7.457-27.545,7.457s-19.365-2.073-27.543-7.457l-.188-.124-3.649,5.543.188.124c9.264,6.1,20.051,8.551,31.192,8.551s21.929-2.451,31.194-8.551l.188-.124Z" transform="translate(-397.179 -557.847)" fill="#fe6578"/>
    </g>
  </g>
</svg>
