<svg xmlns="http://www.w3.org/2000/svg" width="824.662" height="573.603" viewBox="0 0 824.662 573.603">
  <g id="gutenberg-block" transform="translate(-867 -4874)">
    <path id="Pfad_1737" data-name="Pfad 1737" d="M58.269,0H854.393a14.269,14.269,0,0,1,14.269,14.269V559.334A14.269,14.269,0,0,1,854.393,573.6H58.269A14.269,14.269,0,0,1,44,559.334V14.269A14.269,14.269,0,0,1,58.269,0Z" transform="translate(823 4874)" fill="#d6f2ff"/>
    <g id="Gruppe_1860" data-name="Gruppe 1860" transform="translate(-22.668 3614.618)">
      <g id="Gruppe_1839" data-name="Gruppe 1839" transform="translate(926.999 1355.861)">
        <g id="shopping-online" transform="translate(136.666 26.538)">
          <path id="Pfad_1720" data-name="Pfad 1720" d="M390.345,34.073a5.573,5.573,0,1,1-5.573-5.573A5.572,5.572,0,0,1,390.345,34.073Zm0,0" transform="translate(6.506 -7.323)" fill="#474369"/>
          <path id="Pfad_1721" data-name="Pfad 1721" d="M427.044,34.073a5.573,5.573,0,1,1-5.573-5.573A5.572,5.572,0,0,1,427.044,34.073Zm0,0" transform="translate(-2.924 -7.323)" fill="#474369"/>
          <path id="Pfad_1722" data-name="Pfad 1722" d="M463.747,34.073a5.573,5.573,0,1,1-5.573-5.573A5.574,5.574,0,0,1,463.747,34.073Zm0,0" transform="translate(-12.355 -7.323)" fill="#474369"/>
          <g id="Gruppe_1861" data-name="Gruppe 1861" transform="translate(343.129 68.285)">
            <path id="Pfad_1723" data-name="Pfad 1723" d="M296.471,139.446h97.117a5.573,5.573,0,0,0,0-11.146H296.471a5.573,5.573,0,0,0,0,11.146Zm0,0" transform="translate(-290.898 -128.301)" fill="#474369"/>
            <path id="Pfad_1724" data-name="Pfad 1724" d="M296.471,176.345h97.117a5.573,5.573,0,1,0,0-11.146H296.471a5.573,5.573,0,1,0,0,11.146Zm0,0" transform="translate(-290.898 -137.782)" fill="#474369"/>
            <path id="Pfad_1725" data-name="Pfad 1725" d="M296.471,213.247h97.117a5.573,5.573,0,1,0,0-11.146H296.471a5.573,5.573,0,1,0,0,11.146Zm0,0" transform="translate(-290.898 -147.265)" fill="#474369"/>
            <path id="Pfad_1726" data-name="Pfad 1726" d="M296.471,250.146h97.117a5.573,5.573,0,1,0,0-11.146H296.471a5.573,5.573,0,0,0,0,11.146Zm0,0" transform="translate(-290.898 -156.746)" fill="#474369"/>
          </g>
          <g id="Rechteck_249" data-name="Rechteck 249" transform="translate(342.922 194.381)" fill="none" stroke="#474369" stroke-width="10">
            <rect width="109.211" height="37.362" rx="5" stroke="none"/>
            <rect x="5" y="5" width="99.211" height="27.362" fill="none"/>
          </g>
          <path id="Pfad_1730" data-name="Pfad 1730" d="M478.821,0H237.653c-3.986,0-7.118,2.525-7.118,5.573s3.229,5.573,7.118,5.573H471.7V42.353H14.237V11.146H207.664c3.985,0,7.118-2.525,7.118-5.573S211.553,0,207.664,0H7.118C3.133,0,0,2.525,0,5.573V363.5c0,3.123,3.225,5.573,7.118,5.573h112.09c3.985,0,7.118-2.525,7.118-5.573s-3.229-5.573-7.118-5.573H14.237V53.5H471.7V357.858H146.351c-3.985,0-7.118,2.525-7.118,5.573S142.461,369,146.351,369H478.821c3.985,0,7.118-2.528,7.118-5.573V5.573C485.94,2.453,482.714,0,478.821,0Zm0,0" fill="#474369"/>
          <g id="Gruppe_1833" data-name="Gruppe 1833" transform="translate(359.38 221.934)">
            <path id="Pfad_1718" data-name="Pfad 1718" d="M67.459,36.324,0,0" transform="translate(10.378 10.378)" fill="#ff677a" stroke="#ff677a" stroke-linecap="round" stroke-width="8"/>
            <g id="Gruppe_1744" data-name="Gruppe 1744" transform="translate(70.053 29.405)">
              <rect id="Rechteck_240" data-name="Rechteck 240" width="145.683" height="51.891" rx="5" transform="translate(0 0)" fill="#fff"/>
              <path id="Pfad_1789" data-name="Pfad 1789" d="M4.55-9.8H.84V0H3.08V-3.08H4.55A3.368,3.368,0,0,0,7.98-6.44,3.368,3.368,0,0,0,4.55-9.8Zm0,4.62H3.08V-7.7H4.55A1.2,1.2,0,0,1,5.74-6.44,1.2,1.2,0,0,1,4.55-5.18Zm6.44-.574V-7H8.89V0h2.1V-3.164a1.655,1.655,0,0,1,2.1-1.6V-7.14A2.1,2.1,0,0,0,10.99-5.754ZM17.22.2a3.669,3.669,0,0,0,3.71-3.7,3.669,3.669,0,0,0-3.71-3.7,3.669,3.669,0,0,0-3.71,3.7A3.669,3.669,0,0,0,17.22.2Zm0-2.044A1.57,1.57,0,0,1,15.61-3.5a1.57,1.57,0,0,1,1.61-1.652A1.57,1.57,0,0,1,18.83-3.5,1.57,1.57,0,0,1,17.22-1.848ZM27.2-9.8v3.458A2.629,2.629,0,0,0,25.116-7.2,3.515,3.515,0,0,0,21.77-3.5,3.515,3.515,0,0,0,25.116.2,2.629,2.629,0,0,0,27.2-.658V0h2.1V-9.8ZM25.536-1.792A1.6,1.6,0,0,1,23.87-3.5a1.6,1.6,0,0,1,1.666-1.708A1.6,1.6,0,0,1,27.2-3.5,1.6,1.6,0,0,1,25.536-1.792ZM35.364-7v3.822c0,.994-.532,1.442-1.3,1.442A1.154,1.154,0,0,1,32.844-3.01V-7h-2.1v4.3A2.618,2.618,0,0,0,33.362.2a2.394,2.394,0,0,0,2-.854V0h2.1V-7Zm7,7.2A3.574,3.574,0,0,0,45.528-1.61L43.694-2.66a1.435,1.435,0,0,1-1.358.784A1.541,1.541,0,0,1,40.754-3.5a1.541,1.541,0,0,1,1.582-1.624,1.45,1.45,0,0,1,1.358.784L45.528-5.4A3.607,3.607,0,0,0,42.364-7.2a3.627,3.627,0,0,0-3.71,3.7A3.627,3.627,0,0,0,42.364.2Zm8.106-5.18V-7H49.028V-8.96l-2.1.63V-7h-1.12v2.016h1.12v2.478c0,1.96.8,2.786,3.542,2.506V-1.9c-.924.056-1.442,0-1.442-.6V-4.984ZM58.8.2c2.128,0,3.64-1.12,3.64-3.01,0-2.072-1.666-2.59-3.15-3.038-1.526-.462-1.764-.77-1.764-1.218,0-.392.35-.742,1.05-.742A1.717,1.717,0,0,1,60.27-6.678l1.89-1.106A3.8,3.8,0,0,0,58.576-10a3.065,3.065,0,0,0-3.29,2.982c0,1.876,1.428,2.576,2.884,2.982s2.03.644,2.03,1.246c0,.378-.266.8-1.33.8a2.053,2.053,0,0,1-2.058-1.358L54.88-2.226A3.859,3.859,0,0,0,58.8.2ZM65.576-2.66h4.97a4.07,4.07,0,0,0,.084-.84,3.534,3.534,0,0,0-3.556-3.7A3.589,3.589,0,0,0,63.35-3.5,3.615,3.615,0,0,0,67.228.2,3.552,3.552,0,0,0,70.28-1.246L68.6-2.212a1.828,1.828,0,0,1-1.344.532A1.593,1.593,0,0,1,65.576-2.66Zm-.042-1.568A1.445,1.445,0,0,1,67.06-5.334a1.441,1.441,0,0,1,1.484,1.106ZM76.832-7v.658A2.629,2.629,0,0,0,74.746-7.2,3.515,3.515,0,0,0,71.4-3.5,3.515,3.515,0,0,0,74.746.2a2.629,2.629,0,0,0,2.086-.854V0h2.1V-7ZM75.166-1.792A1.6,1.6,0,0,1,73.5-3.5a1.6,1.6,0,0,1,1.666-1.708A1.6,1.6,0,0,1,76.832-3.5,1.6,1.6,0,0,1,75.166-1.792Zm7.406-3.962V-7h-2.1V0h2.1V-3.164a1.655,1.655,0,0,1,2.1-1.6V-7.14A2.1,2.1,0,0,0,82.572-5.754ZM88.8.2A3.574,3.574,0,0,0,91.966-1.61L90.132-2.66a1.435,1.435,0,0,1-1.358.784A1.541,1.541,0,0,1,87.192-3.5a1.541,1.541,0,0,1,1.582-1.624,1.45,1.45,0,0,1,1.358.784L91.966-5.4A3.607,3.607,0,0,0,88.8-7.2a3.627,3.627,0,0,0-3.71,3.7A3.627,3.627,0,0,0,88.8.2ZM96.908-7.2a2.394,2.394,0,0,0-2,.854V-9.8h-2.1V0h2.1V-3.822c0-.994.532-1.442,1.3-1.442A1.154,1.154,0,0,1,97.426-3.99V0h2.1V-4.3A2.618,2.618,0,0,0,96.908-7.2Z" transform="translate(21.621 29.432)" fill="#474369"/>
            </g>
            <g id="Ellipse_26" data-name="Ellipse 26" transform="translate(0 0)" fill="#ff677a" stroke="#ff677a" stroke-width="1">
              <ellipse cx="10.378" cy="10.811" rx="10.378" ry="10.811" stroke="none"/>
              <ellipse cx="10.378" cy="10.811" rx="9.878" ry="10.311" fill="none"/>
            </g>
          </g>
          <g id="Gruppe_1865" data-name="Gruppe 1865" transform="translate(33.289 68.285)">
            <g id="Gruppe_1862" data-name="Gruppe 1862">
              <path id="Pfad_1731" data-name="Pfad 1731" d="M275,301.7v70.809a5.563,5.563,0,0,0,5.573,5.573H405.627a5.565,5.565,0,0,0,5.573-5.573V301.772a5.567,5.567,0,0,0-5.573-5.573H280.573A5.5,5.5,0,0,0,275,301.7Zm11.221,5.573H400.126v59.591H286.221Zm0,0" transform="translate(-275 -296.197)" fill="#474369"/>
              <path id="Pfad_1738" data-name="Pfad 1738" d="M275,301.7v70.809a5.563,5.563,0,0,0,5.573,5.573H405.627a5.565,5.565,0,0,0,5.573-5.573V301.772a5.567,5.567,0,0,0-5.573-5.573H280.573A5.5,5.5,0,0,0,275,301.7Zm11.221,5.573H400.126v59.591H286.221Zm0,0" transform="translate(-128.889 -296.197)" fill="#474369"/>
            </g>
            <g id="Gruppe_1863" data-name="Gruppe 1863" transform="translate(0 93.399)">
              <path id="Pfad_1731-2" data-name="Pfad 1731" d="M275,301.7v70.809a5.563,5.563,0,0,0,5.573,5.573H405.627a5.565,5.565,0,0,0,5.573-5.573V301.772a5.567,5.567,0,0,0-5.573-5.573H280.573A5.5,5.5,0,0,0,275,301.7Zm11.221,5.573H400.126v59.591H286.221Zm0,0" transform="translate(-275 -296.197)" fill="#474369"/>
              <path id="Pfad_1738-2" data-name="Pfad 1738" d="M275,301.7v70.809a5.563,5.563,0,0,0,5.573,5.573H405.627a5.565,5.565,0,0,0,5.573-5.573V301.772a5.567,5.567,0,0,0-5.573-5.573H280.573A5.5,5.5,0,0,0,275,301.7Zm11.221,5.573H400.126v59.591H286.221Zm0,0" transform="translate(-128.889 -296.197)" fill="#474369"/>
            </g>
            <g id="Gruppe_1864" data-name="Gruppe 1864" transform="translate(0 186.798)">
              <path id="Pfad_1731-3" data-name="Pfad 1731" d="M275,301.7v70.809a5.563,5.563,0,0,0,5.573,5.573H405.627a5.565,5.565,0,0,0,5.573-5.573V301.772a5.567,5.567,0,0,0-5.573-5.573H280.573A5.5,5.5,0,0,0,275,301.7Zm11.221,5.573H400.126v59.591H286.221Zm0,0" transform="translate(-275 -296.197)" fill="#474369"/>
              <path id="Pfad_1738-3" data-name="Pfad 1738" d="M275,301.7v70.809a5.563,5.563,0,0,0,5.573,5.573H405.627a5.565,5.565,0,0,0,5.573-5.573V301.772a5.567,5.567,0,0,0-5.573-5.573H280.573A5.5,5.5,0,0,0,275,301.7Zm11.221,5.573H400.126v59.591H286.221Zm0,0" transform="translate(-128.889 -296.197)" fill="#474369"/>
            </g>
          </g>
        </g>
        <g id="Gruppe_1838" data-name="Gruppe 1838" transform="translate(0 0)">
          <g id="Gruppe_1837" data-name="Gruppe 1837" transform="translate(0 0)">
            <g id="Gruppe_1831" data-name="Gruppe 1831">
              <line id="Linie_46" data-name="Linie 46" x2="80.309" y2="100.96" transform="translate(97.672 31.093)" fill="none" stroke="#ff677a" stroke-linecap="round" stroke-width="8"/>
              <g id="Gruppe_1744-2" data-name="Gruppe 1744">
                <path id="Pfad_1656" data-name="Pfad 1656" d="M3.824,0h187a3.824,3.824,0,0,1,3.824,3.824V48.186a3.824,3.824,0,0,1-3.824,3.824h-187A3.824,3.824,0,0,1,0,48.186V3.824A3.824,3.824,0,0,1,3.824,0Z" fill="#fff"/>
                <path id="Pfad_1788" data-name="Pfad 1788" d="M5.516.2a4.853,4.853,0,0,0,4.2-2.268L7.784-3.192a2.518,2.518,0,0,1-2.268,1.2A2.712,2.712,0,0,1,2.66-4.9,2.712,2.712,0,0,1,5.516-7.812a2.533,2.533,0,0,1,2.268,1.2l1.932-1.12A4.888,4.888,0,0,0,5.516-10,4.968,4.968,0,0,0,.42-4.9,4.968,4.968,0,0,0,5.516.2ZM14.938-7.2a2.394,2.394,0,0,0-2,.854V-9.8h-2.1V0h2.1V-3.822c0-.994.532-1.442,1.3-1.442A1.154,1.154,0,0,1,15.456-3.99V0h2.1V-4.3A2.618,2.618,0,0,0,14.938-7.2ZM22.358.2a3.669,3.669,0,0,0,3.71-3.7,3.669,3.669,0,0,0-3.71-3.7,3.669,3.669,0,0,0-3.71,3.7A3.669,3.669,0,0,0,22.358.2Zm0-2.044A1.57,1.57,0,0,1,20.748-3.5a1.57,1.57,0,0,1,1.61-1.652A1.57,1.57,0,0,1,23.968-3.5,1.57,1.57,0,0,1,22.358-1.848ZM30.618.2a3.669,3.669,0,0,0,3.71-3.7,3.669,3.669,0,0,0-3.71-3.7,3.669,3.669,0,0,0-3.71,3.7A3.669,3.669,0,0,0,30.618.2Zm0-2.044A1.57,1.57,0,0,1,29.008-3.5a1.57,1.57,0,0,1,1.61-1.652A1.57,1.57,0,0,1,32.228-3.5,1.57,1.57,0,0,1,30.618-1.848Zm6.748-3.108c0-.252.224-.392.588-.392a1.017,1.017,0,0,1,.938.616L40.684-5.7a3.063,3.063,0,0,0-2.73-1.5c-1.456,0-2.744.77-2.744,2.3,0,2.422,3.444,2.016,3.444,2.786,0,.28-.252.434-.756.434a1.15,1.15,0,0,1-1.19-.826L34.888-1.47A3.066,3.066,0,0,0,37.9.2C39.41.2,40.81-.49,40.81-2.1,40.81-4.69,37.366-4.158,37.366-4.956Zm6.3,2.3h4.97a4.07,4.07,0,0,0,.084-.84,3.534,3.534,0,0,0-3.556-3.7A3.589,3.589,0,0,0,41.44-3.5,3.615,3.615,0,0,0,45.318.2,3.552,3.552,0,0,0,48.37-1.246l-1.68-.966a1.828,1.828,0,0,1-1.344.532A1.593,1.593,0,0,1,43.666-2.66Zm-.042-1.568A1.445,1.445,0,0,1,45.15-5.334a1.441,1.441,0,0,1,1.484,1.106ZM57.4-9.8H53.48V0H57.4a4.745,4.745,0,0,0,4.76-4.9A4.745,4.745,0,0,0,57.4-9.8Zm0,7.644H55.72V-7.644H57.4A2.523,2.523,0,0,1,60-4.9,2.523,2.523,0,0,1,57.4-2.156Zm7-5.46a1.273,1.273,0,0,0,1.26-1.26,1.273,1.273,0,0,0-1.26-1.26,1.273,1.273,0,0,0-1.26,1.26A1.273,1.273,0,0,0,64.4-7.616ZM63.35,0h2.1V-7h-2.1Zm5.558-4.956c0-.252.224-.392.588-.392a1.016,1.016,0,0,1,.938.616L72.226-5.7A3.063,3.063,0,0,0,69.5-7.2c-1.456,0-2.744.77-2.744,2.3,0,2.422,3.444,2.016,3.444,2.786,0,.28-.252.434-.756.434a1.15,1.15,0,0,1-1.19-.826L66.43-1.47A3.066,3.066,0,0,0,69.44.2c1.512,0,2.912-.686,2.912-2.3C72.352-4.69,68.908-4.158,68.908-4.956Zm8.75-2.24a2.629,2.629,0,0,0-2.086.854V-7h-2.1V2.8h2.1V-.658A2.629,2.629,0,0,0,77.658.2,3.515,3.515,0,0,0,81-3.5,3.515,3.515,0,0,0,77.658-7.2Zm-.42,5.4A1.6,1.6,0,0,1,75.572-3.5a1.6,1.6,0,0,1,1.666-1.708A1.6,1.6,0,0,1,78.9-3.5,1.6,1.6,0,0,1,77.238-1.792ZM82.194,0h2.1V-10.22h-2.1Zm8.722-7v.658A2.629,2.629,0,0,0,88.83-7.2a3.515,3.515,0,0,0-3.346,3.7A3.515,3.515,0,0,0,88.83.2a2.629,2.629,0,0,0,2.086-.854V0h2.1V-7ZM89.25-1.792A1.6,1.6,0,0,1,87.584-3.5,1.6,1.6,0,0,1,89.25-5.208,1.6,1.6,0,0,1,90.916-3.5,1.6,1.6,0,0,1,89.25-1.792ZM98.966-7,97.65-2.716,96.1-7h-2.31L96.572-.322A1.56,1.56,0,0,1,94.822.84V2.8c1.96.1,3.206-.784,3.99-3.01L101.206-7ZM107.9,0h2.856l3.192-9.8H111.5l-2.17,7.21-2.17-7.21h-2.45Zm7.588-7.616a1.273,1.273,0,0,0,1.26-1.26,1.273,1.273,0,0,0-1.26-1.26,1.273,1.273,0,0,0-1.26,1.26A1.273,1.273,0,0,0,115.486-7.616ZM114.436,0h2.1V-7h-2.1Zm5.516-2.66h4.97a4.07,4.07,0,0,0,.084-.84,3.534,3.534,0,0,0-3.556-3.7,3.589,3.589,0,0,0-3.724,3.7A3.615,3.615,0,0,0,121.6.2a3.552,3.552,0,0,0,3.052-1.442l-1.68-.966a1.828,1.828,0,0,1-1.344.532A1.593,1.593,0,0,1,119.952-2.66Zm-.042-1.568a1.445,1.445,0,0,1,1.526-1.106,1.441,1.441,0,0,1,1.484,1.106ZM133.616-7l-1.008,3.752L131.516-7h-1.96l-1.092,3.752L127.456-7h-2.24l2.24,7h1.96l1.12-3.738L131.656,0h1.96l2.24-7Z" transform="translate(26.659 29.293)" fill="#474369"/>
              </g>
              <circle id="Ellipse_26-2" data-name="Ellipse 26" cx="10.811" cy="10.811" r="10.811" transform="translate(170.878 125.546)" fill="#ff677a"/>
            </g>
          </g>
        </g>
      </g>
      <g id="Gruppe_1860-2" data-name="Gruppe 1860" transform="translate(1429.648 1349.479)">
        <path id="Pfad_1719" data-name="Pfad 1719" d="M52.756,0,0,75.242" transform="translate(11.243 45.837)" fill="#ff677a" stroke="#ff677a" stroke-linecap="round" stroke-width="8"/>
        <g id="Gruppe_1744-3" data-name="Gruppe 1744" transform="translate(58.81 0)">
          <rect id="Rechteck_240-2" data-name="Rechteck 240" width="188.538" height="51.891" rx="5" transform="translate(0)" fill="#fff"/>
          <path id="Pfad_1790" data-name="Pfad 1790" d="M5.516.2a4.853,4.853,0,0,0,4.2-2.268L7.784-3.192a2.518,2.518,0,0,1-2.268,1.2A2.712,2.712,0,0,1,2.66-4.9,2.712,2.712,0,0,1,5.516-7.812a2.533,2.533,0,0,1,2.268,1.2l1.932-1.12A4.888,4.888,0,0,0,5.516-10,4.968,4.968,0,0,0,.42-4.9,4.968,4.968,0,0,0,5.516.2ZM15.358-7v3.822c0,.994-.532,1.442-1.3,1.442A1.154,1.154,0,0,1,12.838-3.01V-7h-2.1v4.3A2.618,2.618,0,0,0,13.356.2a2.394,2.394,0,0,0,2-.854V0h2.1V-7Zm5.558,2.044c0-.252.224-.392.588-.392a1.017,1.017,0,0,1,.938.616L24.234-5.7A3.063,3.063,0,0,0,21.5-7.2c-1.456,0-2.744.77-2.744,2.3,0,2.422,3.444,2.016,3.444,2.786,0,.28-.252.434-.756.434a1.15,1.15,0,0,1-1.19-.826L18.438-1.47A3.066,3.066,0,0,0,21.448.2C22.96.2,24.36-.49,24.36-2.1,24.36-4.69,20.916-4.158,20.916-4.956ZM29.3-4.984V-7H27.86V-8.96l-2.1.63V-7H24.64v2.016h1.12v2.478c0,1.96.8,2.786,3.542,2.506V-1.9c-.924.056-1.442,0-1.442-.6V-4.984ZM33.712.2a3.669,3.669,0,0,0,3.71-3.7,3.669,3.669,0,0,0-3.71-3.7A3.669,3.669,0,0,0,30-3.5,3.669,3.669,0,0,0,33.712.2Zm0-2.044A1.57,1.57,0,0,1,32.1-3.5a1.57,1.57,0,0,1,1.61-1.652A1.57,1.57,0,0,1,35.322-3.5,1.57,1.57,0,0,1,33.712-1.848ZM46.452-7.2a2.305,2.305,0,0,0-2.03.924A2.083,2.083,0,0,0,42.588-7.2a2.149,2.149,0,0,0-1.876.84V-7h-2.1V0h2.1V-3.948c0-.826.392-1.316,1.092-1.316.672,0,1.008.448,1.008,1.148V0h2.1V-3.948c0-.826.392-1.316,1.092-1.316.672,0,1.008.448,1.008,1.148V0h2.1V-4.3A2.619,2.619,0,0,0,46.452-7.2Zm5.152-.42a1.273,1.273,0,0,0,1.26-1.26,1.273,1.273,0,0,0-1.26-1.26,1.273,1.273,0,0,0-1.26,1.26A1.273,1.273,0,0,0,51.6-7.616ZM50.554,0h2.1V-7h-2.1ZM56.8-1.96,59.444-5.6V-7h-5.32v1.96H56.63L53.984-1.4V0h5.6V-1.96Zm5.5-.7h4.97a4.07,4.07,0,0,0,.084-.84A3.534,3.534,0,0,0,63.8-7.2a3.589,3.589,0,0,0-3.724,3.7A3.615,3.615,0,0,0,63.952.2,3.552,3.552,0,0,0,67-1.246l-1.68-.966a1.828,1.828,0,0,1-1.344.532A1.593,1.593,0,0,1,62.3-2.66Zm-.042-1.568a1.445,1.445,0,0,1,1.526-1.106,1.441,1.441,0,0,1,1.484,1.106ZM80.094-9.8H77.546L75.684-6.02,73.822-9.8H71.274l3.29,6.034V0H76.8V-3.766Zm2.73,10a3.669,3.669,0,0,0,3.71-3.7,3.669,3.669,0,0,0-3.71-3.7,3.669,3.669,0,0,0-3.71,3.7A3.669,3.669,0,0,0,82.824.2Zm0-2.044A1.57,1.57,0,0,1,81.214-3.5a1.57,1.57,0,0,1,1.61-1.652A1.57,1.57,0,0,1,84.434-3.5,1.57,1.57,0,0,1,82.824-1.848ZM92.246-7v3.822c0,.994-.532,1.442-1.3,1.442A1.154,1.154,0,0,1,89.726-3.01V-7h-2.1v4.3A2.618,2.618,0,0,0,90.244.2a2.394,2.394,0,0,0,2-.854V0h2.1V-7Zm5.74,1.246V-7h-2.1V0h2.1V-3.164a1.655,1.655,0,0,1,2.1-1.6V-7.14A2.1,2.1,0,0,0,97.986-5.754ZM109.312.2a5.052,5.052,0,0,0,5.1-5.1,5.052,5.052,0,0,0-5.1-5.1,5.052,5.052,0,0,0-5.1,5.1A5.052,5.052,0,0,0,109.312.2Zm0-2.184A2.787,2.787,0,0,1,106.456-4.9a2.787,2.787,0,0,1,2.856-2.912A2.787,2.787,0,0,1,112.168-4.9,2.787,2.787,0,0,1,109.312-1.988ZM120.19-7v3.822c0,.994-.532,1.442-1.3,1.442A1.154,1.154,0,0,1,117.67-3.01V-7h-2.1v4.3A2.618,2.618,0,0,0,118.188.2a2.394,2.394,0,0,0,2-.854V0h2.1V-7Zm7.742,2.016V-7H126.49V-8.96l-2.1.63V-7h-1.12v2.016h1.12v2.478c0,1.96.8,2.786,3.542,2.506V-1.9c-.924.056-1.442,0-1.442-.6V-4.984ZM133.448-7.2a2.629,2.629,0,0,0-2.086.854V-7h-2.1V2.8h2.1V-.658A2.629,2.629,0,0,0,133.448.2a3.515,3.515,0,0,0,3.346-3.7A3.515,3.515,0,0,0,133.448-7.2Zm-.42,5.4A1.6,1.6,0,0,1,131.362-3.5a1.6,1.6,0,0,1,1.666-1.708A1.6,1.6,0,0,1,134.694-3.5,1.6,1.6,0,0,1,133.028-1.792ZM142.506-7v3.822c0,.994-.532,1.442-1.3,1.442a1.154,1.154,0,0,1-1.218-1.274V-7h-2.1v4.3A2.618,2.618,0,0,0,140.5.2a2.394,2.394,0,0,0,2-.854V0h2.1V-7Zm7.742,2.016V-7h-1.442V-8.96l-2.1.63V-7h-1.12v2.016h1.12v2.478c0,1.96.8,2.786,3.542,2.506V-1.9c-.924.056-1.442,0-1.442-.6V-4.984Z" transform="translate(15.853 30.283)" fill="#474369"/>
        </g>
        <g id="Ellipse_26-3" data-name="Ellipse 26" transform="translate(0 109.836)" fill="#ff677a" stroke="#ff677a" stroke-width="1">
          <circle cx="10.811" cy="10.811" r="10.811" stroke="none"/>
          <circle cx="10.811" cy="10.811" r="10.311" fill="none"/>
        </g>
      </g>
    </g>
  </g>
</svg>
