<svg width="55" height="16" viewBox="0 0 55 16" fill="none" xmlns="http://www.w3.org/2000/svg">
<g clip-path="url(#clip0_102_16)">
<mask id="mask0_102_16" style="mask-type:luminance" maskUnits="userSpaceOnUse" x="0" y="0" width="55" height="16">
<path d="M55 0H0V16H55V0Z" fill="white"/>
</mask>
<g mask="url(#mask0_102_16)">
<path d="M30.64 9.31051C28.9956 11.4496 27.2602 12.4629 25.1438 12.5469C24.6919 12.5649 24.0876 11.9105 24.1153 13.063C24.1354 13.8973 23.9032 14.8658 25.1679 14.8253C26.103 14.7951 26.99 14.5216 27.8351 14.1981C30.6029 13.1394 32.6954 11.2394 33.4616 7.84628C33.6719 6.91444 33.497 6.42661 32.5724 6.56857C30.0278 6.96021 27.4686 6.83268 24.914 6.83109C24.0214 6.83109 23.6017 7.18601 23.6121 8.25934C23.6228 9.38345 24.25 9.31834 24.9184 9.31442C26.7078 9.3039 28.4974 9.31088 30.6402 9.31088M34.4478 9.61243C34.54 10.6462 34.5173 11.2698 35.5645 11.0226C36.3752 10.8313 37.0585 10.4278 37.7665 10.0534C38.5 9.66543 38.6593 10.0016 38.5624 10.721C38.4254 11.7368 38.3109 12.7704 38.0483 13.7487C37.781 14.744 38.2514 14.9668 38.9054 15.0514C39.9475 15.186 40.4176 14.652 40.5578 13.4901C40.9243 10.4503 41.0233 7.2335 44.0504 5.72191C44.265 5.60443 44.4667 5.45839 44.6515 5.28683C44.9434 5.03324 45.1911 4.75579 45.1243 4.26466C45.0563 3.76496 44.7336 3.69765 44.3986 3.50587C43.7825 3.15474 43.3296 3.40282 42.8653 3.78491C40.4543 5.76768 38.0701 7.79745 35.1597 8.79355C34.7014 8.9502 34.3901 9.28101 34.4475 9.61194M29.121 5.73402C30.212 5.52144 31.4758 5.9635 32.7564 5.55142C33.6693 5.2577 33.1263 4.39488 33.4562 3.88428C33.608 3.64979 33.1783 3.57697 32.9507 3.5547C30.6017 3.32633 28.2535 3.26623 25.9033 3.5547C25.202 3.64123 25.1315 4.16137 25.1062 4.79777C25.0784 5.50345 25.3269 5.76952 25.9506 5.7443C26.9502 5.70416 27.9516 5.73353 29.1213 5.73353" fill="#FEFFFF"/>
<path d="M0 9.85598C0.985981 9.65233 1.81943 9.05227 2.5742 8.37768C3.21812 7.80247 3.58466 7.79782 3.93783 8.65917C4.27209 9.47426 4.8802 10.1043 5.26149 10.8621C5.90616 12.144 6.21284 11.5842 6.61422 10.7324C7.97326 7.84861 9.51786 5.09994 11.3923 2.61086C12.0682 1.71426 13.1845 1.27159 13.5088 0H14.2324C14.223 1.18714 14.3096 2.38298 13.9644 3.53695C12.8358 4.23651 13.2006 5.49427 13.0835 6.57212C12.2081 8.32763 10.6942 9.44624 9.64047 11.0413C8.67191 12.5072 7.55606 13.8467 6.72229 15.4337C6.47558 15.9032 6.22941 16.3218 5.68062 15.6507C4.01832 13.5968 2.10491 11.8294 0 10.4037L0 9.85598Z" fill="#FFA006"/>
<path d="M55.0002 13.689C54.3498 14.0182 53.6747 14.2985 53.0554 14.6912C52.4471 15.0767 52.1956 14.3933 51.7828 14.2323C50.3089 13.6577 48.8738 14.3201 47.425 14.36C46.9333 14.3734 46.403 14.5314 45.8917 14.5036C45.3742 14.4759 44.6746 14.8229 44.4356 13.9784C44.3354 13.6252 44.3383 13.2443 44.4437 12.8931C44.5492 12.5418 44.7515 12.2394 45.0202 12.0314C46.2796 11.009 46.5981 9.36767 47.2302 7.94371C47.6898 6.9071 47.9998 5.78054 48.3362 4.67796C48.6698 3.58591 49.2696 3.05157 50.3127 3.2753C51.0024 3.42326 51.6318 3.3393 50.9772 4.61395C49.9636 6.58792 49.2621 8.76749 48.4168 10.8539C48.064 11.7253 48.371 12.0427 49.129 12.0241C49.1692 12.0288 49.2098 12.021 49.2466 12.0017C49.8786 11.4876 50.8687 12.1832 51.2616 11.533C51.6064 10.9626 51.084 10.096 50.9504 9.35763C50.7865 8.45516 51.573 8.46568 52.0005 8.14809C52.71 7.62122 53.0142 8.43301 53.1857 8.82378C53.7122 10.0232 54.1172 11.2968 54.5028 12.5677C54.6125 12.9293 54.6732 13.2508 55.0003 13.4152L55.0002 13.689Z" fill="#54B5DE"/>
<path d="M13.0835 6.57163C13.2011 5.49464 12.8358 4.23626 13.9644 3.53646C15.0249 4.09772 16.1479 3.77205 17.243 3.82615C17.9164 3.85944 18.6044 3.75272 19.2617 3.8751C19.8206 3.97925 20.6967 3.76814 20.588 5.02002C20.5624 5.31656 20.9385 5.46453 21.2356 5.48509L21.2203 5.46844C22.512 6.67713 21.7456 7.87945 21.1116 8.94702C19.3316 11.9428 16.9237 13.9486 13.7405 14.6575C13.1113 14.7976 12.5891 14.8901 12.5621 13.9256C12.5407 13.178 12.3674 12.4436 13.4614 12.2878C15.8878 11.9419 17.707 10.371 18.9877 8.0645C19.6483 6.87466 19.4504 6.57812 18.2523 6.57139C16.5295 6.56111 14.8066 6.57029 13.0838 6.57139" fill="#54B5DE"/>
<path d="M30.64 9.31051C28.4973 9.31051 26.7075 9.30354 24.9182 9.31406C24.2498 9.31798 23.623 9.38309 23.6119 8.25897C23.6012 7.18614 24.0212 6.82999 24.9138 6.83073C27.4685 6.83244 30.0275 6.95936 32.5722 6.56821C33.4968 6.42637 33.6717 6.91383 33.4614 7.84592C32.6952 11.2394 30.6027 13.1394 27.8348 14.1977C26.9897 14.5212 26.1032 14.7947 25.1676 14.8247C23.9031 14.8655 24.1352 13.8966 24.1151 13.0624C24.0875 11.9102 24.6917 12.5643 25.1436 12.5463C27.2601 12.4623 28.9955 11.449 30.6398 9.3099" fill="#54B5DE"/>
<path d="M34.4475 9.61194C34.3901 9.2815 34.7014 8.95008 35.1597 8.79318C38.0697 7.79745 40.4544 5.76768 42.865 3.78503C43.3295 3.40282 43.7819 3.15474 44.398 3.50599C44.733 3.69728 45.0557 3.76459 45.1237 4.26478C45.1905 4.75591 44.9429 5.03336 44.6511 5.28695C44.4664 5.45858 44.2646 5.60462 44.0499 5.72203C41.0231 7.23313 40.9238 10.4498 40.5577 13.4895C40.4178 14.6522 39.9476 15.1856 38.9053 15.051C38.2515 14.9664 37.7811 14.7437 38.0484 13.7481C38.3108 12.77 38.4253 11.7371 38.5623 10.7208C38.6594 10.001 38.5001 9.66506 37.7664 10.0531C37.0585 10.4276 36.3752 10.8312 35.5644 11.0223C34.5168 11.2695 34.5397 10.646 34.4475 9.61219" fill="#54B5DE"/>
<path d="M29.1211 5.73415C27.9514 5.73415 26.95 5.70478 25.9504 5.74492C25.3271 5.77013 25.0785 5.50406 25.106 4.79839C25.1314 4.16198 25.2022 3.64184 25.9031 3.55531C28.2533 3.26624 30.6014 3.32633 32.9505 3.55531C33.1781 3.57746 33.6077 3.65041 33.456 3.8849C33.126 4.39537 33.6691 5.25819 32.7562 5.55204C31.4756 5.96411 30.2121 5.52205 29.1208 5.73464" fill="#54B5DE"/>
<path d="M21.2355 5.4857C21.2611 4.8887 20.5621 4.29525 21.3328 3.6717C21.7603 3.32584 22.1345 2.33414 22.5875 2.82246C22.9109 3.17163 23.4319 4.01364 23.1483 4.84269C22.8448 5.72986 22.182 5.53221 21.5741 5.48852C21.4565 5.47995 21.3381 5.47554 21.2202 5.46906L21.2355 5.4857Z" fill="#54B5DE"/>
</g>
</g>
<defs>
<clipPath id="clip0_102_16">
<rect width="55" height="16" fill="white"/>
</clipPath>
</defs>
</svg>
