<svg width="18" height="22" viewBox="0 0 18 22" fill="none" xmlns="http://www.w3.org/2000/svg">
<path d="M16.5716 15.5006C16.5716 15.5006 15.5363 11.2589 11.65 11.8949L9.56256 13.3053C9.56256 13.3053 13.2964 17.0653 13.873 17.2004L16.5716 15.5006Z" fill="#006CB3"/>
<path d="M16.5716 16.2258C16.5716 16.2258 17.9662 19.6918 15.456 21.6596C15.456 21.6596 15.4185 22.0375 15.0761 21.8432C15.0761 21.8432 14.9811 21.8652 14.8861 21.7135C14.8861 21.7135 14.6483 21.6596 14.6954 21.4654C14.6954 21.4654 14.5533 20.8926 15.0474 20.9032C15.0474 20.9032 15.4281 19.6625 15.1424 19.0624C15.1424 19.0624 14.0931 18.1058 14.0902 17.4033L16.5716 16.2258Z" fill="#F6BF8D"/>
<path d="M16.5885 15.2698L17.0597 16.1373L13.9238 17.8344L13.6867 17.0434L16.5885 15.2698Z" fill="#0066A9"/>
<path d="M14.3162 16.6588C14.1955 17.1538 14.3678 17.4106 14.4937 17.5237L13.9238 17.8324L13.6867 17.0414L14.3162 16.6588Z" fill="#005C9A"/>
<path d="M14.5143 17.5317C14.5143 17.5317 14.5356 18.33 14.8714 18.7897C14.8714 18.7897 14.2779 18.2575 14.1483 17.7126L14.5143 17.5317Z" fill="#EF9761"/>
<path d="M15.1416 17.386C15.1416 17.386 15.5098 17.9388 15.1416 18.8955C15.1416 18.8935 15.8456 18.2355 15.1416 17.386Z" fill="#EF9761"/>
<path d="M4.74852 14.1335C4.74852 14.1335 3.88776 16.4014 5.87214 19.0651C5.87214 19.0651 9.17084 20.2626 12.0167 18.9859C12.0167 18.9859 13.3303 16.3914 12.7611 13.751L12.6875 12.5582L5.43403 12.4457L4.74852 14.1335Z" fill="#006CB3"/>
<path d="M7.16291 16.2411C7.17541 16.2689 7.17974 16.2993 7.17548 16.3291C7.17122 16.3589 7.15853 16.3873 7.13862 16.4114C7.11877 16.4377 7.09192 16.4591 7.06053 16.4737C7.02914 16.4882 6.99421 16.4954 6.95895 16.4945H6.9538C6.90701 16.4947 6.86137 16.4814 6.82347 16.4566C6.78786 16.4329 6.76196 16.3992 6.74984 16.3608L6.67621 16.1659H6.21307L6.14753 16.3575C6.13601 16.3969 6.11006 16.4316 6.0739 16.4559C6.03608 16.4814 5.99003 16.495 5.94284 16.4945H5.92001C5.88531 16.4954 5.85092 16.4884 5.82003 16.4741C5.78914 16.4598 5.76274 16.4387 5.7433 16.4127C5.72334 16.3888 5.71039 16.3607 5.70563 16.331C5.70087 16.3014 5.70445 16.2711 5.71605 16.2431L6.10335 15.2252C6.12727 15.1644 6.17149 15.1117 6.22992 15.0746C6.28834 15.0374 6.35809 15.0175 6.42954 15.0176V15.0176C6.50111 15.017 6.57104 15.037 6.62908 15.0749C6.68704 15.1103 6.73091 15.1616 6.75426 15.2212L7.16291 16.2411ZM6.55693 15.8419L6.57092 15.8672C6.50857 15.6898 6.45949 15.5259 6.42365 15.3756H6.46562C6.43838 15.4926 6.39199 15.6476 6.32793 15.8412L6.55693 15.8419Z" fill="white"/>
<path d="M8.71358 16.2411C8.72576 16.269 8.72985 16.2993 8.72547 16.3291C8.72109 16.3589 8.70838 16.3872 8.68854 16.4114C8.66885 16.4378 8.64203 16.4594 8.6106 16.4739C8.57918 16.4885 8.54417 16.4955 8.50888 16.4945H8.50446C8.45761 16.495 8.41185 16.4817 8.37414 16.4566C8.33832 16.4331 8.31236 16.3993 8.30051 16.3608L8.22687 16.1659H7.76373L7.6982 16.3575C7.68684 16.3969 7.66085 16.4317 7.62457 16.4559C7.58703 16.4814 7.5412 16.495 7.49424 16.4945H7.47436C7.43834 16.4966 7.40235 16.4901 7.36994 16.4757C7.33753 16.4614 7.30982 16.4397 7.28954 16.4127C7.26952 16.3888 7.25658 16.3607 7.25195 16.331C7.24731 16.3013 7.25112 16.271 7.26303 16.243L7.65034 15.2252C7.67297 15.1653 7.71601 15.1133 7.7733 15.0768C7.83193 15.0378 7.90298 15.0171 7.97579 15.0176H7.97947C8.05102 15.0171 8.1209 15.0371 8.17901 15.0748C8.23676 15.1105 8.28056 15.1617 8.30419 15.2212L8.71358 16.2411ZM8.10759 15.8419L8.12158 15.8672C8.05924 15.6898 8.01015 15.5259 7.97432 15.3755H8.01629C7.98904 15.4926 7.94266 15.6476 7.8786 15.8412L8.10759 15.8419Z" fill="white"/>
<path d="M10.7009 15.023C10.7362 15.0221 10.7711 15.0293 10.8025 15.0438C10.8339 15.0583 10.8607 15.0798 10.8806 15.1061C10.9005 15.1303 10.9132 15.1588 10.9176 15.1887C10.922 15.2186 10.9178 15.249 10.9056 15.2771L10.4947 16.3042C10.4725 16.3615 10.4307 16.4109 10.3754 16.4453C10.3194 16.4808 10.2525 16.4996 10.184 16.4992H10.1796C10.1051 16.5 10.0326 16.4776 9.97415 16.436C9.91694 16.3965 9.87619 16.3407 9.85855 16.2776L9.71938 15.778L9.57212 16.2776C9.55463 16.3418 9.51298 16.3985 9.45431 16.438C9.39666 16.4784 9.32554 16.5 9.25256 16.4992H9.2474C9.17917 16.4996 9.11248 16.4808 9.0567 16.4453C9.00098 16.411 8.95871 16.3616 8.93594 16.3042L8.52508 15.2771C8.51314 15.2489 8.50925 15.2185 8.51375 15.1886C8.51825 15.1587 8.53101 15.1304 8.55085 15.1061C8.57049 15.0796 8.5973 15.058 8.62874 15.0435C8.66018 15.0289 8.69521 15.0219 8.73051 15.023H8.73566C8.78223 15.0229 8.82761 15.0362 8.86533 15.0609C8.90028 15.0848 8.92603 15.1181 8.93896 15.156L9.1142 15.6516C9.17753 15.8292 9.2276 15.9929 9.26588 16.1426H9.22391C9.24306 16.0539 9.32626 15.7354 9.47353 15.1873C9.48545 15.1409 9.51487 15.0997 9.55673 15.0708C9.59989 15.0395 9.65374 15.0225 9.70915 15.023H9.71938C9.77462 15.0222 9.82837 15.0392 9.87106 15.0708C9.91311 15.0997 9.94277 15.1409 9.955 15.1873C10.1023 15.735 10.186 16.0534 10.2061 16.1426H10.1612C10.198 15.9922 10.2488 15.8286 10.3084 15.6516L10.4844 15.1567C10.4968 15.1184 10.5226 15.0847 10.558 15.0609C10.5962 15.0359 10.6421 15.0227 10.6891 15.023H10.7009Z" fill="white"/>
<path d="M11.4306 15.9929V16.3122C11.4308 16.337 11.4254 16.3616 11.4148 16.3845C11.4042 16.4074 11.3885 16.4281 11.3687 16.4453C11.3488 16.4636 11.3249 16.478 11.2986 16.4876C11.2722 16.4972 11.244 16.5018 11.2156 16.5012V16.5012C11.1868 16.5016 11.1583 16.4967 11.1318 16.4866C11.1053 16.4765 11.0814 16.4615 11.0617 16.4426C11.0414 16.4257 11.0254 16.4051 11.0147 16.3822C11.0041 16.3592 10.999 16.3345 10.9998 16.3096V15.2066C10.9994 15.1817 11.0047 15.1571 11.0153 15.1342C11.026 15.1113 11.0418 15.0906 11.0617 15.0735C11.0821 15.0547 11.1065 15.0399 11.1335 15.0299C11.1605 15.02 11.1894 15.0151 11.2185 15.0156H11.6603C11.6849 15.0158 11.7095 15.0172 11.734 15.0196H11.7457C11.8736 15.0362 11.9902 15.0947 12.0734 15.1839C12.1597 15.2708 12.2068 15.3839 12.2052 15.5006C12.2032 15.6036 12.1682 15.7039 12.1043 15.7893C12.0628 15.8522 12.0034 15.9038 11.9323 15.9389C11.8612 15.974 11.7811 15.9913 11.7001 15.9889L11.4306 15.9929ZM11.4306 15.6929H11.586C11.6122 15.6932 11.6383 15.6883 11.6623 15.6787C11.6863 15.669 11.7077 15.6548 11.7251 15.637C11.7649 15.598 11.787 15.547 11.787 15.494C11.787 15.4409 11.7649 15.3899 11.7251 15.3509C11.7077 15.3331 11.6863 15.3189 11.6623 15.3093C11.6383 15.2996 11.6122 15.2948 11.586 15.295H11.4306V15.6929Z" fill="white"/>
<path fill-rule="evenodd" clip-rule="evenodd" d="M8.49341 16.6376C8.18931 16.8697 7.73353 17.0108 7.33445 17.0367C6.80121 17.0709 6.2731 16.9238 5.85372 16.6242C5.82205 16.6016 5.84635 16.567 5.88391 16.5837C6.34119 16.7852 6.84889 16.8751 7.35654 16.8445C7.73491 16.8213 8.10449 16.7309 8.44408 16.5783C8.49488 16.5491 8.54127 16.5996 8.49341 16.6376Z" fill="white"/>
<path d="M0.773895 15.1487C0.773895 15.1487 1.69871 11.994 5.16971 12.467L7.0348 13.5141C7.0348 13.5141 3.69928 16.3082 3.1846 16.41L0.773895 15.1487Z" fill="#006CB3"/>
<path d="M3.54612 15.4261C3.00934 16.3655 2.04182 16.8711 1.27532 16.5125C0.50881 16.1539 0.323995 15.1015 0.86077 14.1701C1.39754 13.2387 2.45342 12.7664 3.21698 13.125C3.98054 13.4835 4.08289 14.4907 3.54612 15.4261Z" fill="#006CB3"/>
<path d="M3.50635 15.4101C2.91583 16.4393 1.84081 16.9955 1.10449 16.6515C0.368172 16.3076 0.326201 15.2278 0.916728 14.1987C1.50725 13.1695 2.50938 12.5801 3.24349 12.924C3.9776 13.268 4.09688 14.381 3.50635 15.4101Z" fill="#006CB3"/>
<path d="M1.18769 13.4469C1.18769 13.4469 1.40196 12.9473 1.33496 12.4717C1.28217 12.1528 1.18954 11.8403 1.05884 11.5403C1.05884 11.5403 1.2547 11.2196 1.86069 11.3554C2.46668 11.4911 2.44238 12.4597 2.37611 12.8329C2.30984 13.2061 2.41145 13.4024 2.41145 13.4024L1.18769 13.4469Z" fill="#F2A671"/>
<path d="M1.30551 13.4423C1.41788 13.1543 1.45861 12.8474 1.4248 12.5435C1.37677 12.2265 1.29415 11.9145 1.17813 11.6122C1.17813 11.6122 1.3438 11.2928 1.86511 11.4332C2.38643 11.5736 2.37538 12.5422 2.31942 12.9147C2.26346 13.2873 2.35108 13.4064 2.35108 13.4064L1.30551 13.4423Z" fill="#F6BF8D"/>
<path d="M3.48868 15.8785C3.57998 15.812 3.66687 15.6297 3.61091 15.4294C3.56305 15.2565 3.51003 15.2126 3.40547 15.1567C3.46953 15.1327 3.63594 14.9957 3.57777 14.6544C3.54022 14.4342 3.4526 14.2925 3.3532 14.2366H3.36277C3.36277 14.2366 3.57483 14.1435 3.51003 13.759C3.45922 13.4642 3.06235 13.3798 3.06235 13.3798C3.06235 13.3798 1.857 13.2846 1.47264 13.2899C1.32384 13.2915 1.17895 13.3332 1.05664 13.4098C0.934329 13.4864 0.840206 13.5944 0.786395 13.7197C0.712763 13.898 0.704664 14.2 0.918932 14.3111C0.947577 14.326 0.977642 14.3384 1.00876 14.3484C0.934889 14.4157 0.876351 14.4955 0.836464 14.5832C0.799755 14.6819 0.791579 14.7874 0.812714 14.8898C0.833849 14.9921 0.883593 15.0879 0.95722 15.168C1.03682 15.2368 1.13554 15.2848 1.24291 15.307C1.16928 15.3735 1.10448 15.3995 1.07503 15.5232C0.889479 16.106 1.46675 16.2996 1.46012 16.3116C1.46749 16.4047 1.43509 16.4958 1.46012 16.5883C1.47813 16.6651 1.5132 16.7377 1.56321 16.8019C1.63727 16.8967 1.7439 16.9669 1.86657 17.0014C2.153 16.9802 2.63897 16.8644 3.39737 16.5398C3.39443 16.5351 3.79646 16.1958 3.48868 15.8785Z" fill="#F2A671"/>
<path d="M3.49162 15.9816C3.46364 15.9217 3.41431 15.9317 3.36645 15.8951C3.44234 15.8485 3.50068 15.782 3.5337 15.7046C3.56672 15.6273 3.57285 15.5426 3.55126 15.462C3.51371 15.2758 3.4364 15.1959 3.33847 15.1407C3.39811 15.1181 3.55936 14.9651 3.50414 14.6457C3.46879 14.4389 3.38044 14.2832 3.28766 14.2306C3.28766 14.2306 3.53948 14.1515 3.47837 13.7909C3.43124 13.5141 3.05867 13.4356 3.05867 13.4356C3.05867 13.4356 1.92916 13.3472 1.56762 13.3525C1.4287 13.3537 1.29334 13.3924 1.17884 13.4635C1.06435 13.5346 0.975906 13.6349 0.92482 13.7516C0.855606 13.9193 0.851188 14.202 1.04852 14.3071C1.07565 14.3206 1.10397 14.3319 1.1332 14.3411C1.06409 14.4047 1.0091 14.4796 0.971208 14.5619C0.937363 14.6541 0.929944 14.7526 0.949645 14.8481C0.969347 14.9436 1.01552 15.0331 1.08386 15.1081C1.1583 15.1735 1.2509 15.2194 1.35188 15.2412C1.28561 15.3077 1.22229 15.3276 1.19431 15.4407C1.02054 15.9876 1.56247 16.1685 1.55584 16.1798C1.56247 16.267 1.53228 16.3528 1.55584 16.4393C1.57265 16.5111 1.60547 16.579 1.6523 16.6389C1.72991 16.7361 1.83745 16.8106 1.96155 16.8531C2.23031 16.8331 2.68609 16.7254 3.39737 16.4207C3.46114 16.3651 3.50441 16.2932 3.52128 16.2146C3.53814 16.136 3.52779 16.0547 3.49162 15.9816V15.9816Z" fill="#F6BF8D"/>
<path d="M1.72006 14.2699C1.72006 14.2699 2.93498 14.2393 3.1117 14.2153C3.1117 14.2153 2.72882 14.0284 1.72006 14.2699Z" fill="#F2A671"/>
<path d="M1.54626 15.2345C1.54626 15.2345 3.07486 15.1573 3.25305 15.1427C3.25526 15.1434 2.63307 14.9923 1.54626 15.2345Z" fill="#F2A671"/>
<path d="M1.85037 16.0814C1.85037 16.0814 3.09254 15.9051 3.26999 15.8865C3.26999 15.8865 2.84587 15.8332 1.85037 16.0814Z" fill="#F2A671"/>
<path d="M4.48785 7.21544L4.82656 5.07197L5.65197 3.69022L12.4732 4.4087L12.6227 6.38519L4.48785 7.21544Z" fill="#F6BF8D"/>
<path d="M12.8944 5.92084H7.70925C7.97064 6.47101 7.67464 7.2467 6.81978 7.22542C6.1571 7.20945 5.49441 7.17153 4.83173 7.16887C4.76101 7.16849 4.6905 7.16203 4.62114 7.14958C4.49155 8.43353 4.17935 11.6321 4.22132 12.1969C4.22132 12.1969 4.11676 13.5374 6.03708 13.7111C6.03708 13.7111 8.62007 13.8528 10.1384 13.7896C10.1384 13.7896 13.2449 14.1681 13.4518 11.7871C13.4533 11.7891 13.2088 6.64797 12.8944 5.92084Z" fill="#F2A671"/>
<path d="M12.8944 5.92084H7.4935L7.30795 13.7709C8.17607 13.8015 9.31294 13.8281 10.1369 13.7935C10.1369 13.7935 13.2434 14.1721 13.4503 11.7911C13.4533 11.7891 13.2088 6.64797 12.8944 5.92084Z" fill="#F6BF8D"/>
<path d="M13.0689 10.9529C12.8944 8.77681 9.3689 10.3222 9.3689 10.3222C8.72315 10.4958 6.43688 10.5271 6.43688 10.5271C5.5695 9.92838 4.87884 9.76872 4.37004 9.78269C4.27432 10.8757 4.19848 11.9022 4.22278 12.1989C4.22278 12.1989 4.11822 13.5394 6.03853 13.7131C6.03853 13.7131 8.62153 13.8548 10.1398 13.7916C10.1398 13.7916 11.8834 14.0038 12.8458 13.1097C13.3899 12.0958 13.0689 10.9529 13.0689 10.9529Z" fill="#987B60"/>
<path d="M6.48991 10.3229C6.48991 10.3229 5.85594 10.4992 6.52893 10.9136L7.30796 11.1691H7.36907L7.38895 10.3229H6.48991Z" fill="#F2A671"/>
<path d="M7.36908 11.1691L9.01622 10.8365C9.01622 10.8365 9.60527 10.7746 9.40647 10.1838L7.38896 10.3249L7.36908 11.1691Z" fill="#F6BF8E"/>
<path d="M6.40156 10.3229C6.42142 10.2807 6.45045 10.2426 6.48693 10.2108C6.52341 10.179 6.56659 10.1541 6.61391 10.1377C6.66123 10.1212 6.71172 10.1136 6.76239 10.1151C6.81306 10.1166 6.86288 10.1273 6.90888 10.1466C6.90888 10.1466 6.27491 9.73279 6.40156 10.3229Z" fill="#EF9766"/>
<path d="M8.83583 10.0055C8.83583 10.0055 9.21282 9.88247 9.40795 10.1818C9.40795 10.1818 9.41752 9.62036 8.79312 9.98226" fill="#EF9766"/>
<path d="M14.3759 7.39771C14.3759 7.39771 15.8352 7.3691 16.3683 8.51269C16.3683 8.51269 15.5996 8.70096 15.0091 8.50737L14.3759 7.39771Z" fill="#0066A9"/>
<path d="M4.27359 1.04513L5.43329 2.4475L7.40588 2.09291L8.37193 0.999889L6.74614 0L6.76013 1.19015L4.27359 1.04513Z" fill="#653D32"/>
<path d="M2.44385 3.3436C2.44385 3.3436 3.60355 4.15988 4.90462 4.21177C4.90462 4.21177 4.26476 5.51236 4.49007 6.49827L4.85823 6.53819C4.85823 6.53819 5.21461 5.23028 6.10334 4.52378C6.10334 4.52378 8.92417 5.29947 11.9769 4.85641L11.5234 5.54362L12.7383 6.9114L11.798 8.88923C11.798 8.88923 12.591 9.11409 12.6058 9.14602C12.6205 9.17795 13.0998 7.77824 13.0998 7.77824L14.6844 4.92293C14.6844 4.92293 13.7441 4.24037 13.6329 4.16054C13.5217 4.08071 11.7995 3.12207 11.7995 3.12207L8.66278 2.58986L5.54006 2.79409L2.44385 3.3436Z" fill="#653D32"/>
<path d="M14.2912 5.26622C12.2781 5.15379 12.3171 3.87249 12.3171 3.87249L8.06342 4.35215L9.80628 3.51857C5.8854 4.04546 2.44312 3.34361 2.44312 3.34361C3.04395 2.42887 6.13206 1.92194 6.13206 1.92194C5.25658 1.10234 4.27065 1.04513 4.27065 1.04513C5.853 0.677902 7.615 1.3252 7.615 1.3252L6.74615 0C7.18794 0.335957 10.223 1.0245 10.223 1.0245C13.6535 1.29061 13.4172 3.14602 13.4172 3.14602H14.208C14.1085 3.15863 14.0129 3.18908 13.9266 3.23558C13.8404 3.28208 13.7653 3.34369 13.7058 3.41679C15.526 3.47466 14.5894 5.12052 14.5894 5.12052L14.2912 5.26622Z" fill="#A0503A"/>
<path d="M4.38624 6.54086C4.38624 6.54086 4.0387 7.79488 4.15725 8.37499C4.15725 8.37499 4.86264 9.49263 6.37283 8.91518C6.37283 8.91518 7.34624 8.62047 7.95517 9.12274C8.47949 9.3742 9.07422 9.48042 9.665 9.42812C10.2558 9.37582 10.8164 9.16732 11.2767 8.82869L13.0998 7.77825L13.5018 7.2141L10.5831 6.57146L8.58251 6.26677H6.61213L4.38624 6.54086Z" fill="#0066A9"/>
<path d="M6.61067 7.79355C6.63792 8.23395 6.23073 8.61248 5.70132 8.6391C5.17191 8.66571 4.72055 8.32975 4.69331 7.89001C4.66606 7.45027 5.07398 7.07107 5.60339 7.04446C6.1328 7.01785 6.58417 7.35381 6.61067 7.79355Z" fill="#F8CA99"/>
<path d="M6.36768 7.7716C6.37313 7.85326 6.35158 7.93454 6.30577 8.0051C6.25995 8.07567 6.19195 8.13233 6.1104 8.16789C6.02885 8.20345 5.93744 8.21629 5.8478 8.20478C5.75815 8.19328 5.67431 8.15795 5.60695 8.10328C5.53958 8.04862 5.49173 7.97709 5.46948 7.89779C5.44722 7.81849 5.45157 7.735 5.48198 7.65794C5.51238 7.58088 5.56745 7.51372 5.64021 7.46502C5.71296 7.41631 5.8001 7.38826 5.89055 7.38441C6.01044 7.37932 6.12774 7.41709 6.21704 7.48956C6.30634 7.56202 6.36046 7.66335 6.36768 7.7716V7.7716Z" fill="#1F140F"/>
<path d="M9.74263 8.99143C10.5113 8.95316 11.1035 8.41531 11.0654 7.79013C11.0272 7.16494 10.3732 6.68915 9.60453 6.72742C8.83587 6.7657 8.24365 7.30354 8.28179 7.92873C8.31992 8.55391 8.97396 9.0297 9.74263 8.99143Z" fill="#F8CA99"/>
<path d="M10.6347 7.72834C10.6463 7.91748 10.5851 8.10441 10.4613 8.25731C10.3375 8.41022 10.1589 8.51963 9.95593 8.56692C9.75291 8.61421 9.53802 8.59645 9.34787 8.51666C9.15772 8.43687 9.00406 8.3 8.91307 8.12935C8.82207 7.95869 8.79937 7.76482 8.84882 7.58074C8.89827 7.39666 9.01683 7.23376 9.18429 7.11979C9.35175 7.00582 9.55776 6.94782 9.76724 6.95568C9.97671 6.96353 10.1767 7.03675 10.3331 7.16287C10.4221 7.23456 10.4945 7.32141 10.5463 7.41845C10.598 7.51549 10.6281 7.6208 10.6347 7.72834V7.72834Z" fill="#1F140F"/>
<path d="M4.62628 6.02728L4.66752 6.6972C4.66752 6.6972 6.40522 6.74843 6.73877 6.98792L7.10693 5.81839L6.76234 5.7818L6.47959 6.3985C6.22347 6.21137 5.92281 6.08046 5.60123 6.01605C5.27966 5.95164 4.94593 5.95549 4.62628 6.02728Z" fill="#633426"/>
<path d="M8.31525 5.56558L8.6834 5.54695L8.70991 5.9827C8.70991 5.9827 10.3637 6.11575 11.1839 5.64009L11.4431 6.40048C11.4431 6.40048 9.91821 7.12695 8.33513 6.70517L8.31525 5.56558Z" fill="#633426"/>
<path d="M13.4223 7.1968C13.4223 7.1968 14.8478 5.48907 16.1533 6.0286C16.1533 6.0286 15.5797 7.0857 14.275 7.35912C14.275 7.35912 13.3421 7.25867 13.0925 7.79753L13.4223 7.1968Z" fill="#0066A9"/>
<path d="M13.0498 7.92327C13.0498 7.92327 12.9459 7.38507 13.9414 7.36046C13.9414 7.36046 14.825 7.37909 14.4944 8.19204C14.4944 8.19204 14.3066 9.10078 13.0954 8.79077" fill="#F6BF8D"/>
<path d="M13.6889 8.39229C13.6889 8.39229 13.468 7.5341 14.2573 7.84145C14.2573 7.84145 13.01 7.33652 13.6889 8.39229Z" fill="#F2A671"/>
<path d="M5.66965 11.5929C5.66965 11.5929 6.74172 13.5221 9.43296 12.9287C10.9895 12.5841 11.6125 11.1052 11.6125 11.1052C11.6125 11.1052 9.66932 11.8277 5.66965 11.5929Z" fill="white"/>
<path d="M7.58997 12.149C7.58997 12.149 8.26296 12.2574 8.57958 12.0738C8.57958 12.0738 9.13034 12.302 9.61042 11.9674C9.61042 11.9674 9.91746 12.2881 10.5345 11.7372C10.5345 11.7372 10.3961 12.3506 9.51617 12.1417C9.51617 12.1417 8.96099 12.4796 8.55233 12.1849C8.54865 12.1849 8.36678 12.4204 7.58997 12.149Z" fill="#BDBEC4"/>
</svg>
