<svg width="55" height="16" viewBox="0 0 55 16" fill="none" xmlns="http://www.w3.org/2000/svg">
<mask id="mask0_102_15" style="mask-type:luminance" maskUnits="userSpaceOnUse" x="0" y="0" width="55" height="16">
<path d="M55 0H0V16H55V0Z" fill="white"/>
</mask>
<g mask="url(#mask0_102_15)">
<path d="M4.72533 11.328C5.48213 10.0846 6.21285 8.88273 6.94475 7.68162C7.6402 6.54021 8.3458 5.40516 9.02585 4.25422C9.16396 4.02035 9.30377 3.92078 9.56801 3.92877C10.1371 3.94586 10.7072 3.93053 11.2768 3.93644C11.7628 3.94148 11.9238 4.21183 11.6461 4.62238C11.4165 4.96196 11.2137 5.31632 10.9941 5.66082C10.0474 7.14699 9.10463 8.6359 8.1659 10.1275C7.19317 11.664 6.23829 13.213 5.25841 14.7449C4.93933 15.2434 4.84152 15.2663 4.47969 14.8249C3.83491 14.0385 3.21397 13.2314 2.58683 12.4299C2.05931 11.7558 1.53799 11.0766 1.0124 10.401C0.716199 10.0203 0.422992 9.6367 0.115781 9.26557C0.0606544 9.20635 0.0232884 9.13215 0.00812848 9.05179C-0.00703149 8.97144 0.000652627 8.88831 0.0302667 8.8123C0.0901268 8.647 0.246725 8.64875 0.392955 8.64897C1.01593 8.64996 1.63933 8.66069 2.26187 8.64284C2.35902 8.63974 2.45537 8.66176 2.54203 8.70686C2.6287 8.75196 2.70288 8.8187 2.75775 8.90092C3.26784 9.54457 3.78018 10.1866 4.27403 10.8432C4.40652 11.0215 4.55808 11.1842 4.72586 11.328" fill="#F8991D"/>
<path d="M20.1984 5.40932C19.6165 4.21007 18.595 3.78692 17.4085 3.71867C16.5609 3.68188 15.7273 3.94844 15.0505 4.47264C14.8375 4.63049 14.7028 4.60409 14.6644 4.38501C14.6012 4.02451 14.3413 3.96952 14.0872 3.94685C13.7163 3.91398 13.3404 3.94411 12.9668 3.93896C12.7194 3.93556 12.6078 4.05431 12.6123 4.30318C12.615 4.44909 12.6103 4.59511 12.6103 4.74134C12.6103 8.20873 12.6103 11.6762 12.6103 15.1436C12.6103 15.2896 12.6183 15.436 12.6103 15.5818C12.5943 15.8856 12.7288 16.0083 13.0243 15.9997C13.4688 15.9866 13.914 15.9975 14.359 15.9964C14.9706 15.9949 14.989 15.9791 14.9932 15.3525C15.0005 14.2579 15.0032 13.163 15.0078 12.0683C14.9799 12.0345 14.9801 11.9993 15.0169 11.9781C15.0227 11.9747 15.0571 12.0231 15.0782 12.0477C16.0458 12.7368 17.1186 12.9222 18.2284 12.583C19.3204 12.2492 20.0341 11.4399 20.4157 10.3484C20.73 9.4496 20.883 8.53527 20.7616 7.55839C20.668 6.80486 20.5314 6.0969 20.1979 5.40943M18.1382 9.81109C17.979 10.4464 17.4106 10.8347 16.7605 10.8504C16.304 10.8747 15.8471 10.8082 15.4153 10.6545C15.1062 10.5378 14.9877 10.3886 14.9921 10.072C15.0006 9.43427 14.9945 8.79641 14.9945 8.15856C14.9945 7.539 15.0071 6.919 14.989 6.29988C14.9806 6.01508 15.0762 5.87618 15.3451 5.80301C15.7336 5.6973 16.1109 5.5607 16.522 5.55961C17.5008 5.55676 18.1452 6.06437 18.2684 7.0487C18.3106 7.38466 18.3774 7.72062 18.3976 8.06227C18.4333 8.66639 18.2807 9.24213 18.1382 9.81109Z" fill="#2193C2"/>
<path d="M27.2396 3.84684C26.4319 3.85845 25.7486 4.19003 25.1481 4.73028C25.011 4.85373 24.9149 5.11969 24.684 5.01355C24.5281 4.94191 24.5502 4.70487 24.4874 4.54406C24.4812 4.52818 24.4883 4.50715 24.4844 4.48929C24.3839 4.04751 24.2813 3.95386 23.8469 3.9394C23.5624 3.92998 23.2777 3.93491 22.9929 3.93819C22.4702 3.94433 22.4457 3.96448 22.4442 4.49006C22.4405 5.7306 22.4429 6.97114 22.4429 8.21158C22.4435 9.4886 22.4387 10.7656 22.4461 12.0425C22.4488 12.499 22.4624 12.5051 22.8904 12.5167C23.2459 12.5265 23.6019 12.5198 23.9577 12.5198C24.8244 12.5198 24.825 12.5198 24.8251 11.6559C24.8251 10.0688 24.8328 8.4817 24.8191 6.89479C24.8163 6.56749 24.9082 6.40975 25.2338 6.3345C25.8703 6.1876 26.5008 6.05922 27.1603 6.11651C27.6976 6.16339 27.8172 6.03085 27.8231 5.46606C27.8269 5.11948 27.8295 4.77267 27.8222 4.4262C27.8129 3.98541 27.6753 3.84015 27.2392 3.84629" fill="#2193C2"/>
<path d="M15.0078 12.0682C15.033 12.0704 15.058 12.063 15.0783 12.0476C15.0417 12.0075 15.0188 12.0166 15.0078 12.0682Z" fill="#2193C2"/>
<path d="M44.7989 3.89569C44.4122 3.80127 44.0206 3.67771 43.6111 3.7052C42.5295 3.77783 41.5316 4.09517 40.6585 4.77705C40.0419 3.75471 39.0829 3.59654 38.0647 3.73971C37.266 3.8498 36.5041 4.15213 35.8413 4.62194C35.6489 4.75876 35.557 4.75745 35.4886 4.4756C35.3924 4.07709 35.089 3.91377 34.688 3.93611C34.4748 3.94794 34.2604 3.9348 34.0466 3.93885C33.5004 3.94981 33.4417 4.0083 33.4414 4.57035C33.4399 7.00017 33.4399 9.43 33.4414 11.8598C33.4414 11.9694 33.4469 12.0789 33.447 12.1884C33.447 12.4065 33.5325 12.5206 33.7654 12.5171C34.2998 12.5093 34.8343 12.5081 35.3688 12.5231C35.6687 12.5315 35.7816 12.3547 35.8122 12.0998C35.8268 11.8994 35.8299 11.6982 35.8214 11.4973C35.8281 9.70746 35.8346 7.91754 35.8409 6.12758C35.8243 6.05484 35.8534 6.02767 35.9231 6.04115C36.3101 5.76927 36.744 5.66871 37.2068 5.63191C37.9978 5.56969 38.6255 5.71658 38.6071 6.70474C38.5825 8.03763 38.6087 9.37161 38.6125 10.705C38.6138 11.1618 38.6156 11.6185 38.6132 12.0753C38.6118 12.3571 38.7101 12.5244 39.0176 12.5198C39.5342 12.5113 40.051 12.5166 40.5675 12.5198C40.7706 12.5208 40.8817 12.4279 40.9647 12.2315C41.027 12.0615 41.0531 11.8798 41.0415 11.6986C41.0426 10.6207 41.0426 9.54282 41.0415 8.46495C41.0415 7.77068 41.0429 7.07652 41.0407 6.38226C41.0401 6.17533 41.0456 6.00193 41.2918 5.90871C41.752 5.74269 42.2307 5.63626 42.7167 5.59192C43.3166 5.52719 43.5849 5.79709 43.7404 6.42443C43.8017 6.68844 43.8301 6.95932 43.8251 7.23065C43.8257 8.80189 43.8231 10.373 43.8268 11.9442C43.828 12.4559 43.885 12.5126 44.375 12.5198C44.7848 12.5258 45.1947 12.5246 45.6043 12.5198C46.1534 12.5138 46.2055 12.4624 46.2065 11.8805C46.2096 10.0901 46.2046 8.29976 46.2097 6.50932C46.2046 6.02348 46.126 5.54139 45.9766 5.08026C45.7883 4.4641 45.4026 4.04368 44.7982 3.89602" fill="#2193C2"/>
<path d="M53.9665 10.6863C53.22 10.8973 52.4443 10.979 51.6716 10.9281C51.1418 10.9006 50.6419 10.6681 50.2729 10.2776C49.9056 9.88842 49.8593 9.39724 49.7241 8.90201C49.9664 8.8169 50.1517 8.97869 50.3561 8.99216C50.9882 9.03313 51.6175 9.00038 52.2471 8.97737C53.0843 8.94703 53.8388 8.73387 54.435 8.0522C55.0452 7.35454 55.1939 5.98024 54.7186 5.16811C54.0844 4.0852 53.0592 3.79984 51.946 3.70991C51.2427 3.66507 50.539 3.79091 49.8921 4.0772C49.0937 4.41436 48.4453 4.97477 48.0683 5.7949C47.4757 7.08386 47.4254 8.45301 47.7049 9.80933C47.9921 11.203 48.8371 12.1499 50.1915 12.607C50.7769 12.8042 51.3644 12.7743 51.9584 12.8065C52.7473 12.8492 53.4748 12.6253 54.2123 12.3934C54.5651 12.2823 54.6751 12.0365 54.7264 11.7232C54.7403 11.5778 54.7418 11.4314 54.7307 11.2857C54.7232 10.622 54.6025 10.5229 53.9665 10.6863ZM49.8229 7.05242C49.8853 5.79928 51.296 4.98496 52.375 5.57976C52.5465 5.67593 52.6835 5.82569 52.766 6.00723C52.8486 6.18877 52.8724 6.39259 52.8339 6.58896C52.786 6.80017 52.6797 6.99277 52.5278 7.14375C52.3759 7.29473 52.1848 7.39772 51.9773 7.44042C51.8893 7.45243 51.8008 7.45945 51.7121 7.46145C51.5172 7.4724 51.3222 7.48105 51.1609 7.48905C50.8 7.4586 50.4713 7.47339 50.144 7.46167C49.8167 7.44994 49.8111 7.28837 49.8233 7.05242" fill="#2193C2"/>
<path d="M29.9849 0.0157739C29.6591 0.0520317 29.2651 0.0806217 29.0493 0.424469C28.9092 0.647111 28.8252 0.901868 28.8049 1.16593C28.7845 1.42999 28.8283 1.69511 28.9324 1.93755C29.016 2.15633 29.1665 2.34147 29.3614 2.46523C29.5563 2.58899 29.785 2.64471 30.0134 2.62404C30.5932 2.62404 31.0368 2.4881 31.3456 2.02222C31.7075 1.47693 31.6118 0.933612 31.2777 0.455797C30.9761 0.0249752 30.4546 -0.0371341 29.9849 0.0152262" fill="#2193C2"/>
<path d="M35.8401 6.12801L35.9223 6.04159C35.8862 6.06002 35.8572 6.09049 35.8401 6.12801Z" fill="#2193C2"/>
<path d="M31.3934 4.45643C31.3207 4.05113 31.2067 3.94948 30.7993 3.94049C30.3544 3.93074 29.9091 3.93272 29.4641 3.93995C29.002 3.9475 28.9774 3.97818 28.9774 4.43693V8.21552H28.9855C28.9855 9.40206 28.9855 10.5887 28.9855 11.7756C28.9855 12.5194 28.9868 12.5195 29.7358 12.521C30.0385 12.5215 30.3411 12.5215 30.6438 12.521C31.3373 12.5188 31.4134 12.4431 31.4141 11.7378C31.4154 9.45592 31.4154 7.17412 31.4141 4.8924C31.42 4.74699 31.4132 4.60134 31.3936 4.4572" fill="#2193C2"/>
</g>
</svg>
