<svg xmlns="http://www.w3.org/2000/svg" width="104.879" height="100" viewBox="0 0 104.879 100">
  <g id="license-key" transform="translate(-5.121 8.063)">
    <g id="hotel-key" transform="translate(-23.168 -8.063)">
      <path id="Pfad_1742" data-name="Pfad 1742" d="M110.595,46.993,92.948,30.4V7.334A7.342,7.342,0,0,0,85.614,0H54.085a7.342,7.342,0,0,0-7.334,7.334V9.27a20.286,20.286,0,0,0-6.164,38.851V81.363a1.822,1.822,0,0,0,.271.956l6.164,9.992a1.82,1.82,0,0,0,1.548.864h0a1.82,1.82,0,0,0,1.548-.864l6.17-9.992a1.82,1.82,0,0,0,.271-.956V75.658a1.82,1.82,0,0,0-.367-1.1l-3.043-4.037,3.042-4.032a1.82,1.82,0,0,0,0-2.192L53.151,60.27l3.043-4.037a1.819,1.819,0,0,0,.367-1.1V48.12A20.287,20.287,0,0,0,50.391,9.27V7.334A3.7,3.7,0,0,1,54.086,3.64H85.614a3.7,3.7,0,0,1,3.695,3.695V30.4l-17.647,16.6a1.82,1.82,0,0,0-.573,1.326V91.355a1.82,1.82,0,0,0,1.82,1.82h36.44a1.82,1.82,0,0,0,1.82-1.82V48.318a1.82,1.82,0,0,0-.573-1.326ZM48.571,20.962a4.347,4.347,0,1,1-4.345,4.35,4.355,4.355,0,0,1,4.345-4.35Zm16.642,8.513A16.673,16.673,0,0,1,54.133,45.164a1.82,1.82,0,0,0-1.212,1.715v7.65l-3.5,4.646a1.82,1.82,0,0,0,0,2.192L52.461,65.4l-3.042,4.031a1.82,1.82,0,0,0,0,2.192l3.5,4.646v4.58L48.572,87.89l-4.345-7.043V46.879a1.82,1.82,0,0,0-1.212-1.715,16.647,16.647,0,0,1,3.737-32.237v4.607a7.989,7.989,0,1,0,3.64,0V12.927A16.669,16.669,0,0,1,65.213,29.475ZM91.128,46.584a2.98,2.98,0,1,1-2.977,2.978A2.981,2.981,0,0,1,91.128,46.584Zm16.4,42.952h-32.8V49.1l14.58-13.713V43.2a6.617,6.617,0,1,0,3.64,0V35.392l14.58,13.713Z" fill="#120b46"/>
      <g id="Gruppe_1866" data-name="Gruppe 1866" transform="translate(79.98 63.927)">
        <path id="Pfad_1743" data-name="Pfad 1743" d="M314.14,361.837l8.512,8.862a1.13,1.13,0,0,0,1.661,0l8.517-8.862c5.494-5.716-2.827-14.4-8.331-8.671l-1.016,1.052-1.011-1.052c-5.514-5.742-13.835,2.945-8.331,8.671Z" transform="translate(-312.333 -351.282)" fill="#feddd6" fill-rule="evenodd"/>
      </g>
    </g>
    <g id="Gruppe_1705" data-name="Gruppe 1705" transform="translate(76 57.937)">
      <g id="Gruppe_1698" data-name="Gruppe 1698">
        <g id="Pfad_1444" data-name="Pfad 1444" fill="#fff">
          <path d="M 17 32.5 C 12.85980033874512 32.5 8.967410087585449 30.88772010803223 6.039850234985352 27.96014976501465 C 3.112279891967773 25.03259086608887 1.5 21.14019966125488 1.5 17 C 1.5 12.85980033874512 3.112279891967773 8.967410087585449 6.039850234985352 6.039850234985352 C 8.967410087585449 3.112279891967773 12.85980033874512 1.5 17 1.5 C 21.14019966125488 1.5 25.03259086608887 3.112279891967773 27.96014976501465 6.039850234985352 C 30.88772010803223 8.967410087585449 32.5 12.85980033874512 32.5 17 C 32.5 21.14019966125488 30.88772010803223 25.03259086608887 27.96014976501465 27.96014976501465 C 25.03259086608887 30.88772010803223 21.14019966125488 32.5 17 32.5 Z" stroke="none"/>
          <path d="M 17 3 C 13.26045989990234 3 9.744760513305664 4.456249237060547 7.100509643554688 7.100509643554688 C 4.456249237060547 9.744760513305664 3 13.26045989990234 3 17 C 3 20.73954010009766 4.456249237060547 24.25524139404297 7.100509643554688 26.89949035644531 C 9.744760513305664 29.54375076293945 13.26045989990234 31 17 31 C 20.73954010009766 31 24.25524139404297 29.54375076293945 26.89949035644531 26.89949035644531 C 29.54375076293945 24.25524139404297 31 20.73954010009766 31 17 C 31 13.26045989990234 29.54375076293945 9.744760513305664 26.89949035644531 7.100509643554688 C 24.25524139404297 4.456249237060547 20.73954010009766 3 17 3 M 17 0 C 26.38883972167969 0 34 7.611160278320312 34 17 C 34 26.38883972167969 26.38883972167969 34 17 34 C 7.611160278320312 34 0 26.38883972167969 0 17 C 0 7.611160278320312 7.611160278320312 0 17 0 Z" stroke="none" fill="#120b46"/>
        </g>
      </g>
      <path id="Pfad_1784" data-name="Pfad 1784" d="M-2.783-14.7l-3.864,1.365.714,2.478,2.772-.777V0h2.9V-14.7ZM4.063.273A1.784,1.784,0,0,0,5.848-1.512,1.784,1.784,0,0,0,4.063-3.3,1.784,1.784,0,0,0,2.278-1.512,1.784,1.784,0,0,0,4.063.273Z" transform="translate(19 23.898)" fill="#120b46"/>
    </g>
  </g>
</svg>
