<svg xmlns="http://www.w3.org/2000/svg" width="104.957" height="91.937" viewBox="0 0 104.957 91.937">
  <g id="cloud-storage" transform="translate(0 0)">
    <path id="Pfad_1427" data-name="Pfad 1427" d="M50,121.8v46.722h74.036V121.8H109.685a7.218,7.218,0,0,1-7.2,7.188H69.542a5.219,5.219,0,0,1-4.786-7.188Z" transform="translate(-41.016 -99.952)" fill="#fed6ff" fill-rule="evenodd"/>
    <path id="Pfad_1428" data-name="Pfad 1428" d="M86.615,13.062H63.745C61.907-1.593,41.877-4.7,35.717,8.79a10.138,10.138,0,0,0-7.163,4.271H5.391A5.4,5.4,0,0,0,0,18.453v53.91a5.4,5.4,0,0,0,5.391,5.391h31.34L33.842,88.536H31.627a1.8,1.8,0,0,0,0,3.594H60.379a1.8,1.8,0,0,0,0-3.594H58.163L55.274,77.753h31.34a5.4,5.4,0,0,0,5.391-5.391V18.453a5.4,5.4,0,0,0-5.391-5.391ZM36.86,12.32a1.8,1.8,0,0,0,1.789-1.2C42.948-.523,60.084,2.4,60.258,14.831a1.8,1.8,0,0,0,1.651,1.824,5.4,5.4,0,0,1-.438,10.782H28.526a3.392,3.392,0,0,1,0-6.784,1.8,1.8,0,0,0,1.8-1.8A6.544,6.544,0,0,1,36.86,12.32ZM46,52.6a2.7,2.7,0,1,1-2.7,2.7A2.7,2.7,0,0,1,46,52.6ZM5.391,16.656H26.97q-.067.3-.116.606a6.992,6.992,0,0,0,1.672,13.77h6.695v6.676l-4.279,3.02a6.285,6.285,0,1,0,1.849,3.094l5.262-3.714a1.8,1.8,0,0,0,.761-1.468V31.031h5.391V49.263a6.29,6.29,0,1,0,3.594,0V31.032h5.391v7.607a1.8,1.8,0,0,0,.761,1.468l5.262,3.714a6.291,6.291,0,1,0,1.849-3.094l-4.279-3.02V31.032h4.687a9.009,9.009,0,0,0,7.185-14.376H86.615a1.8,1.8,0,0,1,1.8,1.8V66.971H3.594V18.453A1.8,1.8,0,0,1,5.391,16.656Zm24,28.7a2.7,2.7,0,1,1-2.7-2.7A2.7,2.7,0,0,1,29.388,45.359Zm35.925-2.7a2.7,2.7,0,1,1-2.7,2.7A2.7,2.7,0,0,1,65.313,42.664ZM54.443,88.536H37.563l2.889-10.782h11.1ZM86.615,74.159H5.391a1.8,1.8,0,0,1-1.8-1.8v-1.8H88.412v1.8A1.8,1.8,0,0,1,86.615,74.159Z" transform="translate(0 -0.193)" fill="#120b46"/>
    <g id="Gruppe_1706" data-name="Gruppe 1706" transform="translate(-325.043 -770.063)">
      <g id="Gruppe_1698" data-name="Gruppe 1698">
        <g id="Pfad_1444" data-name="Pfad 1444" transform="translate(396 828)" fill="#fff">
          <path d="M 17 32.5 C 12.85980033874512 32.5 8.967410087585449 30.88772010803223 6.039850234985352 27.96014976501465 C 3.112279891967773 25.03259086608887 1.5 21.14019966125488 1.5 17 C 1.5 12.85980033874512 3.112279891967773 8.967410087585449 6.039850234985352 6.039850234985352 C 8.967410087585449 3.112279891967773 12.85980033874512 1.5 17 1.5 C 21.14019966125488 1.5 25.03259086608887 3.112279891967773 27.96014976501465 6.039850234985352 C 30.88772010803223 8.967410087585449 32.5 12.85980033874512 32.5 17 C 32.5 21.14019966125488 30.88772010803223 25.03259086608887 27.96014976501465 27.96014976501465 C 25.03259086608887 30.88772010803223 21.14019966125488 32.5 17 32.5 Z" stroke="none"/>
          <path d="M 17 3 C 13.26045989990234 3 9.744760513305664 4.456249237060547 7.100509643554688 7.100509643554688 C 4.456249237060547 9.744760513305664 3 13.26045989990234 3 17 C 3 20.73954010009766 4.456249237060547 24.25524139404297 7.100509643554688 26.89949035644531 C 9.744760513305664 29.54375076293945 13.26045989990234 31 17 31 C 20.73954010009766 31 24.25524139404297 29.54375076293945 26.89949035644531 26.89949035644531 C 29.54375076293945 24.25524139404297 31 20.73954010009766 31 17 C 31 13.26045989990234 29.54375076293945 9.744760513305664 26.89949035644531 7.100509643554688 C 24.25524139404297 4.456249237060547 20.73954010009766 3 17 3 M 17 0 C 26.38883972167969 0 34 7.611160278320312 34 17 C 34 26.38883972167969 26.38883972167969 34 17 34 C 7.611160278320312 34 0 26.38883972167969 0 17 C 0 7.611160278320312 7.611160278320312 0 17 0 Z" stroke="none" fill="#120b46"/>
        </g>
      </g>
      <text id="_2." data-name="2." transform="translate(415 851.898)" fill="#120b46" font-size="21" font-family="Gilroy-Bold, Gilroy" font-weight="700"><tspan x="-8" y="0">2.</tspan></text>
    </g>
  </g>
</svg>
