<svg xmlns="http://www.w3.org/2000/svg" viewBox="0 0 59 42.23"><defs><style>.cls-1,.cls-6{fill:#eaf3fe;}.cls-1,.cls-2,.cls-3,.cls-7{stroke:#303349;}.cls-1,.cls-2,.cls-3,.cls-5,.cls-7{stroke-miterlimit:10;}.cls-2{fill:#59fadb;}.cls-2,.cls-5{stroke-linecap:round;}.cls-3{fill:#303349;stroke-width:2px;}.cls-4{fill:#0091ea;}.cls-5{fill:none;stroke:#eaf3fe;}.cls-5,.cls-7{stroke-width:0.5px;}.cls-7{fill:#ffe78a;}</style></defs><title>New Releases</title><g id="Capa_2" data-name="Capa 2"><g id="New_Releases" data-name="New Releases"><rect class="cls-1" x="32.46" y="6.03" width="26.04" height="8.68" rx="2" ry="2"/><rect class="cls-1" x="32.46" y="16.88" width="26.04" height="8.68" rx="2" ry="2"/><rect class="cls-1" x="32.46" y="27.73" width="26.04" height="8.68" rx="2" ry="2"/><circle class="cls-2" cx="21.12" cy="21.12" r="20.62"/><rect class="cls-3" x="12.57" y="8.74" width="12.62" height="27.75" rx="1.5" ry="1.5"/><rect class="cls-4" x="11.94" y="10.37" width="13.88" height="24.49" rx="1.5" ry="1.5"/><line class="cls-5" x1="17.3" y1="9.18" x2="20.46" y2="9.18"/><ellipse class="cls-6" cx="16.21" cy="9.18" rx="0.3" ry="0.31"/><path class="cls-7" d="M29.67,11.06l4.59.76a.44.44,0,0,1,0,.87l-4.59.76a.44.44,0,0,0-.36.36l-.76,4.59a.44.44,0,0,1-.87,0l-.76-4.59a.44.44,0,0,0-.36-.36L22,12.68a.44.44,0,0,1,0-.87l4.59-.76a.44.44,0,0,0,.36-.36l.76-4.59a.44.44,0,0,1,.87,0l.76,4.59A.44.44,0,0,0,29.67,11.06Z"/><path class="cls-7" d="M24.56,19.25l2.3.38a.22.22,0,0,1,0,.43l-2.3.38a.22.22,0,0,0-.18.18L24,22.91a.22.22,0,0,1-.43,0l-.38-2.3a.22.22,0,0,0-.18-.18l-2.3-.38a.22.22,0,0,1,0-.43l2.3-.38a.22.22,0,0,0,.18-.18l.38-2.3a.22.22,0,0,1,.43,0l.38,2.3A.22.22,0,0,0,24.56,19.25Z"/><path class="cls-7" d="M33.49,20.13l3.06.5a.29.29,0,0,1,0,.58l-3.06.5a.29.29,0,0,0-.24.24L32.75,25a.29.29,0,0,1-.58,0L31.67,22a.29.29,0,0,0-.24-.24l-3.06-.5a.29.29,0,0,1,0-.58l3.06-.5a.29.29,0,0,0,.24-.24l.5-3.06a.29.29,0,0,1,.58,0l.5,3.06A.29.29,0,0,0,33.49,20.13Z"/></g></g></svg>