<svg xmlns="http://www.w3.org/2000/svg" width="106.661" height="109.344" viewBox="0 0 106.661 109.344">
  <g id="products" transform="translate(1.997 8.407)">
    <g id="online-shop" transform="translate(-1.997 -8.407)">
      <g id="Gruppe_1872" data-name="Gruppe 1872" transform="translate(8.898 8.898)">
        <g id="Gruppe_1871" data-name="Gruppe 1871" transform="translate(0 0)">
          <g id="Gruppe_1869" data-name="Gruppe 1869">
            <circle id="XMLID_424_" cx="3.757" cy="3.757" r="3.757" fill="#d6f2ff"/>
            <ellipse id="XMLID_422_" cx="3.559" cy="3.757" rx="3.559" ry="3.757" transform="translate(14.633)" fill="#d6f2ff"/>
            <ellipse id="XMLID_421_" cx="3.559" cy="3.757" rx="3.559" ry="3.757" transform="translate(29.265)" fill="#d6f2ff"/>
          </g>
          <g id="XMLID_419_" transform="translate(25.504 23.694)">
            <g id="Gruppe_1870" data-name="Gruppe 1870">
              <path id="Pfad_1749" data-name="Pfad 1749" d="M240.7,228.888H190V180h50.7Z" transform="translate(-190 -180)" fill="#d6f2ff"/>
            </g>
          </g>
        </g>
      </g>
      <g id="Gruppe_1873" data-name="Gruppe 1873">
        <path id="Pfad_1750" data-name="Pfad 1750" d="M85.1,0H7.243A7.251,7.251,0,0,0,0,7.243V85.1a7.251,7.251,0,0,0,7.243,7.243H85.1A7.251,7.251,0,0,0,92.344,85.1V7.243A7.251,7.251,0,0,0,85.1,0ZM7.243,3.621H85.1a3.625,3.625,0,0,1,3.621,3.621V21.728H3.621V7.243A3.625,3.625,0,0,1,7.243,3.621ZM85.1,88.722H7.243A3.625,3.625,0,0,1,3.621,85.1V25.349h85.1V85.1A3.625,3.625,0,0,1,85.1,88.722Z" fill="#120b46"/>
        <path id="Pfad_1751" data-name="Pfad 1751" d="M311.811,63.621H337.16a1.811,1.811,0,1,0,0-3.621H311.811a1.811,1.811,0,1,0,0,3.621Z" transform="translate(-253.869 -49.136)" fill="#120b46"/>
        <path id="Pfad_1752" data-name="Pfad 1752" d="M61.728,180H41.811a1.811,1.811,0,1,0,0,3.621H61.728a1.811,1.811,0,1,0,0-3.621Z" transform="translate(-32.757 -147.408)" fill="#120b46"/>
        <path id="Pfad_1753" data-name="Pfad 1753" d="M61.728,230H41.811a1.811,1.811,0,1,0,0,3.621H61.728a1.811,1.811,0,1,0,0-3.621Z" transform="translate(-32.757 -188.355)" fill="#120b46"/>
        <path id="Pfad_1754" data-name="Pfad 1754" d="M61.728,280H41.811a1.811,1.811,0,0,0,0,3.621H61.728a1.811,1.811,0,0,0,0-3.621Z" transform="translate(-32.757 -229.301)" fill="#120b46"/>
        <path id="Pfad_1755" data-name="Pfad 1755" d="M61.728,330H41.811a1.811,1.811,0,1,0,0,3.621H61.728a1.811,1.811,0,1,0,0-3.621Z" transform="translate(-32.757 -270.248)" fill="#120b46"/>
        <path id="Pfad_1756" data-name="Pfad 1756" d="M61.728,380H41.811a1.811,1.811,0,1,0,0,3.621H61.728a1.811,1.811,0,1,0,0-3.621Z" transform="translate(-32.757 -311.195)" fill="#120b46"/>
        <path id="Pfad_1757" data-name="Pfad 1757" d="M61.728,430H41.811a1.811,1.811,0,0,0,0,3.621H61.728a1.811,1.811,0,0,0,0-3.621Z" transform="translate(-32.757 -352.142)" fill="#120b46"/>
        <path id="Pfad_1758" data-name="Pfad 1758" d="M277.16,229.053h-5.432v-1.811a7.243,7.243,0,1,0-14.485,0v1.811h-5.432A1.811,1.811,0,0,0,250,230.864v16.3a7.251,7.251,0,0,0,7.243,7.243h14.485a7.251,7.251,0,0,0,7.243-7.243v-16.3A1.811,1.811,0,0,0,277.16,229.053Zm-16.3-1.811a3.621,3.621,0,0,1,7.243,0v1.811h-7.243Zm14.485,19.917a3.625,3.625,0,0,1-3.621,3.621H257.243a3.625,3.625,0,0,1-3.621-3.621V232.675h3.621V236.3a1.811,1.811,0,1,0,3.621,0v-3.621h7.243V236.3a1.811,1.811,0,1,0,3.621,0v-3.621h3.621Z" transform="translate(-204.733 -180.165)" fill="#120b46"/>
      </g>
    </g>
    <g id="Gruppe_1707" data-name="Gruppe 1707" transform="translate(70.664 66.937)">
      <g id="Gruppe_1698" data-name="Gruppe 1698">
        <g id="Pfad_1444" data-name="Pfad 1444" fill="#fff">
          <path d="M 17 32.5 C 12.85980033874512 32.5 8.967410087585449 30.88772010803223 6.039850234985352 27.96014976501465 C 3.112279891967773 25.03259086608887 1.5 21.14019966125488 1.5 17 C 1.5 12.85980033874512 3.112279891967773 8.967410087585449 6.039850234985352 6.039850234985352 C 8.967410087585449 3.112279891967773 12.85980033874512 1.5 17 1.5 C 21.14019966125488 1.5 25.03259086608887 3.112279891967773 27.96014976501465 6.039850234985352 C 30.88772010803223 8.967410087585449 32.5 12.85980033874512 32.5 17 C 32.5 21.14019966125488 30.88772010803223 25.03259086608887 27.96014976501465 27.96014976501465 C 25.03259086608887 30.88772010803223 21.14019966125488 32.5 17 32.5 Z" stroke="none"/>
          <path d="M 17 3 C 13.26045989990234 3 9.744760513305664 4.456249237060547 7.100509643554688 7.100509643554688 C 4.456249237060547 9.744760513305664 3 13.26045989990234 3 17 C 3 20.73954010009766 4.456249237060547 24.25524139404297 7.100509643554688 26.89949035644531 C 9.744760513305664 29.54375076293945 13.26045989990234 31 17 31 C 20.73954010009766 31 24.25524139404297 29.54375076293945 26.89949035644531 26.89949035644531 C 29.54375076293945 24.25524139404297 31 20.73954010009766 31 17 C 31 13.26045989990234 29.54375076293945 9.744760513305664 26.89949035644531 7.100509643554688 C 24.25524139404297 4.456249237060547 20.73954010009766 3 17 3 M 17 0 C 26.38883972167969 0 34 7.611160278320312 34 17 C 34 26.38883972167969 26.38883972167969 34 17 34 C 7.611160278320312 34 0 26.38883972167969 0 17 C 0 7.611160278320312 7.611160278320312 0 17 0 Z" stroke="none" fill="#120b46"/>
        </g>
      </g>
      <path id="Pfad_1786" data-name="Pfad 1786" d="M-.914-8.736l2.751-3.57V-14.7H-7.4v2.709h5.754l-2.9,3.78,1.113,1.68h.63c1.512,0,2.352.819,2.352,1.995,0,1.2-.84,2-2.352,2a2.4,2.4,0,0,1-2.562-1.7L-7.844-2.814A5.137,5.137,0,0,0-2.8.294c2.772,0,5.25-1.68,5.25-4.83A4.341,4.341,0,0,0-.914-8.736ZM5.512.273A1.784,1.784,0,0,0,7.3-1.512,1.784,1.784,0,0,0,5.512-3.3,1.784,1.784,0,0,0,3.727-1.512,1.784,1.784,0,0,0,5.512.273Z" transform="translate(19 23.898)" fill="#120b46"/>
    </g>
  </g>
</svg>
