<svg xmlns="http://www.w3.org/2000/svg" width="50.077" height="42.82" viewBox="0 0 50.077 42.82">
  <g id="product-comparison" transform="translate(-722.269 -765.971)">
    <rect id="Rechteck_250" data-name="Rechteck 250" width="10" height="10" transform="translate(728.378 784.661)" fill="#fff"/>
    <path id="Pfad_1777" data-name="Pfad 1777" d="M727.574,808.189h28.3a.36.36,0,1,0,0-.719h-28.3a3.99,3.99,0,0,1-3.986-3.986V774.107h40.18v20.8a.36.36,0,0,0,.719,0V771.276a4.71,4.71,0,0,0-4.7-4.7H727.574a4.71,4.71,0,0,0-4.7,4.7v32.208A4.71,4.71,0,0,0,727.574,808.189Zm0-40.9h32.208a3.99,3.99,0,0,1,3.986,3.986v2.112h-40.18v-2.112A3.99,3.99,0,0,1,727.574,767.29Z" fill="#120b46" stroke="#120b46" stroke-width="1.2"/>
    <path id="Pfad_1778" data-name="Pfad 1778" d="M985.812,870.562a2.038,2.038,0,1,0-2.038-2.038A2.04,2.04,0,0,0,985.812,870.562Zm0-3.356a1.319,1.319,0,1,1-1.319,1.319A1.32,1.32,0,0,1,985.812,867.205Z" transform="translate(-256.504 -98.229)" fill="#120b46" stroke="#120b46" stroke-width="1.2"/>
    <path id="Pfad_1779" data-name="Pfad 1779" d="M2609.725,2574.226a.363.363,0,0,0,.68,0l3.652-10.589a.36.36,0,0,0-.68-.235l-3.312,9.6-3.312-9.6a.36.36,0,0,0-.68.235Z" transform="translate(-1851.413 -1766.279)" fill="#120b46" stroke="#120b46" stroke-width="1.2"/>
    <path id="Pfad_1780" data-name="Pfad 1780" d="M3195.79,2568.447h-1.214a2.288,2.288,0,1,1,0-4.575h1.012a2.29,2.29,0,0,1,2.288,2.288.36.36,0,0,0,.719,0,3.01,3.01,0,0,0-3.007-3.007h-1.012a3.007,3.007,0,0,0,0,6.014h1.214a2.288,2.288,0,0,1,0,4.575h-1.012a2.29,2.29,0,0,1-2.288-2.288.36.36,0,1,0-.719,0,3.01,3.01,0,0,0,3.007,3.007h1.012a3.007,3.007,0,0,0,0-6.014Z" transform="translate(-2427.051 -1766.271)" fill="#120b46" stroke="#120b46" stroke-width="1.2"/>
    <path id="Pfad_1781" data-name="Pfad 1781" d="M2142.077,1799.375h9.49a1.55,1.55,0,0,0,1.316-2.369l-4.745-7.629a1.55,1.55,0,0,0-2.633,0l-4.745,7.629a1.55,1.55,0,0,0,1.316,2.369Zm-.706-1.989,4.745-7.629a.831.831,0,0,1,1.411,0l4.745,7.629a.831.831,0,0,1-.706,1.27h-9.49a.831.831,0,0,1-.706-1.27Z" transform="translate(-1393.738 -1004.831)" fill="#120b46" stroke="#120b46" stroke-width="1.2"/>
    <path id="Pfad_1782" data-name="Pfad 1782" d="M1026.492,1788.645a1.009,1.009,0,0,0-1.008,1.008v8.713a1.009,1.009,0,0,0,1.008,1.008h8.713a1.009,1.009,0,0,0,1.008-1.008v-8.713a1.009,1.009,0,0,0-1.008-1.008Zm9,1.008v8.713a.289.289,0,0,1-.289.289h-8.713a.289.289,0,0,1-.289-.289v-8.713a.289.289,0,0,1,.289-.289h8.713A.289.289,0,0,1,1035.494,1789.653Z" transform="translate(-297.51 -1004.831)" fill="#120b46" stroke="#120b46" stroke-width="1.2"/>
    <path id="Pfad_1783" data-name="Pfad 1783" d="M1802.53,1563.947a.36.36,0,0,0-.449.239l-5.881,19.179a.36.36,0,1,0,.688.211l5.881-19.179A.36.36,0,0,0,1802.53,1563.947Z" transform="translate(-1055.207 -783.908)" fill="#120b46" stroke="#120b46" stroke-width="1.2"/>
  </g>
</svg>
