<svg id="product-box-3" xmlns="http://www.w3.org/2000/svg" width="42.779" height="42.779" viewBox="0 0 42.779 42.779">
  <g id="Gruppe_1872" data-name="Gruppe 1872" transform="translate(4.122 4.122)">
    <g id="Gruppe_1871" data-name="Gruppe 1871" transform="translate(0 0)">
      <g id="Gruppe_1869" data-name="Gruppe 1869">
        <circle id="XMLID_424_" cx="1.74" cy="1.74" r="1.74" fill="#fff"/>
        <ellipse id="XMLID_422_" cx="1.649" cy="1.74" rx="1.649" ry="1.74" transform="translate(6.779)" fill="#fff"/>
        <ellipse id="XMLID_421_" cx="1.649" cy="1.74" rx="1.649" ry="1.74" transform="translate(13.557)" fill="#fff"/>
      </g>
      <g id="XMLID_419_" transform="translate(11.815 10.976)">
        <g id="Gruppe_1870" data-name="Gruppe 1870">
          <path id="Pfad_1749" data-name="Pfad 1749" d="M213.487,202.648H190V180h23.487Z" transform="translate(-190 -180)" fill="#fff"/>
        </g>
      </g>
    </g>
  </g>
  <g id="Gruppe_1873" data-name="Gruppe 1873">
    <path id="Pfad_1750" data-name="Pfad 1750" d="M39.424,0H3.355A3.359,3.359,0,0,0,0,3.355V39.424a3.359,3.359,0,0,0,3.355,3.355H39.424a3.359,3.359,0,0,0,3.355-3.355V3.355A3.359,3.359,0,0,0,39.424,0ZM3.355,1.678H39.424A1.68,1.68,0,0,1,41.1,3.355v6.71H1.678V3.355A1.68,1.68,0,0,1,3.355,1.678ZM39.424,41.1H3.355a1.68,1.68,0,0,1-1.678-1.678V11.743H41.1V39.424A1.68,1.68,0,0,1,39.424,41.1Z" fill="#120b46"/>
    <path id="Pfad_1751" data-name="Pfad 1751" d="M310.839,61.678h11.743a.839.839,0,0,0,0-1.678H310.839a.839.839,0,0,0,0,1.678Z" transform="translate(-283.997 -54.967)" fill="#120b46"/>
    <path id="Pfad_1752" data-name="Pfad 1752" d="M50.066,180H40.839a.839.839,0,1,0,0,1.678h9.227a.839.839,0,1,0,0-1.678Z" transform="translate(-36.645 -164.901)" fill="#120b46"/>
    <path id="Pfad_1753" data-name="Pfad 1753" d="M50.066,230H40.839a.839.839,0,1,0,0,1.678h9.227a.839.839,0,1,0,0-1.678Z" transform="translate(-36.645 -210.707)" fill="#120b46"/>
    <path id="Pfad_1754" data-name="Pfad 1754" d="M50.066,280H40.839a.839.839,0,0,0,0,1.678h9.227a.839.839,0,0,0,0-1.678Z" transform="translate(-36.645 -256.513)" fill="#120b46"/>
    <path id="Pfad_1755" data-name="Pfad 1755" d="M50.066,330H40.839a.839.839,0,1,0,0,1.678h9.227a.839.839,0,1,0,0-1.678Z" transform="translate(-36.645 -302.319)" fill="#120b46"/>
    <path id="Pfad_1756" data-name="Pfad 1756" d="M50.066,380H40.839a.839.839,0,1,0,0,1.678h9.227a.839.839,0,1,0,0-1.678Z" transform="translate(-36.645 -348.125)" fill="#120b46"/>
    <path id="Pfad_1757" data-name="Pfad 1757" d="M50.066,430H40.839a.839.839,0,1,0,0,1.678h9.227a.839.839,0,1,0,0-1.678Z" transform="translate(-36.645 -393.931)" fill="#120b46"/>
    <path id="Pfad_1758" data-name="Pfad 1758" d="M262.582,224.194h-2.516v-.839a3.355,3.355,0,1,0-6.71,0v.839h-2.516a.839.839,0,0,0-.839.839v7.549a3.359,3.359,0,0,0,3.355,3.355h6.71a3.359,3.359,0,0,0,3.355-3.355v-7.549A.839.839,0,0,0,262.582,224.194Zm-7.549-.839a1.678,1.678,0,1,1,3.355,0v.839h-3.355Zm6.71,9.227a1.68,1.68,0,0,1-1.678,1.678h-6.71a1.68,1.68,0,0,1-1.678-1.678v-6.71h1.678v1.678a.839.839,0,1,0,1.678,0v-1.678h3.355v1.678a.839.839,0,1,0,1.678,0v-1.678h1.678Z" transform="translate(-229.03 -201.546)" fill="#120b46"/>
  </g>
</svg>
