<svg id="cloud-storage" xmlns="http://www.w3.org/2000/svg" width="117.865" height="117.776" viewBox="0 0 117.865 117.776">
  <path id="Pfad_1427" data-name="Pfad 1427" d="M50,121.8v59.853h94.844V121.8H126.459a9.247,9.247,0,0,1-9.22,9.208H75.034A6.686,6.686,0,0,1,68.9,121.8Z" transform="translate(-38.491 -93.809)" fill="#fff" fill-rule="evenodd"/>
  <path id="Pfad_1428" data-name="Pfad 1428" d="M110.959,16.678h-29.3C79.307-2.094,53.648-6.071,45.756,11.207a12.987,12.987,0,0,0-9.176,5.472H6.906A6.914,6.914,0,0,0,0,23.585V92.646a6.914,6.914,0,0,0,6.906,6.906H47.055l-3.7,13.813H40.516a2.3,2.3,0,0,0,0,4.6H77.349a2.3,2.3,0,0,0,0-4.6H74.511l-3.7-13.813h40.149a6.914,6.914,0,0,0,6.906-6.906V23.585a6.914,6.914,0,0,0-6.906-6.906Zm-63.739-.95A2.309,2.309,0,0,0,49.512,14.2C55.019-.724,76.971,3.017,77.194,18.946a2.3,2.3,0,0,0,2.115,2.337A6.918,6.918,0,0,1,78.749,35.1h-42.2a4.345,4.345,0,0,1,0-8.691,2.3,2.3,0,0,0,2.3-2.3A8.383,8.383,0,0,1,47.219,15.729ZM58.933,67.323a3.453,3.453,0,1,1-3.453,3.453A3.457,3.457,0,0,1,58.933,67.323ZM6.906,21.283H34.55q-.085.384-.148.777c-10.121,2.709-8.441,17.391,2.142,17.64H45.12v8.552l-5.481,3.868a8.052,8.052,0,1,0,2.369,3.963l6.742-4.758a2.3,2.3,0,0,0,.975-1.881V39.7H56.63V63.054c-8.771,2.78-7.007,15.582,2.3,15.779,9.31-.2,11.071-13,2.3-15.779V39.7H68.14v9.745a2.3,2.3,0,0,0,.975,1.881l6.742,4.758a8.059,8.059,0,1,0,2.369-3.963l-5.481-3.868V39.7h6c9.4.085,14.918-11.02,9.2-18.417h23.005a2.3,2.3,0,0,1,2.3,2.3V85.74H4.6V23.585A2.3,2.3,0,0,1,6.906,21.283ZM37.648,58.054A3.453,3.453,0,1,1,34.2,54.6,3.457,3.457,0,0,1,37.648,58.054ZM83.67,54.6a3.453,3.453,0,1,1-3.453,3.453A3.457,3.457,0,0,1,83.67,54.6ZM69.745,113.365H48.121l3.7-13.813H66.044Zm41.214-18.417H6.906a2.3,2.3,0,0,1-2.3-2.3v-2.3H113.261v2.3A2.3,2.3,0,0,1,110.959,94.948Z" transform="translate(0 -0.193)" fill="#120b46"/>
</svg>
