<svg xmlns="http://www.w3.org/2000/svg" viewBox="0 0 63 54.15"><defs><style>.cls-1{fill:#1de9b6;}.cls-1,.cls-2,.cls-3,.cls-4,.cls-7,.cls-8,.cls-9{stroke:#303349;}.cls-1,.cls-2,.cls-3,.cls-4,.cls-5,.cls-6,.cls-7,.cls-8,.cls-9{stroke-miterlimit:10;}.cls-2,.cls-3,.cls-5,.cls-6,.cls-8{fill:none;}.cls-2,.cls-3,.cls-5,.cls-6,.cls-8,.cls-9{stroke-linecap:round;}.cls-2{stroke-width:3px;}.cls-3,.cls-5{stroke-width:1.5px;}.cls-4{fill:#eaf3fe;}.cls-5{stroke:#9789ff;}.cls-6{stroke:#79a5c6;}.cls-7{fill:#ffe78a;stroke-width:0.5px;}.cls-9{fill:#0091ea;}</style></defs><title>Product Boxes</title><g id="Capa_2" data-name="Capa 2"><g id="Product_Box" data-name="Product Box"><path class="cls-1" d="M62.5,2.47V51.74a2.08,2.08,0,0,1-2.21,1.91H2.71A2.08,2.08,0,0,1,.5,51.74V2.47A2.11,2.11,0,0,1,2.71.5H60.29A2.11,2.11,0,0,1,62.5,2.47Z"/><line class="cls-2" x1="15.03" y1="8.59" x2="47.03" y2="8.59"/><line class="cls-3" x1="6" y1="16.7" x2="34" y2="16.7"/><line class="cls-3" x1="6" y1="26.7" x2="34" y2="26.7"/><line class="cls-3" x1="6" y1="21.7" x2="34" y2="21.7"/><line class="cls-3" x1="6" y1="31.7" x2="34" y2="31.7"/><line class="cls-3" x1="6" y1="36.7" x2="34" y2="36.7"/><line class="cls-3" x1="9.5" y1="41.7" x2="30.5" y2="41.7"/><rect class="cls-4" x="39" y="15.7" width="20" height="32" rx="2" ry="2"/><line class="cls-5" x1="43" y1="34.16" x2="55" y2="34.16"/><line class="cls-6" x1="42" y1="37.16" x2="56" y2="37.16"/><line class="cls-6" x1="44" y1="39.16" x2="54" y2="39.16"/><rect class="cls-7" x="43" y="41.4" width="12" height="3" rx="1" ry="1"/><path class="cls-8" d="M47.33,20.66V19.55a.56.56,0,0,1,.56-.56h2.22a.56.56,0,0,1,.56.56v1.11"/><path class="cls-9" d="M54,22.54v5a1.67,1.67,0,0,1-1.67,1.67H45.67A1.67,1.67,0,0,1,44,27.54v-5a1.63,1.63,0,0,1,.29-.92,1.65,1.65,0,0,1,1.38-.74h6.67A1.69,1.69,0,0,1,54,22.54Z"/><path class="cls-9" d="M53.57,21.43c-.2,2-2.21,3.61-4.65,3.61a4.47,4.47,0,0,1-4.62-3.42,1.65,1.65,0,0,1,1.38-.74h6.67A1.64,1.64,0,0,1,53.57,21.43Z"/></g></g></svg>