<svg xmlns="http://www.w3.org/2000/svg" viewBox="0 0 60 56"><defs><style>.cls-1{fill:#1de9b6;}.cls-1,.cls-2,.cls-6,.cls-9{stroke:#303349;}.cls-1,.cls-2,.cls-6,.cls-8,.cls-9{stroke-miterlimit:10;}.cls-1,.cls-2,.cls-8,.cls-9{stroke-width:2px;}.cls-2{fill:#eaf3fe;}.cls-3{fill:#d85050;}.cls-4{fill:#ffe78a;}.cls-5{fill:#0091ea;}.cls-6{fill:#303349;}.cls-6,.cls-8,.cls-9{stroke-linecap:round;}.cls-7{fill:#ff93b4;}.cls-8,.cls-9{fill:none;}.cls-8{stroke:#44c0cc;}</style></defs><title>Text Links</title><g id="Capa_2" data-name="Capa 2"><g id="Text_Links" data-name="Text Links"><path class="cls-1" d="M59,3v8.6H1V3A2,2,0,0,1,3.07,1H56.93A2,2,0,0,1,59,3Z"/><path class="cls-2" d="M59,11V53.06A2,2,0,0,1,56.93,55H3.07A2,2,0,0,1,1,53.06V11Z"/><circle class="cls-3" cx="7.01" cy="6.02" r="2"/><circle class="cls-4" cx="12.93" cy="6.02" r="2"/><circle class="cls-5" cx="18.99" cy="6.02" r="2"/><rect class="cls-6" x="8.5" y="15.5" width="43" height="16" rx="2" ry="2"/><path class="cls-7" d="M49,24.15V28a1,1,0,0,1-1,1H11.66c-.54,0-.83-.52-.47-.84l7.57-7a.71.71,0,0,1,.95,0l3.84,3.54,2.13-2a.56.56,0,0,1,.75,0l3.26,3,4.78-4.41a.7.7,0,0,1,.92,0L38,23.74l4.71-4.33a.86.86,0,0,1,1.16,0Z"/><line class="cls-8" x1="9.03" y1="36" x2="51.03" y2="36"/><line class="cls-8" x1="9.03" y1="40" x2="33.03" y2="40"/><line class="cls-8" x1="17.03" y1="48" x2="41.03" y2="48"/><line class="cls-8" x1="9.03" y1="48" x2="13.03" y2="48"/><line class="cls-8" x1="45.03" y1="48" x2="51.03" y2="48"/><line class="cls-8" x1="9.03" y1="44" x2="21.03" y2="44"/><line class="cls-9" x1="25.03" y1="44" x2="35.03" y2="44"/><line class="cls-8" x1="39.03" y1="44" x2="51.03" y2="44"/><line class="cls-8" x1="37.03" y1="40" x2="51.03" y2="40"/><circle class="cls-4" cx="29" cy="20" r="2"/></g></g></svg>