<?xml version="1.0" encoding="utf-8"?>
<!-- Generator: Adobe Illustrator 22.0.1, SVG Export Plug-In . SVG Version: 6.00 Build 0)  -->
<svg version="1.1" id="图层_1" xmlns="http://www.w3.org/2000/svg" xmlns:xlink="http://www.w3.org/1999/xlink" x="0px" y="0px"
	 viewBox="0 0 500 70" style="enable-background:new 0 0 500 70;" xml:space="preserve">
<style type="text/css">
	.st0{fill:#002857;}
</style>
<path class="st0" d="M275.2,33.9h-11.4c-2,0-3,0.5-3,1.5v32.2h-19.2V35.4c0-1-1-1.5-3.1-1.5h-15.3l3.7-7.1h48.3L275.2,33.9
	L275.2,33.9z"/>
<path class="st0" d="M326.1,67.7h-19.4l-14.2-11.3v11.3h-17.3V34.7h21.6c6.2,0,11.5,0.6,15.8,1.8c5.9,1.7,8.9,4.3,8.9,7.9
	c0,2.4-1.4,4.4-4.3,6c-2.4,1.3-5.5,2.2-9.4,2.8L326.1,67.7z M307,44.4c0-3.7-6.9-3.9-9.2-3.9h-5.4v7.3h5.4
	C300.2,47.8,307,48.1,307,44.4"/>
<path class="st0" d="M373.4,67.7h-16.3l-1.9-4.6h-18.4l-1.9,4.6h-10.2L340,34.8l18.1-0.1L373.4,67.7z M352.7,56.7l-6.6-16.1
	l-6.5,16.1L352.7,56.7z"/>
<path class="st0" d="M422,51.2c0,4.5-2.4,8.4-7.2,11.6s-10.6,4.8-17.4,4.8h-21.6V34.8h21.6c6.8,0,12.6,1.6,17.4,4.8
	C419.6,42.8,422,46.7,422,51.2 M407.7,51.1c0-6.3-7.2-10.6-10.4-10.6h-6.4v21.4h6.4C400.5,61.9,407.7,57.4,407.7,51.1"/>
<path class="st0" d="M461.4,67.7l-37-0.1V34.7l37,0.1v5.8h-19.1c-1.6,0-2.5,0.4-2.5,1.2v6.6h21.5v5.8h-21.5v6.5
	c0,0.8,0.8,1.2,2.5,1.2h19.1L461.4,67.7L461.4,67.7z"/>
<path class="st0" d="M497.9,58.1c-0.3,6.2-6.1,9.6-11.2,9.6h-22v-5.8h16c0.7,0,2.6-0.4,2.6-2c0-6.3-18.6-6.1-18.6-15.6
	c0-7.2,6.7-9.9,10.4-9.9h22.9v5.8h-16c-0.7,0-2.5,0.3-2.5,1.9C479.4,46.3,498.5,46.6,497.9,58.1"/>
<path class="st0" d="M203.1,62.6l31.2-60.3h-6.8l-28.3,54.9l-13.9-23.1h-16.5l15.1,28.6c0.7,1.3,2,2.3,3.8,3.2
	c1.1,0.5,2.4,0.8,3.6,1h4.8c1.2-0.2,2.4-0.5,3.5-1C201.2,65,202.5,63.9,203.1,62.6"/>
<rect x="151.5" y="34.1" class="st0" width="15.3" height="33"/>
<path class="st0" d="M147.9,40.1h-11.4c-1.6,0-2.4,0.4-2.4,1.2v25.8h-15.5V41.4c0-0.8-0.8-1.2-2.5-1.2h-12.4l3-6h41.2L147.9,40.1
	L147.9,40.1z"/>
<path class="st0" d="M102.8,67.1H84.3c-6.8,0-12.6-1.6-17.4-4.8s-7.2-7.1-7.2-11.6c0-4.5,2.4-8.4,7.2-11.6
	c4.8-3.2,10.6-4.8,17.4-4.8h18.5l-3,5.8H84.3c-3.2,0-5.4,1.4-6.4,4.1c-0.6,1.5-0.9,3.7-0.9,6.6s0.3,5.2,0.9,6.6
	c1.1,2.7,3.2,4.1,6.4,4.1h18.4V67.1L102.8,67.1z"/>
<path class="st0" d="M62.3,67.1H42.1l-2.3-5.7H17l-2.3,5.7H2.1L21,26.4l22.4-0.1L62.3,67.1z M36.6,53.6l-8.1-19.9l-8.1,19.9
	L36.6,53.6z"/>
</svg>
