<?xml version="1.0" encoding="utf-8"?>
<!-- Generator: Adobe Illustrator 22.0.1, SVG Export Plug-In . SVG Version: 6.00 Build 0)  -->
<svg version="1.1" id="图层_1" xmlns="http://www.w3.org/2000/svg" xmlns:xlink="http://www.w3.org/1999/xlink" x="0px" y="0px"
	 viewBox="0 0 300 70" style="enable-background:new 0 0 300 70;" xml:space="preserve">
<style type="text/css">
	.st0{fill:#DA1924;}
	.st1{fill:#2072E1;}
	.st2{fill:#002F5F;}
</style>
<g id="Page-1">
	<g id="_x31_9-years-logo" transform="translate(-406.000000, -20.000000)">
		<g id="Desktop" transform="translate(406.000000, 20.000000)">
			<g id="Global">
				<g id="AM-Logo_x2F_Dark">
					<g id="AM-Logo">
						<g id="Group">
							<path id="Fill-1" class="st0" d="M64.7,49.2c0,9.5-7.7,17.2-17.2,17.2s-17.2-7.7-17.2-17.2S38,32,47.5,32
								S64.7,39.7,64.7,49.2"/>
							<path id="Fill-4" class="st1" d="M93.8,20.5c0,9.5-7.7,17.2-17.2,17.2S59.4,30,59.4,20.5c0-9.5,7.7-17.2,17.2-17.2
								S93.8,11,93.8,20.5"/>
						</g>
						<g id="Group-2" transform="translate(37.689531, 0.000000)">
							<path id="Fill-6" class="st2" d="M81.1,9.5c-0.1-0.4-0.2-0.6-0.5-0.6c-0.3,0-0.5,0.2-0.6,0.6l-2.4,10.9h5.9L81.1,9.5z
								 M92.4,33h-5.6c-0.4,0-0.7-0.3-0.8-0.7l-1.4-6.5h-8.1l-1.4,6.5C75,32.7,74.7,33,74.3,33h-5.5c-0.4,0-0.7-0.2-0.7-0.6
								c0,0,0-0.1,0-0.2L74,7.7c0.9-3.8,3.8-4.4,6.6-4.4c2.7,0,5.6,0.6,6.5,4.4L93,32.2c0,0.1,0,0.2,0,0.2C93,32.8,92.7,33,92.4,33
								L92.4,33z"/>
							<path id="Fill-8" class="st2" d="M110,15.8c0-5.3-2.3-6.8-5.9-6.8c-1,0-2.3,0-2.8,0.1v18.5c0.5,0,1.8,0.1,2.8,0.1
								c3.6,0,5.9-1.4,5.9-6.8V15.8z M104.2,33.4c-3.3,0-6.8-0.3-8.4-0.6c-0.7-0.1-1.1-0.5-1.1-1.4V5.3c0-0.9,0.4-1.3,1.1-1.4
								c1.6-0.3,5.2-0.6,8.4-0.6c7.9,0,12.6,4.2,12.6,12.5v5.1C116.8,29.2,112,33.4,104.2,33.4L104.2,33.4z"/>
							<path id="Fill-10" class="st2" d="M145.2,33H140c-0.4,0-0.6-0.4-0.6-0.8V15.7c0-0.3-0.1-0.3-0.2-0.3c-0.1,0-0.2,0.1-0.3,0.3
								l-3.6,6.5c-0.3,0.5-0.7,0.7-1.2,0.7h-3.2c-0.5,0-0.9-0.2-1.2-0.7l-3.6-6.5c-0.1-0.2-0.2-0.3-0.3-0.3c-0.1,0-0.2,0-0.2,0.3
								v16.5c0,0.4-0.3,0.8-0.6,0.8h-5.2c-0.3,0-0.7-0.1-0.7-0.6V5c0-0.8,0.6-1.3,1.4-1.3h3.7c0.8,0,1.4,0.4,1.7,1.1l6.1,11.3
								c0.2,0.3,0.3,0.5,0.4,0.5c0.2,0,0.3-0.2,0.4-0.5l6.1-11.3c0.4-0.7,0.9-1.1,1.8-1.1h3.7c0.8,0,1.4,0.5,1.4,1.4v27.4
								C145.8,32.9,145.5,33,145.2,33"/>
							<path id="Fill-12" class="st2" d="M155.4,33h-5.3c-0.4,0-0.7-0.4-0.7-0.8V4.4c0-0.4,0.3-0.7,0.7-0.7h5.3
								c0.4,0,0.8,0.3,0.8,0.7v27.8C156.2,32.7,155.9,33,155.4,33"/>
							<path id="Fill-14" class="st2" d="M174.8,12.5c0-2.4-1.9-3.5-5.2-3.5c-0.6,0-2.6,0.1-3.1,0.1v7.6c0.4,0,2.4,0.1,2.8,0.1
								c4.2,0,5.5-1.1,5.5-3.8V12.5z M181.9,33h-6.1c-0.4,0-0.6-0.4-0.8-0.8l-5.3-10h-0.4c-0.8,0-2.1-0.1-2.8-0.1v10.1
								c0,0.4-0.4,0.8-0.8,0.8h-5.2c-0.4,0-0.8-0.4-0.8-0.8V5.7c0-1.3,0.6-1.7,1.8-1.9c1.8-0.3,5.2-0.5,8-0.5
								c6.7,0,11.9,2.3,11.9,9.3v0.5c0,4.2-2.2,6.8-5.1,7.9l6,11.2c0.1,0.2,0.1,0.3,0.1,0.4C182.5,32.8,182.3,33,181.9,33L181.9,33z
								"/>
							<path id="Fill-16" class="st2" d="M195.7,9.5c-0.1-0.4-0.2-0.6-0.5-0.6c-0.4,0-0.5,0.2-0.6,0.6l-2.4,10.9h5.9L195.7,9.5z
								 M207,33h-5.5c-0.4,0-0.7-0.3-0.8-0.7l-1.4-6.5h-8.2l-1.4,6.5c-0.1,0.4-0.4,0.7-0.8,0.7h-5.5c-0.4,0-0.7-0.2-0.7-0.6
								c0,0,0-0.1,0-0.2l5.9-24.5c0.9-3.8,3.8-4.4,6.6-4.4c2.7,0,5.6,0.6,6.5,4.4l5.9,24.5c0,0.1,0,0.2,0,0.2
								C207.7,32.8,207.4,33,207,33L207,33z"/>
							<path id="Fill-18" class="st2" d="M224.6,32.9c-1.3,0.3-4.4,0.5-6.5,0.5c-5.1,0-9.7-1.3-9.7-8.5V4.4c0-0.4,0.4-0.8,0.8-0.8
								h5.2c0.4,0,0.8,0.4,0.8,0.8v20.4c0,2.1,0.7,2.7,2.5,2.7h6.8c0.4,0,0.8,0.4,0.8,0.8V32C225.4,32.6,225.1,32.8,224.6,32.9"/>
							<path id="Fill-20" class="st2" d="M94.2,66.4H89c-0.4,0-0.6-0.4-0.6-0.8V49.1c0-0.3-0.1-0.3-0.2-0.3c-0.1,0-0.2,0.1-0.3,0.3
								l-3.6,6.5c-0.3,0.5-0.7,0.7-1.2,0.7h-3.2c-0.5,0-0.9-0.2-1.2-0.7L75.1,49c-0.1-0.2-0.2-0.3-0.3-0.3s-0.2,0-0.2,0.3v16.5
								c0,0.4-0.3,0.8-0.6,0.8h-5.2c-0.3,0-0.7-0.1-0.7-0.6V38.3c0-0.8,0.6-1.3,1.4-1.3h3.7c0.8,0,1.4,0.4,1.7,1.1L81,49.4
								c0.2,0.3,0.3,0.5,0.4,0.5c0.2,0,0.3-0.2,0.4-0.5L87.9,38c0.4-0.7,0.9-1.1,1.7-1.1h3.7c0.8,0,1.4,0.6,1.4,1.4v27.4
								C94.8,66.2,94.5,66.4,94.2,66.4"/>
							<path id="Fill-22" class="st2" d="M109.4,42.8c-0.1-0.4-0.2-0.6-0.5-0.6c-0.4,0-0.5,0.2-0.6,0.6l-2.4,10.9h5.9L109.4,42.8z
								 M120.7,66.4h-5.6c-0.4,0-0.7-0.3-0.8-0.7l-1.4-6.5h-8.1l-1.4,6.5c-0.1,0.4-0.4,0.7-0.8,0.7h-5.5c-0.4,0-0.7-0.2-0.7-0.6
								c0,0,0-0.1,0-0.2l5.9-24.6c0.9-3.8,3.9-4.4,6.6-4.4s5.6,0.6,6.5,4.4l5.9,24.5c0,0.1,0,0.2,0,0.2
								C121.4,66.1,121.1,66.4,120.7,66.4L120.7,66.4z"/>
							<path id="Fill-24" class="st2" d="M138,45.9c0-2.4-1.9-3.5-5.2-3.5c-0.5,0-2.6,0.1-3.1,0.1v7.6c0.4,0,2.4,0.1,2.8,0.1
								c4.2,0,5.5-1.1,5.5-3.8C138,46.4,138,45.9,138,45.9z M145.1,66.4H139c-0.4,0-0.6-0.4-0.8-0.8l-5.3-10h-0.4
								c-0.8,0-2.1-0.1-2.8-0.1v10c0,0.4-0.4,0.8-0.8,0.8h-5.2c-0.4,0-0.8-0.4-0.8-0.8V39c0-1.3,0.5-1.7,1.8-1.9
								c1.8-0.3,5.2-0.5,8-0.5c6.7,0,11.9,2.3,11.9,9.2v0.5c0,4.2-2.2,6.8-5.1,7.9l6,11.2c0.1,0.2,0.1,0.3,0.1,0.4
								C145.7,66.2,145.5,66.4,145.1,66.4L145.1,66.4z"/>
							<path id="Fill-26" class="st2" d="M170.8,38l-9.4,13.4l9.5,14.2c0.1,0.2,0.2,0.3,0.2,0.4c0,0.2-0.2,0.4-0.6,0.4h-6.8
								c-0.5,0-0.7-0.2-0.9-0.6l-8-13v12.8c0,0.4-0.4,0.8-0.8,0.8h-5.2c-0.4,0-0.8-0.4-0.8-0.8V37.7c0-0.4,0.4-0.8,0.8-0.8h5.2
								c0.4,0,0.8,0.3,0.8,0.8v12.6l8.7-12.9c0.2-0.3,0.4-0.5,0.9-0.5h6.1c0.4,0,0.6,0.2,0.6,0.4C171,37.6,170.9,37.8,170.8,38"/>
							<path id="Fill-28" class="st2" d="M187.9,66.2c-1.4,0.2-3.4,0.5-7.7,0.5c-5.1,0-9.6-1.3-9.6-8.5V45.1c0-7.2,4.6-8.5,9.7-8.5
								c4.3,0,6.3,0.3,7.7,0.5c0.6,0.1,0.8,0.3,0.8,0.8v3.7c0,0.4-0.4,0.8-0.8,0.8h-8c-1.9,0-2.5,0.6-2.5,2.7v3.6h10.3
								c0.4,0,0.8,0.4,0.8,0.8v3.8c0,0.4-0.4,0.8-0.8,0.8h-10.3v4.2c0,2.1,0.7,2.7,2.5,2.7h8c0.4,0,0.8,0.4,0.8,0.8v3.7
								C188.6,65.9,188.4,66.1,187.9,66.2"/>
							<path id="Fill-31" class="st2" d="M210.8,42.6h-6.4v23c0,0.4-0.4,0.8-0.8,0.8h-5.2c-0.4,0-0.8-0.4-0.8-0.8v-23h-6.5
								c-0.4,0-0.8-0.3-0.8-0.7v-4.1c0-0.4,0.4-0.8,0.8-0.8h19.7c0.4,0,0.8,0.3,0.8,0.8v4.1C211.6,42.2,211.2,42.6,210.8,42.6"/>
							<path id="Fill-33" class="st2" d="M221.4,66.7c-3.1,0-5.5-0.4-7.5-0.9c-0.4-0.1-0.8-0.4-0.8-0.8v-3.9c0-0.6,0.3-0.7,0.7-0.7
								h0.1c1.6,0.2,6,0.5,7.5,0.5c2.7,0,3.5-0.9,3.5-2.8c0-1.1-0.6-1.8-2.6-3l-5.5-3.2c-3.7-2.2-4.7-4.7-4.7-7.6
								c0-4.4,2.5-7.7,10.1-7.7c2.9,0,6.9,0.5,8.4,0.9c0.3,0.1,0.6,0.3,0.6,0.7v4c0,0.4-0.2,0.7-0.7,0.7h-0.1
								c-1.1-0.1-5.7-0.4-8.4-0.4c-2.3,0-3.1,0.7-3.1,2.1c0,1.1,0.5,1.6,2.7,2.8l5.1,2.7c4.1,2.2,5.3,4.8,5.3,8
								C232.3,62.2,229.5,66.7,221.4,66.7"/>
						</g>
					</g>
				</g>
			</g>
		</g>
	</g>
</g>
</svg>
