<?xml version="1.0" encoding="utf-8"?>
<!-- Generator: Adobe Illustrator 22.0.1, SVG Export Plug-In . SVG Version: 6.00 Build 0)  -->
<svg version="1.1" id="图层_1" xmlns="http://www.w3.org/2000/svg" xmlns:xlink="http://www.w3.org/1999/xlink" x="0px" y="0px"
	 viewBox="0 0 940 400" style="enable-background:new 0 0 940 400;" xml:space="preserve">
<style type="text/css">
	.st0{fill:#28B674;}
	.st1{fill:#ED292F;}
</style>
<g id="_x23_000000ff">
	<path d="M271.1,0.6h0.3c-0.3,0.9-0.8,1.7-1.3,2.4c-15.3,20.3-28.8,42-39.8,65l-0.3,1.5c-1,1.3-1.8,2.8-2.4,4.3
		c-7.9,17.8-14.5,36.2-19,55.1c-9.5,38.1-11.6,78-6.3,116.9c-8.6-0.9-17.2-2-25.7-3.3c-2.9-19.1-3.7-38.5-2.4-57.8
		c1.6-24.9,7.2-49.5,15.4-73c3-7,5.6-14.1,9-20.9c15.7-33.3,38.8-63.3,67.9-86C268,3.3,269.9,2.3,271.1,0.6z"/>
	<path d="M654.2,90.3c14-7,29.8-9.2,45.2-9.1c17.8-0.2,35.6,3.8,51.4,12c7,3.9,14.1,8.2,19.2,14.4c-6.8,13.4-9.5,28.5-9.6,43.5
		c-13.5-8.3-26.8-17.4-41.6-23.1c-11-4.1-23.9-5.9-34.9-1c-5.6,2.6-11.2,6.3-13.8,12.2c-3.1,7-0.6,15.6,5,20.7
		c5.3,4.9,12.1,7.6,18.7,10.2c11,4.3,22.8,6,34,10c13.5,4.5,26.3,11.6,36,22.1c7.7,8.6,13.2,19.3,15.2,30.7
		c2.1,12.8,2.1,26.3-2.7,38.5c-6.5,16.3-19.5,29.7-35.1,37.6c-16.1,8.4-34.6,11.4-52.6,10.6c-27.1-0.8-54.5-10.1-74.9-28.3
		c12.3-10.9,21.9-24.7,28-39.9c13.5,13.1,31.7,22.5,50.8,22.7c9.1,0.3,18.3-2.6,25.3-8.4c5.6-4.6,9.1-12,8-19.2
		c-0.7-7.2-5.7-13.2-11.9-16.6c-13.2-7.3-28-11-42.4-15c-7.3-2.1-14.5-4.9-21-8.7c0.3-18.2-1.7-36.7-7.8-54
		c-4.2-11.9-10.6-23.1-18.7-32.7C630.2,106.7,641.3,96.5,654.2,90.3z"/>
	<path d="M836.5,82.7c21.8-3,44.7-1.2,65,7.9c8.3,3.4,15.6,8.8,22.1,15c-10.2,10.6-20.8,20.9-31.2,31.3
		c-10.8-7.5-23.5-12.6-36.8-12.8c-8.9-0.3-17.8,3-24.4,9c-4.2,3.9-6.6,9.8-5.4,15.5c0.9,6.9,6.2,12.3,12.1,15.6
		c9.8,5.6,20.8,8.9,31.7,11.5c9.4,2.3,18.5,5.4,27.3,9.4c13,6.4,24.9,16.1,31.8,29.1c5.1,8.7,7,18.7,7.8,28.6v10.3
		c-1,13.6-6.7,26.6-15.5,36.9c-13.7,16.3-34.5,25.5-55.3,28.2c-21.5,2.5-43.6-0.1-63.7-8.1c-7.2-3.1-14.6-6.5-20.8-11.4
		c10.8-13.9,16.1-31.5,15.8-49c13.6,13.2,31.4,23.3,50.7,24c9.8,0.6,19.9-2.3,27.4-8.8c5.6-4.9,8.9-12.8,7.2-20.2
		c-1.2-6.8-6.4-12.2-12.3-15.3c-11.5-6.2-24.1-9.8-36.7-13.2c-14.5-3.6-28.6-10.2-39.6-20.5c-10.5-9.8-16.8-23.7-17.9-38
		c-1.4-18.8,3.1-38.8,15.9-53.2C803.3,92.3,819.7,85.2,836.5,82.7z"/>
	<path d="M335.7,86.6c18.9-0.2,37.8-0.2,56.6,0c15.1,41.6,30.3,83.2,45.4,124.8c12.4,34.4,25.3,68.8,37.4,103.3
		c-17.9-0.1-35.8,0.1-53.7-0.1c-1.6-2.6-2.2-5.8-3.4-8.6c-8.3-22.7-16.5-45.4-24.8-68c7.6-4.1,15.2-8.3,22.4-13.3
		c-8.3,2.1-16.5,4.4-24.9,6.4c-8.9-24.4-17.9-48.7-26.5-73.1l-0.5,0.2c-10.2,28.1-20.4,56.2-30.7,84.2c-18.6,2.7-37.3,4.6-56.1,5.4
		C296.5,194.1,316.2,140.4,335.7,86.6z"/>
	<path d="M416,86.4c33.2,0.1,66.3,0,99.5,0.1c21.6,0.4,43.5,4.2,63,14c16,8,30,20.6,38.8,36.2c10.8,18.3,15.1,39.8,15.4,60.9
		c0.5,21-2.6,42.7-12.8,61.4c-9.2,17.9-24.3,32.6-42.4,41.7c-24.3,12.4-52.3,14.9-79.1,13.9c-5.6-15.1-10.9-30.4-16.5-45.5
		c14.4-1.1,29.1,0.8,43.6-1.4c15-2.1,29.8-8.8,39.6-20.6c11.4-13.2,15.3-31.3,14.7-48.4c-0.4-16.7-4.7-34.3-16.3-46.8
		c-11.4-12.5-28.4-18.4-44.9-19.4c-13.2-0.7-26.5-0.1-39.8-0.4c-0.2,42,0,84-0.1,126l-0.9,0.4c-2.7-9.6-6.7-18.8-9.9-28.3
		C450.6,182.2,433.3,134.3,416,86.4z"/>
	<path d="M267.6,273.8c19-1.6,37.9-4.8,56.4-9.4c0.2,0.2,0.7,0.6,1,0.8c-6.4,16.4-11.9,33.2-18.4,49.6c-17.9,0-35.9,0-53.8,0
		C257.4,301,262.6,287.4,267.6,273.8z"/>
	<path d="M182.6,270.9c8.3,1.3,16.6,2.3,24.9,2.9c10.5,45.5,31.4,88.2,59,125.6c-1.5-0.1-2.5-1.4-3.7-2.2
		C223.3,365.2,195.8,319.7,182.6,270.9z"/>
</g>
<g id="_x23_28b674ff">
	<path class="st0" d="M230,69.4c23.9-20.6,50.5-38.3,79.7-50.6C299.1,28.5,288.3,38,278,48.1c-25.5,24.7-49.2,51.5-69.4,80.7
		c4.5-18.9,11.1-37.3,19-55.1C228.3,72.2,229,70.7,230,69.4z"/>
	<path class="st0" d="M125.6,231.7c13.4-43.7,35.2-84.8,64-120.2c-8.2,23.6-13.8,48.1-15.4,73c-0.4,1.1-0.8,2.1-1.4,3.2
		c-8.4,16.2-15.8,32.9-22.4,49.9C142.2,235.8,133.9,233.8,125.6,231.7z"/>
	<path class="st0" d="M119.3,255c7.4,2.6,14.9,5,22.5,7.1c-13.1,39.3-21,80.2-26.1,121.3c-0.7-0.6-0.5-1.8-0.8-2.7
		C107.4,339.1,109.9,296.1,119.3,255z"/>
</g>
<g id="_x23_ed292fff">
	<path class="st1" d="M3.5,184.9c2,0.3,3.7,1.4,5.4,2.2c37.4,18.4,76.3,34.1,116.7,44.6c8.3,2.2,16.6,4.1,25,5.9
		c8.7,1.8,17.4,3.4,26.1,4.8c8.5,1.3,17.1,2.4,25.7,3.3c24.8,2.6,49.7,3.3,74.6,2.2c18.8-0.8,37.5-2.6,56.1-5.4
		c19.4-2.9,38.7-6.8,57.8-11.4c8.3-2,16.5-4.3,24.9-6.4c-7.1,4.9-14.7,9.2-22.4,13.3c-21.9,11.6-45.4,20.1-69.3,26.4
		c-18.5,4.5-37.4,7.8-56.4,9.4c-20,1.7-40.1,1.7-60,0c-8.3-0.7-16.7-1.7-24.9-2.9c-13.8-2.1-27.4-5.1-40.8-8.8
		c-7.6-2.1-15.1-4.5-22.5-7.1c-40.7-14.4-79-36.2-110.6-65.6c-1.7-1.5-3.1-3.3-5.1-4.4V184.9z"/>
</g>
</svg>
