<?xml version="1.0" encoding="utf-8"?>
<!-- Generator: Adobe Illustrator 22.0.1, SVG Export Plug-In . SVG Version: 6.00 Build 0)  -->
<svg version="1.1" id="Layer_1" xmlns="http://www.w3.org/2000/svg" xmlns:xlink="http://www.w3.org/1999/xlink" x="0px" y="0px"
	 viewBox="0 0 800 230" style="enable-background:new 0 0 800 230;" xml:space="preserve">
<style type="text/css">
	.st0{fill:#8DC63F;}
	.st1{fill:#BEB632;}
	.st2{fill:#D88D2A;}
	.st3{fill:#F15A22;}
</style>
<g>
	<path d="M406.9,87.5c0,4.6,2.3,4.6,2.3,4.6h36.7c11.5,0,11.5,9.2,11.5,11.5l0,2.3h-32.1c-4.6,0-22.9,0-22.9,19.5v2.3
		c0,19.5,18.3,19.5,22.9,19.5h41.3v-41.3v-2.3c0-2.3,0-20.6-20.6-20.6h-36.7C409.2,82.9,406.9,82.9,406.9,87.5z M425.3,137.9
		c-4.6,0-13.8,0-13.8-10.3v-2.3c0-10.3,9.2-10.3,13.8-10.3h32.1v22.9H425.3z"/>
	<path d="M629.3,87.5c0,4.6,2.3,4.6,2.3,4.6h36.7c11.5,0,11.5,9.2,11.5,11.5v2.3h-32.1c-4.6,0-22.9,0-22.9,19.5v2.3
		c0,19.5,18.3,19.5,22.9,19.5h41.3v-41.3v-2.3c0-2.3,0-20.6-20.6-20.6h-36.7C631.6,82.9,629.3,82.9,629.3,87.5z M647.6,137.9
		c-4.6,0-13.8,0-13.8-10.3v-2.3c0-10.3,9.2-10.3,13.8-10.3h32.1v22.9H647.6z"/>
	<path d="M727.9,147.1h-9.2v-41.3v-2.3c0-2.3,0-20.6,20.6-20.6h13.8c0,0,2.3,0,2.3,4.6c0,4.6-2.3,4.6-2.3,4.6h-13.8
		c-11.5,0-11.5,9.2-11.5,11.5v2.3V147.1z"/>
	<path d="M539.9,193c4.6,0,4.6-2.3,4.6-2.3v-43.6h22.9c9.2,0,32.1,0,32.1-27.5v-9.2c0-27.5-22.9-27.5-32.1-27.5h-32.1v64.2v43.6
		C535.3,190.7,535.3,193,539.9,193z M567.4,92.1c9.2,0,22.9,0,22.9,18.3v9.2c0,18.3-13.8,18.3-22.9,18.3h-22.9V92.1H567.4z"/>
	<path d="M496.3,147.1h9.2V39.3c0,0,0-2.3-4.6-2.3c-4.6,0-4.6,2.3-4.6,2.3V147.1z"/>
	<path d="M778.3,147.1h9.2V85.2c0,0,0-2.3-4.6-2.3c-4.6,0-4.6,2.3-4.6,2.3V147.1z"/>
	<path d="M789.8,64.6c0,4.6-1.1,5.7-1.1,5.7s-1.2,1.1-5.7,1.1c-4.6,0-5.7-1.1-5.7-1.1s-1.1-1.1-1.1-5.7c0-4.6,1.1-5.7,1.1-5.7
		s1.1-1.2,5.7-1.2c4.6,0,5.7,1.2,5.7,1.2S789.8,60,789.8,64.6z"/>
</g>
<g>
	<path class="st0" d="M350.6,212.8h-7.1c-0.6,0-15-0.1-26-11.1L282,166.2c-6.4-6.4-12.4-6.4-18.9,0L251.3,178l-26-26
		c-3.2-3.2-6.4-4.8-9.4-4.8l0,0c-3.1,0-6.2,1.6-9.4,4.8l-11.8,11.8l-35.5-35.4L109.5,178l-11.8-11.8c-6.4-6.4-12.5-6.4-18.9,0
		l-35.5,35.5c-11,11-25.4,11.1-26,11.1h-7.1v-3.4h7.1c0.1,0,13.6-0.2,23.6-10.1l35.4-35.4c7.7-7.7,16-7.7,23.7,0l9.4,9.4l49.6-49.6
		l35.5,35.5l9.4-9.4c3.9-3.9,7.8-5.8,11.8-5.8l0,0c4,0,8,2,11.8,5.8l23.6,23.6l9.4-9.4c7.7-7.8,15.9-7.7,23.7,0l35.4,35.5
		c10,10,23.5,10.1,23.6,10.1h7.1L350.6,212.8L350.6,212.8z"/>
</g>
<g>
	<path class="st1" d="M350.6,177.3h-7.1c-0.6,0-15-0.1-26-11.1L282,130.7c-6.4-6.4-12.4-6.4-18.9,0l-11.8,11.8l-26-26
		c-6.4-6.4-12.4-6.4-18.9,0l-11.8,11.8l-35.5-35.5l-49.6,49.6l-11.8-11.8c-6.4-6.4-12.4-6.4-18.9,0l-35.4,35.5
		c-11,11-25.4,11.1-26,11.1h-7.1v-3.4h7.1c0.1,0,13.6-0.2,23.6-10.1l35.4-35.5c7.8-7.7,15.9-7.7,23.7,0l9.4,9.4l49.6-49.6l35.5,35.5
		l9.4-9.4c7.7-7.7,15.9-7.8,23.7,0l23.6,23.6l9.4-9.4c7.7-7.7,15.9-7.7,23.7,0l35.4,35.5c10,10,23.5,10.1,23.6,10.1h7.1L350.6,177.3
		L350.6,177.3z"/>
</g>
<g>
	<path class="st2" d="M350.6,141.9h-7.1c-0.6,0-15-0.1-26-11.1L282,95.3c-6.4-6.4-12.4-6.4-18.9,0l-11.8,11.8l-26-26
		c-6.4-6.4-12.5-6.4-18.9,0l-11.8,11.8l-35.5-35.5l-49.6,49.6L97.6,95.3c-6.4-6.4-12.4-6.4-18.9,0l-35.4,35.4
		c-11,11-25.4,11.1-26,11.1h-7.1v-3.4h7.1c0.1,0,13.6-0.2,23.6-10.1l35.4-35.5c7.7-7.7,15.9-7.7,23.7,0l9.4,9.4l49.6-49.6l35.5,35.5
		l9.4-9.4c7.7-7.7,16-7.7,23.7,0l23.6,23.6l9.4-9.4c7.7-7.7,15.9-7.8,23.7,0l35.4,35.5c10,10,23.5,10.1,23.6,10.1h7.1L350.6,141.9
		L350.6,141.9z"/>
</g>
<g>
	<path class="st3" d="M350.6,106.4h-7.1c-0.6,0-15-0.1-26-11.1L282,59.8c-6.4-6.4-12.4-6.4-18.9,0l-11.8,11.8l-26-26
		c-3.2-3.2-6.4-4.8-9.4-4.8l0,0c-3.1,0-6.2,1.6-9.4,4.8l-11.8,11.8L159.1,22l-49.6,49.6L97.6,59.8c-6.4-6.4-12.5-6.4-18.9,0
		L43.3,95.3c-11,11-25.4,11.1-26,11.1h-7.1V103h7.1c0.1,0,13.6-0.2,23.6-10.1l35.4-35.4c7.7-7.7,16-7.7,23.7,0l9.4,9.4l49.6-49.6
		l35.5,35.5l9.4-9.4c3.9-3.9,7.8-5.8,11.8-5.8l0,0c4,0,8,2,11.8,5.8l23.6,23.6l9.4-9.4c7.7-7.8,15.9-7.7,23.7,0l35.4,35.5
		c10,10,23.5,10.1,23.6,10.1h7.1L350.6,106.4L350.6,106.4z"/>
</g>
</svg>
