<?xml version="1.0" encoding="utf-8"?>
<!-- Generator: Adobe Illustrator 22.0.1, SVG Export Plug-In . SVG Version: 6.00 Build 0)  -->
<svg version="1.1" id="Layer_2" xmlns="http://www.w3.org/2000/svg" xmlns:xlink="http://www.w3.org/1999/xlink" x="0px" y="0px"
	 viewBox="0 0 400 100" style="enable-background:new 0 0 400 100;" xml:space="preserve">
<style type="text/css">
	.st0{fill:#0F2D52;}
	.st1{fill:#F2672A;}
</style>
<g id="Group">
	<path id="_5" class="st0" d="M165.6,97.7c-2.2-0.1-4-1.8-4.1-4V16.3c0.2-3-2.1-5.5-5.1-5.7c0,0-0.1,0-0.1,0h-20
		c-1.9,0-3.8-2.1-3.8-4.2c0-2.1,1.7-3.9,3.8-4.1h58c2.2,0.1,4,1.9,3.9,4.1c0,0,0,0,0,0c0.1,2.2-1.6,4.1-3.8,4.2c0,0-0.1,0-0.1,0
		h-24.9v83.1C169.3,95.8,167.7,97.5,165.6,97.7"/>
	<path id="_4" class="st0" d="M218.3,97.7c-2.2-0.1-3.9-1.8-3.9-4V6.4c0.1-2.1,1.8-3.8,3.9-3.9h49.8c2.1,0.1,3.8,1.8,3.9,3.9
		c0,2.2-1.7,4-3.9,4.2h-39.7c-2.8,0-6,1.7-6,6.4v23.5h40.8c2.3,0,4.1,1.8,4.1,4.1c0,2.3-1.8,4.1-4.1,4.1c0,0,0,0,0,0h-40.8v45
		C222.3,95.9,220.5,97.7,218.3,97.7"/>
	<path id="_3" class="st0" d="M353.5,91.2L330.7,56c-1.1-1.9-1.6-4-1.5-6.1c0-2.6,0.7-5.1,2.1-7.3l22.2-34.3c1.1-1.7,0.7-4-0.9-5.3
		c-1.8-1.3-4.4-0.9-5.7,0.9c-0.1,0.1-0.2,0.3-0.3,0.4l-24.7,38.2L297.1,4.3c-1-1.9-3.5-2.7-5.4-1.6c-0.1,0.1-0.3,0.1-0.4,0.2
		c-1.7,1.3-2.1,3.6-1.1,5.5l26.9,41.4l-26.8,41.4c-1.5,1.7-1.3,4.2,0.4,5.6s4.2,1.3,5.6-0.4c0.2-0.3,0.4-0.6,0.6-0.9l25-38.5
		l25,38.5c1.3,1.8,3.7,2.4,5.6,1.3C354.6,95.5,354.4,92.8,353.5,91.2"/>
	<path id="_2" class="st0" d="M124.2,97.7c-1.5,0-2.9-1-3.5-2.4L91.4,25.9c-0.7-1.4-2.1-2.3-3.7-2.4c-1.7,0-3.3,1.2-4.3,3.3
		L54.7,95.4c0,0-1.3,3.1-5.2,1.9c-2.4-0.7-2.8-3.5-2.2-5L84.1,4.9c0.6-1.5,2.1-2.5,3.7-2.5c1.7,0.1,3.1,1.2,3.7,2.8L128,92.3
		c0.4,1,0.4,2,0,3c-0.4,0.9-1.1,1.6-2,2C125.4,97.6,124.8,97.7,124.2,97.7"/>
	<path id="_1" class="st1" d="M50.3,67.6c-2.4,0-4.4-2-4.4-4.4c0-2.4,2-4.4,4.4-4.4h55l3.7,8.8H50.3z"/>
</g>
</svg>
