<?xml version="1.0" encoding="utf-8"?>
<!-- Generator: Adobe Illustrator 22.0.1, SVG Export Plug-In . SVG Version: 6.00 Build 0)  -->
<svg version="1.1" id="图层_1" xmlns="http://www.w3.org/2000/svg" xmlns:xlink="http://www.w3.org/1999/xlink" x="0px" y="0px"
	 viewBox="0 0 950 240" style="enable-background:new 0 0 950 240;" xml:space="preserve">
<style type="text/css">
	.st0{fill:#2882C0;}
	.st1{fill:#114E99;}
</style>
<path class="st0" d="M80,59.1c1.5-2.4,2.4-5.1,4.6-6.9c1.9,1.6,2.8,4.1,4.2,6.2c23.2,40.1,46.4,80.1,69.6,120.2
	c1.7,2.8,3.5,5.7,4.6,8.9c-13,0.1-26.1,0-39.2,0c-13.2-22.5-26.2-45.1-39.3-67.6c-13.2,22.5-26.1,45.2-39.4,67.6
	c-13,0-26.1,0-39.2,0c1.2-3.5,3.3-6.7,5.2-9.8C34.2,138,57.2,98.6,80,59.1z"/>
<path class="st0" d="M283.4,51.9c0.9,1,1.8,1.9,2.5,3.1c22.7,39.4,45.7,78.8,68.5,118.2c2.6,4.8,5.7,9.3,8,14.2
	c-13.2,0.1-26.3,0-39.5,0c-13.1-22.5-26-45.1-39.2-67.5c-13.4,22.4-26.1,45.1-39.4,67.6c-13-0.1-26.1,0-39.2-0.1
	c0.6-1.4,1.1-2.8,1.9-4.1c23.6-40.6,47.1-81.2,70.6-121.8C279.6,58.2,281.3,54.9,283.4,51.9z"/>
<path class="st0" d="M105.5,52.5c13.2-0.1,26.3-0.1,39.4,0c11.2,19.3,22.4,38.7,33.6,58.1c1.9,3.2,3.5,6.4,5.8,9.4
	c13.1-22.5,26.1-45,39.1-67.6c13.1,0,26.2-0.1,39.4,0.1c-1.2,3.3-3.1,6.2-4.9,9.2c-24.5,42.3-49.1,84.6-73.6,127c-1-1.5-2-3-2.9-4.6
	C157.2,142.4,133,100.7,108.8,59C107.5,56.9,106.4,54.7,105.5,52.5z"/>
<path class="st0" d="M760,51.4c2.5,0,5,0,7.5,0c8.3,20.3,17.1,40.5,25.5,60.7c2.9,7.1,6.3,14.1,8.7,21.4c-5.1,0.1-10.3,0.1-15.4,0
	c-3.6-8.7-6.8-17.6-10.7-26.2c-10.5,0.2-21-0.3-31.4,0.2c-4.2,8.6-6.7,17.9-10.6,26.7c-6.1-0.1-12.1,0.1-18.2-0.1
	c-1.9,0-3.2-1.6-4.3-3c-9-11.8-18.2-23.3-27.3-35c-2.6,0-5.1,0.1-7.7,0.2c0,12.4,0.1,24.8-0.1,37.2c-4.4,0-8.9,0-13.3,0
	c-0.1-27.1-0.1-54.2,0-81.3c10.5,0,21.1,0,31.7,0c8.6-0.3,18.3,3,22.7,11c4.7,8.3,2.8,19.8-4.8,25.8c-4,3.4-9.2,4.5-14.2,5.8
	c5.1,7.3,10.9,14,16.4,21c3.9,4.7,7.3,9.8,11.7,14.1C737.1,103.5,749,77.6,760,51.4 M676.6,57.3c-0.1,11.4-0.1,22.8,0,34.2
	c4.2,0,8.3,0.2,12.5,0c5.2-0.3,10.3-3.1,13-7.7c2.5-3.8,1.9-8.5,1.9-12.8c0.2-6.9-5.6-13.8-12.7-13.6
	C686.4,57.1,681.5,57.2,676.6,57.3 M759.2,66.9c-4.5,11.8-8.9,23.6-13.4,35.4c9.2,0.1,18.3,0.1,27.5,0
	C769.3,90.3,764.2,78.6,759.2,66.9z"/>
<path class="st0" d="M891.4,51.6c15.3,0.1,30.6,0.1,45.8,0c1.4,0,2.8-0.1,4.2,0.4c1.6,0.9,0.8,3,1.1,4.5c-12.3,0-24.7,0.1-37.1-0.1
	c-1.4,10.7-0.3,21.5-0.6,32.2c10.9,0.1,21.8,0,32.7,0.1c0.4,1.8,0.7,3.7,1.1,5.6c-11.3,0.3-22.5,0-33.8,0.1c-0.1,11.4,0,22.8,0,34.1
	c13.1,0.2,26.1,0,39.2,0.1c0,1.9,0,3.8,0,5.7c-17.5,0-35.1-0.1-52.6,0.1c-0.8-5.1-0.5-10.3-0.5-15.4c0-20,0-40,0-60.1
	C890.8,56.4,891.1,54,891.4,51.6z"/>
<path class="st0" d="M585.7,52.4c24.1-0.2,48.2-0.1,72.2,0c-0.1,1-0.2,3.1-0.2,4.2c-9.6,0-19.2-0.1-28.8,0c-0.2,25.7,0,51.4-0.1,77
	c-4.7,0-9.4,0-14.1,0c-0.1-25.7,0-51.4-0.1-77.1c-9.6,0-19.2,0-28.8,0C585.8,55.5,585.7,53.4,585.7,52.4z"/>
<path class="st0" d="M808.5,52.3c11.6,0,23.1-0.1,34.7,0c11.4,0,23.1,5.2,29.8,14.7c5.2,7.5,7.3,16.9,7,25.9
	c0.2,10.8-3.1,22.1-10.9,29.9c-7.1,6.4-16.6,10-26.1,10.6c-11.5,0.2-23,0.2-34.5,0.2C808.5,106.5,808.4,79.4,808.5,52.3 M822.7,56.5
	c-0.1,24.3-0.2,48.5,0,72.8c10.4,0,22,0.6,30.8-5.9c8.8-7.2,11.5-19.5,11.1-30.4c0.4-11.8-2.6-25.5-13.2-32.2
	C842.8,55.7,832.3,56.6,822.7,56.5z"/>
<path class="st0" d="M870.3,182.9c0.5-6.9-0.2-13.8,0.9-20.6c0.6,1.1,1.1,2.2,1.7,3.3c-0.9,1.6-1.6,3.3-1.5,5.2
	c0,5.4,0.1,10.8,0,16.2c-1.8,0.3-3.5,0.7-5.2,1.1l0.5-0.5C868.1,186.4,870.2,185.1,870.3,182.9z"/>
<g id="_x23_114e99ff">
	<path class="st1" d="M428,51.4c2.5,0,5-0.1,7.5,0c9.4,22.9,19.2,45.7,28.8,68.6c1.8,4.7,4.6,9.2,4.9,14.3c-5,0-10.2,0.4-15.1-0.8
		c-3.2-8.8-6.9-17.5-10.5-26.1c-10.6,0.1-21.1,0-31.7,0c-2.6,7.1-5.4,14.2-8.1,21.4c-0.8,1.9-1.4,3.9-2.7,5.5
		c-2.9,0.3-5.8-0.1-8.6-0.8C404.2,106,416.4,78.8,428,51.4 M427.4,66.9c-3.8,9.4-7.2,19.1-10.9,28.6c-0.9,2.2-1.6,4.5-2.1,6.9
		c9,0.1,18,0.1,27,0C437.4,90.3,432.1,78.7,427.4,66.9z"/>
	<path class="st1" d="M549.5,51.3c2.4,0,4.8,0,7.2,0c11.6,27.3,23.2,54.6,34.5,82.1c-4.9,0.8-10.6,1.9-15.3-0.1
		c-4.2-8.4-7.3-17.2-10.7-25.9c-10.7-0.1-21.4-0.1-32.1,0c-3.1,8.1-6,16.3-9.2,24.4c-1.6,3.8-6.6,2.1-9.8,2.5
		c0.8-4.3,2.7-8.1,4.4-12C528.9,98.6,539.2,75,549.5,51.3 M548.3,66.7c-3.8,12.1-9,23.7-13,35.7c9.2,0,18.4,0.1,27.6,0
		C558.1,90.4,553.9,78.2,548.3,66.7z"/>
	<path class="st1" d="M456.4,52.3c5.1-1.6,10.3,0.3,15.4,0c8.7,21.8,17,43.8,25.6,65.7c7.9-21.9,15.6-43.8,23.5-65.7
		c3.1,0,6.3,0,9.4,0.1c-1.9,5.8-4.5,11.3-6.8,17c-9,21.7-17.9,43.5-27,65.2c-2.5,0-5.1,0-7.6,0C478.2,107.1,467.1,79.8,456.4,52.3z"
		/>
	<path class="st1" d="M461.1,156.7c1.5-0.3,3-0.3,4.6-0.4c4.4,10.3,9.3,20.5,12.8,31.1c-1.6,0-3.1,0.1-4.6,0.1
		c-1.2-2.6-2.4-5.3-3.6-8c-4.8,0-9.5,0-14.3,0c-1.1,2.7-2.3,5.3-3.5,8c-1.1,0-3.4-0.1-4.5-0.2c2-7.1,5.5-13.6,8.2-20.4
		C457.9,163.5,459,159.8,461.1,156.7 M457.8,175.5c3.6,0,7.1,0,10.7,0c-1.4-4.8-3.4-9.3-5.2-13.9
		C461.2,166.2,459.3,170.8,457.8,175.5z"/>
	<path class="st1" d="M637.6,156.4c1.5,0,2.9,0,4.4,0c0.1,4.3,0,8.6,0.1,13c4.6,0,9.1-0.1,13.7,0.1c0.9-4.3,0.9-8.7,0.9-13
		c1.1,0,3.2,0.1,4.2,0.1c0,10.3,0.1,20.6,0,30.9c-1.1,0-3.2,0-4.3,0c0-4.6,0-9.3,0-13.9c-4.8-0.1-9.7-0.1-14.5-0.1
		c-0.1,4.7,0,9.3-0.1,14c-1.4,0-2.9,0-4.3,0C637.5,177.1,637.5,166.8,637.6,156.4z"/>
	<path class="st1" d="M866.5,156.4c2.1,0,4.2,0,6.3,0.1c4.2,7.8,8.4,15.7,13,23.3c0.6-7.8-0.5-15.7,0.7-23.5
		c1.1,0.1,3.2,0.2,4.3,0.3c-0.1,10.3,0.1,20.5-0.1,30.8c-1.9,0-3.8,0.1-5.8,0.1c-4.1-7.2-8.3-14.4-12-21.8c-0.6-1.1-1.1-2.2-1.7-3.3
		c-1.2,6.8-0.4,13.7-0.9,20.6c0,2.2-2.2,3.4-3.5,4.8C866,177.4,866.6,166.9,866.5,156.4z"/>
	<path class="st1" d="M394.5,156.5c7.8-0.1,15.6,0,23.4-0.1c0,1,0,3.1-0.1,4.2c-3-0.1-6.1-0.1-9.1-0.1c-0.1,9,0,17.9-0.1,26.9
		c-1.6,0-3.2,0.1-4.8,0.1c-0.3-8.5,0.1-17.1-0.2-25.6c-2.3-2.4-6-0.9-9-1.3C394.6,159.2,394.6,157.9,394.5,156.5z"/>
	<path class="st1" d="M422,171c0-4.9-0.2-9.7,0.6-14.5c4.2,0.2,8.5-0.3,12.7,0.4c3.8,0.6,6.9,4.2,6.5,8.1c0.3,3.2-2.7,5.2-4.5,7.4
		c2.3,5,4.7,9.9,6.9,15c-1.7,0.1-3.5,0.1-5.2,0.2c-2-4.1-3.3-8.5-6-12.3c-1.4-2-4-1.5-6.1-1.7c-0.1,4.6,0,9.2-0.1,13.9
		c-1,0.1-3.1,0.1-4.1,0.2C421.7,182,422,176.5,422,171 M426.8,169.5c2.9-0.2,6.3,0.7,8.6-1.6c2.2-1.6,1.6-5.3-0.7-6.5
		c-2.2-1.2-4.7-0.9-7-1.2C426.7,163.3,426.8,166.4,426.8,169.5z"/>
	<path class="st1" d="M482.8,156.4c6.5,0.3,13.7-1.2,19.4,2.7c9.3,5.6,8.8,21.8-1.1,26.5c-5.6,2.9-12.2,1.4-18.2,1.8
		C482.8,177.1,482.8,166.8,482.8,156.4 M487.7,160.4c-0.2,7.7-0.2,15.4,0,23.1c4-0.1,8.4,0.1,11.9-2.3c5.4-4.2,5.5-13.4,0.3-17.8
		C496.6,160.4,491.9,160.5,487.7,160.4z"/>
	<path class="st1" d="M514.6,156.5c5.7-0.1,11.4,0,17.1-0.1c0.1,1.4,0.1,2.7,0.2,4.1c-4.1,0-8.1,0-12.2,0c-0.9,2.9-1,6,0,8.9
		c3.7-0.1,7.3-0.1,11-0.1c0,1.4,0.1,2.8,0.1,4.1c-3.8,0-7.5,0-11.3-0.1c-1,3.3-0.7,6.7,0.2,10c4-0.1,8-0.1,12.1-0.1
		c0,1-0.1,3.1-0.1,4.1c-5.7-0.1-11.4,0-17.1-0.1C514.7,177.1,514.7,166.8,514.6,156.5z"/>
	<path class="st1" d="M549.3,156.5c1.7,0,3.5,0,5.2-0.1c2.2,8.2,4.8,16.4,6.8,24.7c3.3-7.9,4.5-16.5,6.8-24.7c2.2,0,4.3,0,6.5,0
		c2.3,8.5,4.5,17,6.5,25.6c2.7-8.5,4.7-17.2,7.5-25.6c1.2,0.1,3.5,0.2,4.6,0.2c-2.6,10.5-6,20.7-9.5,30.9c-1.9,0-3.9-0.1-5.8-0.1
		c-2.2-8.3-4.1-16.7-6.3-25c-3.3,8.1-4.3,16.8-7,25.1c-2,0-3.9,0-5.8,0C555.3,177.3,552.2,166.9,549.3,156.5z"/>
	<path class="st1" d="M598.6,156.4c1.1,0,3.2,0,4.3,0c0.1,10.3,0.1,20.6,0,30.9c-1.1,0-3.2,0-4.2,0
		C598.6,177.1,598.6,166.8,598.6,156.4z"/>
	<path class="st1" d="M608,156.5c8,0,15.9,0,23.9,0c0,1,0,3.1,0,4.1c-3.1,0-6.1,0-9.2,0c-0.5,9,0.7,18.1-0.9,27.1
		c-1.4-0.1-2.7-0.2-4.1-0.3c-0.1-8.9,0.1-17.8-0.1-26.8c-3.2,0-6.4,0-9.6,0C608,159.5,608,157.5,608,156.5z"/>
	<path class="st1" d="M689.3,158c4.6-2.9,10.4-1.4,15.5-1.5c0.1,1.6,0.1,3.3,0.2,5c-4.4-1.3-9.6-2.1-13.5,0.8
		c-6.2,4.4-6.2,15,0.1,19.3c3.9,3.3,9.3,1.6,14,1.7c-0.4,1.4-0.7,2.8-1.4,4.1c-5.4,0.3-11.5,1.2-16.2-2.2
		C679,179.1,679.5,163.2,689.3,158z"/>
	<path class="st1" d="M716.6,157.1c3.7-1.3,7.8-0.8,11.7-0.4c11.8,4.1,13.2,22.7,3,29.2c-3.2,2.3-7.4,1.8-11.1,1.7
		c-6,0-10.6-5.5-11.7-11C706.6,169.4,709.2,160,716.6,157.1 M718.6,161.1c-7.9,4.5-7.6,18.1,0.7,22.1c2.2,0.6,4.6,0.5,6.9,0.1
		c8.9-4,8.8-18.7,0-22.7C723.7,160.3,720.9,159.9,718.6,161.1z"/>
	<path class="st1" d="M743.8,156.5c2.2,0,4.4,0,6.5,0c4.4,7.5,7.8,15.7,13.1,22.6c0.4-7.6,0-15.1,0.2-22.7c1.7,0,3.3,0.1,5,0.1
		c-0.1,9.8,0.1,19.7-0.1,29.5c-1.3,2.4-4.2,1.1-6.3,1.4c-4.4-7.9-8.6-16-13.2-23.8c-0.6,7.9,0,15.9-0.3,23.8c-1.6,0-3.3-0.1-4.9-0.1
		C743.8,177.1,743.8,166.8,743.8,156.5z"/>
	<path class="st1" d="M775.8,156.5c5.7,0.2,11.6-0.8,17.1,0.7c-0.3,0.8-0.8,2.5-1,3.4c-3.8-0.1-7.5-0.1-11.2,0
		c-0.1,2.9-0.1,5.8,0,8.8c3.8,0,7.5,0,11.3,0c0,1.4,0,2.8-0.1,4.2c-3.8,0-7.5-0.1-11.3,0c0,4.1,0.2,8.3-0.1,12.4
		c-0.8,2.1-3.8,2.3-4.6,0.1C775.7,176.2,775.9,166.4,775.8,156.5z"/>
	<path class="st1" d="M798.1,177c0.2-6.9-0.4-13.8,0.5-20.6c1.1,0,3.2,0.1,4.3,0.1c0,10.3,0.1,20.6,0,30.9c-1.1,0-3.2,0.1-4.2,0.2
		C798.2,184,798,180.5,798.1,177z"/>
	<path class="st1" d="M810.5,156.5c6.5,0.1,13.7-1.1,19.4,2.8c4.8,2.7,6.5,8.5,6.1,13.7c0.2,5.1-2.4,10.2-7,12.5
		c-5.7,3.1-12.3,1.5-18.4,1.9C810.5,177.1,810.5,166.8,810.5,156.5 M815.6,160.4c-0.2,7.7-0.2,15.4,0,23c2.9-0.2,6,0.2,8.8-0.9
		c3.7-1.2,6.5-4.8,6.5-8.6c0.2-3.3,0.2-6.9-2.2-9.4C825.5,160.6,820.2,160.3,815.6,160.4z"/>
	<path class="st1" d="M841.9,156.5c6-0.1,11.9,0,17.9-0.1c0,1,0,3.1,0.1,4.1c-3.9,0.1-7.7-0.2-11.6,0.1c-2.1,2-2.2,6.7,0.1,8.6
		c3.4,0.3,6.8,0.1,10.3,0.1c0,1.4,0,2.8,0,4.2c-3.5,0-7-0.2-10.5,0c-2.3,2.1-1,5.7-1,8.4c0.3,0.3,1,1,1.3,1.3
		c3.8,0.3,7.7,0,11.5,0.1c0,1-0.1,3.1-0.1,4.1c-6,0-11.9,0-17.8,0C841.8,177.1,841.8,166.8,841.9,156.5z"/>
	<path class="st1" d="M897.6,166.3c1.5-4.8,5.7-8.5,10.5-9.7c3.9-0.6,7.8-0.2,11.8,0c0,1.4,0.1,2.8,0.2,4.2
		c-3.4-0.2-6.9-0.8-10.3-0.2c-4,1.4-7,5.2-7.8,9.4c-0.8,4.8,1.6,10,5.9,12.3c3.4,2.1,7.6,0.8,11.4,0.8c2.5,0.2,0.7,2.8,0.6,4.2
		c-5.6-0.2-12.1,1.5-16.8-2.4C897.2,181,895.6,172.8,897.6,166.3z"/>
	<path class="st1" d="M925.8,156.5c5.8-0.1,11.5-0.1,17.3,0c-0.1,1.4-0.2,2.7-0.3,4.1c-4.1-0.1-8.1-0.1-12.2-0.1
		c-0.1,3-0.1,5.9,0,8.9c3.7,0,7.5,0,11.2-0.1c0,1,0,3.1,0,4.2c-3.8,0-7.5,0-11.3,0c0,3.3,0,6.6,0.1,9.9c4.4,0.1,9-0.8,13.3,0.9
		c-0.4,0.8-1.2,2.4-1.5,3.2c-5.5-0.2-11.1,0-16.6-0.1C925.8,177.1,925.8,166.8,925.8,156.5z"/>
</g>
</svg>
