<?xml version="1.0" encoding="utf-8"?>
<!-- Generator: Adobe Illustrator 22.0.1, SVG Export Plug-In . SVG Version: 6.00 Build 0)  -->
<svg version="1.1" id="Layer_1" xmlns="http://www.w3.org/2000/svg" xmlns:xlink="http://www.w3.org/1999/xlink" x="0px" y="0px"
	 viewBox="0 0 340 70" style="enable-background:new 0 0 340 70;" xml:space="preserve">
<style type="text/css">
	.st0{fill:#ED1C24;}
	.st1{fill:#FFFFFF;}
</style>
<path d="M127.8,46.9c0,2.2-0.4,4.1-1.2,5.8c-0.8,1.7-2,3.2-3.5,4.4c-1.5,1.2-3.4,2.1-5.6,2.8c-2.2,0.6-4.7,1-7.4,1
	c-5.9,0-10.5-1.3-13.8-4c-3.3-2.7-4.9-6.5-5-11.4h9.4c0.3,5.4,3.6,8.1,9.8,8.1c2.5,0,4.4-0.5,5.8-1.5s2.1-2.4,2.1-4.2
	c0-0.7-0.1-1.3-0.3-1.8c-0.2-0.5-0.6-1-1.2-1.4s-1.4-0.8-2.4-1.2s-2.3-0.8-3.9-1.2l-4-1.1c-2.9-0.8-5.1-1.5-6.6-2.2
	c-1.6-0.7-2.8-1.4-3.8-2.3c-2.2-1.9-3.3-4.7-3.3-8.2c0-1.9,0.4-3.7,1.2-5.3c0.8-1.6,1.9-3,3.3-4.1c1.4-1.1,3.2-2,5.3-2.6
	c2.1-0.6,4.3-0.9,6.8-0.9c5.2,0,9.3,1.2,12.1,3.6c2.9,2.4,4.4,5.8,4.5,10.2h-9c-0.2-2.1-1-3.7-2.4-4.8c-1.4-1.1-3.3-1.7-5.8-1.7
	c-2.2,0-4,0.4-5.2,1.3c-1.2,0.9-1.8,2.1-1.8,3.7c0,0.6,0.1,1.1,0.4,1.6c0.2,0.5,0.6,0.9,1.2,1.2c0.6,0.4,1.4,0.7,2.3,1.1
	c1,0.3,2.2,0.7,3.6,1.1l2.9,0.8c1.6,0.4,2.9,0.8,4.1,1.1c1.2,0.3,2.2,0.7,3,1c0.9,0.3,1.6,0.7,2.3,1c0.7,0.3,1.3,0.8,1.9,1.2
	C126.4,40.4,127.8,43.3,127.8,46.9"/>
<path d="M174.6,59.8h-9.4l-4.7-18.5l-1.1-4.9l-0.6-3.6c-0.1-0.7-0.2-1.3-0.3-1.8s-0.2-0.9-0.2-1.3c-0.1-0.4-0.1-0.8-0.2-1.2
	c-0.1-0.4-0.1-0.9-0.2-1.6c-0.1,0.6-0.2,1.1-0.2,1.5c-0.1,0.4-0.1,0.8-0.2,1.2c-0.1,0.4-0.1,0.8-0.2,1.3c-0.1,0.5-0.2,1.1-0.3,1.9
	c-0.2,1-0.4,1.8-0.5,2.4s-0.2,1-0.2,1.1c-0.1,0.7-0.3,1.5-0.5,2.3c-0.2,0.8-0.4,1.6-0.6,2.5l-4.6,18.7H141l-11.8-43.1h9.6l4.2,18.2
	c0.3,1.4,0.7,2.8,0.9,4.1c0.3,1.4,0.6,2.9,0.9,4.8c0.1,0.7,0.2,1.3,0.3,1.8s0.2,1,0.2,1.5c0.1,0.5,0.1,1,0.2,1.5
	c0.1,0.5,0.1,1.2,0.2,2c0.1-0.7,0.2-1.4,0.2-1.9c0.1-0.5,0.1-1,0.2-1.5c0.1-0.5,0.1-1,0.2-1.5c0.1-0.5,0.2-1.1,0.3-1.7
	c0.3-1.9,0.7-3.7,1-5.4c0.3-1.6,0.6-2.9,0.8-3.7l4.7-18.2h9l4.6,17.8l1,4.8l0.8,4.3c0.1,0.5,0.2,1,0.3,1.5s0.2,1,0.3,1.5
	s0.2,1.1,0.3,1.8c0.1,0.6,0.2,1.4,0.3,2.2c0.1-0.8,0.2-1.5,0.3-2.1s0.2-1.1,0.3-1.7c0.1-0.5,0.2-1.1,0.3-1.6s0.2-1.2,0.3-1.9
	c0.2-0.8,0.3-1.7,0.5-2.6s0.3-1.7,0.5-2.5s0.3-1.6,0.5-2.3s0.3-1.3,0.4-1.8l4.2-17.4h9.4L174.6,59.8z"/>
<rect x="190.8" y="16.7" width="9.4" height="43.2"/>
<path d="M242.5,46.9c0,2.2-0.4,4.1-1.2,5.8c-0.8,1.7-2,3.2-3.5,4.4c-1.5,1.2-3.4,2.1-5.6,2.8c-2.2,0.6-4.7,1-7.4,1
	c-5.9,0-10.5-1.3-13.8-4c-3.3-2.7-4.9-6.5-5-11.4h9.4c0.3,5.4,3.6,8.1,9.8,8.1c2.5,0,4.4-0.5,5.8-1.5c1.4-1,2.1-2.4,2.1-4.2
	c0-0.7-0.1-1.3-0.3-1.8s-0.6-1-1.2-1.4c-0.6-0.4-1.4-0.8-2.4-1.2s-2.3-0.8-3.9-1.2l-4-1.1c-2.9-0.8-5.1-1.5-6.6-2.2
	c-1.6-0.7-2.8-1.4-3.8-2.3c-2.2-1.9-3.3-4.7-3.3-8.2c0-1.9,0.4-3.7,1.2-5.3c0.8-1.6,1.9-3,3.3-4.1c1.4-1.1,3.2-2,5.3-2.6
	c2.1-0.6,4.3-0.9,6.8-0.9c5.2,0,9.3,1.2,12.1,3.6c2.9,2.4,4.4,5.8,4.5,10.2h-9c-0.2-2.1-1-3.7-2.4-4.8c-1.4-1.1-3.3-1.7-5.8-1.7
	c-2.2,0-4,0.4-5.2,1.3c-1.2,0.9-1.8,2.1-1.8,3.7c0,0.6,0.1,1.1,0.4,1.6c0.2,0.5,0.6,0.9,1.2,1.2c0.6,0.4,1.4,0.7,2.3,1.1
	c1,0.3,2.2,0.7,3.6,1.1l2.9,0.8c1.6,0.4,2.9,0.8,4.1,1.1c1.1,0.3,2.1,0.7,3,1c0.9,0.3,1.6,0.7,2.3,1c0.7,0.3,1.3,0.8,1.9,1.2
	C241.1,40.4,242.5,43.3,242.5,46.9"/>
<path d="M283.4,46.9c0,2.2-0.4,4.1-1.2,5.8c-0.8,1.7-2,3.2-3.5,4.4c-1.5,1.2-3.4,2.1-5.6,2.8c-2.2,0.6-4.7,1-7.4,1
	c-5.9,0-10.5-1.3-13.8-4c-3.3-2.7-4.9-6.5-5-11.4h9.4c0.3,5.4,3.6,8.1,9.8,8.1c2.5,0,4.4-0.5,5.8-1.5s2.1-2.4,2.1-4.2
	c0-0.7-0.1-1.3-0.3-1.8c-0.2-0.5-0.6-1-1.2-1.4s-1.4-0.8-2.4-1.2s-2.3-0.8-3.9-1.2l-4-1.1c-2.9-0.8-5.1-1.5-6.6-2.2
	c-1.6-0.7-2.8-1.4-3.8-2.3c-2.2-1.9-3.3-4.7-3.3-8.2c0-1.9,0.4-3.7,1.2-5.3c0.8-1.6,1.9-3,3.3-4.1c1.4-1.1,3.2-2,5.3-2.6
	c2.1-0.6,4.3-0.9,6.8-0.9c5.2,0,9.3,1.2,12.1,3.6c2.9,2.4,4.4,5.8,4.5,10.2h-9c-0.2-2.1-1-3.7-2.4-4.8c-1.4-1.1-3.3-1.7-5.8-1.7
	c-2.2,0-4,0.4-5.2,1.3c-1.2,0.9-1.8,2.1-1.8,3.7c0,0.6,0.1,1.1,0.4,1.6c0.2,0.5,0.6,0.9,1.2,1.2c0.6,0.4,1.4,0.7,2.3,1.1
	c1,0.3,2.2,0.7,3.6,1.1l2.9,0.8c1.6,0.4,2.9,0.8,4.1,1.1c1.1,0.3,2.1,0.7,3,1c0.9,0.3,1.6,0.7,2.3,1c0.7,0.3,1.3,0.8,1.9,1.2
	C282,40.4,283.4,43.3,283.4,46.9"/>
<path class="st0" d="M40.3,47.1c0,4-1.3,7.2-4,9.4c-2.6,2.2-6.4,3.3-11.2,3.3H4v-43h19.4c2.2,0,4,0.1,5.5,0.4
	c1.4,0.2,2.7,0.6,3.8,1.2c1.8,0.9,3.1,2.2,4.1,3.8c1,1.6,1.5,3.5,1.5,5.5s-0.5,3.7-1.5,5.3c-1,1.5-2.5,2.7-4.4,3.6
	c0.6,0.2,1,0.3,1.4,0.5c0.3,0.1,0.6,0.3,0.9,0.4c0.3,0.1,0.5,0.3,0.7,0.4c0.2,0.1,0.4,0.3,0.7,0.5C38.9,40.2,40.3,43.2,40.3,47.1
	 M29.2,29.2c0-1.8-0.6-3.1-1.7-3.9c-1.1-0.8-2.9-1.2-5.5-1.2h-8.6v10H22C26.8,34.2,29.2,32.5,29.2,29.2 M30.8,46.5
	c0-2.1-0.6-3.6-1.9-4.5s-3.4-1.4-6.5-1.4h-9v11.7H23c2.8,0,4.8-0.5,6-1.4S30.8,48.5,30.8,46.5"/>
<path class="st0" d="M83.6,37.8c0,1.5-0.1,3.1-0.4,4.8c-0.2,1.7-0.6,3.1-0.9,4.4c-1,3.1-2.6,5.8-4.8,7.9c-1.8,1.8-3.8,3-6,3.8
	c-2.2,0.8-5.1,1.1-8.6,1.1H45.2v-43h17.4c1,0,2.1,0.1,3.4,0.2s2.3,0.3,3.2,0.5c2.9,0.6,5.6,1.9,7.9,4c2.1,1.9,3.7,4.3,4.8,7.1
	C83,31.3,83.6,34.4,83.6,37.8 M74.1,38.1c0-4.4-1.1-7.8-3.2-10s-5.2-3.3-9.4-3.3h-6.9v27.1h7.2c1.3,0,2.4-0.1,3.3-0.2
	c1-0.1,1.8-0.3,2.6-0.6c0.8-0.3,1.4-0.7,2-1.2s1.2-1.1,1.7-1.8C73.2,45.5,74.1,42.3,74.1,38.1"/>
<polygon class="st0" points="290.8,18.3 290.8,60.6 336,9.1 "/>
<polygon class="st1" points="307.7,29.2 302,29.2 302,23.6 296.4,23.6 296.4,29.2 290.8,29.2 290.8,34.8 296.4,34.8 296.4,40.5 
	302,40.5 302,34.8 307.7,34.8 "/>
</svg>
