<?xml version="1.0" encoding="utf-8"?>
<!-- Generator: Adobe Illustrator 22.0.1, SVG Export Plug-In . SVG Version: 6.00 Build 0)  -->
<svg version="1.1" id="图层_1" xmlns="http://www.w3.org/2000/svg" xmlns:xlink="http://www.w3.org/1999/xlink" x="0px" y="0px"
	 viewBox="0 0 710 120" style="enable-background:new 0 0 710 120;" xml:space="preserve">
<style type="text/css">
	.st0{fill:#050608;}
	.st1{fill:#FBD603;}
</style>
<g id="_x23_050608ff">
	<path class="st0" d="M17.2,8.1C31.5,8.2,45.9,8,60.2,8.2c4.8,4.5,9.3,9.5,14.1,14.1c0,5.2,0,10.4,0,15.6c-5.2,0-10.3,0-15.5,0
		c0-5.1,0-10.2,0-15.2c-13.3,0-26.7,0-40,0c0,25,0,50,0,75c13.3,0,26.7,0,40,0c0-5.2,0-10.3,0-15.5c5.2,0,10.3,0,15.5,0
		c0,5.6,0,11.2,0,16.8c-4.1,4.6-8.4,8.8-12.7,13.2c-15.4,0-30.8,0-46.2,0c-4-4.5-8.5-8.4-12.5-12.9c0.1-25.6,0-51.3,0-77
		C7.7,17.5,12.4,12.8,17.2,8.1z"/>
	<path class="st0" d="M81.8,8.1c19,0,38,0,57,0c0,4.8,0,9.7,0,14.5c-6.9,0-13.8,0-20.7,0c0,25,0,50,0,75c6.9,0,13.8,0,20.7,0
		c0,4.8,0,9.7,0,14.5c-19,0-38,0-57,0c0-4.8,0-9.7,0-14.5c6.9,0,13.8,0,20.7,0c0-25,0-50,0-75c-6.9,0-13.8,0-20.8,0
		C81.8,17.8,81.8,13,81.8,8.1z"/>
	<path class="st0" d="M145,8.1c22.3,0,44.7,0,67,0c0,4.8,0,9.7,0,14.5c-8.6,0-17.2,0-25.8,0c0,29.8,0,59.7,0,89.5
		c-5.2,0-10.5,0-15.8,0c0-29.8,0-59.7,0-89.5c-8.5,0-17,0-25.5,0C145,17.8,145,13,145,8.1z"/>
	<path class="st0" d="M217.8,8.1c5.2,0,10.5,0,15.8,0c0,11.7,0,23.4,0,35.1c6.7,6.8,13.6,13.4,20.1,20.4
		c6.8-6.8,13.6-13.6,20.4-20.4c0-11.7,0-23.4,0-35.1c5.2,0,10.5,0,15.8,0c0,13.5,0,26.9,0,40.4c-9.4,9.3-18.8,18.7-28,28.2
		c0,11.8,0,23.6,0,35.4c-5.3,0-10.7,0-16,0c0-11.9,0-23.7,0-35.6c-9.3-9.4-18.7-18.7-28-28C217.8,35,217.8,21.6,217.8,8.1z"/>
</g>
<g id="_x23_fbd603ff">
	<path class="st1" d="M299.8,8.1c19,0,38,0,57,0c0,4.8,0,9.7,0,14.5c-6.9,0-13.8,0-20.7,0c0,25,0,50,0,75c6.9,0,13.8,0,20.7,0
		c0.1,4.8,0,9.7,0,14.5c-19,0-38,0-57,0c0-4.8,0-9.7,0-14.5c6.9,0,13.8,0,20.8,0c0-25,0-50,0-75c-6.9,0-13.8,0-20.8,0
		C299.8,17.8,299.8,13,299.8,8.1z"/>
	<path class="st1" d="M369,7.9c5.2,0,10.5,0,15.7,0c0,3.8,0,7.6,0,11.3c16.2,16.1,32.1,32.4,48.2,48.5c0-20,0-39.9,0-59.9
		c5.2,0,10.5,0,15.7,0c0,34.7,0,69.5,0,104.2c-5.2,0-10.5,0-15.8,0c-0.2-7.8,0.4-15.8-0.2-23.6c-16-16-31.9-32.3-48-48.3
		c0,24,0,47.9,0,71.8c-5.2,0-10.5,0-15.8,0C369,77.4,369,42.6,369,7.9z"/>
	<path class="st1" d="M461.5,8.1c17.5,0,34.9,0,52.4,0c10,9.9,19.6,20.1,29.6,29.9c0,14.8,0,29.6,0,44.5
		c-9.8,9.9-19.8,19.6-29.4,29.6c-17.5,0-35.1,0-52.6,0c0-4.8,0-9.7,0-14.5c4.4,0,8.8,0,13.2,0c0-24.9,0-49.8,0-74.7
		c-4.4,0-8.8,0-13.2,0C461.5,17.9,461.5,13,461.5,8.1 M490.8,22.9c0,24.9,0,49.8,0,74.8c5.6,0,11.3,0,16.9,0
		c6.1-6.2,12.1-12.5,18.3-18.6c0.7-0.9,2-1.6,1.8-2.9c0-11,0-21.9,0-32.9c-6.8-6.7-13.3-13.7-20.2-20.4
		C502,22.9,496.4,22.9,490.8,22.9z"/>
	<path class="st1" d="M556.8,8.1c20.1,0,40.2,0,60.2,0c0,4.8,0,9.7,0,14.5c-14.8,0-29.7,0-44.5,0c0,9.9,0,19.8,0,29.7
		c14.2,0,28.3,0,42.5,0c0,4.8,0,9.7,0,14.5c-14.2,0-28.3,0-42.5,0c0,10.2,0,20.5,0,30.8c15,0,30,0,45,0c0,4.8,0,9.7,0,14.5
		c-20.2,0-40.5,0-60.7,0C556.8,77.5,556.8,42.8,556.8,8.1z"/>
	<path class="st1" d="M628.5,8.1c5.2,0,10.5,0,15.7,0c0,5.8,0,11.6,0,17.5c8,7.8,15.7,15.9,23.6,23.8c7.6-8.2,15.9-15.9,23.6-24.1
		c0-5.7,0-11.4,0-17.1c5.2,0,10.3,0,15.5,0c0,7.4,0,14.7,0,22.1c-9.7,9.6-19.2,19.5-28.9,29.2c9.6,9.7,19.1,19.5,28.8,29.1
		c0,7.9,0,15.8,0,23.6c-5.2,0-10.3,0-15.5,0c0-6.2,0-12.4,0-18.6c-7.8-8.2-15.9-16-23.7-24.1c-8,7.9-15.7,16-23.6,23.9
		c0,6.3,0,12.5,0,18.8c-5.2,0-10.5,0-15.7,0c0-7.9-0.1-15.8,0-23.8c9.6-9.6,19.5-19.1,28.8-29c-9.6-9.9-19.4-19.4-28.9-29.4
		C628.5,22.7,628.5,15.4,628.5,8.1z"/>
</g>
</svg>
