<?xml version="1.0" encoding="utf-8"?>
<!-- Generator: Adobe Illustrator 22.0.1, SVG Export Plug-In . SVG Version: 6.00 Build 0)  -->
<svg version="1.1" id="图层_1" xmlns="http://www.w3.org/2000/svg" xmlns:xlink="http://www.w3.org/1999/xlink" x="0px" y="0px"
	 viewBox="0 0 850 220" style="enable-background:new 0 0 850 220;" xml:space="preserve">
<style type="text/css">
	.st0{fill:#E0C038;}
	.st1{fill:#0A76BF;}
</style>
<g id="_x23_e0c038ff">
	<path class="st0" d="M83.7,36.3c17.5-2.2,35.1-7,49.8-17.1c0,5.4,0.9,10.9-0.2,16.3c-12,7.7-26.5,10.7-40.6,11.1
		c-24.5,1-48.8-6.1-70.2-17.5C42.4,34.2,63,37.3,83.7,36.3z"/>
	<path class="st0" d="M528.8,66.2c1.8,0,3.6,0.1,5.4,0.1c11.5,24.4,23.4,48.7,34.9,73.2c-2,0-4.1,0.1-6.1,0.1
		c-3.2-6.8-6.4-13.6-9.6-20.3c-14.8,0-29.6,0-44.4,0c-3.1,6.8-6.3,13.6-9.5,20.3c-1.9,0-3.9,0-5.8,0
		C505.3,115.1,516.9,90.6,528.8,66.2 M511.5,114.3c13.1,0.1,26.3,0,39.4,0c-6.5-13.9-13.1-27.8-19.6-41.8
		C524.6,86.4,518.1,100.4,511.5,114.3z"/>
	<path class="st0" d="M806.7,67c13.1-3.6,27.7-0.7,38.2,7.9c-1.2,1.4-2.3,2.8-3.5,4.2c-4.2-2.9-8.6-5.9-13.6-7.3
		c-10.1-2.8-21.8-1.6-30,5.3c-12.9,10.2-15.2,30.1-7.3,44c4.9,8.6,14.5,14,24.2,14.6c9.7,1,19.4-2.3,27.3-7.8c0-7.1,0-14.1,0-21.2
		c-8.4,0-16.8-0.1-25.2,0c0-1.7,0-3.3,0-5c10.2-0.1,20.4,0,30.6-0.1c0,9.4,0,18.8,0,28.2c-7.8,5.9-17,10.4-26.9,10.7
		c-10.4,0.7-21.4-2.3-29.2-9.5c-12-11.2-14.6-30.4-7.5-44.9C788.3,77,796.9,69.9,806.7,67z"/>
	<path class="st0" d="M347.3,66.8c19.4,0,38.7,0,58.1,0c0,1.7,0,3.3,0,5c-8.7,0-17.5,0-26.2,0c0,22.6,0,45.2,0,67.8
		c-1.9,0-3.8,0-5.7,0c-0.1-22.6,0-45.2,0-67.8c-8.7,0-17.4-0.1-26.2,0.1C347.3,70.2,347.3,68.5,347.3,66.8z"/>
	<path class="st0" d="M422.3,66.8c10.5,0,20.9-0.1,31.4,0c7.5,0.1,15.5,1.7,21.2,7c7.9,7,8.1,20.6,0.3,27.7
		c-4.3,4.3-10.4,5.9-16.2,7.2c8.3,10.3,16.6,20.6,24.7,31c-2.9-0.4-6.8,0.9-8.7-2c-6.9-8.5-13.6-17.1-20.4-25.7
		c-1.1-1.2-2.2-2.8-4-2.6c-7.5-0.2-15.1,0.1-22.6-0.1c0.1,10,0,20.1,0.1,30.1c-1.9,0-3.8,0-5.7,0.1C422.3,115.3,422.2,91,422.3,66.8
		 M427.9,71.8c0,10.9,0,21.9,0,32.8c8.6-0.1,17.2,0,25.8,0c6.2-0.1,12.9-1.6,17.4-6.2c5.6-5.6,5.6-16-0.4-21.3
		c-4.6-4.1-11-5.1-16.9-5.2C445.1,71.7,436.5,71.8,427.9,71.8z"/>
	<path class="st0" d="M585,66.8c10.5,0.2,21-0.5,31.5,0.4c10.5,1.2,20.7,6.3,27,14.9c9.3,12.5,8.9,31.4-1.2,43.4
		c-7.4,9-19.1,13.7-30.6,14c-8.9,0.1-17.8-0.1-26.8,0.1C585,115.3,584.9,91.1,585,66.8 M590.7,71.8c-0.3,20.9-0.3,41.9,0,62.8
		c7.3-0.1,14.6,0.1,21.9-0.1c9.6-0.4,19.3-4.5,25.3-12.2c7.5-9.5,8.3-23.5,2.5-34c-3.7-6.9-10.3-12-17.6-14.4
		C612.4,70.5,601.4,72.2,590.7,71.8z"/>
	<path class="st0" d="M669.9,66.8c1.9,0,3.7,0,5.6,0c0,24.3,0,48.5,0,72.8c-1.9,0-3.8,0-5.6,0C669.9,115.3,669.8,91.1,669.9,66.8z"
		/>
	<path class="st0" d="M698.5,66.8c1.8,0,3.5-0.1,5.3-0.1c17.4,20.9,34.3,42.1,51.9,62.9c0.3-20.9,0-41.9,0.2-62.8c1.8,0,3.6,0,5.4,0
		c-0.1,24.4,0.1,48.8-0.1,73.2c-2.1-0.5-4.6-0.6-5.9-2.5c-17-20.9-34.2-41.6-51.2-62.5c0.1,21.5,0,43,0,64.6c-1.9,0-3.7,0-5.6,0
		C698.5,115.3,698.4,91.1,698.5,66.8z"/>
</g>
<g id="_x23_0a76bfff">
	<path class="st1" d="M5.6,100.7C1.1,78.2,0.5,54,9.5,32.4c16.2,17.2,38,28.3,60.9,33.1c0.1,11.7,0.1,23.5,0.1,35.2
		C48.9,100.7,27.2,100.9,5.6,100.7z"/>
	<path class="st1" d="M84.9,68.1c22.2,2.5,44.9,1.3,66.7-3.7c-1.7,12.4-4.9,24.6-9.1,36.4c-19.2,0.1-38.4,0-57.6,0
		C84.9,89.9,84.9,79,84.9,68.1z"/>
	<path class="st1" d="M198.9,71.2c9.8-6.2,22.3-7.1,33.3-3.9c6.2,1.8,11.5,5.7,16.4,9.8c-1.4,1.4-2.7,2.7-4.1,4.1
		c-5.4-4.8-11.7-8.9-19-10.1c-10.7-2.1-22.6,1.3-29.8,9.7c-11.2,12.4-10.8,33.3,0.9,45.2c6.8,7.4,17.2,10.7,27.1,9.4
		c8.3-0.6,15.5-5.5,21.5-11c1.3,1.2,2.6,2.5,4,3.7c-5.8,5.4-12.6,10.1-20.5,11.8c-11.8,2.7-24.9,0.2-34.2-7.7
		c-12.1-9.9-16.1-27.8-10.7-42.2C186.6,82.3,191.8,75.5,198.9,71.2z"/>
	<path class="st1" d="M264.1,66.7c1.8,0,3.6,0,5.4,0c10,14.3,20.1,28.6,30.2,42.9c10-14.3,20.2-28.4,30-42.8c1.8,0,3.7-0.1,5.5-0.1
		c-0.1,24.3,0.1,48.7,0,73c-2,0-4,0-5.9,0c0-21,0.1-41.9,0-62.9c-10,14-19.8,28-29.8,41.9c-10-13.8-19.7-27.9-29.7-41.7
		c-0.1,20.9,0,41.7-0.1,62.6c-1.9,0-3.8,0-5.7,0C264,115.4,264.2,91.1,264.1,66.7z"/>
	<path class="st1" d="M9.5,115.1c20.3-0.5,40.7-0.2,61-0.2c0.2,23.6,0.1,47.3,0.1,70.9c-12.4,6.5-25.5,12.2-39.4,14.6
		c-2.8,0.1-6.9,1.4-8.4-1.8c0-2.5,0.8-4.9,1.4-7.3c4-16.2,3-33.8-4-49C16,133.5,12.3,124.4,9.5,115.1z"/>
	<path class="st1" d="M84.8,115c17.2-0.4,34.4-0.1,51.6-0.2c-11.2,24.9-28.7,47.2-51.6,62.3C84.7,156.4,84.9,135.7,84.8,115z"/>
</g>
</svg>
