<?xml version="1.0" encoding="utf-8"?>
<!-- Generator: Adobe Illustrator 22.0.1, SVG Export Plug-In . SVG Version: 6.00 Build 0)  -->
<svg version="1.1" id="图层_1" xmlns="http://www.w3.org/2000/svg" xmlns:xlink="http://www.w3.org/1999/xlink" x="0px" y="0px"
	 viewBox="0 0 800 320" style="enable-background:new 0 0 800 320;" xml:space="preserve">
<style type="text/css">
	.st0{fill:#00C4E6;}
</style>
<g id="_x23_00c4e6ff">
	<path class="st0" d="M195.1,6.3c11.1-2.5,22.6-2.3,34-1.8c18.8,1.6,37.1,6.7,55.1,12c0.8,2.6,0.4,5.4,0.5,8
		c-0.2,10,0.3,20-0.3,29.9c-11-3.5-22.1-6.5-33.4-9.1c-9.5-2.3-19.1-4.4-28.9-4.6c-12.2,0.2-25.2,2.9-34.5,11.4
		c-9.9,8.7-14.5,21.8-16.4,34.5c-2,13.6-1.9,27.5,0.4,41c2.1,10.7,5.7,21.8,13.7,29.7c11,11.9,28.4,14.6,43.8,13.3
		c14.5-1.4,28.5-5.7,42.5-9.4c4.4-1.1,8.6-3,13.1-3.5c0,11.6,0,23.2,0,34.8c-0.1,1.1,0.2,2.8-1.2,3.2c-22.6,6.3-45.7,13.1-69.4,12.6
		c-16-0.8-32.4-4-46.4-12.2c-16.4-9.1-28.5-24.8-34.6-42.4c-5.2-13.7-7.1-28.5-7.6-43.1c-0.4-23.8,3.3-48.8,16.6-69.1
		C153.8,23,173.7,10.3,195.1,6.3z"/>
	<path class="st0" d="M468.2,10.1c6.7-2.2,13.5-4.2,20.4-5.4c0.2,63,0.1,126,0.1,189c0.3,6.8-6,12.4-12.6,12
		c-10.6-0.2-21.2,0.4-31.8-0.3c-0.1-54.9,0-109.9,0-164.8c-0.1-5.5,0.9-11.2,3.8-16C452.4,17,460.3,12.7,468.2,10.1z"/>
	<path class="st0" d="M571.2,9.7c20.1-7.2,42.1-6.8,62.8-2.8c13,2.2,25.6,6.3,38.3,9.5c0.6,6.4,0.2,12.8,0.3,19.1
		c-0.1,6.3,0.3,12.6-0.3,18.9c-11.6-4-23.5-7.2-35.5-9.8c-15.4-3.9-32.1-6.3-47.4-0.7c-10.9,3.5-19.8,12.1-24.4,22.5
		c-6.9,14.9-7.7,31.8-7,48c1.1,15.2,4.3,31.6,15.2,43c9.5,10.3,24.2,13.8,37.8,13.4c10.8,0,21.5-2.6,31.9-5.1
		c9.8-2.7,19.6-5.3,29.3-8.3c0.6,12.5,0.3,25.1,0.3,37.6c-17.5,5.4-35.3,10.2-53.5,12.4c-17.7,1.5-36,0.4-52.7-6.3
		c-16-6.1-29.8-17.8-38.4-32.6c-10.4-17.4-13.8-38-14.7-58c-0.3-19.5,2.2-39.5,10.3-57.4C532.7,32.9,550.2,16.5,571.2,9.7z"/>
	<path class="st0" d="M314.9,24c10.4,2.5,21.2,4.8,30.6,10.2c6.1,3.5,10.8,9.5,12.4,16.4c1.4,4.9,1.1,10,1.1,15c0,42.7,0,85.3,0,128
		c0.3,6.4-5.3,12-11.6,11.9c-10.9,0-21.9,0.4-32.8-0.2c-0.1-53.2,0-106.5,0-159.7C314.7,38.4,314.1,31.2,314.9,24z"/>
	<path class="st0" d="M379.7,23.9c7.5,1.4,14.8,3.6,22.1,6.1c7,2.5,13.8,6.6,17.8,13.1c3.3,4.8,4.1,10.8,4.3,16.4
		c0,44.4,0,88.7,0,133c0.3,4.4-1.8,8.8-5.4,11.2c-4.7,2.5-10.2,1.7-15.3,1.8c-7.9-0.2-15.8,0.4-23.7-0.3
		c-0.1-54.6,0-109.2-0.1-163.8C379.5,35.7,379.1,29.8,379.7,23.9z"/>
	<path class="st0" d="M494.3,249.7c3.5-0.3,7-0.6,10.5,0c0.6,11.4,0,22.9,0.3,34.3c5.7-6.4,11.3-12.9,17.1-19.2
		c4.3,0,8.5-0.1,12.8,0.3c-4,6.5-10.7,10.8-14.4,17.4c3.7,6.5,7.5,13,11.3,19.5c2.5,4.3,5.4,8.4,7.2,13.1c-4,0.2-8.2,0.7-12.2,0
		c-5.4-7.6-9.9-15.8-15-23.5c-2.5,2.7-6.1,5-6.5,9c-0.6,4.9-0.1,9.9-0.4,14.8c-3.5,0.1-6.9,0.1-10.4-0.1
		C494,293.3,494.4,271.5,494.3,249.7z"/>
	<path class="st0" d="M598.6,249.7c3.7-0.5,7.4-0.5,11.1,0c0,5,0,10,0,15c4.4,0,8.8,0,13.2,0.1c0.1,3,0.1,5.9,0,8.9
		c-4.4,0-8.8,0-13.2,0c0,8.6-0.1,17.2,0,25.9c0,2.6,0.9,5.8,3.7,6.5c4,1,8-0.2,11.9-1.2c0.2,2.9,0.7,5.8-0.1,8.6
		c-7,3.1-16.2,3.3-22.2-1.8c-3.7-3.7-4.4-9.1-4.5-14.1c0-8,0-15.9,0-23.9c-2.3,0-4.6,0-6.9,0.1c-0.3-3-0.4-5.9-0.2-8.9
		c2.3-0.1,4.7-0.1,7.1-0.1C598.6,259.7,598.6,254.7,598.6,249.7z"/>
	<path class="st0" d="M137.7,271.1c4.4-5.5,11.8-7.3,18.5-7.2c5.4,0.5,10.7,1.7,15.8,3.4c-0.5,3.2,1.1,7.1-0.7,9.8
		c-6.6-1.4-13.2-4.4-20.1-2.6c-4.6,1.4-7.1,6.2-7.9,10.7c-1.1,4.8-0.3,9.9,1.6,14.4c1.6,4,6.1,6.2,10.2,6.2
		c5.8,0.2,11.2-2.2,16.8-3.2c0,3.3,0.1,6.7,0.1,10c-8.5,2.3-17.5,4.9-26.1,1.9c-8.6-2.7-13.4-11.6-14.2-20.1
		C131.4,286.4,131.7,277.3,137.7,271.1z"/>
	<path class="st0" d="M186.2,267.5c6.6-3.1,14.2-3.6,21.4-3.1c3.3,0.2,6.3,1.8,9,3.5c7.6-3.4,16.5-5.1,24.6-2.4
		c6.2,2.1,9.9,8.6,9.7,14.9c0,11.5,0.3,23-0.2,34.5c-3.6,0.4-7.3,0.5-11,0.2c-0.1-10.9,0-21.7,0-32.6c0-2.9-0.7-6.6-3.8-7.7
		c-4.6-1.6-9.8-0.5-14.2,1.2c1,13,0.4,26.1,0.4,39.2c-3.5,0.1-7,0.1-10.5-0.2c-0.5-10.8,0-21.7-0.2-32.5c-0.1-3.1-1.1-6.7-4.2-7.9
		c-4.5-1.2-9.3-0.5-13.7,0.8c-0.4,13.3,0.2,26.5-0.3,39.8c-3.5,0.1-7,0.1-10.4-0.1c-0.6-13.2-0.1-26.4-0.3-39.6
		C182,272.4,183,268.8,186.2,267.5z"/>
	<path class="st0" d="M278.9,264.5c7.1-0.7,14.6,0.3,21.2,3.1c1.2,3,0.3,6.3,0.3,9.4c-7.4-1.4-15.2-5.2-22.6-1.9
		c-5.8,3-6.4,10.5-6.2,16.3c-0.1,5.4,2,12.1,7.7,13.7c7,1.9,14.1-0.6,20.7-2.6c0.7,3.1,0.7,6.2,0.7,9.4c-8.7,3.6-19,5.3-28,1.9
		c-7.4-2.8-11.7-10.6-12.5-18.2c-0.8-7.7-0.5-16.2,4.3-22.7C267.7,268.1,273.3,265.4,278.9,264.5z"/>
	<path class="st0" d="M332.3,266.8c9.3-3,20.2-4.2,29,1c8.6-3.3,18.9-5.6,27.5-0.8c5.9,3.6,7.1,11.2,6.9,17.5
		c-0.2,10.2,0.4,20.4-0.4,30.5c-3.5,0.3-7.1,0.3-10.6,0c-0.6-11.2,0-22.4-0.3-33.5c0.1-2.9-1.7-5.8-4.4-7c-4.6-1-9.4-0.2-13.8,1.4
		c1.1,5.8,0.6,11.8,0.7,17.7c-0.1,7.2,0.2,14.3-0.2,21.5c-3.5,0.2-6.9,0.3-10.4,0.2c-1.4-11.7,0-23.6-0.8-35.3
		c-0.3-2.9-2.4-5.3-5.3-5.6c-4.1-0.4-8.6-0.4-12.3,1.6c0.1,13.1,0.4,26.2-0.1,39.2c-3.5,0.2-6.9,0.2-10.4,0.1
		c-0.6-13.5,0.1-27-0.4-40.4C326.6,271.2,328.8,267.7,332.3,266.8z"/>
	<path class="st0" d="M414.5,266.1c7.3-2,15.1-2.4,22.5-1.1c4.1,1.2,8.3,3.7,9.7,8c1.7,4,1.3,8.4,1.3,12.6c-0.1,6.7,0.1,13.3,0,20
		c0,4.1-3.3,7.5-7.1,8.6c-4.8,1.2-9.8,1.6-14.7,1.6c-5.8-0.1-12.1-0.6-16.9-4.3c-7.4-5.4-6.7-18.9,1.5-23.2c8-4.8,17.7-3.1,26.6-3.6
		c-0.1-3.5,0.5-8.3-3.4-10.1c-7.1-2.5-14.8-0.1-21.8,1.9C411.8,273.1,410,267,414.5,266.1 M420.1,293.4c-4.8,1.1-7,7.9-3.1,11.3
		c4,2.9,9.4,2,14.1,2.1c2.1-0.4,5.2,0.2,6.1-2.2c0.4-3.9,0.1-7.9,0.1-11.8C431.6,293,425.7,292.1,420.1,293.4z"/>
	<path class="st0" d="M647.7,264.4c7-0.6,14.4-0.2,21,2.4c0.7,3.2,0.3,6.4,0.1,9.6c-6.6-2-13.6-4.4-20.4-2.6
		c-4.5,0.8-6.3,8.2-1.6,10c7.8,2.7,17.5,0.9,24,7.1c6.8,6.5,3.7,19.1-4.8,22.6c-10,4-21.4,2.2-31.6-0.5c-0.2-3.2-0.2-6.4,0.3-9.5
		c7.7,2.6,16.1,4.3,24.2,2.8c4.2-0.4,6.5-6.8,2.9-9.4c-4.6-3.2-10.5-2-15.7-3.4c-3.8-1-7.9-2.2-10.3-5.6c-2.8-3-2.8-7.4-2.3-11.3
		C634.6,269.9,641.2,265,647.7,264.4z"/>
	<path class="st0" d="M465.1,266.5c5.6-3.1,12.4-2,18.5-2.2c0.5,3.1,0.5,6.3,0.1,9.4c-3.9-0.4-8-0.8-11.7,0.8
		c-1.7,0.7-2.4,2.4-2.4,4.1c-0.7,12.2,0.6,24.4-0.6,36.5c-3.6,0.1-7.1,0.1-10.7,0c-0.3-11.9-0.1-23.8-0.1-35.7
		C458.1,274.4,460.5,268.9,465.1,266.5z"/>
	<path class="st0" d="M545.2,273.7c4-6.7,12.3-9.9,19.9-9.5c5.7-0.2,11.4,1.8,15.7,5.5c5,4.8,6.7,12,6.8,18.8
		c0.3,2.5-1.8,5.3-4.5,5.1c-10.5,0.4-20.9,0-31.4,0.4c0.7,4.1,2.4,8.5,6.5,10.5c7.7,3.7,16.6,1.6,24.4-0.5c0.3,3,0.3,6.1,0.2,9.1
		c-7.5,2.5-15.6,3.3-23.5,2.1c-7.5-1.3-14.5-6.4-16.8-13.8C539.8,292.4,540,281.8,545.2,273.7 M556.1,275.5
		c-2.7,2.8-3.7,6.6-4.3,10.3c8.2-0.2,16.5,0,24.7-0.1c-0.4-3.5-1.1-7.3-3.7-9.9C568.4,271.7,560.8,271.5,556.1,275.5z"/>
</g>
</svg>
