<?xml version="1.0" encoding="utf-8"?>
<!-- Generator: Adobe Illustrator 22.0.1, SVG Export Plug-In . SVG Version: 6.00 Build 0)  -->
<svg version="1.1" id="图层_1" xmlns="http://www.w3.org/2000/svg" xmlns:xlink="http://www.w3.org/1999/xlink" x="0px" y="0px"
	 viewBox="0 0 900 240" style="enable-background:new 0 0 900 240;" xml:space="preserve">
<style type="text/css">
	.st0{fill:#D92626;}
	.st1{fill:#FFFFFF;}
	.st2{fill:#919BA8;}
</style>
<path class="st0" d="M185,205.5H5v-180h180V205.5z"/>
<path class="st1" d="M74,178.5h42v-42h42v-42h-42v-42H74v42H32v42h42V178.5z"/>
<path d="M868.1,45l-18,26.9L832.9,45h-28.5l2.7,3.9c-4.3-1.6-10.9-3.9-15.6-3.9H751v25.8c-1.6-5.9-4.7-10.9-9.4-15.2
	c-7.4-6.6-16-10.9-31.6-10.9h-0.4c-15.2,0-23.4,4.3-30.8,10.9c-4.3,3.9-7.4,9-9.4,14.8c-0.8-2-1.9-5.5-2.3-7
	c-2.3-5.1-6.2-9.4-10.9-12.5c-4.3-2.7-8.6-4.3-13.7-5.1c0,0-3.5-1.2-10.9-1.2c-16-0.4-23.4,3.9-30.4,10.5
	c-7,6.6-10.5,16.4-10.9,28.9v1.2c-2.7-3.1-5.9-5.9-9.8-7.4c-7.8-3.1-15.6-5.5-23.8-6.6c-3.1-0.4-5.9-1.2-8.6-2.7
	c-1.2-0.8-1.6-2-1.6-3.1c0-1.6,0.8-3.1,2.3-4.3c2-1.2,4.3-2,6.6-1.6c3.1,0,5.9,0.8,8.6,2.3c2.3,1.6,3.5,4.3,3.9,7h24.2
	c-0.4-7-4.3-13.7-10.1-18c-7.4-4.3-15.6-6.2-23.8-6.2c-10.1,0-13.7,1.6-20.3,3.9c-4.3,1.6-8.2,4.3-10.9,8.2c-2.3,3.1-3.5,7-3.5,10.9
	c0,5.9,2.7,11.3,7,14.8c7,4.7,15.2,7.8,23.8,9c4.7,0.8,9,2,12.9,4.7c1.6,1.2,2.7,3.1,2.7,5.1c0,2.3-1.2,4.3-3.1,5.5
	c-2.3,1.6-5.5,2.7-8.6,2.3c-4.3,0.4-8.2-1.6-11.3-4.7c-2-2-2.7-4.7-3.1-7.4h-23L499.2,45H473l-26.9,67.5l-24.6-37.5L453.1,45h-33.2
	l-27.7,29.7V45h-25.8v51.5c-0.4,2.3-1.6,4.3-3.5,5.9c-2.7,2.3-6.6,3.5-10.1,3.5c-3.9,0.4-7.4-1.2-10.1-3.5c-2.7-2.7-3.9-6.2-3.5-9.8
	V45h-25.4v18.3c-0.4-2.7-0.8-5.5-2-7.8c-1.6-5.9-4.3-10.9-8.2-15.2c-3.9-4.3-9-7.8-14.4-10.1c-7-3.1-14.8-4.7-22.6-4.7h-46.8v97.6
	h42.9c7.8-0.8,15.6-1.6,23.4-3.9c5.5-1.2,10.1-3.9,14.4-7.4c4.7-3.9,8.2-8.6,10.5-14.1c1.6-3.5,2.3-7.4,3.1-11.3v5.5
	c0,4.3,0.8,8.6,2.3,12.9c1.2,3.1,3.1,6.2,5.5,9c2.3,2.7,5.5,5.1,8.6,6.6c3.5,1.6,7.8,2.7,11.7,3.1c4.7,0.4,9,0.8,12.9,0.8
	c4.7,0,8.6,0,13.3-1.2h23v-17.2l13.7-14.4l17.2,31.6h46.4l3.9-12.9h28.9l3.9,12.9H532l-2.3-6.6c5.5,5.1,14.8,7.4,28.9,7.4
	c6.6,0.4,13.7-0.8,19.9-3.1c5.1-2,9-5.1,12.1-9.4c2-2.3,3.1-5.5,3.9-8.6c0.8,1.6,1.6,3.1,2.7,4.7c3.5,5.5,8.6,10.1,14.4,12.9
	c7,2.7,14.4,3.9,21.9,3.5c3.1,0,6.2-0.4,9.8-0.8c3.1-0.4,5.9-1.2,8.6-2.3c4.7-2,8.6-5.1,11.7-9c2.3-2.7,4.3-5.9,5.5-9.4
	c0.4-0.8,0.8-2.7,0.8-4.3c0.8,2.7,2.3,5.9,3.9,8.2c3.5,5.9,8.6,10.1,14.8,12.9c7,2.7,9.8,4.3,18.3,4.3h6.2c6.2,0,14.1-1.6,21.5-5.1
	c8.2-4.3,14.4-11.7,17.2-20.7v25.4h25.4V93.8h14.1c10.1,0,18-2,22.6-6.2c5.1-4.7,7.8-11.3,7.4-18c0-0.8,0-2,0-2.7l17.2,23.8v32h25.4
	v-32L895,46.6l-5.1-1.6H868.1z M280.2,91.1c-1.2,3.1-3.5,5.5-6.6,7.4c-2.3,1.2-4.7,0.8-7,1.2h-3.9h-11.7V48.9h15.6
	c3.9,0,16,2.7,16,25.4C282.9,80.1,282.2,85.6,280.2,91.1z M478.5,93.4l8.6-26.2l0.4-1.2l9,27.3H478.5z M669,95h-22.3
	c-0.4,2.7-1.9,5.5-3.5,7.4c-3.1,2.7-7,3.9-10.9,3.9c-4.3,0.4-8.6-1.6-11.7-4.7c-2.7-3.1-4.3-9-4.3-17.2c-0.4-5.1,0.8-10.5,3.5-14.8
	c3.1-4.3,7.8-6.6,13.3-6.6c2.3,0,4.7,0.4,7,1.6c1.2,0.4,2.3,1.2,3.1,2c1.6,1.2,2.7,3.1,3.5,5.1h23c-1.2,4.3-1.9,9-1.9,13.3
	C667.8,88,668.2,91.5,669,95z M723.2,101.2c-3.1,3.5-7.8,5.1-12.9,5.1c-4.7,0.4-9.4-1.6-12.5-5.1c-3.5-4.7-5.1-10.5-4.7-16.4
	c-0.4-5.9,1.2-11.7,4.7-16.8c3.1-3.5,7.8-5.5,12.1-5.1h0.4c4.7,0,9.4,1.6,12.5,5.1c3.5,4.3,5.1,10.1,4.7,15.6
	C727.5,91.9,726,98.1,723.2,101.2z M793.1,76.6c-3.1,1.6-6.6,2.7-10.1,2.3h-6.2V61.8h7.4c3.5-0.4,6.6,0.8,9.8,2.3
	c1.6,1.6,2.7,3.9,2.7,6.2C796.2,72.7,795.1,75.1,793.1,76.6z"/>
<path class="st2" d="M222.8,194.5c1.6,2.7,3.9,4.7,7,5.9c3.5,1.6,7,2,10.9,2c3.1,0,6.2-0.8,9.4-2c2.7-1.2,4.7-3.1,6.2-5.5
	c1.6-2,2.3-4.7,2.3-6.6c0-2.3-0.8-4.7-2-6.6c-1.6-2.3-3.9-3.9-6.2-5.1c-3.5-1.2-7-2.3-10.5-3.1c-3.5-0.4-6.6-1.6-9.8-3.5
	c-1.2-1.2-2-2.7-2-4.3c0-2,1.2-3.9,2.7-5.1c2.3-1.6,5.5-2.3,8.6-2.3c3.1-0.4,5.9,0.8,8.2,2.3c2,1.6,3.1,4.3,3.5,6.6l6.2-0.4
	c0-2.7-0.8-5.5-2.3-7c-1.6-2.3-3.9-3.9-6.2-5.1c-3.1-1.2-6.2-2-9.4-1.6c-3.1,0-5.9,0.4-9,1.6c-2.3,0.8-4.7,2.7-6.2,4.7
	c-1.2,2-2,4.3-2,6.2c0,2,0.4,4.3,1.6,5.9c1.2,2,3.1,3.5,5.1,4.7c3.1,1.2,6.2,2.3,9.4,3.1c2.7,0.8,5.9,1.6,8.6,2.3
	c1.6,0.4,3.1,1.6,4.3,2.7c0.8,1.2,1.2,2.3,1.2,3.9c0,1.6-0.4,3.1-1.6,4.3c-1.2,1.6-2.3,2.3-4.3,3.1c-2,0.8-4.3,1.2-6.2,1.2
	c-2.3,0-5.1-0.4-7.4-1.6c-2-0.8-3.5-2-4.7-3.9c-1.2-2-2-3.9-2-5.9h-5.9C220.1,189.1,221.3,191.8,222.8,194.5z M279.8,200.8l7-26.2
	l1.6,5.9l5.5,19.9h6.2l10.9-33.6h-5.9l-5.9,19.5l-2,6.2l-1.6-6.2l-5.9-19.1h-6.2l-5.5,19.5c-1.2,4.3-1.6,6.6-2,6.6l-2-6.6l-5.5-19.5
	h-6.2l10.5,33.6H279.8z M322.4,160.6v-6.6h-5.9v6.6H322.4z M322.4,200.8v-33.6h-5.9v33.6H322.4z M334.1,198.8
	c3.1,2,6.6,3.1,10.5,2.7c2.3,0,5.1-0.4,7.4-1.6c1.9-0.8,3.9-2.3,5.1-3.9c1.2-1.6,1.6-3.5,1.6-5.5s-0.4-3.5-1.6-5.1
	c-1.2-1.6-2.3-2.3-3.9-3.1c-2.7-1.2-5.9-2-8.6-2.7c-2.7-0.8-4.7-1.2-5.1-1.6c-0.8-0.4-1.6-0.8-2.3-1.6c-0.4-0.4-0.8-1.2-0.8-2
	c0-1.2,0.8-2.3,1.6-3.1c1.6-1.2,3.9-1.6,5.9-1.2c2,0,3.9,0.4,5.5,1.6c1.2,1.2,2,2.7,2.3,4.3l5.9-0.8c-0.4-2-0.8-3.9-1.9-5.5
	c-1.2-1.6-2.7-2.7-4.7-3.1c-2.3-1.2-5.1-1.6-7.4-1.6c-1.6,0-3.5,0.4-5.1,0.8c-1.2,0.4-2.7,0.8-3.9,1.6c-1.2,0.8-2.3,2-3.1,3.1
	c-0.8,1.2-1.2,2.7-1.2,4.3c0,3.5,2,6.2,5.1,7.8c2.7,1.2,5.9,2,9,2.7c2,0.4,4.3,1.2,6.2,2c1.2,0.8,1.6,2,1.6,3.1c0,1.6-0.8,3.1-2,3.9
	c-1.6,1.2-3.9,2-6.2,1.6c-2.3,0-4.3-0.4-6.2-2c-1.6-1.6-2.7-3.1-2.7-5.5l-5.9,1.6C330.2,194.1,331.7,196.9,334.1,198.8z
	 M368.4,198.8c3.1,2,6.6,3.1,10.5,2.7c2.3,0,5.1-0.4,7.4-1.6c2-0.8,3.9-2.3,5.1-3.9c1.2-1.6,1.6-3.5,1.6-5.5s-0.4-3.5-1.6-5.1
	c-1.2-1.6-2.3-2.3-3.9-3.1c-2.7-1.2-5.9-2-8.6-2.7c-2.7-0.8-4.7-1.2-5.1-1.6c-0.8-0.4-1.6-0.8-2.3-1.6c-0.4-0.8-0.8-1.2-0.8-2
	c0-1.2,0.8-2.3,1.6-3.1c1.6-1.2,3.9-1.6,5.9-1.2c2,0,3.9,0.4,5.5,1.6c1.2,1.2,1.9,2.7,2.3,4.3l5.9-0.8c-0.4-2-0.8-3.9-1.9-5.5
	c-1.2-1.6-2.7-2.7-4.7-3.1c-2.3-0.8-4.7-1.2-7.4-1.2c-1.6,0-3.5,0.4-5.1,0.8c-1.2,0.4-2.7,0.8-3.9,1.6c-1.2,0.8-2.3,2-3.1,3.1
	c-0.8,1.2-1.2,2.7-1.2,4.3c0,3.5,2,6.2,5.1,7.8c2.7,1.2,5.9,2,9,2.7c2,0.4,4.3,1.2,6.2,2c1.2,0.8,2,2,1.6,3.1c0,1.6-0.8,3.1-2,3.9
	c-1.6,1.2-3.9,2-6.2,1.6c-2.3,0-4.3-0.4-6.2-2c-1.6-1.6-2.7-3.1-2.7-5.5l-5.9,0.8C364.5,194.1,366.1,196.9,368.4,198.8z
	 M438.7,200.8c2.7,0,5.1-0.4,7.8-0.8c2-0.4,3.5-1.2,5.5-2.3c1.6-1.2,2.7-2.7,3.5-4.7c0.8-2,1.6-4.3,1.6-5.9c0-2.7-0.8-5.1-2.3-7
	c-1.6-2-3.9-3.5-6.6-4.3c2-0.8,3.9-2.3,5.1-4.3c1.2-1.6,1.6-3.9,1.6-5.9c0-2.3-0.8-4.3-2-5.9c-1.2-2-3.1-3.5-5.1-4.7
	c-2.7-1.2-5.9-1.6-9-1.6h-18V200L438.7,200.8z M427,160.2h9.8c2.3,0,5.1,0,7.4,0.8c1.2,0.4,2.3,1.2,3.1,2.3c0.8,1.2,1.2,2.7,1.2,4.3
	c0,1.6-0.4,3.1-1.2,4.3c-0.8,1.2-2.3,2-3.5,2.3c-1.9,0.4-3.9,0.8-6.2,0.4H427C427,173.8,427,160.2,427,160.2z M427,179.3h11.3
	c2.3,0,4.7,0,7,0.8c1.6,0.4,2.7,1.6,3.9,2.7c1.6,2.7,2,5.9,0.4,8.2c-0.4,1.2-1.6,2-2.3,2.7c-1.2,0.8-2.3,1.2-3.5,1.2
	c-1.6,0-2.7,0.4-4.3,0.4h-12.1v-16H427L427,179.3z M489.4,200.8h6.2c-0.8-1.2-1.2-2.7-1.6-4.3c-0.4-3.5-0.4-6.6-0.4-10.1v-7.4
	c0-2,0-3.5-0.4-5.5c-0.4-1.6-0.8-2.7-2-3.9c-1.2-1.2-2.3-2-4.3-2.7c-2.3-0.8-4.7-1.2-7.4-1.2c-2.7,0-5.5,0.4-7.8,1.2
	c-2,0.8-3.9,2-5.1,3.5c-1.2,2-2.3,3.9-2.7,5.9l5.9,0.8c0.4-2,1.6-3.9,3.1-5.1c2-1.2,3.9-1.6,6.2-1.6c2.3,0,4.7,0.4,6.6,2
	c1.2,1.6,2,3.1,1.6,5.1c0,0.4,0,0.8,0,1.6c-3.5,1.2-7,1.6-10.5,2c-1.9,0-3.5,0.4-5.5,0.8c-1.6,0.4-3.1,1.2-4.3,2
	c-1.2,0.8-2.3,2-3.1,3.5c-0.8,1.6-1.2,3.1-1.2,4.7c0,2.7,1.2,5.5,3.1,6.6c2.3,2,5.5,3.1,9,2.7c2.3,0,4.3-0.4,6.6-1.2
	c2.3-0.8,4.3-2.3,6.2-3.9C488.3,198,488.6,199.6,489.4,200.8z M487.9,185.9c0,2-0.4,3.9-0.8,5.9c-0.8,1.6-2.3,3.1-3.9,3.9
	c-2,1.2-3.9,1.6-6.2,1.6c-1.9,0-3.9-0.4-5.1-1.6c-1.2-0.8-2-2.3-2-3.9c0-1.2,0.4-2,0.8-2.7c0.4-0.8,1.6-1.6,2.3-2
	c1.6-0.8,3.5-1.2,5.1-1.2c3.1-0.4,6.6-1.2,9.8-2.3V185.9z M509.7,200.8v-18.3c-0.4-3.1,0.8-6.2,2.7-8.6c2-1.6,4.3-2.3,6.6-2.3
	c1.6,0,2.7,0.4,4.3,1.2c1.2,0.8,2,1.6,2.3,2.7c0.4,2,0.8,3.5,0.8,5.5v20.3h5.9v-20.7c0-2,0-3.9-0.4-5.9c-0.4-1.6-0.8-3.1-2-4.3
	c-1.2-1.2-2.3-2.3-3.9-3.1c-1.9-0.8-3.9-1.2-5.9-1.2c-4.3,0-8.6,2-10.9,5.9v-5.1h-5.5v33.6L509.7,200.8z M547.6,200.8v-13.3l4.3-3.9
	l11.3,17.6h7.4l-14.8-21.1l13.3-12.5h-7.8l-14.1,13.7v-26.5h-5.9v46.5L547.6,200.8z M581.9,160.6v-6.6h-5.9v6.6H581.9z M581.9,200.8
	v-33.6h-5.9v33.6H581.9z M597.5,200.8v-18.3c-0.4-3.1,0.8-6.2,2.7-8.6c2-1.6,4.3-2.3,6.6-2.3c1.6,0,2.7,0.4,4.3,1.2
	c1.2,0.8,2,1.6,2.3,2.7c0.4,1.6,0.8,3.5,0.8,5.5v20.3h5.9v-20.7c0-2,0-3.9-0.4-5.9c-0.4-1.6-0.8-3.1-2-4.3c-1.2-1.2-2.3-2.3-3.9-3.1
	c-1.9-0.8-3.9-1.2-5.9-1.2c-4.3,0-8.6,2-11.3,5.9v-5.1h-5.5v33.6L597.5,200.8z M632.3,211.7c3.1,2,6.6,3.1,10.1,2.7
	c3.1,0,6.2-0.4,9-2c2.3-1.2,4.3-3.1,5.5-5.5c1.2-3.5,1.9-7.4,1.6-11.3v-28.9H653v4.3c-2.3-3.1-6.2-5.1-10.1-5.1
	c-5.9,0-11.3,3.5-13.3,8.6c-1.2,2.7-2,5.9-2,9c0,4.3,1.2,8.6,3.9,12.1c2.7,3.5,6.6,5.5,11.3,5.1c3.9,0,7.4-1.6,9.8-4.7
	c0,2.7,0,5.1-0.4,7c-0.4,2-1.6,3.5-3.1,4.7c-2,1.2-3.9,2-6.2,1.6c-2,0-4.3-0.4-5.9-1.6c-1.2-0.8-2-2.3-2-3.9l-5.9-0.8
	C628.4,206.6,629.6,209.7,632.3,211.7z M636.2,174.2c1.6-2,4.3-3.1,6.6-3.1c2.7,0,5.1,1.2,7,3.1c2,2.7,3.1,5.9,2.7,9.4
	c0.4,3.5-0.8,6.6-2.7,9.4c-3.1,3.9-9,4.3-12.5,1.2c-0.4-0.4-0.8-0.8-1.2-1.2c-2-2.7-3.1-6.2-2.7-9.8
	C633.5,180.1,634.2,177,636.2,174.2z M724.8,182.8v8.6c-2,1.6-3.9,2.7-5.9,3.5c-2.7,1.2-5.5,1.6-8.2,1.6c-3.1,0-6.2-0.8-9-2
	c-2.7-1.6-5.1-3.5-6.2-6.2c-1.6-3.5-2.3-6.6-2.3-10.5c0-3.1,0.8-6.2,2-9.4c0.8-1.6,2-3.5,3.1-4.7c1.6-1.6,3.1-2.7,5.1-3.5
	c2.3-0.8,5.1-1.6,7.4-1.2c2.3,0,4.7,0.4,6.6,1.2c2,0.8,3.5,2,4.7,3.5c1.2,1.6,2.3,3.5,2.7,5.9l5.9-1.6c-0.8-2.7-2-5.5-3.5-7.4
	c-1.6-2-3.9-3.9-6.6-4.7c-3.1-1.2-6.2-2-9.4-1.6c-4.3,0-9,0.8-12.9,3.1c-3.9,2-6.6,5.1-8.6,8.6c-1.9,3.9-3.1,8.2-3.1,12.9
	c0,4.3,0.8,8.6,3.1,12.5c2,3.9,5.1,6.6,8.6,8.6c3.9,2,8.6,3.1,12.9,3.1c3.5,0,7-0.8,10.1-2c3.5-1.2,6.6-3.1,9.8-5.5v-17.2h-20.3v5.5
	L724.8,182.8z M746.3,200.8v-17.6c0-2.3,0.4-4.7,1.2-6.6c0.4-1.2,1.2-2.3,2.3-3.1c1.2-0.8,2.3-1.2,3.5-1.2c1.6,0,3.1,0.4,4.3,1.2
	l2-5.5c-2-1.2-3.9-2-6.2-2c-1.2,0-2.7,0.4-3.9,1.2c-1.6,1.2-2.7,3.1-3.9,5.1v-5.5H740v33.6L746.3,200.8z M765.8,196.9
	c3.1,3.1,7.4,4.7,11.7,4.7c3.1,0,5.9-0.8,8.6-2c2.3-1.6,4.7-3.5,5.9-5.9c1.6-3.1,2.3-6.6,2-10.1c0.4-4.7-1.2-9-4.7-12.5
	c-3.1-3.1-7.4-5.1-11.7-4.7c-3.9,0-7.8,1.2-10.9,3.9c-3.9,3.9-5.9,8.6-5.5,14.1C760.7,188.7,762.3,193.7,765.8,196.9z M770.1,174.2
	c3.5-3.9,9.8-4.3,13.7-0.8c0.4,0.4,0.8,0.4,0.8,0.8c2,2.7,3.1,5.9,3.1,9.4c0.4,3.5-0.8,7-3.1,9.8c-2,2.3-4.3,3.5-7.4,3.5
	c-2.7,0-5.5-1.2-7.4-3.5C766.2,187.9,766.2,180.5,770.1,174.2z M829.4,200.8v-33.6h-5.9v18c0,2.3-0.4,4.7-1.2,6.6
	c-0.8,1.6-2,2.7-3.5,3.5c-1.6,0.8-3.1,1.6-5.1,1.2c-1.6,0-3.1-0.4-4.3-1.2c-1.2-0.8-1.9-2.3-2.3-3.5c-0.4-2-0.4-4.3-0.4-5.9v-18.7
	h-5.5v20.7c0,2,0,3.9,0.4,5.5c0.4,1.6,0.8,3.1,2,4.3c1.2,1.2,2.3,2.3,3.9,3.1c1.9,0.8,3.9,1.2,5.9,1.2c4.3,0,8.6-2,10.9-5.9v5.1h5.1
	V200.8z M845.4,214v-16.4c1.2,1.2,2.3,2.3,3.9,3.1c1.6,0.8,3.5,1.2,5.5,1.2c2.7,0,5.5-0.8,7.8-2.3c2.3-1.6,4.3-3.9,5.5-6.2
	c1.2-3.1,2-5.9,2-9.4c0-3.1-0.4-5.9-1.6-9c-1.2-2.7-2.7-5.1-5.1-6.2c-2.3-1.2-5.1-2.3-7.8-2.3c-2,0-3.9,0.4-5.9,1.2
	c-1.6,1.2-3.1,2.3-4.3,3.9v-4.7H840v46.8h5.5V214z M847.8,174.2c1.6-2.3,3.9-3.5,6.6-3.5c2.7,0,5.1,1.2,6.6,3.1
	c2,2.7,3.1,6.2,2.7,9.8c0.4,3.5-0.8,7-2.7,9.8c-1.6,2-4.3,3.5-6.6,3.5c-2.7,0-5.1-1.2-6.6-3.1c-2-2.7-3.1-5.9-2.7-9.8
	C844.6,180.9,845.8,177,847.8,174.2z"/>
</svg>
