<?xml version="1.0" encoding="utf-8"?>
<!-- Generator: Adobe Illustrator 22.0.1, SVG Export Plug-In . SVG Version: 6.00 Build 0)  -->
<svg version="1.1" id="Layer_1" xmlns="http://www.w3.org/2000/svg" xmlns:xlink="http://www.w3.org/1999/xlink" x="0px" y="0px"
	 viewBox="0 0 640 180" style="enable-background:new 0 0 640 180;" xml:space="preserve">
<style type="text/css">
	.st0{fill:#83C461;}
	.st1{fill:#FFFFFF;}
	.st2{fill:#045C8F;}
</style>
<path class="st0" d="M14.2,33c0-6.5,5.3-11.8,11.8-11.8h70.7c6.5,0,11.8,5.3,11.8,11.8v70.7c0,6.5-5.3,11.8-11.8,11.8H26
	c-6.5,0-11.8-5.3-11.8-11.8l0,0V33z"/>
<path class="st1" d="M61.4,44.8c13,0,23.6,10.6,23.6,23.6S74.4,92,61.4,92S37.8,81.4,37.8,68.4S48.4,44.8,61.4,44.8L61.4,44.8z"/>
<path class="st2" d="M138,69.8c0.3,12.4,5.8,19,16,19c7.7,0,12.5-4,14.4-12.1h5.6c-2.3,10.9-9.5,16.7-20.1,16.7
	c-13.3,0-21.7-9.5-21.7-24.3c0-15,8.9-25.5,21.5-25.5s20.8,9.8,20.8,25.4v0.8L138,69.8z M168.6,65.2c-0.7-10.5-6.4-16.8-15.1-16.8
	c-10.1,0-14.5,7.9-15.6,16.8H168.6z"/>
<path class="st2" d="M220.5,91.8c-1.5,0.5-3,0.7-4.5,0.7c-5.8,0-6.1-4.2-6.1-8.5c-4.3,6.7-9.6,9.5-17.8,9.5
	c-9.7,0-15.5-4.8-15.5-13.3s5.9-13.4,17.6-14.6l7.9-0.8c5.8-0.7,7.5-2,7.5-6c0-8.2-4.9-10.3-12.3-10.3c-8.2,0-12.1,3.3-12.9,11.1
	h-5.5c0.5-10.2,7.2-15.9,19.1-15.9c12.8,0,17.2,5.2,17.2,16.5v20.9c0,6,0.3,6.7,3.1,6.7c0.7,0,1.5-0.1,2.1-0.4L220.5,91.8z
	 M209.7,66.5c-1.7,1.5-3.3,1.9-8.1,2.5l-4.8,0.7c-6,0.8-13.9,2.4-13.9,10c0,5.6,4,9.1,10.7,9.1c8.9,0,16.1-5.7,16.1-14.7V66.5z"/>
<path class="st2" d="M240.6,93.4c-12.2,0-19.1-5.8-19.4-16.7h5.6c0.7,8.3,5.2,12,13.8,12c7.8,0,13-3.6,13-9.2
	c0-6.6-7.7-7.9-12.9-9.2c-7.7-1.8-18.1-3-18.1-13.4c0-8.2,6.5-13.3,17-13.3c11.3,0,17.3,5,18.1,15h-5.6c-0.9-7-4.6-10.2-12.7-10.2
	c-7,0-11.1,2.8-11.1,7.8c0,6.8,8.2,7.5,13.4,8.8c7.8,1.9,17.5,4.1,17.5,14C259.3,87.6,251.8,93.4,240.6,93.4z"/>
<path class="st2" d="M283.1,93.8c-2.6,7-4.7,16.1-13.9,16.1c-1.7,0-3.4-0.1-5.1-0.4v-5c1.4,0.3,2.8,0.5,4.2,0.5
	c3.3,0,5.9-2.2,7.5-6.8l2.4-6.4L259.4,45h6.3l15.5,40.3L295.7,45h5.9L283.1,93.8z"/>
<path class="st2" d="M364.7,92V36.6L346.6,92h-9.3l-19.6-54.9V92h-9.9V26.8h16L342,79.5l17.6-52.7h16V92H364.7z"/>
<path class="st2" d="M429.4,92.1c-2.2,0.7-4.5,1-6.8,1.1c-4.5,0-7.1-1.9-7.6-5.6c-4.6,3.9-9.7,5.6-16.7,5.6c-9.8,0-15.9-5.4-15.9-14
	c0-8.1,5.1-12.8,15.4-14.2l5.8-0.8c10.2-1.3,11.1-1.9,11.1-6.1c0-5-3-7.2-9.8-7.2s-9.7,2.2-10.5,8.4h-9.9c1-10.7,7.9-16,20.8-16
	c13.4,0,19.7,5,19.6,13.2l-0.3,25c0,2.8,0.6,3.5,2.6,3.5h0.9c0.5,0,0.9-0.1,1.4-0.2L429.4,92.1z M414.4,68.3
	c-2.5,1.6-3.1,1.5-11,2.5c-7.7,0.9-10.3,3-10.3,7.8c0,4.6,3,7.2,8.5,7.2c9.1,0,12.7-3.3,12.7-12L414.4,68.3z"/>
<path class="st2" d="M459.6,53.8c-1.9-0.1-2.5-0.2-3.6-0.2c-3.5-0.1-6.8,1.1-9.3,3.5c-3.4,3.4-4.4,6.9-4.4,16.1v18.9h-10.4V44.8h9.9
	l-0.1,9.5c3.6-7.3,8.6-10.6,16.1-10.6c0.7,0,1,0.1,1.9,0.1L459.6,53.8z"/>
<path class="st2" d="M495,92l-14.4-22.8l-6.4,5.9V92H464V26.8h10.2V64l18.9-19.3H506l-18.1,17.4l19.9,30L495,92z"/>
<path class="st2" d="M518.3,70.9c0.3,9.8,4.9,15.1,13,15.1c5.9,0,9-2.6,11.3-8.6h10c-2.4,10.2-10.4,16.2-21.4,16.2
	c-14,0-23.3-9.7-23.3-24.5s9.6-25.5,22.9-25.5c13.8,0,22.5,10.3,22.5,26.3V71L518.3,70.9z M542.8,64c-0.7-7.9-5.2-12.8-12.1-12.8
	s-11.2,4.5-12.2,12.8H542.8z"/>
<path class="st2" d="M581.3,92.1c-2.3,0.3-4.7,0.4-7,0.4c-7.2,0-10.9-1.8-12.1-6c-0.8-2.3-0.8-3.8-0.8-11.7V52.5h-7.9v-7.6h7.9V30.6
	h10.4v14.3h9.5v7.5h-9.5v24.9c0,5.9,0.7,6.9,5.7,6.9h1.9c0.7,0,1.3-0.1,2-0.2L581.3,92.1z"/>
<path class="st2" d="M604.4,93.4c-13.4,0-20.6-5.5-21.2-16.5h10.1c0.7,6.1,4.2,8.9,11.2,8.9c6.3,0,10.3-2.6,10.3-6.9
	c0-3.6-1.9-5.1-11.3-7.2c-8.2-2.2-19.3-3.3-19.3-14.3c0-8.9,7.2-14.2,19.2-14.2c12.4,0,19.1,5.1,20,15.2h-9.9
	c-0.9-5.4-3.9-7.5-10.3-7.5c-5.5,0-8.6,2-8.6,5.6s1.7,4.4,12.1,6.8c8.2,1.8,18.3,4,18.3,14.5C625.1,87.5,617.2,93.4,604.4,93.4z"/>
<path class="st2" d="M315.3,150.2c-8.8,0-14-4.3-14-11.7h5.7c0.1,4.8,3,7.2,8.6,7.2c4.5,0,7.1-1.9,7.1-5.2c0-2.4-1.6-3.8-5.8-4.8
	l-1.9-0.5c-1.5-0.4-3.6-0.9-5.2-1.4s-3.2-1.2-4.6-2.2c-1.9-1.5-2.9-3.8-2.7-6.1c0-5.8,4.8-9.7,12.4-9.7s12.2,3.7,12.4,10.5h-5.5
	c-0.5-4-2.7-5.9-7.2-5.9c-4,0-6.4,1.7-6.4,4.6c0,2.5,1.3,3.3,6.3,4.5l2.1,0.5c5,1.2,7.1,1.9,8.8,3.4c2,1.6,3.2,4,3.1,6.6
	C328.5,146.3,323.4,150.2,315.3,150.2z"/>
<path class="st2" d="M333.3,121.4v-5.2h5.2v5.2H333.3z M333.3,149.5v-24.1h5.2v24.1H333.3z"/>
<path class="st2" d="M374.3,149.5v-14.7c0-4-1.1-5.5-4.3-5.5c-3.8,0-5.3,2.1-5.3,7.3v12.9h-5.3v-15c0-3.8-1.1-5.2-4-5.2
	c-3.8,0-5.5,2.3-5.5,7.3v12.9h-5.3v-24.1h5v3.4c2.1-2.8,4.3-4,7.6-4c2.9-0.2,5.6,1.4,6.7,4.1c1.7-2.6,4.6-4.2,7.8-4.1
	c2.6-0.1,5,1,6.6,3.1c1,1.3,1.3,2.8,1.3,5.2v16.3h-5.3V149.5z"/>
<path class="st2" d="M398.6,150.1c-3.1,0.2-6-1.2-7.8-3.7v12.1h-5.2v-33h4.9v3.2c1.8-2.6,4.7-4,7.9-3.9c6.7,0,11,5.1,11,12.9
	C409.4,145.2,405.1,150.1,398.6,150.1z M397.3,129c-4.2,0-6.7,3.1-6.7,8.3c0,5.4,2.4,8.5,6.8,8.5c4.1,0,6.6-3.1,6.6-8.3
	C404,132.3,401.5,129,397.3,129L397.3,129z"/>
<path class="st2" d="M414.4,149.5v-33.2h5.3v33.2H414.4z"/>
<path class="st2" d="M438,149.1c-1.7,4.6-2.3,6-3.4,7.2c-1.4,1.7-3.5,2.6-5.6,2.4c-1.2,0-2.4-0.1-3.6-0.3V154
	c0.9,0.2,1.8,0.3,2.7,0.3c1.9,0,3.5-2.1,4.1-5.5l-9.2-23.3h5.8l6.4,18.5l6.1-18.5h5.6L438,149.1z"/>
<path class="st2" d="M485.1,149.5v-14.9H470v14.9h-5.8v-33.2h5.8v13.2h15.1v-13.2h5.8v33.2H485.1z"/>
<path class="st2" d="M508.5,150.3c-7.4,0-12.2-5-12.2-12.8s4.8-12.8,12.2-12.8s12.1,4.9,12.1,12.8
	C520.6,145.3,515.9,150.3,508.5,150.3z M508.5,128.9c-4.2,0-6.8,3.2-6.8,8.6c0,5.3,2.5,8.6,6.8,8.6c4.2,0,6.7-3.2,6.7-8.7
	S512.7,128.9,508.5,128.9L508.5,128.9z"/>
<path class="st2" d="M541.1,149.5v-13.9c0-4.7-1.2-6.3-4.6-6.3c-2.2-0.1-4.2,1.1-5.2,3.1c-0.6,1.6-0.9,3.4-0.8,5.1v12h-5.3v-24h5
	v3.5c1.7-2.7,4.8-4.3,8-4.2c3,0,5.7,1.3,7,3.4c1,1.5,1.2,2.8,1.2,5.9v15.3L541.1,149.5L541.1,149.5z"/>
<path class="st2" d="M556.4,138.8c0.2,5,2.5,7.7,6.6,7.7c3,0,4.6-1.4,5.7-4.4h5.1c-1.2,5.2-5.3,8.2-10.9,8.2
	c-7.1,0-11.9-4.9-11.9-12.5c0-7.5,4.9-13,11.7-13c7,0,11.5,5.2,11.5,13.4v0.6H556.4z M568.9,135.3c-0.3-4-2.6-6.5-6.2-6.5
	s-5.7,2.3-6.2,6.5H568.9z"/>
<path class="st2" d="M588,150.2c-6.8,0-10.5-2.8-10.8-8.4h5.1c0.3,3.1,2.1,4.5,5.7,4.5c3.2,0,5.2-1.4,5.2-3.5c0-1.8-1-2.6-5.7-3.6
	c-4.2-1.1-9.8-1.7-9.8-7.3c0-4.5,3.6-7.2,9.8-7.2c6.3,0,9.7,2.6,10.2,7.7h-5c-0.5-2.7-2-3.8-5.2-3.8c-2.8,0-4.4,1-4.4,2.8
	s0.8,2.2,6.2,3.4c4.2,0.9,9.3,2,9.3,7.4C598.5,147.2,594.5,150.2,588,150.2z"/>
<path class="st2" d="M614.7,149.6c-1.2,0.1-2.4,0.2-3.5,0.2c-3.6,0-5.5-0.9-6.2-3c-0.4-1.2-0.4-1.9-0.4-5.9v-11.5h-4v-3.9h4v-7.3
	h5.3v7.3h4.8v3.8h-4.8V142c0,3,0.3,3.5,2.9,3.5h1c0.3,0,0.7,0,1-0.1L614.7,149.6z"/>
<path class="st2" d="M619.3,149.5v-6.3h6.5v6.3H619.3z"/>
</svg>
