<?xml version="1.0" encoding="utf-8"?>
<!-- Generator: Adobe Illustrator 22.0.1, SVG Export Plug-In . SVG Version: 6.00 Build 0)  -->
<svg version="1.1" id="图层_1" xmlns="http://www.w3.org/2000/svg" xmlns:xlink="http://www.w3.org/1999/xlink" x="0px" y="0px"
	 viewBox="0 0 600 140" style="enable-background:new 0 0 600 140;" xml:space="preserve">
<style type="text/css">
	.st0{fill:#35B66B;}
</style>
<g id="_x23_35b66bff">
	<path class="st0" d="M10.6,23.5c9-8.8,21.7-13.4,34.2-13.5c13.8-0.7,28.3,3.7,38.2,13.6c5.7,5.5,9.5,13.2,9.6,21.2
		C93,54.7,87.6,64.2,79.7,70c4.8,4.6,9.6,9.7,11.5,16.2c3.2,9.3,0.9,20-5.4,27.6c-8.7,10.5-22.4,16.5-36,16.3
		c-7.1,0.1-14.3,0.2-21-2.3c-11.5-3.8-22.6-12-26.4-23.9C0.6,99,0.8,93.7,1.5,88.7C3.6,81.3,8.2,75,13.9,70
		C6.6,64.6,1.5,55.9,1,46.7C0.5,38,4.5,29.5,10.6,23.5 M28.2,39c-3.7,5.7-1.2,13.6,4.1,17.3c5.5,3.7,9.7,9,14.5,13.5
		c3.3-3.1,6.4-6.4,9.6-9.5c2.8-2.8,6.8-4.6,8.9-8.2c2.8-4.3,2.6-10.2-0.5-14.3C56.2,26.4,35.8,26.7,28.2,39 M46.1,71
		c-3,2.6-5.6,5.8-8.5,8.5c-3.4,3.6-8.3,5.9-10.2,10.8c-2.6,5.2-0.2,11.5,3.9,15.1c8.6,7.4,22.6,7.4,31.1-0.1
		c3.7-3.2,5.8-8.6,4.4-13.4c-0.9-3.6-3.6-6.4-6.5-8.5C55.6,79.7,52,74.9,47.5,71C47.2,71,46.5,71,46.1,71z"/>
	<path class="st0" d="M285.8,22.7c4.5-4.2,8.6-8.9,13.3-12.9c-0.6,13.3,0.1,26.6-0.4,39.8c6.4-5.3,14.9-8.1,23.2-6.6
		c5.9,0.7,11.2,4.2,14.3,9.3c3.6,5.4,4.4,12.1,4.2,18.4c0,12.5,0,25,0,37.4c-5.6,0-11.3,0-16.9,0c0.1-12.5,0-25,0.1-37.5
		c-0.1-4.1-0.7-8.8-4.2-11.4c-5.3-3.5-13.1-2-16.9,2.9c-3.2,3.7-3.5,8.9-3.6,13.5c0,10.8,0.2,21.6,0,32.4c-5.6,0-11.2,0-16.8,0
		c0-26.5,0-53,0-79.5C281.5,25.9,284.2,24.4,285.8,22.7z"/>
	<path class="st0" d="M183.2,36c5.5-5.6,11.1-11.2,16.8-16.6c0.1,5.5,0,11,0,16.5C194.5,36,188.9,36,183.2,36z"/>
	<path class="st0" d="M366.3,30.2c1.1-1.1,2.3-2,3.7-2.7c0.3,5.6,0,11.2,0.2,16.8c5.7,0,11.4,0,17.2,0c-0.1,4.4-0.1,8.9,0,13.3
		c-5.6,0.1-11.2,0.1-16.8,0c-0.1,8.7-0.1,17.5,0,26.2c-0.1,3.4,1.4,7.1,4.8,8.5c4,1.5,8.3,0.7,12.4,0.9c0,5,0,10,0,15
		c-7.9-0.2-16.3,1.2-23.6-2.6c-6.7-3.1-10.2-10.7-10.4-17.8c-0.2-10.1,0.1-20.1-0.1-30.2c-3.8,0.1-7.6,0.1-11.3,0
		c0.2-1.4-0.2-3.2,1.1-4.3C350.9,45.5,358.7,37.9,366.3,30.2z"/>
	<path class="st0" d="M122.9,50.8c11.5-10.8,30.9-11.1,42.9-1c8.7,7.2,12.6,19.4,10.7,30.4c-15.7,0-31.3-0.2-46.9,0.1
		c0.8,3.6,2.1,7.3,5.1,9.6c6.9,5.8,18.5,4,23.3-3.7c5.9-0.1,11.8-0.1,17.8-0.1c-2.5,7.2-7.4,13.7-14.1,17.6
		c-13.4,8.1-32.8,5.2-42.3-7.5C109.1,83.1,110.5,62,122.9,50.8 M140.3,57.4c-5.2,1.4-8.8,6.1-10.3,11.1c10.1,0.1,20.2,0.1,30.3,0
		c-1.4-3.6-3.4-7.1-6.7-9.2C149.7,56.6,144.7,56.6,140.3,57.4z"/>
	<path class="st0" d="M183.3,108.2c0-21.9,0-43.8,0-65.7c5.6,0,11.2,0,16.8,0c-0.1,21.9,0,43.8,0,65.7
		C194.5,108.2,188.9,108.2,183.3,108.2z"/>
	<path class="st0" d="M215.5,51.3c10.9-11.4,31-11.9,42.4-1c2.2-2,4.2-4,6.3-6.2c2.5,0,5,0,7.5,0c-0.1,18.5,0,37.1-0.1,55.6
		c0,7.2-1.9,14.6-6.5,20.2c-5.1,6.3-13.1,10.2-21.2,10.1c-7.9,0.2-16.3,0.4-23.2-4.2c-6.6-3.7-10.9-10.4-12.7-17.7
		c5.5-0.1,11-0.3,16.5,0c5.5,9.3,20.4,11,27.5,2.6c2.8-3,3.1-7.3,3.3-11.2c-6.5,3.7-13.9,6.1-21.5,5.1c-9.2-0.9-18-6.1-22.8-14.1
		C203.5,78.5,205.2,61.3,215.5,51.3 M236.2,58c-4.9,0.8-9.1,4.3-11.3,8.7c-2.5,6-1.8,13.6,2.8,18.4c4.1,4.6,11,6.1,16.8,4.1
		c7.2-2.2,11.7-10,10.6-17.4C254.5,62.7,244.9,55.9,236.2,58z"/>
	<path class="st0" d="M397.1,53c12-13.6,35.9-14.2,48.4-0.9c4.3,4.3,6.9,10,8.1,16c-5.5,0-11,0-16.5,0c-1.6-2.7-3.5-5.4-6.3-7.1
		c-5.8-3.8-14.3-3.5-19.4,1.4c-7.2,6.3-7.3,18.8-0.5,25.5c4.6,5,12.7,6.1,18.6,2.7c3.5-1.8,5.7-5.1,7.5-8.5
		c5.6-0.1,11.3-0.2,16.9,0.1c-1.5,7.7-5.6,15-12,19.6c-12.2,9.3-30.9,8.6-42.3-1.7C386.3,88.5,384.9,65.8,397.1,53z"/>
	<path class="st0" d="M463.7,52.5c11-12.3,31.9-13.5,44.4-2.6c0.6-2.5,1.2-4.9,1.8-7.4c4.2-0.1,8.4-0.1,12.7,0
		c-0.1,21.9,0,43.8-0.1,65.7c-4.4-0.1-8.9,0-13.3-0.1c-0.4-2.4-0.8-4.8-1-7.2c-7.2,5.9-16.9,8.5-26.1,6.9
		c-10.9-1.5-20.5-9.3-24.5-19.5C453,76.5,454.6,61.8,463.7,52.5 M484.2,58.9c-10.9,2.7-15.3,16.9-9.4,25.9c4.4,7.2,14.6,9.5,22,5.8
		c7.7-3.6,11.1-13.2,8.4-21.1C502.5,61,492.6,56.2,484.2,58.9z"/>
	<path class="st0" d="M532.8,42.5c3.8-0.1,7.6-0.1,11.3,0c0.9,2.4,1.8,4.8,2.7,7.2c11.6-9.9,30.2-9.6,41.6,0.5
		c5.2,4.5,9.1,10.7,10.3,17.5c0.5,3.7,0.3,7.4,0.3,11.1c0.1,9.5-5.6,18.4-13.2,23.9c-10.5,7.4-25.4,7.5-36.2,0.6
		c0.2,8.9,0,17.9,0.1,26.8c-5.6,0-11.3,0-16.9,0C532.8,100.9,532.8,71.7,532.8,42.5 M559.3,59.4c-10.9,3.5-14.1,18.6-7,27
		c5.9,7.4,18.1,8.1,24.9,1.5c6.2-5.6,6.9-15.9,2.2-22.7C575.1,59,566.3,56.7,559.3,59.4z"/>
</g>
</svg>
