<?xml version="1.0" encoding="utf-8"?>
<!-- Generator: Adobe Illustrator 22.0.1, SVG Export Plug-In . SVG Version: 6.00 Build 0)  -->
<svg version="1.1" id="图层_1" xmlns="http://www.w3.org/2000/svg" xmlns:xlink="http://www.w3.org/1999/xlink" x="0px" y="0px"
	 viewBox="0 0 500 150" style="enable-background:new 0 0 500 150;" xml:space="preserve">
<style type="text/css">
	.st0{fill:url(#SVGID_1_);}
	.st1{fill:url(#SVGID_2_);}
	.st2{fill:url(#SVGID_3_);}
	.st3{fill:url(#SVGID_4_);}
	.st4{fill:url(#SVGID_5_);}
	.st5{fill:url(#SVGID_6_);}
	.st6{fill:url(#SVGID_7_);}
</style>
<linearGradient id="SVGID_1_" gradientUnits="userSpaceOnUse" x1="120.2558" y1="-638.5088" x2="120.2558" y2="-555.6214" gradientTransform="matrix(1 0 0 -1 0 -500)">
	<stop  offset="0" style="stop-color:#7CC213"/>
	<stop  offset="1" style="stop-color:#68AB07"/>
</linearGradient>
<path class="st0" d="M150.9,124.3c-5.6,8.2-13.1,11.9-21.5,13.4c-11.5,2.1-22.5,0.3-32-7.1c-5.5-4.3-8.6-10.2-9-17
	c-0.5-11-1-22.1,0-33c1.1-12.8,9.8-20,21.6-23.2c12.8-3.5,24.8-1.8,35.1,7.5c4.9,4.5,7.2,10.2,7.4,16.7c0.2,5.1-0.1,10.1,0.1,15.2
	c0.1,4-1.7,5.4-5.6,5.4c-12-0.2-24.1-0.2-36.2-0.2c-6.5,0-6.9,0.5-6.8,6.7c0.1,10.5,10.6,18.1,21.3,15.1c3.4-0.9,6.7-2.8,9.7-4.9
	c2.1-1.5,3.4-2,5.6-0.5C143.8,120.4,147.2,122.2,150.9,124.3L150.9,124.3z M120.2,89.4c4.3,0,8.6-0.1,12.8,0c2.7,0.1,3.8-1,3.9-3.7
	c0.3-7.9-4-12.6-13.6-14.1c-9.9-1.6-19.1,4.8-19.2,13.4c-0.1,3,0.8,4.6,4.1,4.5C112.2,89.3,116.2,89.4,120.2,89.4L120.2,89.4z"/>
<linearGradient id="SVGID_2_" gradientUnits="userSpaceOnUse" x1="260.0926" y1="-637.9426" x2="260.0926" y2="-556.1685" gradientTransform="matrix(1 0 0 -1 0 -500)">
	<stop  offset="0" style="stop-color:#7CC213"/>
	<stop  offset="1" style="stop-color:#68AB07"/>
</linearGradient>
<path class="st1" d="M293.2,96.9c0,3.7-0.2,7.4,0,11c0.9,15-8.2,24.5-20.8,28.1c-12,3.5-23.8,2.5-34.6-4.7
	c-7.2-4.8-10.8-11.4-10.9-20c-0.1-8.6-0.1-17.1-0.1-25.7c0-13.1,5.2-21.2,17.5-26.1c13.4-5.4,26.3-4.3,38.4,3.9
	c7,4.8,10.6,11.6,10.6,20.2C293.2,88.1,293.2,92.5,293.2,96.9L293.2,96.9L293.2,96.9z M277.4,97.1L277.4,97.1c0-3.4,0-6.7,0-10.1
	c0-8.3-3.5-12.9-11.7-14.4c-3.8-0.7-8-0.7-11.8,0.1c-5.1,1.1-10.6,3.4-11.1,9.5c-0.7,9.3-0.7,18.7-0.1,27.9c0.2,3,2.7,6.5,5.1,8.6
	c4.4,3.6,9.9,4.7,15.6,3.7c9.5-1.6,14-6.9,13.9-16.6C277.4,102.9,277.4,100,277.4,97.1L277.4,97.1z"/>
<linearGradient id="SVGID_3_" gradientUnits="userSpaceOnUse" x1="377.7906" y1="-637.5986" x2="377.7906" y2="-556.0767" gradientTransform="matrix(1 0 0 -1 0 -500)">
	<stop  offset="0" style="stop-color:#7CC213"/>
	<stop  offset="1" style="stop-color:#68AB07"/>
</linearGradient>
<path class="st2" d="M410.9,97.3c0,3.7-0.2,7.4,0,11c1.2,15.7-8.5,24.5-20.5,27.6c-10.6,2.7-21.7,2.5-31.8-2.8
	c-8.9-4.6-13.7-11.8-13.7-22.1c0-8.6-0.3-17.1-0.4-25.7c-0.2-11,4.6-19.3,14.3-24.2c14.6-7.4,28.9-6.7,42.4,2.7
	c6.5,4.6,9.9,11,9.8,19.2C411,87.8,411,92.5,410.9,97.3L410.9,97.3L410.9,97.3z M395.1,97.1L395.1,97.1c0-3.5,0-7,0-10.5
	c0-8.5-3.3-12.7-11.7-14.1c-3.6-0.6-7.4-0.6-10.9,0c-8.3,1.4-12,6.2-12,14.6c0,7,0,14.1-0.1,21.1c0,4.5,1.8,7.9,5.5,10.5
	c5,3.5,10.6,4.7,16.6,3.5c8.8-1.7,12.8-6.6,12.8-15.5C395.1,103.6,395.1,100.3,395.1,97.1L395.1,97.1z"/>
<linearGradient id="SVGID_4_" gradientUnits="userSpaceOnUse" x1="189.5925" y1="-638.3087" x2="189.5925" y2="-557.3159" gradientTransform="matrix(1 0 0 -1 0 -500)">
	<stop  offset="0" style="stop-color:#7CC213"/>
	<stop  offset="1" style="stop-color:#68AB07"/>
</linearGradient>
<path class="st3" d="M162.3,75.6c-2.4-4.6-4.6-8.9-7-13.5c22.7-6.3,45.6-6.4,68.5-0.1c-2.1,4.4-4.1,8.6-6.3,12.7
	c-0.3,0.6-1.8,0.8-2.7,0.7c-3.9-0.6-7.8-1.2-11.7-2c-3.8-0.8-5.5,0.1-5.5,4.5c0.2,18.2-0.1,36.5,0.1,54.7c0,4.4-1.2,5.9-5.7,5.7
	c-11.7-0.4-10,1.3-10-10c-0.1-16.9-0.2-33.7,0-50.6c0-4.1-1.5-5.2-5.2-4.5C171.9,74.1,167.1,74.8,162.3,75.6L162.3,75.6z"/>
<linearGradient id="SVGID_5_" gradientUnits="userSpaceOnUse" x1="66.6712" y1="-590.663" x2="66.6712" y2="-511.4912" gradientTransform="matrix(1 0 0 -1 0 -500)">
	<stop  offset="0" style="stop-color:#70B317"/>
	<stop  offset="1" style="stop-color:#5A9E03"/>
</linearGradient>
<path class="st4" d="M88.3,58.2c-8.9,8.4-11.7,18.2-11,29.2c0.1,2.3-0.8,3.6-3.2,3.2c-9.2-1.7-17.8-4.7-24.1-12
	c-6-7-6.4-15.1-2.5-23.1c2.1-4.2,4.8-8.2,7.7-11.9c7.7-10,15.6-19.7,23.6-29.4c1-1.2,2.6-1.8,3.9-2.7l1.2,1.1
	c-0.8,1.9-1.6,3.7-2.3,5.6C78.7,26.4,75,34.4,73,42.8c-2.3,9.5,1.2,13.5,11,15C85,57.9,86.1,58,88.3,58.2L88.3,58.2z"/>
<linearGradient id="SVGID_6_" gradientUnits="userSpaceOnUse" x1="433.4213" y1="-590.4125" x2="433.4213" y2="-511.5912" gradientTransform="matrix(1 0 0 -1 0 -500)">
	<stop  offset="0" style="stop-color:#70B317"/>
	<stop  offset="1" style="stop-color:#5A9E03"/>
</linearGradient>
<path class="st5" d="M416.9,11.6c1.2,0.6,2.7,0.9,3.4,1.8c10,12.6,20,25.1,29.8,37.9c3.8,5,5.7,10.8,4.5,17.3
	c-2.2,11.7-10.9,16.8-21,20.1c-9.1,3-9.5,2.8-10.5-6.5c-0.9-9-3.8-16.9-11.3-23.7c2.5-0.5,4.4-0.9,6.3-1.2c7.3-1.4,10.8-5.5,9-12.6
	c-2.4-9.3-6-18.2-9.1-27.3c-0.5-1.6-1.3-3-1.9-4.6C416.3,12.4,416.6,12,416.9,11.6L416.9,11.6z"/>
<linearGradient id="SVGID_7_" gradientUnits="userSpaceOnUse" x1="324.3925" y1="-638.307" x2="324.3925" y2="-556.1812" gradientTransform="matrix(1 0 0 -1 0 -500)">
	<stop  offset="0" style="stop-color:#7CC213"/>
	<stop  offset="1" style="stop-color:#68AB07"/>
</linearGradient>
<path class="st6" d="M344,56.7c-3.6,5.2-6.8,10.2-10.5,14.9c-1,1.3-3.2,1.6-4.9,2.3c-5.2,2.3-8.1,5.7-8,11.9
	c0.3,15.6,0,31.2,0.1,46.9c0,4.1-0.9,5.8-5.4,5.6c-12.3-0.4-10.3,1.6-10.4-10.5c-0.2-13.8-0.1-27.6-0.2-41.3
	c0-14.6,5.8-23,19.7-27.9C330.8,56.3,337.4,55.6,344,56.7L344,56.7z"/>
</svg>
