<?xml version="1.0" encoding="utf-8"?>
<!-- Generator: Adobe Illustrator 22.0.1, SVG Export Plug-In . SVG Version: 6.00 Build 0)  -->
<svg version="1.1" id="图层_1" xmlns="http://www.w3.org/2000/svg" xmlns:xlink="http://www.w3.org/1999/xlink" x="0px" y="0px"
	 viewBox="0 0 720 120" style="enable-background:new 0 0 720 120;" xml:space="preserve">
<style type="text/css">
	.st0{fill:#FFCF01;}
</style>
<path class="st0" d="M42.8,70.8c-0.5-1-1-6-1-9c0-16,11.5-29.5,41-29.5h15.5c0,0-3.5,1.5-11.5,7C79.3,44.8,42.8,70.8,42.8,70.8z
	 M165.3,58.8l56.5-42h-28l-42.5,32l-11-7h-26.5l24,17.5l-18.5,15.5c-9.5,8-23,19-42.5,19c-8,0-19-1.5-25-8.5l91-68h-55
	c-34,0-51.5,19-51.5,42.5c0,5,1,11,2.5,14l-38,27.5h29l17.5-13c6.5,8,20,15,34,15c23.5,0,45-15,52.5-21l17-13.5l45,32.5h31.5
	C227.2,101.2,165.3,58.8,165.3,58.8z"/>
<path d="M556.2,51.8c-1.5-9-9-13-16-13s-14.5,4.5-16,13C524.3,51.8,556.3,51.8,556.2,51.8z M572.8,76.3c-2,5-8.5,19.5-32,19.5
	c-11,0-19-3-25.5-9.5c-7.5-7-10.5-15.5-10.5-25.5c0-13,5.5-21,10-26c8-7.5,17-9.5,25.5-9.5c13.5,0,21.5,5.5,26,11c7,8.5,8,18.5,8,26
	v1.5h-50c0,4,1,8,3.5,11c2,2.5,6,6,13.5,6c7,0,12.5-3.5,15.5-8.5L572.8,76.3L572.8,76.3z M297.2,51.8c-1.5-9-9-13-16-13
	s-14.5,4.5-16,13H297.2z M313.8,76.3c-2,5-8.5,19.5-32,19.5c-11,0-19-3-25.5-9.5c-7.5-7-10.5-15.5-10.5-25.5c0-13,5.5-21,10-26
	c8-7.5,17-9.5,25.5-9.5c13.5,0,21.5,5.5,26,11c7,8.5,8,18.5,8,26v1.5h-50c0,4,1,8,3.5,11c2,2.5,6,6,13.5,6c7,0,12.5-3.5,15.5-8.5
	C297.8,72.2,313.8,76.3,313.8,76.3z M417.7,26.8h20.5v11c4-4.5,10.5-12,22.5-12c15,0,23.5,8,23.5,29v39.5h-19.5V55.8c0-8-4-13-10-13
	c-7,0-13,4-16.5,8.5v42h-20.5C417.7,93.3,417.7,26.8,417.7,26.8z M662.8,86.8l5.5-14.5c7.5,5.5,18.5,8.5,25,8.5c6,0,8.5-2,8.5-5
	v-0.5c0-4-7-5.5-14.5-8c-10-3-21-7-21-20.5s11.5-21.5,25.5-21.5c9,0,17,2,24.5,6.5l-4,14.5c-7-4-15.5-6.5-20.5-6.5s-7.5,2-7.5,4.5
	v0.5c0,4,6.5,5.5,14,8c10,3,21,7.5,21,20v0.5c0,15-11.5,22-27,22C683.2,95.3,672.2,93.8,662.8,86.8L662.8,86.8z M591.8,86.8
	l5.5-14.5c7.5,5.5,18.5,8.5,25,8.5c5.5,0,8.5-2,8.5-5v-0.5c0-4-7-5.5-14.5-8c-10-3-21-7-21-20.5s11.5-21.5,25.5-21.5
	c9,0,17,2,24.5,6.5l-4,14.5c-7-4-15.5-6.5-20.5-6.5s-7.5,2-7.5,4.5v0.5c0,4,6.5,5.5,14,8c10,3,21,7.5,21,20v0.5c0,15-11.5,22-27,22
	C612.2,95.3,601.2,93.8,591.8,86.8z M361.8,46.3l14-19.5h22l-25.5,33l26.5,34.5h-23l-15-21l-15,21h-22l27-34.5l-25.5-33h23
	L361.8,46.3z"/>
</svg>
