<?xml version="1.0" encoding="utf-8"?>
<!-- Generator: Adobe Illustrator 22.0.1, SVG Export Plug-In . SVG Version: 6.00 Build 0)  -->
<svg version="1.1" id="图层_1" xmlns="http://www.w3.org/2000/svg" xmlns:xlink="http://www.w3.org/1999/xlink" x="0px" y="0px"
	 viewBox="0 0 800 250" style="enable-background:new 0 0 800 250;" xml:space="preserve">
<style type="text/css">
	.st0{fill:#5C8926;}
</style>
<g id="_x23_4a76cdff">
	<path class="st0" d="M506.8,44.1c12.1-7.6,26.6-10.2,40.7-10.9c18.5,0.6,37.5,6.2,51.4,19c-6.8,7.4-13.6,14.8-20.3,22.2
		c-12-14.5-34.4-19.5-51.1-10.5c-7,3.6-12.1,11-11.8,19.1c-0.4,6.8,3.2,13.3,8.7,17.1c8.1,5.6,17.9,7.6,27,10.8
		c10.1,3.5,20.5,6.7,29.3,12.9c10.3,7,18.2,18.4,18.7,31v12.7c-0.6,12.4-6.6,24.3-15.6,32.8c-9.6,9-22.5,13.7-35.5,15.4
		c-7.9,1.5-16,1.6-23.9,0c-18.1-2.4-36.2-9.9-48.2-24c7.4-6.9,14.9-13.8,22.2-20.8c11.8,15.7,34,23.4,52.7,16.9
		c8-2.8,15.1-9.5,16.6-18c1.1-6.3,0.5-13.4-3.9-18.4c-6.9-8.2-17.6-11.2-27.4-14.5c-10.7-3.7-21.8-6.6-31.5-12.6
		c-10.2-6.3-18-16.7-20.1-28.6c-1.3-7.4-1.4-15.1,0.2-22.4C487.8,61.1,496.2,50.6,506.8,44.1z"/>
	<path class="st0" d="M200.6,37.8c37.7,0,75.4,0,113.1,0c0,9.1,0,18.1,0,27.2c-27.2,0-54.4,0-81.7,0c0,15.9,0,31.7,0,47.6
		c25.6,0,51.3,0,76.9,0c0,8.7,0,17.4,0,26.1c-25.6,0-51.3,0-76.9,0c0,24.4,0,48.9,0,73.3c-10.5,0-21,0-31.5,0
		C200.6,154,200.5,95.9,200.6,37.8z"/>
	<path class="st0" d="M336.1,37.8c20.5,0,40.9,0,61.4,0c11.1-0.1,22.4,0.5,32.8,4.5c12,4.4,22.3,14.3,25.8,26.8
		c2.5,9.6,2.3,20.3-1.9,29.5c-5.2,10.9-16,18.1-27.4,21.5c8.5,1.5,17,4.2,23.8,9.7c7.7,5.8,12.7,14.7,13.9,24.2
		c1.6,12.2-0.2,25.4-7.7,35.4c-7.2,10.1-18.6,16.3-30.4,19.4c-10.1,2.6-20.6,3.5-31,3.4c-19.8,0-39.6,0-59.4,0
		C336,154,336,95.9,336.1,37.8 M367.2,63.5c0,15.1,0,30.1,0,45.1c9.8,0,19.5,0,29.3,0c7.6-0.1,15.5-1.4,21.7-6
		c9.1-6.5,10.8-20.5,5-29.6c-5.4-7.3-15.4-8.5-23.8-9.3C388.8,63.3,377.9,63.7,367.2,63.5 M367.2,135.3c0,16.9,0,33.8,0,50.7
		c13.4-0.2,26.8,0.6,40.1-0.8c8.1-1,16.7-3.8,22-10.5c4.8-5.7,5.3-13.8,4.1-20.9c-0.9-5.6-4.4-10.8-9.5-13.4c-7.5-3.9-16-4.7-24.3-5
		C388.9,135.3,378,135.4,367.2,135.3z"/>
</g>
</svg>
