<?xml version="1.0" encoding="utf-8"?>
<!-- Generator: Adobe Illustrator 22.0.1, SVG Export Plug-In . SVG Version: 6.00 Build 0)  -->
<svg version="1.1" id="Layer_1" xmlns="http://www.w3.org/2000/svg" xmlns:xlink="http://www.w3.org/1999/xlink" x="0px" y="0px"
	 viewBox="0 0 600 160" style="enable-background:new 0 0 600 160;" xml:space="preserve">
<style type="text/css">
	.st0{fill:#28323C;}
	.st1{fill:#008CFF;}
	.st2{fill:#1B75BC;stroke:#FFFFFF;stroke-width:0.25;stroke-miterlimit:10;}
	.st3{fill:#0078DC;}
</style>
<g>
	<g>
		<path class="st0" d="M228.1,57.9v15.2c0,0.8,0.6,1.3,1.4,1.3H254c0.8,0,1.4,0.7,1.3,1.5l-1.6,11.4c-0.1,0.7-0.6,1.2-1.3,1.2h-22.8
			c-0.8,0-1.4,0.6-1.4,1.3v27.1c0,0.8-0.6,1.3-1.4,1.3h-14.6c-0.8,0-1.4-0.6-1.4-1.3v-73c0-0.8,0.6-1.4,1.4-1.4h47.4
			c0.8,0,1.4,0.6,1.4,1.4v11.4c0,0.8-0.6,1.4-1.4,1.4h-30.1C228.7,56.5,228.1,57.2,228.1,57.9z"/>
		<path class="st0" d="M316.9,89.9c0,9.4-2.4,16.6-7.2,21.7c-4.8,5.1-11.6,7.6-20.6,7.6c-9,0-15.8-2.5-20.4-7.5
			c-4.6-5-6.9-12.3-6.9-21.9c0-9.4,2.4-16.6,7.2-21.7c4.8-5.1,11.6-7.6,20.6-7.6c9,0,15.8,2.5,20.4,7.5
			C314.6,73.1,316.9,80.3,316.9,89.9z M278.9,89.9c0,5.1,0.9,9,2.7,11.7c1.8,2.7,4.4,4.1,7.8,4.1c3.4,0,6-1.3,7.8-4.1
			c1.8-2.7,2.7-6.6,2.7-11.7c0-5.1-0.9-9-2.7-11.7c-1.8-2.7-4.4-4.1-7.8-4.1c-3.4,0-6,1.4-7.8,4.1C279.8,80.9,278.9,84.8,278.9,89.9
			z"/>
		<path class="st0" d="M340.9,62.7v6.5c2.2-2.9,4.7-5,7.4-6.5c2.7-1.4,5.8-2.1,9.2-2.1c5.9,0,10.4,1.8,13.5,5.5
			c3.2,3.7,4.8,8.9,4.8,15.7v35c0,0.8-0.6,1.4-1.4,1.4h-13.8c-0.8,0-1.4-0.6-1.4-1.4V84.3c0-6.1-2.6-9.2-8-9.2
			c-1.8,0-3.5,0.3-5.4,0.9c-1.6,0.6-3,1.3-4,2.2c-0.3,0.2-0.5,0.7-0.5,1v37.5c0,0.8-0.6,1.4-1.4,1.4h-13.7c-0.8,0-1.4-0.6-1.4-1.4
			V65.2c0-0.7,0.5-1.2,1-1.3l13-2.6C340.1,61.2,340.9,61.9,340.9,62.7z"/>
		<path class="st0" d="M407.3,60.7c2.8,0,5.4,0.5,7.5,1.3c2.2,0.9,4.3,2.3,6.2,4.2V39.6c0-0.7,0.5-1.2,1.1-1.3l13.8-2.7
			c0.8-0.2,1.5,0.5,1.5,1.3v79.8c0,0.8-0.6,1.4-1.4,1.4h-13c-0.8,0-1.4-0.6-1.4-1.4v-5.3c-2.1,2.7-4.5,4.7-7.1,5.9
			c-2.6,1.2-5.5,1.9-8.9,1.9c-6.9,0-12.2-2.5-16.1-7.5c-3.9-5-5.9-12-5.9-20.8c0-9.3,2.1-16.7,6.3-22.1
			C394.5,63.4,400.1,60.7,407.3,60.7z M411.5,104.7c1.9,0,3.6-0.3,5.4-0.9c1.5-0.6,2.8-1.2,3.8-2.1c0.3-0.2,0.5-0.7,0.5-1V78.4
			c0-0.4-0.2-0.8-0.5-1.1c-0.9-0.6-2-1.1-3.3-1.5c-1.5-0.4-3.1-0.7-4.8-0.7c-7.6,0-11.5,5.1-11.5,15.2
			C401,99.9,404.5,104.7,411.5,104.7z"/>
		<path class="st0" d="M463.8,94c-0.9,0-1.5,0.8-1.3,1.7c0.7,3.3,2,5.9,4,7.6c2.3,1.9,5.7,2.9,10.1,2.9c5.5,0,10.5-1.4,15.4-4.3
			c0.9-0.6,2,0.1,2,1.2v11.2c0,0.6-0.3,1-0.8,1.2c-2.6,1.2-5.5,2.1-8.7,2.8c-3.5,0.8-7,1.2-10.4,1.2c-9.2,0-16.2-2.5-21-7.4
			c-4.8-5-7.2-12.2-7.2-21.7s2.3-16.8,6.9-21.9c4.5-5.1,11.1-7.6,19.6-7.6c8,0,14.2,2.3,18.4,7s6.3,11.4,6.3,20.3
			c0,1.7,0,3.3-0.1,4.9c0,0.7-0.6,1.2-1.4,1.2H463.8L463.8,94z M472.2,72.3c-5.4,0-8.6,3.3-9.7,9.8c-0.1,0.8,0.5,1.6,1.3,1.6h16.5
			c0.8,0,1.5-0.8,1.3-1.6C480.6,75.6,477.5,72.3,472.2,72.3z"/>
		<path class="st0" d="M526.1,101.5l-8.2,15.9c-0.2,0.4-0.7,0.7-1.2,0.7h-15c-1,0-1.7-1.2-1.1-2.1l17.2-26.5c0.3-0.4,0.3-1,0-1.4
			l-16-24.4c-0.6-0.9,0-2,1.1-2h15.8c0.5,0,1,0.3,1.2,0.7l7,13.7c0.5,0.9,1.8,0.9,2.3,0l7.1-13.8c0.2-0.5,0.7-0.7,1.2-0.7h15
			c1,0,1.7,1.2,1.1,2l-16,24.3c-0.3,0.4-0.3,1,0,1.4l17.2,26.6c0.5,0.9,0,2.1-1.1,2.1h-15.8c-0.5,0-1-0.3-1.2-0.7l-8.3-15.9
			C527.9,100.5,526.6,100.5,526.1,101.5z"/>
	</g>
	<g>
		<g>
			<path class="st1" d="M77.7,58.9L77.7,58.9l-9.5-5.5l-22.5-13C45.2,41.2,45,42.1,45,43v8.8v1.6v13.4v13.4v20.2v17.1
				c0,1.9,1,3.7,2.7,4.6l20.6,11.9l21.2,12.3c0.9,0.5,2-0.1,2-1.1v-24.6V93.7l0,0V68.4c0-0.4,0.2-0.9,0.3-1.3L77.7,58.9z"/>
		</g>
		<path class="st2" d="M114.7,53.4L114.7,53.4L114.7,53.4z"/>
		<path class="st2" d="M91.5,93.7L91.5,93.7L91.5,93.7z"/>
		<g>
			<path class="st3" d="M159.2,25.4L138,13.1L116.7,0.8c-1.2-0.7-2.8-0.7-4,0L91.5,13.1L68.2,26.5L47.6,38.4c-0.8,0.5-1.5,1.2-2,2
				l22.5,13l18.9,11l4.7,2.7c0.2-0.4,0.5-0.8,0.9-1l3.8-2.2l0,0l18.2-10.5L138,40l21.2-12.3C160.1,27.2,160.1,25.9,159.2,25.4z"/>
		</g>
		<g>
			<path class="st1" d="M184.5,42.2c0-1-1.1-1.7-2-1.2l-21.2,12.3L138,66.8L116,79.4c-0.8,0.4-1.3,1.3-1.3,2.3v23c0,1,1.1,1.7,2,1.2
				l21.2-12.3l21.2-12.3c0.9-0.5,2,0.2,2,1.2v23c0,0.9-0.5,1.8-1.3,2.3L138,120.5L116,133.1c-0.8,0.4-1.3,1.4-1.3,2.3v23
				c0,1,1.1,1.6,2,1.1l21.2-12.3l23.2-13.4l20.6-11.9c1.6-0.9,2.6-2.7,2.6-4.6V93.6V66.7L184.5,42.2L184.5,42.2L184.5,42.2z"/>
		</g>
	</g>
</g>
</svg>
