<?xml version="1.0" encoding="utf-8"?>
<!-- Generator: Adobe Illustrator 22.0.1, SVG Export Plug-In . SVG Version: 6.00 Build 0)  -->
<svg version="1.1" id="图层_1" xmlns="http://www.w3.org/2000/svg" xmlns:xlink="http://www.w3.org/1999/xlink" x="0px" y="0px"
	 viewBox="0 0 700 180" style="enable-background:new 0 0 700 180;" xml:space="preserve">
<style type="text/css">
	.st0{fill:#C0D840;}
	.st1{fill:#F26A36;}
	.st2{fill:#303B43;}
</style>
<g id="_x23_c0d840ff">
	<path class="st0" d="M133.2,3.4c26.9-5.6,56.1,2.3,76.5,20.7c-1.3,7.1-5.2,13.5-10.6,18.3c-9.1,9.2-18.4,18.2-27.2,27.6
		c-9.9-9.9-19.8-19.9-29.7-29.8c-5.1-5.1-8.5-12-8.9-19.3C133.1,15,133.3,9.2,133.2,3.4z"/>
</g>
<g id="_x23_f26a36ff">
	<path class="st1" d="M76.7,42c9.4-14.6,23.3-26.2,39.1-33.1c-0.1,7.8-0.5,15.7,1.8,23.2c2.2,8.3,7,15.6,13.1,21.6
		c9.6,9.5,19.1,19.1,28.8,28.5c-10.2,10-20.1,20.2-30.2,30.2c-8.1,8.2-13,19.4-13.4,30.9c-0.2,9.3,0.1,18.7-0.1,28
		c-19.1-8.5-35.2-23.6-44.3-42.5c-6.3-13.2-9.6-27.9-9.1-42.5C63.4,70.7,68.1,55.2,76.7,42z"/>
	<path class="st1" d="M213,53.3c4.1-4.1,7.7-8.9,10.1-14.2c12.4,17.6,18.2,39.8,15.6,61.2c-1.4,12.5-5.6,24.6-12,35.5
		c-2.1-9.3-6.6-18-13.5-24.6c-9.8-9.6-19.3-19.4-29.2-29C193.7,72.6,203.3,62.9,213,53.3z"/>
	<path class="st1" d="M141.9,124.2c10-10,20-20,30-30c8.9,9.1,18,18.1,26.9,27.1c4.2,4,7.9,8.7,9.7,14.3c2.3,6.5,1.7,13.4,1.4,20.1
		c-20.4,18.6-49.8,26.7-76.8,20.9c0.2-10.8,0-21.6,0.1-32.4C133.5,136.8,136.7,129.6,141.9,124.2z"/>
</g>
<g id="_x23_303b43ff">
	<path class="st2" d="M263.2,57.4c3.9-12.3,15.9-21.4,28.8-21.7c12.9-0.1,25.7,0,38.6-0.1c0,5.8-0.1,11.6,0,17.3
		c-12.6,0.1-25.1,0-37.7,0c-6.6,0-12.6,5.2-13.6,11.7c-0.4,5.4,0,10.8-0.2,16.2c14.1,0,28.1,0,42.2,0c0,5.8,0,11.5,0,17.3
		c-14,0-28.1,0-42.1,0c-0.1,15.5,0,31-0.1,46.5c-5.8,0-11.7,0-17.5,0c0-23.1,0-46.2,0-69.3C261.7,69.3,261.1,63.1,263.2,57.4z"/>
	<path class="st2" d="M348.2,35.7c5.8-0.1,11.7,0,17.5-0.1c0,5.2-0.1,10.4,0,15.7c0.1,3.2,1.8,6.1,4.1,8.3
		c5.8,5.9,11.7,11.7,17.5,17.7c5.8-5.8,11.7-11.5,17.5-17.3c2.3-2.2,3.7-5.3,3.7-8.5c0.1-5.2,0-10.5,0-15.7c5.8,0.1,11.7,0,17.5,0.1
		c-0.2,5.8,0,11.6-0.1,17.3c-0.2,7.2-3.5,14.2-8.7,19.2c-5.9,5.8-11.6,11.6-17.6,17.3c5.9,5.9,11.8,11.7,17.7,17.6
		c5.1,5,8.4,11.9,8.6,19.1c0.2,6.1,0,12.3,0.1,18.4c-5.8,0-11.7,0-17.5,0c-0.1-5.8,0.1-11.6,0-17.4c-0.1-3.5-2.1-6.5-4.5-8.8
		c-5.6-5.6-11.1-11.1-16.6-16.7c-5.9,6.1-11.9,12-17.9,18c-2.3,2.3-3.9,5.4-3.9,8.7c-0.1,5.4,0,10.8,0,16.2c-5.8,0-11.7,0-17.6,0
		c0.4-9.3-1.4-19.2,2.6-27.9c1.6-3.7,4.2-6.9,7.1-9.8c5.7-5.8,11.5-11.6,17.2-17.4c-4.1-3.9-8.1-8-12.1-12
		c-4.3-4.4-9.2-8.5-11.8-14.2C346.7,54.7,348.7,44.8,348.2,35.7z"/>
	<path class="st2" d="M443.5,35.6c26.1,0,52.2,0,78.2,0c0,5.8-0.1,11.6,0,17.3c-10.2,0.1-20.3,0-30.5,0c0.1,30.5,0,61.1,0,91.6
		c-5.9,0-11.7,0-17.6,0c0-30.5-0.1-61.1,0-91.6c-10.1,0-20.2,0-30.3,0C443.6,47.2,443.5,41.4,443.5,35.6z"/>
	<path class="st2" d="M539.2,35.6c7.5-0.1,15.1,0,22.6,0c8.8,17.9,17.8,35.8,26.4,53.8c9.2-17.8,17.8-35.9,26.8-53.8
		c7.5,0,15.1,0,22.6,0c-0.1,36.3,0,72.7,0,109c-5.8,0-11.6,0-17.3,0c0-26.9,0-53.8,0-80.7c-8.6,16.7-17,33.5-25.6,50.1
		c-4.2,0-8.3,0-12.5,0c-8.5-16.7-17.1-33.2-25.4-50c-0.5,26.8-0.1,53.7-0.2,80.5c-5.8-0.1-11.6,0-17.4,0
		C539.3,108.3,539.3,72,539.2,35.6z"/>
</g>
</svg>
