<?xml version="1.0" encoding="utf-8"?>
<!-- Generator: Adobe Illustrator 26.0.0, SVG Export Plug-In . SVG Version: 6.00 Build 0)  -->
<svg version="1.1" id="Layer_1" xmlns="http://www.w3.org/2000/svg" xmlns:xlink="http://www.w3.org/1999/xlink" x="0px" y="0px"
	 viewBox="0 0 637.8 226.8" style="enable-background:new 0 0 637.8 226.8;" xml:space="preserve">
<style type="text/css">
	.st0{fill:#053C50;}
	.st1{fill:#0AB45A;}
</style>
<polygon class="st0" points="32.4,19.2 100.6,19.2 100.6,42.5 56.1,42.5 56.1,58.7 96.4,58.7 96.4,80.8 56.1,80.8 56.1,115 
	32.4,115 "/>
<path class="st0" d="M215.2,19.2h40.3c13,0,22.1,3.8,27.8,10.4c5,5.4,7.5,12.9,7.5,22.3v0.3c0,14.6-7,24.4-17.5,29.5l20.3,33.4
	h-27.3l-17.1-29h-10.3v29h-23.7L215.2,19.2L215.2,19.2z M254.4,65.2c8,0,12.7-4.4,12.7-11.4v-0.3c0-7.5-4.8-11.4-12.9-11.4h-15.5v23
	L254.4,65.2L254.4,65.2L254.4,65.2z"/>
<polygon class="st0" points="302.9,19.2 371.6,19.2 371.6,41.7 326.3,41.7 326.3,56.3 367.3,56.3 367.3,77.2 326.3,77.2 326.3,92.4 
	372.1,92.4 372.1,115 302.9,115 "/>
<polygon class="st0" points="409.2,66.3 381.1,19.2 408.2,19.2 423.4,46.1 438.6,19.2 465.3,19.2 437.2,66 466.5,115 439.3,115 
	423,86.1 406.5,115 379.9,115 "/>
<path class="st0" d="M489.6,69.6L489.6,69.6c-0.1-11.1,7.8-20.2,17.5-20.2c0.3,0,0.4,0,0.7,0c7,0,11.6,3.5,14.6,8.6l-8.2,6.8
	c-1.3-2.6-3.7-4.1-6.4-4.1c-3.9,0-6.7,3.8-6.7,8.4v0.2c0,5,2.8,8.7,6.8,8.7c2.8,0,4.7-1.5,6.6-3.9l8,6.5c-3.2,5.3-7.6,8.7-15.1,8.7
	c-9.8,0.2-17.7-8.6-17.8-19.4C489.6,69.7,489.6,69.7,489.6,69.6"/>
<path class="st0" d="M525.8,69.6L525.8,69.6c0-11,7.9-20.2,18.9-20.2s18.7,9,18.7,19.9v0.2c0,10.8-7.9,20-18.9,20
	S525.8,80.4,525.8,69.6 M551.9,69.6L551.9,69.6c0.1-4.7-2.9-8.6-7.1-8.7h-0.1c-3.9,0-7.1,3.6-7.1,8c0,0.2,0,0.3,0,0.5v0.2
	c-0.1,4.5,2.9,8.4,7.1,8.6h0.1c3.9,0,7.1-3.6,7.1-8C551.9,69.9,551.9,69.7,551.9,69.6"/>
<path class="st0" d="M569,50.2h11.9v5.3c2.3-3.8,6-6,10.2-6c4-0.3,7.9,2.1,9.8,6.2c2.7-3.9,7-6.3,11.4-6.2c7.2,0,11.6,5.1,11.6,14
	v25.1H612v-21c0-4.2-1.9-6.3-4.7-6.3s-5,2.3-5,6.3v20.8h-11.9V67.6c0-4.2-1.9-6.3-4.7-6.3s-4.8,2.3-4.8,6.3v20.8H569V50.2z"/>
<path class="st1" d="M194.7,66.9c0-1.1,0-2,0-3h10l2.8-8.7h-13.7C190.1,31.4,174.5,17,151,17c-26.5,0-43.8,19.9-43.8,50.5
	s16.6,49.9,43.8,49.9c22.1,0,37.7-13.7,42.3-36.1h9.2l2.7-8.7h-10.7C194.6,70.9,194.7,69,194.7,66.9z M169.4,72.7H155l-2.8,8.7h16.5
	c-1.9,13.1-6.8,22.1-17.1,22.1c-13.8,0-19-16.2-19-36.4s4.3-36.4,17.9-36.4c10.8,0,16.5,10.1,18.3,24.4h-11.6l-2.8,8.7h15.1
	c0,1.1,0,2.1,0,3.2C169.6,69.1,169.6,70.9,169.4,72.7z"/>
<path class="st0" d="M473,80.3c0-3.9,2.8-7.1,6.3-7.1s6.3,3.2,6.3,7.1l0,0c0,1.8-0.7,3.8-1.9,5c-2.4,2.7-6.4,2.7-8.8,0
	C473.6,83.9,473,82.1,473,80.3"/>
<path class="st0" d="M212.8,177.5c-0.5,1.1-1.1,2-1.5,2.7h12.3v5.6h-34.8c0,0.9-0.1,2-0.3,2.9h10.4c0,0,0,1.5-0.1,2.3
	c-0.5,6.3-1.1,9.3-2.3,10.7c-0.9,1.1-2.3,1.7-3.5,1.7c-2,0.2-3.9,0.2-5.9,0c-0.1-1.8-0.5-3.8-1.3-5.4c1.3,0.2,2.8,0.3,4.1,0.3
	c0.5,0.2,1.2-0.2,1.6-0.5c0.5-1.2,0.9-2.6,1.1-3.9h-5.2c-1.6,4.7-5,8-11.5,10.1c-0.8-1.8-1.7-3.5-3.1-4.8c4.3-1.2,6.7-2.9,8.2-5.1
	h-6v-5.3h7.8c0.1-0.9,0.3-2,0.3-2.9h-8.9v-5.6h13.1c-0.4-1.1-0.8-2-1.3-2.9l4.3-0.6h-10.6V164h38.6v12.6h-10.1L212.8,177.5z
	 M224,148.4v5.4h-21.8v2.6H220v5.1h-41.6v-5.1h17.1v-2.6h-21.1v-5.4h21.2v-3.5h6.8v3.5H224z M186,171.9h25.8v-3.2H186V171.9z
	 M192.6,176.7c0.8,1.1,1.3,2.3,1.7,3.5h10c0.4-1.2,0.9-2.6,1.2-3.5H192.6z M201.3,187.7h20.1v15.9h-6.2v-1.5h-8v1.5h-5.9V187.7z
	 M207.2,192.8v4.4h8v-4.4H207.2z"/>
<path class="st0" d="M311.3,167.8c-0.7,5.6-2.4,10.7-5.4,15.2c-1.7-1.8-3.6-3.3-5.6-4.5c4.4-6,5-14.4,5-20.3v-6.9h20.9
	c-0.3-2.1-0.4-4.2-0.5-6.3h6.7c0.1,2.3,0.3,4.4,0.5,6.3h6.4c-1.2-1.4-2.7-2.7-4.1-3.8l4.6-3c2.3,1.5,4.3,3.3,6.2,5.4l-1.9,1.4h7.2
	v6.5h-17.1c0.7,2.9,1.6,5.6,2.8,8.1c1.9-2.1,3.5-4.7,4.8-7.2l6,2c-2,4.1-4.6,7.7-7.5,10.8c1.2,1.7,2.8,2.6,4.6,2.7
	c1.3,0,1.9-1.8,2.3-6.6c1.6,1.5,3.3,2.6,5.2,3.3c-1.1,8.4-3.1,10.4-7.8,10.4c-3.5,0-6.7-2-9.4-5.1c-2.4,2-5,3.6-7.8,5.1
	c-1.2-1.8-2.4-3.6-3.9-5.1c-0.1,0.3-0.3,0.8-0.5,1.1c-0.9,1.2-2.1,1.8-3.5,1.8c-2,0.2-3.9,0.3-5.9,0.2c-0.1-2-0.5-3.9-1.3-5.6
	c1.3,0.2,2.7,0.3,4,0.3c0.5,0,0.9-0.2,1.3-0.6c0.4-0.6,0.7-2,0.8-5.3L311.3,167.8z M346,196h6.3v6.6h-51.1v-6.8h6.7v-14.1h38.2
	L346,196L346,196z M312,157.8v0.5c0,1.2,0,2.4-0.1,3.8H325c0,0,0,1.5-0.1,2.3c0,3.8-0.3,7.4-1.1,11c2.8-1.2,5.4-2.9,7.9-4.7
	c-2-4.1-3.5-8.4-4.6-12.9L312,157.8L312,157.8L312,157.8z M314,196h4.3v-8.3H314V196z M324.6,187.7v8.3h4.4v-8.3H324.6z M335,187.7
	v8.3h4.4v-8.3H335z"/>
<path class="st0" d="M463.6,190c5.5,3.3,11.2,5.7,17.3,7.2c-1.6,1.8-3.1,3.8-4.1,6c-7-2.3-13.4-5.7-19.3-10.4v11h-6.7v-10.7
	c-5.9,4.7-12.4,8.1-19.4,10.4c-1.2-2.3-2.7-4.4-4.3-6.2c6.3-1.5,12.3-3.9,17.9-7.4h-16.1v-6h21.8v-3.2h6.7v3.2h22.1v6L463.6,190
	L463.6,190z M435.3,163.8c-1.1,1.1-2,2-3.1,2.9c-1.3-2-2.9-3.6-4.7-5c5.5-4.4,10.2-10.2,13.4-17l6.8,1.5c-0.8,1.7-1.7,3.2-2.7,4.8
	h9.1c-0.5-1.5-1.1-3-1.7-4.5l6-2c1.1,2.1,2,4.2,2.7,6.5h15.8v5.7h-17.3v2.6h14.6v4.8h-14.6v2.6h14.7v4.8h-14.7v2.7h18.5v5.7h-36.3
	v1.7h-6.7L435.3,163.8z M453.2,156.7h-11.4v2.7h11.4V156.7z M453.2,164.2h-11.4v2.6h11.4V164.2z M453.2,171.6h-11.4v2.9h11.4V171.6z
	"/>
<path class="st0" d="M605.8,147.2v56.7h-7.2v-2.3h-33.7v2.3h-7v-56.7H605.8z M598.6,194.9v-40.8h-33.7v40.8H598.6z M596.6,169.5
	h-6.7v16.1c0,3.5-0.4,5.1-2.4,6.3s-4.4,1.2-7.8,1.2c-0.4-2.3-1.2-4.5-2.1-6.6c2,0.2,4.3,0.2,5,0s0.9-0.2,0.9-0.9V177
	c-4,4.4-8.4,8.1-13.4,11.1c-1.2-1.8-2.5-3.6-4.1-5.1c5.6-3.5,10.7-8,15-13.5h-13.5v-6.6h16.1v-6.8h6.4v6.8h6.7L596.6,169.5z"/>
<path class="st1" d="M108.5,172.8c0-0.8,0-1.4,0-2.1h7.5l2.1-6.1h-10.2c-2.8-16.7-14.4-26.8-32-26.8c-19.8,0-32.7,14-32.7,35.5
	s12.4,35.1,32.7,35.1c16.5,0,28.2-9.6,31.6-25.4h6.9l2-6.1h-8C108.5,175.7,108.5,174.3,108.5,172.8z M89.6,176.9H78.9l-2.1,6.1h12.3
	c-1.4,9.2-5.1,15.5-12.8,15.5c-10.3,0-14.2-11.4-14.2-25.6s3.2-25.6,13.4-25.6c8.1,0,12.3,7.1,13.7,17.1h-8.7l-2.1,6.1h11.3
	c0,0.8,0,1.5,0,2.2C89.8,174.4,89.8,175.7,89.6,176.9z"/>
</svg>
