<?xml version="1.0" encoding="utf-8"?>
<!-- Generator: Adobe Illustrator 22.0.1, SVG Export Plug-In . SVG Version: 6.00 Build 0)  -->
<svg version="1.1" id="Layer_1" xmlns="http://www.w3.org/2000/svg" xmlns:xlink="http://www.w3.org/1999/xlink" x="0px" y="0px"
	 viewBox="0 0 450 130" style="enable-background:new 0 0 450 130;" xml:space="preserve">
<style type="text/css">
	.st0{fill:#053C50;}
	.st1{fill:#0AB45A;}
</style>
<polygon class="st0" points="4.3,1.7 55.3,1.7 55.3,17.2 22,17.2 22,28 52.1,28 52.1,42.7 22,42.7 22,65.4 4.3,65.4 "/>
<path class="st0" d="M140.9,1.7H171c9.7,0,16.5,2.5,20.8,6.9c3.7,3.6,5.6,8.6,5.6,14.8v0.2c0,9.7-5.2,16.2-13.1,19.6l15.2,22.2
	h-20.4l-12.8-19.3h-7.7v19.3h-17.7V1.7z M170.2,32.3c6,0,9.5-2.9,9.5-7.6v-0.2c0-5-3.6-7.6-9.6-7.6h-11.6v15.3H170.2z"/>
<polygon class="st0" points="206.4,1.7 257.7,1.7 257.7,16.7 223.9,16.7 223.9,26.4 254.5,26.4 254.5,40.3 223.9,40.3 223.9,50.4 
	258.1,50.4 258.1,65.4 206.4,65.4 "/>
<polygon class="st0" points="285.8,33 264.8,1.7 285.1,1.7 296.4,19.6 307.8,1.7 327.7,1.7 306.7,32.8 328.6,65.4 308.3,65.4 
	296.1,46.2 283.8,65.4 263.9,65.4 "/>
<path class="st0" d="M345.9,35.2L345.9,35.2c-0.1-7.4,5.8-13.4,13.1-13.4c0.2,0,0.3,0,0.5,0c5.2,0,8.7,2.3,10.9,5.7l-6.1,4.5
	c-1-1.7-2.8-2.7-4.8-2.7c-2.9,0-5,2.5-5,5.6V35c0,3.3,2.1,5.8,5.1,5.8c2.1,0,3.5-1,4.9-2.6l6,4.3c-2.4,3.5-5.7,5.8-11.3,5.8
	c-7.3,0.1-13.2-5.7-13.3-12.9C345.9,35.3,345.9,35.3,345.9,35.2"/>
<path class="st0" d="M372.9,35.2L372.9,35.2c0-7.3,5.9-13.4,14.1-13.4s14,6,14,13.2v0.1c0,7.2-5.9,13.3-14.1,13.3
	S372.9,42.4,372.9,35.2 M392.4,35.2L392.4,35.2c0.1-3.1-2.2-5.7-5.3-5.8c0,0-0.1,0-0.1,0c-2.9,0-5.3,2.4-5.3,5.3c0,0.1,0,0.2,0,0.3
	v0.1c-0.1,3,2.2,5.6,5.3,5.7c0,0,0.1,0,0.1,0c2.9,0,5.3-2.4,5.3-5.3C392.4,35.4,392.4,35.3,392.4,35.2"/>
<path class="st0" d="M405.2,22.3h8.9v3.5c1.7-2.5,4.5-4,7.6-4c3-0.2,5.9,1.4,7.3,4.1c2-2.6,5.2-4.2,8.5-4.1c5.4,0,8.7,3.4,8.7,9.3
	v16.7h-8.9V33.9c0-2.8-1.4-4.2-3.5-4.2s-3.7,1.5-3.7,4.2v13.8h-8.9V33.9c0-2.8-1.4-4.2-3.5-4.2s-3.6,1.5-3.6,4.2v13.8h-8.9V22.3z"/>
<path class="st1" d="M125.6,33.4c0-0.7,0-1.3,0-2h7.5l2.1-5.8h-10.2c-2.8-15.8-14.4-25.4-32-25.4c-19.8,0-32.7,13.2-32.7,33.6
	s12.4,33.2,32.7,33.2c16.5,0,28.2-9.1,31.6-24h6.9l2-5.8h-8C125.5,36.1,125.6,34.8,125.6,33.4z M106.7,37.3H95.9l-2.1,5.8h12.3
	c-1.4,8.7-5.1,14.7-12.8,14.7c-10.3,0-14.2-10.8-14.2-24.2S82.3,9.4,92.5,9.4c8.1,0,12.3,6.7,13.7,16.2h-8.7l-2.1,5.8h11.3
	c0,0.7,0,1.4,0,2.1C106.8,34.9,106.8,36.1,106.7,37.3z"/>
<path class="st0" d="M333.5,43c0-2.6,2.1-4.7,4.7-4.7s4.7,2.1,4.7,4.7l0,0c0,1.2-0.5,2.5-1.4,3.3c-1.8,1.8-4.8,1.8-6.6,0
	C333.9,45.4,333.5,44.2,333.5,43"/>
<path class="st0" d="M33.6,112.2c-0.4,0.7-0.8,1.3-1.1,1.8h9.2v3.7h-26c0,0.6-0.1,1.3-0.2,1.9h7.8c0,0,0,1-0.1,1.5
	c-0.4,4.2-0.8,6.2-1.7,7.1c-0.7,0.7-1.7,1.1-2.6,1.1c-1.5,0.1-2.9,0.1-4.4,0c-0.1-1.2-0.4-2.5-1-3.6c1,0.1,2.1,0.2,3.1,0.2
	c0.4,0.1,0.9-0.1,1.2-0.3c0.4-0.8,0.7-1.7,0.8-2.6h-3.9c-1.2,3.1-3.7,5.3-8.6,6.7c-0.6-1.2-1.3-2.3-2.3-3.2c3.2-0.8,5-1.9,6.1-3.4
	H5.4v-3.5h5.8c0.1-0.6,0.2-1.3,0.2-1.9H4.8V114h9.8c-0.3-0.7-0.6-1.3-1-1.9l3.2-0.4H8.9v-8.5h28.8v8.4h-7.5L33.6,112.2z M42,92.9
	v3.6H25.7v1.7H39v3.4H7.9v-3.4h12.8v-1.7H4.9v-3.6h15.8v-2.3h5.1v2.3L42,92.9z M13.6,108.5h19.3v-2.1H13.6V108.5z M18.5,111.7
	c0.6,0.7,1,1.5,1.3,2.3h7.5c0.3-0.8,0.7-1.7,0.9-2.3H18.5z M25,119h15v10.6h-4.6v-1h-6v1H25V119z M29.4,122.4v2.9h6v-2.9H29.4z"/>
<path class="st0" d="M107.2,105.8c-0.5,3.7-1.8,7.1-4,10.1c-1.3-1.2-2.7-2.2-4.2-3c3.3-4,3.7-9.6,3.7-13.5v-4.6h15.6
	c-0.2-1.4-0.3-2.8-0.4-4.2h5c0.1,1.5,0.2,2.9,0.4,4.2h4.8c-0.9-0.9-2-1.8-3.1-2.5l3.4-2c1.7,1,3.2,2.2,4.6,3.6l-1.4,0.9h5.4v4.3
	h-12.8c0.5,1.9,1.2,3.7,2.1,5.4c1.4-1.4,2.6-3.1,3.6-4.8l4.5,1.3c-1.5,2.7-3.4,5.1-5.6,7.2c0.9,1.1,2.1,1.7,3.4,1.8
	c1,0,1.4-1.2,1.7-4.4c1.2,1,2.5,1.7,3.9,2.2c-0.8,5.6-2.3,6.9-5.8,6.9c-2.6,0-5-1.3-7-3.4c-1.8,1.3-3.7,2.4-5.8,3.4
	c-0.9-1.2-1.8-2.4-2.9-3.4c-0.1,0.2-0.2,0.5-0.4,0.7c-0.7,0.8-1.6,1.2-2.6,1.2c-1.5,0.1-2.9,0.2-4.4,0.1c-0.1-1.3-0.4-2.6-1-3.7
	c1,0.1,2,0.2,3,0.2c0.4,0,0.7-0.1,1-0.4c0.3-0.4,0.5-1.3,0.6-3.5L107.2,105.8z M133.1,124.5h4.7v4.4H99.6v-4.5h5v-9.4h28.5V124.5z
	 M107.7,99.1v0.3c0,0.8,0,1.6-0.1,2.5h9.8c0,0,0,1-0.1,1.5c0,2.5-0.2,4.9-0.8,7.3c2.1-0.8,4-1.9,5.9-3.1c-1.5-2.7-2.6-5.6-3.4-8.6
	H107.7z M109.2,124.5h3.2V119h-3.2V124.5z M117.1,119v5.5h3.3V119H117.1z M124.9,119v5.5h3.3V119H124.9z"/>
<path class="st0" d="M221,120.5c4.1,2.2,8.4,3.8,12.9,4.8c-1.2,1.2-2.3,2.5-3.1,4c-5.2-1.5-10-3.8-14.4-6.9v7.3h-5v-7.1
	c-4.4,3.1-9.3,5.4-14.5,6.9c-0.9-1.5-2-2.9-3.2-4.1c4.7-1,9.2-2.6,13.4-4.9h-12v-4h16.3v-2.1h5v2.1h16.5v4L221,120.5z M199.8,103.1
	c-0.8,0.7-1.5,1.3-2.3,1.9c-1-1.3-2.2-2.4-3.5-3.3c4.1-2.9,7.6-6.8,10-11.3l5.1,1c-0.6,1.1-1.3,2.1-2,3.2h6.8c-0.4-1-0.8-2-1.3-3
	l4.5-1.3c0.8,1.4,1.5,2.8,2,4.3h11.8v3.8H218v1.7h10.9v3.2H218v1.7h11v3.2h-11v1.8h13.8v3.8h-27.1v1.1h-5L199.8,103.1z M213.2,98.4
	h-8.5v1.8h8.5L213.2,98.4z M213.2,103.4h-8.5v1.7h8.5L213.2,103.4z M213.2,108.3h-8.5v1.9h8.5L213.2,108.3z"/>
<path class="st0" d="M327.2,92.1v37.7h-5.4v-1.5h-25.2v1.5h-5.2V92.1H327.2z M321.8,123.8V96.7h-25.2v27.1L321.8,123.8z
	 M320.3,106.9h-5v10.7c0,2.3-0.3,3.4-1.8,4.2s-3.3,0.8-5.8,0.8c-0.3-1.5-0.9-3-1.6-4.4c1.5,0.1,3.2,0.1,3.7,0s0.7-0.1,0.7-0.6v-5.7
	c-3,2.9-6.3,5.4-10,7.4c-0.9-1.2-1.9-2.4-3.1-3.4c4.2-2.3,8-5.3,11.2-9h-10.1v-4.4h12v-4.5h4.8v4.5h5L320.3,106.9z"/>
</svg>
