<?xml version="1.0" encoding="utf-8"?>
<!-- Generator: Adobe Illustrator 22.0.1, SVG Export Plug-In . SVG Version: 6.00 Build 0)  -->
<svg version="1.1" id="图层_1" xmlns="http://www.w3.org/2000/svg" xmlns:xlink="http://www.w3.org/1999/xlink" x="0px" y="0px"
	 viewBox="0 0 600 150" style="enable-background:new 0 0 600 150;" xml:space="preserve">
<style type="text/css">
	.st0{fill:#00AFC9;}
	.st1{fill:#152A4A;}
</style>
<g id="_x23_00afc9ff">
	<path class="st0" d="M544.7,60.5c9.1-12.5,16.9-26,22.2-40.5c-0.1,0.7-0.2,2.2-0.2,2.9c-0.2,1.2-0.3,2.4-0.5,3.6
		c-2.9,17.3-10.6,33.5-20.8,47.7c-12.9,18.1-29.2,33.7-47.1,46.8c-10.6-7.2-18.6-18.3-21.3-30.8c-3.8-15.6,1.1-32.7,11.9-44.5
		c5.8-6.5,13.5-11.1,21.5-14.4c-4.4,3.6-9.3,6.7-12.9,11.2c-6.9,7.8-11.1,18.2-10.6,28.7c0.7,11.3,4.4,22.9,12.5,31.2
		C517.2,91.6,532.4,77,544.7,60.5z"/>
</g>
<g id="_x23_152a4aff">
	<path class="st1" d="M38,28.7c6.2-5.6,14.9-6.5,22.9-6.5c-0.3,3.5-0.7,6.9-1,10.4c-4.1,0.6-8.8,0.8-12,4c-3.3,3.7-3.6,9-4.5,13.6
		c3.7,0,7.3,0,11,0.1c-0.9,3.8-1.2,7.7-2.2,11.5c-3.5,1-7.4,0.2-11,0.4C38.8,77.1,36.1,92,33.5,107c-4.9,0-9.7,0.1-14.6-0.2
		c1.5-4,1.9-8.3,2.6-12.5c1.9-10.7,3.7-21.4,5.7-32.1c-2.5,0-5,0-7.6,0c0.7-4,1.4-8,2.1-12c2.6,0,5.1,0,7.7,0
		C30.7,42.6,32.2,34.2,38,28.7z"/>
	<path class="st1" d="M566.8,22.8l0.7-0.7c2.8,16.7-0.2,34-6.1,49.7c-6.3,16.5-15.5,32-27.6,44.9c9.2-0.9,18.6-2.8,26.5-7.7
		c11.5-7.1,18.9-19.8,20.5-33c1.8,15-5.2,30.3-16.2,40.3c-15.4,14.3-39.4,17.7-58.4,9.1c25-21.7,46.8-48.7,56.9-80.6
		c1.8-5.9,3.4-12,3.2-18.3C566.4,25.3,566.6,24,566.8,22.8z"/>
	<path class="st1" d="M270.3,106.9c4.9-28,9.9-56,14.7-84c4.8,0,9.5,0,14.3,0c-3,16.6-5.8,33.2-8.8,49.8c1.7-0.3,4.1,0.9,5.2-1
		c5.1-7.1,10.1-14.2,15.1-21.4c5.1-0.1,10.3-0.1,15.5,0c-6.5,8.4-13,16.9-19.5,25.4c-0.8,1.2-2.3,1.7-3.6,2.4c1.3,0.7,2.7,1.5,3.2,3
		c3.9,8.6,7.7,17.3,11.7,25.9c-5.2,0.1-10.3,0.1-15.5,0c-3.1-7.9-6.3-15.8-9.4-23.7c-1.5,0-3-0.1-4.5-0.1
		c-1.5,7.9-2.8,15.9-4.2,23.8C279.8,106.9,275.1,107,270.3,106.9z"/>
	<path class="st1" d="M389.2,34.7c3.9-0.6,7.8-1.2,11.8-1.6c-1.1,5.7-1.9,11.4-3.1,17.1c3.9,0,7.8,0,11.8,0c-0.8,4-1.4,8-2.1,12
		c-3.9,0-7.7,0-11.6,0c-1.6,9-3.2,17.9-4.7,26.9c-0.5,2.5-0.4,5.7,2.2,7c2.6,1,5.5,0.2,8.2,0.1c-0.7,3.5-1.4,7-2,10.6
		c-6.3,1.2-13.6,2.1-19.2-1.6c-4-2.8-4.8-8.2-4-12.7c1.7-10.1,3.5-20.1,5.3-30.2c-2.9,0-5.8,0-8.7,0c0.7-4,1.4-8,2.1-12
		c3.2,0,6.4,0,9.5,0C386.1,45,387.7,39.9,389.2,34.7z"/>
	<path class="st1" d="M59.1,50.3c4.3,0,8.6,0,12.9,0c-0.1,2.1-0.2,4.1-0.4,6.2c5.6-6,15-9,22.7-5.4c6.2,3.1,7.2,10.9,6.8,17.1
		c-0.6,11.9-3.7,24.7-12.8,33c-6.8,6.1-16.4,7.4-25.2,6.2c-1.2,7.6-2.7,15.1-3.8,22.6C54.5,130,49.8,130,45,130
		C49.8,103.4,54.5,76.8,59.1,50.3 M75.2,61.9c-3.3,2.8-4.7,7.1-5.7,11.2c-1.7,7.8-2.7,15.8-4.4,23.6c5,1.9,11.7,1.8,15.1-2.8
		c3.9-5.5,4.9-12.5,5.9-19c0.5-4.2,1.4-8.8-0.8-12.7C82.9,59.1,78,59.6,75.2,61.9z"/>
	<path class="st1" d="M113.5,50.3c3.9-0.1,7.8-0.1,11.7,0c-0.1,2.2-0.2,4.3-0.3,6.5c6.7-4.1,14.3-8.6,22.5-6.9
		c3.5,0.6,5.6,3.8,6.8,6.9c6.2-4.1,13.4-8.1,21.2-7.1c3.7,0.4,6.8,3.2,7.5,6.9c1,5.5-0.7,11-1.5,16.4c-1.9,11.3-4.1,22.7-5.9,34
		c-4.7,0.1-9.3,0.1-14,0c1.9-10.8,3.8-21.5,5.7-32.3c0.5-3.1,1.4-6.2,1-9.4c-0.3-1.8-2-3-3.7-3c-3.5-0.2-6.7,1.5-9.6,3.3
		c-1.5,0.6-1.5,2.2-1.8,3.6c-2.1,12.6-4.4,25.2-6.6,37.9c-4.6,0-9.3,0-14,0c2.3-12.2,4.3-24.4,6.5-36.7c0.3-2.6,1.1-6.5-2-7.8
		c-3.9-1.1-7.9,1-11.1,3c-1.8,0.8-1.5,3-2,4.6c-2,12.3-4.4,24.5-6.3,36.7c-4.7,0.1-9.3,0.1-14,0C106.9,88.1,110.3,69.2,113.5,50.3z"
		/>
	<path class="st1" d="M195.4,51.7c10-2,20.9-3.9,30.6-0.1c5.8,2.2,7.1,9.1,6.1,14.6c-2.2,13.6-4.7,27.2-7.1,40.7
		c-3.9,0-7.8,0-11.8,0c0.1-2.3,0-4.6-0.2-6.9c-5.1,4.4-11.5,8.4-18.6,7.6c-5.2-0.2-9.7-4.5-10.4-9.6c-0.9-6.8,1.3-14.2,6.6-18.7
		c7.2-6.1,17.2-6,26.1-5.8c0.4-4,2.6-10.4-2.4-12.4c-6.5-1.3-13.2,0.1-19.7,1C194.9,58.7,195.2,55.2,195.4,51.7 M200.8,85.5
		c-2.6,2.7-4,8.2-0.7,10.8c4.5,2.1,9.3-1,13-3.5c0.9-3.5,1.3-7,2.1-10.5C210.3,82.6,204.8,82.3,200.8,85.5z"/>
	<path class="st1" d="M244.7,50.3c4,0,8,0,12,0c-0.3,3-0.5,6-0.8,9c4.5-3.7,9.7-6.2,15-8.4c1.4-0.6,2.9-0.6,4.4-0.7
		c-0.8,4.7-1.6,9.4-2.5,14.1c-6.1-0.5-12.6,1-17.2,5.1c-2.5,12.4-4.4,25-6.7,37.6c-4.7,0-9.5,0-14.2,0
		C238.1,88.1,241.4,69.2,244.7,50.3z"/>
	<path class="st1" d="M343.8,50.7c5.9-1.5,12.6-2,18.2,0.8c4.6,2.3,6.4,7.8,6.7,12.6c0.3,6.4-1.1,12.8-2.6,19
		c-9.7,0.2-19.5,0.1-29.2,0.1c-0.1,3-0.4,6.1,0.4,9.1c0.8,2.6,3.5,4.1,6.1,4.2c6.4,0.4,12.7-1.2,18.8-2.9c-0.5,3.7-1,7.3-1.5,10.9
		c-8.4,2.6-17.5,4.4-26.2,2.1c-6.2-1.5-10.9-7.2-11.6-13.5c-1.1-9,0.6-18.2,4-26.5C330,59.3,335.9,52.8,343.8,50.7 M345.2,62
		c-4.1,2.6-5.6,7.6-6.7,12.1c5.7,0,11.3,0.1,17-0.1c0.1-3.9,1.3-8.4-1.1-11.8C351.9,59.8,347.9,60.4,345.2,62z"/>
	<path class="st1" d="M420.7,52.4c8.3-4.7,18.2-2.9,27-0.8c-0.8,3.6-1.4,7.3-2,11c-5.5-1.6-11.5-3-17-1.1c-3.8,1.3-6.4,7.4-2.7,10.1
		c4.7,2.6,10.8,2.2,14.9,6.1c3.8,3.7,3.5,9.6,2.3,14.3c-1.5,6.5-6.6,11.9-13,14c-8.3,3-17.5,1.6-25.7-0.9c0.4-3.6,1.1-7.2,1.8-10.7
		c5.7,2,11.9,3.2,18,2.4c4.3-0.5,6.9-5.6,5.3-9.4c-2.6-3.4-7.4-2.8-11-4.2c-3.8-1-7-4.3-7.5-8.2C409.9,66.5,412.9,56.8,420.7,52.4z"
		/>
</g>
</svg>
