<?xml version="1.0" encoding="utf-8"?>
<!-- Generator: Adobe Illustrator 22.0.1, SVG Export Plug-In . SVG Version: 6.00 Build 0)  -->
<svg version="1.1" id="图层_1" xmlns="http://www.w3.org/2000/svg" xmlns:xlink="http://www.w3.org/1999/xlink" x="0px" y="0px"
	 viewBox="0 0 500 120" style="enable-background:new 0 0 500 120;" xml:space="preserve">
<style type="text/css">
	.st0{fill:#0B53A1;}
	.st1{fill:#1154A0;}
</style>
<g>
	<path class="st0" d="M43.9,80.1V44.6L5.5,88.7c9,12.8,24,21.2,40.8,21.2h0.4c20.1-0.2,37.5-12.4,45.2-29.8H46.7L43.9,80.1z"/>
	<path class="st0" d="M49.1,41.2v33.7l38.7-42.6C78.9,19,63.8,10.1,46.7,10c-0.2,0-0.3,0-0.4,0C25.4,10,7.4,22.9,0,41.2L49.1,41.2z"
		/>
	<path class="st0" d="M120.5,27.3c-4.2,0-6.5,1.8-8.3,4s-3.1,5.1-3.1,9.4V82h16l0.2-21h35.9V47.8L124.9,48c-0.1-3.1-0.2-5.9,1.9-7.1
		c2.8-1.5,8.2-1,13.4-1h21.1V27.2C151.2,27.2,130.6,27.2,120.5,27.3z"/>
	<path class="st0" d="M225.8,27.2h-15.7L197.2,46l-13.1-18.9h-16.4L186.4,54l-18.7,27.7l15.5,0.2L197,62l13.5,19.9l16.2,0.1
		l-19.4-28L225.8,27.2z"/>
	<path class="st0" d="M274.3,27.2H239c-5.8,0-10.7,4.8-10.7,10.8v33.2c0,5.9,4.8,10.8,10.7,10.8h35.2c5.9,0,10.7-4.9,10.7-10.8v-8
		h-13.2v0.5c0,3.1-2.4,5.7-5.4,5.7h-17.9c-3,0-5.4-2.6-5.4-5.7V46.1c0-3.1,2.4-5.7,5.4-5.7h17.9c2.7,0,5,2.1,5.4,4.9h13.2V38
		C284.9,32.1,280.2,27.2,274.3,27.2z"/>
	<path class="st0" d="M355.4,27.1h-10.9h-40.6c-6.2,0-11.3,6.8-11.3,15V82h15.6V70.8V46.3c0-3.6,3.5-6.6,7.7-6.6h4.2
		c0.7,0,1.4,0.1,2,0.2v30.8V82h15.3V40c0.7-0.2,1.4-0.3,2-0.3h4.1h0.7c3.8,0.3,6.9,3.2,6.9,6.6V82h15.3V42.2
		C366.7,33.9,361.6,27.1,355.4,27.1L355.4,27.1z"/>
	<path class="st0" d="M117.4,106.4h-4.9l-1.2,3.4h-1.8l4.7-13.1h1.5l4.6,13.1h-1.8L117.4,106.4z M113,104.9h3.9l-1.9-5.6h-0.1
		L113,104.9z"/>
	<path class="st0" d="M136.3,108.4h6.4v1.4h-8.2V96.7h1.8V108.4z"/>
	<path class="st0" d="M155.6,103.7h-5.4v4.7h6.3v1.4h-8.1V96.7h8v1.4h-6.2v4.3h5.4V103.7z"/>
	<path class="st0" d="M172.2,96.7v8.7c0,1.4-0.5,2.6-1.4,3.4s-2.2,1.2-3.6,1.2s-2.6-0.4-3.5-1.2s-1.4-1.9-1.4-3.4v-8.7h1.8v8.7
		c0,1,0.3,1.8,0.9,2.4s1.3,0.9,2.2,0.9c1,0,1.7-0.3,2.4-0.9c0.6-0.6,0.9-1.4,0.9-2.4v-8.7H172.2z"/>
	<path class="st0" d="M188.1,105.6c0,1.3-0.4,2.3-1.3,3.2c-0.9,0.8-2.1,1.2-3.5,1.2c-1.5,0-2.7-0.5-3.6-1.6s-1.4-2.4-1.4-4v-2.3
		c0-1.6,0.5-3,1.4-4c0.9-1.1,2.1-1.6,3.6-1.6s2.7,0.4,3.5,1.2c0.9,0.8,1.3,1.8,1.3,3.1v0.1h-1.7c0-0.9-0.3-1.6-0.8-2.2
		c-0.5-0.5-1.3-0.8-2.3-0.8s-1.8,0.4-2.4,1.2s-0.9,1.8-0.9,3v2.4c0,1.2,0.3,2.2,0.9,3s1.4,1.2,2.4,1.2s1.8-0.3,2.3-0.8
		s0.8-1.3,0.8-2.2L188.1,105.6L188.1,105.6z"/>
	<path class="st0" d="M201.1,106.4h-4.9l-1.2,3.4h-1.8l4.7-13.1h1.5l4.6,13.1h-1.8L201.1,106.4z M196.6,104.9h3.9l-1.9-5.6h-0.1
		L196.6,104.9z"/>
	<path class="st0" d="M209.8,109.8V96.7h4.1c1.7,0,3.1,0.5,4.1,1.6s1.6,2.4,1.6,4.1v1.8c0,1.7-0.5,3-1.6,4.1c-1,1.1-2.4,1.6-4.1,1.6
		L209.8,109.8L209.8,109.8z M211.5,98.1v10.4h2.4c1.2,0,2.2-0.4,2.9-1.2s1.1-1.8,1.1-3.1v-1.8c0-1.2-0.4-2.3-1.1-3.1
		s-1.7-1.2-2.9-1.2L211.5,98.1z"/>
	<path class="st0" d="M228,109.8h-1.8V96.7h1.8V109.8z"/>
	<path class="st0" d="M242,106.4h-4.9l-1.2,3.4h-1.8l4.7-13.1h1.5l4.6,13.1h-1.8L242,106.4z M237.6,104.9h3.9l-1.9-5.6h-0.1
		L237.6,104.9z"/>
	<path class="st0" d="M268.5,105.6c0,1.3-0.4,2.3-1.3,3.2c-0.9,0.8-2.1,1.2-3.5,1.2c-1.5,0-2.7-0.5-3.6-1.6s-1.4-2.4-1.4-4v-2.3
		c0-1.6,0.5-3,1.4-4s2.1-1.6,3.6-1.6s2.7,0.4,3.5,1.2c0.9,0.8,1.3,1.8,1.3,3.1v0.1h-1.7c0-0.9-0.3-1.6-0.8-2.2
		c-0.5-0.5-1.3-0.8-2.3-0.8s-1.8,0.4-2.4,1.2s-0.9,1.8-0.9,3v2.4c0,1.2,0.3,2.2,0.9,3s1.4,1.2,2.4,1.2s1.8-0.3,2.3-0.8
		s0.8-1.3,0.8-2.2L268.5,105.6L268.5,105.6z"/>
	<path class="st0" d="M284.7,104.4c0,1.6-0.5,2.9-1.5,4s-2.3,1.6-3.9,1.6c-1.5,0-2.8-0.5-3.7-1.6c-1-1.1-1.4-2.4-1.4-4v-2.3
		c0-1.6,0.5-2.9,1.4-4c1-1.1,2.2-1.6,3.7-1.6c1.6,0,2.9,0.5,3.9,1.6s1.5,2.4,1.5,4V104.4z M282.9,102.1c0-1.2-0.3-2.2-1-3
		c-0.6-0.8-1.5-1.2-2.6-1.2c-1,0-1.9,0.4-2.5,1.2s-0.9,1.8-0.9,3v2.4c0,1.2,0.3,2.2,0.9,3s1.4,1.2,2.5,1.2s2-0.4,2.6-1.2s1-1.8,1-3
		V102.1z"/>
	<path class="st0" d="M297.5,107.3l4.3-10.7h2.2v13.1h-1.8V100h-0.1l-4,9.9H297l-4.1-10.2h-0.1v10.2H291V96.7h2.3L297.5,107.3z"/>
	<path class="st0" d="M312.7,104.5v5.3h-1.8V96.7h5c1.4,0,2.5,0.4,3.3,1.1s1.2,1.7,1.2,2.9s-0.4,2.1-1.2,2.9
		c-0.8,0.7-1.9,1.1-3.3,1.1h-3.2V104.5z M312.7,103.1h3.2c0.9,0,1.6-0.2,2-0.7s0.7-1.1,0.7-1.8s-0.2-1.3-0.7-1.8
		c-0.4-0.5-1.1-0.7-2-0.7h-3.2V103.1z"/>
	<path class="st0" d="M332,106.4h-5l-1.2,3.4H324l4.7-13.1h1.5l4.6,13.1H333L332,106.4z M327.5,104.9h3.9l-1.9-5.6h-0.1L327.5,104.9
		z"/>
	<path class="st0" d="M350.6,109.8h-1.8l-6.3-10h-0.1v10h-1.8V96.7h1.8l6.3,10h0.1v-10h1.8V109.8z"/>
	<path class="st0" d="M361.5,103.3l3.4-6.7h2l-4.6,8.5v4.6h-1.8v-4.8l-4.5-8.4h2L361.5,103.3z"/>
</g>
<path class="st1" d="M434.5,38.5h-27.1V39c0.2,2,0.2,4,0.2,6c0,2.1-0.1,4.3-0.2,6.8v0.5h27.1v-0.5c-0.2-2.4-0.2-4.6-0.2-6.5
	c0-2.1,0.1-4.2,0.2-6.3V38.5z M428.9,47.8h-16.1v-4.6h16.1V47.8z M395.8,37.9l0.4,0.5l0.4-0.5c0.8-0.9,2-1.9,3.5-2.8l0.5-0.3
	l-0.4-0.4c-2.6-3.1-5.2-5.9-7.6-8.3l-0.4-0.4l-0.3,0.5c-0.6,0.9-1.6,1.9-3,2.8l-0.5,0.4l0.5,0.4C391.1,31.8,393.4,34.5,395.8,37.9z
	 M438.2,55.4h-33.9v0.5c0.1,1.3,0.2,3.3,0.2,6c-2-2.6-3.7-5.1-5.1-7.2l-0.3-0.5l-0.4,0.4c-0.8,0.8-1.5,1.4-2.1,2v-1.9
	c1.4-2.2,2.8-4.8,4.1-7.6c1.3-2.9,2.2-5.3,2.7-7.3l0.2-0.6H390c-1.8,0-4.1-0.1-6.8-0.2h-0.5v5.4h0.5c3-0.2,5.3-0.2,7-0.2h6.1
	c-1.4,3.6-3.4,7-5.8,10c-2.6,3.3-5.6,6.4-9.2,9.3l-0.5,0.4l0.4,0.4c1.3,1.1,2.3,2.3,3.1,3.5l0.3,0.5l0.4-0.4c2.1-2,4.1-4.1,6-6.5
	v13.4c0,3-0.1,5.9-0.2,8.5v0.5h5.9v-0.5c-0.2-2.6-0.2-5.6-0.2-9V59.7c1.3,1.7,2.7,3.7,4.2,5.9l0.4,0.6l0.4-0.6
	c0.9-1.2,1.9-2.1,3-2.8v6.6c0,6.6-0.1,11-0.2,13.1V83h5.7v-2.9h22.4V83h5.9v-0.5c-0.2-2.6-0.2-7.1-0.2-13.4c0-6.5,0.1-11,0.2-13.4
	L438.2,55.4z M418.4,75.6h-8.5V70h8.5V75.6z M418.4,65.3h-8.5V60h8.5V65.3z M432.3,75.6H424V70h8.3V75.6z M432.3,65.3H424V60h8.3
	V65.3z M413.3,34.7h15.8c2.9,0,5.6,0.1,8.3,0.2h0.5v-5.4h-0.5c-2.6,0.2-5.3,0.2-8.3,0.2H413c-3.1,0-5.9-0.1-8.5-0.2H404V35l0.5-0.1
	C406.2,34.8,409.1,34.7,413.3,34.7L413.3,34.7z M457.5,39.7l0.4,0.4l0.3-0.5c0.8-1.1,1.9-2.4,3.4-3.8l0.4-0.4l-0.4-0.3
	c-3.7-2.9-7.3-5.5-10.5-7.6l-0.4-0.3l-0.3,0.4c-0.6,0.9-1.6,2.2-2.9,3.6l-0.4,0.4l0.5,0.3C451,34,454.3,36.6,457.5,39.7z
	 M499.5,75.3c-3.7,0.2-7.3,0.2-10.7,0.2h-18V36.1h16.5c3.2,0,6.7,0.1,10.5,0.2h0.5v-5.7h-0.5c-3.7,0.2-7.2,0.2-10.5,0.2h-22.4v0.5
	c0.2,3.1,0.2,6.5,0.2,10.2V69c0,2.7-0.1,6.5-0.2,11.4v0.5h24.9c2.8,0,6,0.1,9.7,0.2h0.5v-5.9L499.5,75.3z M459.5,58.2l-0.5-0.6
	l-0.3,0.7c-2.6,5-5,9-7.1,11.9c-2.2,2.9-4.4,5.7-6.7,8.3l-0.4,0.5l0.6,0.3c1.4,0.6,2.8,1.7,4.2,3.3l0.4,0.5l0.4-0.5
	c1.7-2.3,3.2-4.6,4.6-6.8c1.5-2.3,4.3-6.7,8.5-13.4l0.2-0.4l-0.3-0.3C461.4,60.3,460.2,59.2,459.5,58.2L459.5,58.2z M455.8,55
	l0.5,0.4l0.3-0.5c1.1-2.1,2.1-3.5,2.8-4.3l0.4-0.4l-0.5-0.3c-4-2.6-7.9-4.8-11.5-6.6l-0.4-0.2l-0.2,0.4c-0.9,1.7-1.8,3.1-2.6,4.1
	l-0.4,0.5l0.6,0.3C448.7,50.2,452.5,52.5,455.8,55L455.8,55z"/>
</svg>
