<?xml version="1.0" encoding="utf-8"?>
<!-- Generator: Adobe Illustrator 22.0.1, SVG Export Plug-In . SVG Version: 6.00 Build 0)  -->
<svg version="1.1" id="图层_1" xmlns="http://www.w3.org/2000/svg" xmlns:xlink="http://www.w3.org/1999/xlink" x="0px" y="0px"
	 viewBox="0 0 400 180" style="enable-background:new 0 0 400 180;" xml:space="preserve">
<style type="text/css">
	.st0{fill:#F41112;}
</style>
<g id="Layer_2">
	<g id="Layer_1-2">
		<path class="st0" d="M101.5,8.7H20v3.8c9.4,0.4,12.4,1.7,12.4,11.5v66.1c0,10.2-3,11.1-12.4,11.5v3.4h45.7v-3.4
			c-11.5-0.4-14.1-1.7-14.1-11.5V58.5h16.6c12.4,0,18.4,3,20.5,14.1h3.8V38.5h-3.8C87,48.7,83.5,51.3,68.2,51.3H51.6V20.6
			c0-3.8,0.8-4.7,5.6-4.7h14.5c19.2,0,22.6,3.4,26,14.1h3.8V8.7z"/>
		<path class="st0" d="M163.4,95.2l-18.8-27.7l10.2-12.8c6.8-8.1,10.7-12.4,16.6-12.8v-3.8h-26.5v3.8c4.7,0,6.8,1.3,6.8,4.3
			c0,2.6-3,6-5.6,8.5l-6,6.8l-6.8-10.2c-1.7-2.1-3-3.8-3-6s2.6-3.4,6.8-3.4v-3.8h-35.4V42c5.1,1.3,7.2,4.3,9.8,8.1L129,75.7
			l-14.5,17.1c-5.1,6-7.7,8.1-13.6,9v3.4h26v-3.4c-3.4,0-7.2-0.9-7.2-3s2.6-5.1,6.8-10.2l6-7.2l7.2,10.7c2.6,3.8,3.8,5.5,3.8,6.8
			c0,1.7-2.6,2.6-7.2,2.6v3.4h36.3v-3.4C169.8,102.2,167.1,101.2,163.4,95.2z"/>
		<path class="st0" d="M224.4,8.7h-45.7v3.8c9.8,0.4,12.4,1.7,12.4,11.5v66.1c0,10.2-2.6,11.1-12.4,11.5v3.4h44.8v-3.4
			c-10.2-0.4-12.8-1.7-12.8-11.5V64.9h12.8c24.8,0,38-9.8,38-28.2C261,21.1,250.8,8.7,224.4,8.7z M210.2,59.5V19.8
			c0-3.4,1.3-5.6,8.1-5.6c12.8,0,22.6,7.2,22.6,20.5C240.9,50.1,232.9,59.5,210.2,59.5z"/>
		<path class="st0" d="M306.6,36.8c-8.1,0-13.2,6.4-15.8,12.4h-0.4V39c0-1.3,0-2.1-0.9-2.1c-1.3,0-17.1,4.3-24.3,5.6v3.8
			c6.4,0,8.1,1.3,8.1,8.5v38.8c0,6-2.6,7.2-8.1,8.1v3.4h35.4v-3.4c-6.4,0-10.2-1.7-10.2-9V55.2c2.1-3.4,4.7-5.6,7.2-5.6
			c1.4,0.1,2.7,0.5,3.8,1.3c1.3,0.9,3,3,6.8,3c4.2,0,7.7-3.4,7.7-7.6c0,0,0,0,0-0.1C316.4,42,313.5,36.8,306.6,36.8z"/>
		<path class="st0" d="M347.6,36.8c-19.2,0-32.4,14.9-32.4,35.4s13.2,35.4,32.4,35.4S380,92.7,380,72.2S366.9,36.8,347.6,36.8z
			 M347.6,101.7c-10.2,0-14.1-9-14.1-29.4s4.3-29.4,14.1-29.4c10.2,0,14.1,9,14.1,29.4C362.1,92.7,357.9,101.7,347.6,101.7z"/>
		<path class="st0" d="M20.2,138.5h25.5v4.1H35.2v28.5h-4.4v-28.5H20.2V138.5z"/>
		<path class="st0" d="M56.1,147.8c1.6-0.9,3.4-1.4,5.3-1.4v4.2c-4.3-0.5-8.2,2.7-8.7,7c0,0.2,0,0.4,0,0.5v13h-4.3v-24.6h4.3v5.3
			C53.3,150.1,54.6,148.7,56.1,147.8z"/>
		<path class="st0" d="M80,171.1v-3.5c-1.8,2.4-4.7,3.6-8.6,3.6c-1.6,0-3.1-0.3-4.5-1c-1.2-0.6-2.3-1.5-3-2.7s-1-2.5-1-3.9
			c-0.1-2,0.8-4,2.4-5.2c2-1.4,4.4-2.1,6.8-2h7.8v-1.2c0.1-1.5-0.5-3-1.6-4c-1.3-1-3-1.5-4.7-1.4c-2.7,0.1-5.4,1-7.6,2.6l-1.8-3
			c1.5-1,3.2-1.9,4.9-2.5c1.7-0.5,3.6-0.8,5.4-0.8c3.1,0,5.4,0.8,7.1,2.3c1.7,1.6,2.7,3.9,2.6,6.3v16.2L80,171.1z M77.5,166.2
			c1.4-0.9,2.3-2.3,2.5-3.9v-2.5h-7.2c-1.5-0.1-3,0.2-4.3,0.9c-1,0.6-1.5,1.7-1.4,2.8c0,1.2,0.5,2.3,1.4,3c1.1,0.8,2.5,1.2,3.9,1.1
			C74.2,167.7,76,167.2,77.5,166.2L77.5,166.2z"/>
		<path class="st0" d="M115,136.6v34.5h-4.3v-4.9c-0.9,1.6-2.2,2.9-3.8,3.8c-1.7,0.9-3.6,1.4-5.5,1.3c-2.2,0-4.3-0.5-6.2-1.6
			c-1.8-1.1-3.2-2.6-4.2-4.5c-1-2-1.5-4.3-1.5-6.5s0.5-4.5,1.5-6.5c1-1.8,2.4-3.4,4.2-4.4c1.9-1.1,4-1.6,6.1-1.6
			c1.9,0,3.8,0.4,5.5,1.3c1.6,0.9,2.9,2.2,3.7,3.8v-14.8L115,136.6z M106.7,166.5c1.3-0.7,2.3-1.8,3-3.1c1.4-2.9,1.4-6.2,0-9.1
			c-0.7-1.3-1.7-2.4-3-3.1c-1.3-0.8-2.8-1.1-4.3-1.1s-3,0.4-4.3,1.1c-1.3,0.8-2.3,1.8-3,3.1c-1.4,2.8-1.4,6.2,0,9
			c0.7,1.3,1.7,2.4,3,3.1C100.8,167.9,104,167.9,106.7,166.5L106.7,166.5z"/>
		<path class="st0" d="M142.2,149.7c2,2.3,2.9,5.4,2.9,9.4c0,0.6,0,1.1,0,1.4h-19.5c0.2,2,1.2,3.9,2.8,5.3c1.5,1.3,3.5,2,5.6,2
			c1.4,0,2.8-0.3,4.1-0.8c1.2-0.5,2.4-1.3,3.3-2.2l2.4,2.5c-1.2,1.3-2.7,2.3-4.4,3c-1.8,0.7-3.7,1.1-5.7,1.1c-2.2,0-4.5-0.5-6.4-1.6
			c-1.9-1-3.4-2.5-4.4-4.4c-2.1-4.1-2.1-8.9,0-12.9c1-1.8,2.5-3.4,4.4-4.4c1.9-1.1,4.1-1.6,6.4-1.6
			C137.4,146.4,140.2,147.5,142.2,149.7z M141.2,157.1c0.1-3.9-3.1-7.2-7-7.2c-0.2,0-0.4,0-0.6,0c-2-0.1-3.9,0.7-5.4,2
			c-1.5,1.4-2.4,3.2-2.6,5.3L141.2,157.1z"/>
		<path class="st0" d="M163.8,138.5h4.4V167h14.2v4h-18.7v-32.5H163.8z"/>
		<path class="st0" d="M191.8,137.5c1,1.1,1,2.9,0,4c-1.1,1.1-2.8,1.1-3.9,0c-1-1.1-1-2.9,0-4C189,136.4,190.6,136.4,191.8,137.5z
			 M187.6,146.5h4.3v24.6h-4.3V146.5z"/>
		<path class="st0" d="M217.6,171.1l-7.9-12l-4.8,5v7h-4.3v-34.5h4.3v22l11.9-12.1h5.1l-9.2,9.5l10.1,15.1H217.6z"/>
		<path class="st0" d="M244.9,149.7c2,2.3,2.9,5.4,2.9,9.4c0,0.6,0,1.1,0,1.4h-19.5c0.2,2,1.2,3.9,2.8,5.3c1.5,1.3,3.5,2,5.6,2
			c1.4,0,2.8-0.3,4.1-0.8c1.2-0.5,2.4-1.3,3.3-2.2l2.4,2.5c-1.2,1.3-2.7,2.3-4.4,3c-1.8,0.7-3.7,1.1-5.7,1.1c-2.2,0-4.5-0.5-6.5-1.6
			c-1.9-1-3.4-2.5-4.4-4.4c-2.1-4.1-2.1-8.9,0-12.9c1-1.8,2.5-3.4,4.4-4.4c1.9-1.1,4.1-1.6,6.4-1.6
			C240,146.4,242.9,147.5,244.9,149.7z M243.9,157.1c0.1-3.9-3.1-7.2-7-7.2c-0.2,0-0.4,0-0.6,0c-2-0.1-3.9,0.7-5.4,2
			c-1.5,1.4-2.4,3.2-2.6,5.3L243.9,157.1z"/>
		<path class="st0" d="M281,171.1v-3.5c-1.8,2.4-4.7,3.6-8.6,3.6c-1.6,0-3.1-0.3-4.5-1c-1.2-0.6-2.3-1.5-3-2.7s-1-2.5-1-3.9
			c-0.1-2,0.8-4,2.4-5.2c2-1.4,4.4-2.1,6.8-2h7.8v-1.2c0.1-1.5-0.5-3-1.6-4c-1.3-1-3-1.5-4.7-1.4c-2.7,0.1-5.4,1-7.6,2.6l-1.8-3
			c1.5-1,3.2-1.9,4.9-2.5c1.7-0.5,3.6-0.8,5.4-0.8c3.1,0,5.4,0.8,7.1,2.3c1.7,1.6,2.7,3.9,2.6,6.3v16.2L281,171.1z M278.4,166.2
			c1.4-0.9,2.3-2.3,2.5-3.9v-2.5h-7.2c-1.5-0.1-3,0.2-4.4,0.9c-1,0.6-1.5,1.7-1.4,2.8c0,1.2,0.5,2.3,1.4,3c1.1,0.8,2.5,1.2,3.9,1.1
			C275,167.7,276.9,167.2,278.4,166.2L278.4,166.2z"/>
		<path class="st0" d="M327.6,141.4c2.3,2.1,3.5,5,3.3,8.1c0,3.6-1.1,6.5-3.4,8.5s-5.4,3-9.4,3H310v10.1h-4.5v-32.6h12.6
			C322.2,138.5,325.4,139.5,327.6,141.4z M324.4,155.1c1.6-1.4,2.4-3.4,2.2-5.4c0.1-2-0.7-4-2.2-5.3c-1.5-1.2-3.6-1.8-6.4-1.8h-7.9
			v14.3h7.9C320.8,156.9,322.9,156.2,324.4,155.1z"/>
		<path class="st0" d="M344.2,147.8c1.6-0.9,3.4-1.4,5.3-1.4v4.2c-4.3-0.5-8.2,2.7-8.7,7c0,0.2,0,0.4,0,0.6v13h-4.3v-24.7h4.3v5.3
			C341.4,150.1,342.6,148.7,344.2,147.8z"/>
		<path class="st0" d="M371,147.9c1.9,1,3.4,2.5,4.5,4.4c2.1,4,2.1,8.9,0,12.9c-1,1.9-2.6,3.4-4.5,4.4c-4.1,2.1-9,2.1-13.1,0
			c-1.9-1-3.4-2.5-4.5-4.4c-2.1-4-2.1-8.9,0-12.9c1-1.9,2.6-3.4,4.5-4.4C362,145.8,366.9,145.8,371,147.9L371,147.9z M360.1,151.2
			c-1.2,0.7-2.3,1.8-2.9,3.1c-0.7,1.4-1,2.9-1,4.5s0.3,3.1,1,4.6c0.7,1.3,1.7,2.4,2.9,3.1c2.7,1.5,5.9,1.5,8.6,0
			c1.3-0.7,2.3-1.8,2.9-3.1c0.7-1.4,1.1-3,1-4.6c0-1.6-0.3-3.1-1-4.5c-0.7-1.3-1.7-2.4-2.9-3.1C366,149.8,362.9,149.8,360.1,151.2
			L360.1,151.2z"/>
	</g>
</g>
</svg>
