<?xml version="1.0" encoding="utf-8"?>
<!-- Generator: Adobe Illustrator 22.0.1, SVG Export Plug-In . SVG Version: 6.00 Build 0)  -->
<svg version="1.1" id="图层_1" xmlns="http://www.w3.org/2000/svg" xmlns:xlink="http://www.w3.org/1999/xlink" x="0px" y="0px"
	 viewBox="0 0 600 130" style="enable-background:new 0 0 600 130;" xml:space="preserve">
<style type="text/css">
	.st0{fill:#FAA41D;}
	.st1{fill:#18315A;}
</style>
<g id="_x23_faa41dff">
	<path class="st0" d="M51.6,15.8c3.4-3.1,6.6-6.3,9.8-9.6c0.1,9.3,0.5,18.7-0.2,28C43.4,52.1,25.3,69.8,7.3,87.7
		c-0.1-8.2,0-16.4-0.1-24.6c0.2-1.8-0.4-4.1,1.2-5.5c3.6-3.7,7.4-7.3,11.1-10.9C30.6,36.7,40.9,26,51.6,15.8z"/>
</g>
<path class="st1" d="M550.7,33.8c11.2-8,26.7-7,38.8-1.5c-1.1,4.4-2.4,8.8-3.6,13.2c-6.1-2.9-12.9-5-19.7-3.9
	c-4.1,0.8-8.3,3.2-9.5,7.4c-1.8,4.5,0.6,9.6,4.4,12.2c7.5,5.2,17,6.8,23.7,13.2c12.2,10.5,10.1,32.8-4,40.8
	c-12.6,7.2-28.6,5.6-41.1-0.7c1-4.6,2.2-9.1,3.3-13.6c8.3,4.6,18.7,7.7,27.9,4c7.5-3,8.9-14.2,2.8-19.3c-7.3-6.3-17.8-7.2-24.7-14.2
	C537.6,61.9,538.8,42.1,550.7,33.8z"/>
<path class="st1" d="M430.5,31.6c3.1,0.1,6.1,0.1,9.2,0c5.9,28.7,11.6,57.4,17.5,86.2c-5.7,0-11.4,0.1-17.1,0
	c-2.6-15.1-5.6-30.1-8-45.1c-5.7,15.9-10.5,32.2-15.9,48.1c-2.8,0-5.6,0-8.4,0c-5.2-15.8-10.8-31.5-15.9-47.3
	c-3.1,14.6-5.4,29.4-8.4,44.1c-5.6,0.9-11.5,0.1-17.2,0.4c6-28.7,11.7-57.4,17.5-86.2c3.1,0,6.3,0,9.4,0
	c6.1,18.3,12.2,36.6,18.6,54.9C417.7,68.2,424.2,49.9,430.5,31.6z"/>
<path class="st1" d="M199.4,32c12.9,0.3,25.8-0.3,38.7,0.7c7.5,0.3,13.9,5.8,16.8,12.5c2.9,6.2,2.8,13.2,2.3,19.9
	c-1,9.5-7.6,18.7-17.1,20.8c-8.3,1.8-16.8,0.8-25.2,1.1c0,11.1-0.1,22.2,0.1,33.3c-5.2,0-10.4,0-15.5,0
	C199.6,90.9,199.5,61.4,199.4,32 M214.9,47c-0.1,8.3-0.1,16.7,0,25c5.4,0,10.8,0.1,16.2-0.3c3.9-0.2,7.7-2.5,9.2-6.1
	c3.4-6.1,0.9-15.3-6-17.6C227.9,46.5,221.3,47.1,214.9,47z"/>
<path class="st1" d="M266.7,32c12.4,0.2,24.9-0.2,37.3,0.2c6.2,0.4,13,0.6,18,4.8c7,5.7,9,15.5,8,24c-0.6,6.3-3.6,12.5-8.9,16.1
	c-3.2,2.4-7.2,3.3-11,4.5c5.3,3.4,9.5,8.2,12.6,13.7c4.8,8.3,9.2,16.8,14,25.1c-6.3-0.2-12.6-0.1-18.9,0c-5.7-9.3-11-18.9-16.8-28.2
	c-2-2.9-4-6.1-7.3-7.6c-3.6-1.2-7.4-1-11.1-1.1c-0.1,12.3-0.1,24.6,0,36.9c-5.2-0.1-10.5-0.1-15.7,0C266.8,90.9,266.8,61.4,266.7,32
	 M282.5,47c0,7.5,0,14.9,0,22.4c8.2-0.2,16.4,0.5,24.5-0.7c7.5-2,9.3-12.7,4.6-18.2c-2-2.6-5.5-3.3-8.6-3.4
	C296.2,46.8,289.3,47.1,282.5,47z"/>
<path class="st1" d="M341.5,32c5.1,0.1,10.1,0.1,15.2,0c0.1,29.5,0,58.9,0,88.4c-5.1-0.1-10.2-0.1-15.3,0
	C341.6,90.9,341.5,61.4,341.5,32z"/>
<path class="st1" d="M466.3,84c0-17.3-0.1-34.7,0-52.1c5.1,0.2,10.3-0.2,15.5,0.2c0.4,19.6-0.3,39.3,0.4,59
	c-0.1,6.6,4,13.6,10.8,14.9c4.8,0.7,10.5,1,14.4-2.5c4-3.2,4.9-8.6,4.9-13.4c0.2-19.4,0.1-38.8,0.1-58.2c5.3,0.3,10.6,0.2,15.9,0
	c-0.3,20.7,0.5,41.5-0.5,62.2c-0.3,8.4-3,17.6-10.3,22.6c-7.9,5.8-18.2,5.4-27.4,4.7c-9.8-0.9-18.9-7.9-21.7-17.4
	C466.7,97.5,466.3,90.7,466.3,84z"/>
<path class="st1" d="M7.3,94.6c18.2-17.4,36.2-35,54.3-52.5c-0.1,9.2-0.1,18.5,0,27.8c-18.1,18-36.3,35.9-54.4,53.9
	C7.3,114,7.3,104.3,7.3,94.6z"/>
<path class="st1" d="M72.8,41.8c15.6,0.2,31.2,0.1,46.8,0c-0.1,4.4,0,8.8-0.1,13.1c-10.9-0.1-21.8,0-32.7-0.1c0,6,0,12.1,0,18.1
	c9.4,0,18.8,0,28.2,0c0,4.3-0.1,8.6,0.2,12.8c-9.4,0.1-18.9,0-28.3,0c0,10.9-0.1,21.8,0.1,32.7c-4.7,0-9.3,0-14,0
	C72.8,92.9,72.9,67.3,72.8,41.8z"/>
<path class="st1" d="M125.9,41.8c5.1,0.2,10.2,0,15.3,0.1c1.6-0.3,1.9,1.6,2.6,2.6c4.1,7.4,8,14.8,12.2,22.1
	c4-8.4,8.9-16.3,13.1-24.7c5.4,0,10.8,0,16.2,0c-7.1,12.4-14.2,24.9-21.2,37.3c8,13,15.5,26.3,23.4,39.4c-5.6-0.1-11.2-0.1-16.8,0
	c-5.1-8.8-10.1-17.6-15-26.4c-5.2,8.7-10.1,17.6-15.3,26.4c-5.5-0.1-11.1,0-16.6,0c7.8-13.4,15.7-26.7,23.4-40.2
	C139.8,66.2,133.1,53.8,125.9,41.8z"/>
</svg>
