<?xml version="1.0" encoding="utf-8"?>
<!-- Generator: Adobe Illustrator 22.0.1, SVG Export Plug-In . SVG Version: 6.00 Build 0)  -->
<svg version="1.1" id="Layer_1" xmlns="http://www.w3.org/2000/svg" xmlns:xlink="http://www.w3.org/1999/xlink" x="0px" y="0px"
	 viewBox="0 0 780 240" style="enable-background:new 0 0 780 240;" xml:space="preserve">
<style type="text/css">
	.st0{fill:#EB382F;}
</style>
<path class="st0" d="M102.8,65l9.5-60.5h16.5l-24,149.5h-16l11.5-73.5h-58L30.7,154h-17l24-149.5h17L45.3,65H102.8z"/>
<path class="st0" d="M130.3,105c4.5-27.5,29.5-49.5,56.5-49.5c27.5,0,45.5,22,41,49.5s-29.5,49-56.5,49S126.2,132,130.3,105z
	 M146.2,104.5c-3,19,8,34.5,27.5,34.5s35.5-15.5,38.5-34.5s-8-34.5-27.5-34.5C165.3,70.5,149.2,86,146.2,104.5z"/>
<path class="st0" d="M277.2,4.5L253.8,154h-16L261.2,4.5"/>
<path d="M340.7,20l-7,44.5h49.5L380.7,80h-49.5l-12,74h-16.5l24-149.5h68L392.3,20C392.3,20,340.7,20,340.7,20z"/>
<path d="M385.2,104.5C389.8,77,414.8,55,441.8,55c27.5,0,45.5,22,41,49.5c-4.5,27.5-29.5,49-56.5,49
	C399.3,153.5,381.2,131.5,385.2,104.5z M401.2,104c-3,19,8,34.5,27.5,34.5s35.5-15.5,38.5-34.5c3-19-8-34.5-27.5-34.5
	C420.2,70,404.3,85.5,401.2,104z"/>
<path d="M520.2,68L520.2,68c7-7.5,12.5-13.5,23-13.5c5.5,0,9.5,2,13.5,4.5l-10,15c-3-2.5-5-4.5-9-4.5c-17,0-21.5,23-23.5,35.5
	l-7.5,48.5h-16l15-97h16L520.2,68z"/>
<path d="M567.8,107.5c-2.5,17,8,31,25.5,31c13.5,0,23.5-8,31.5-19l12,7.5c-11.5,17-28,26.5-47,26.5c-27.5,0-42-21.5-37.5-48
	c4.5-27.5,24-50.5,53-50.5c30,0,41.5,25,35.5,53h-73V107.5z M626.8,94c0-13.5-9.5-24-23.5-24c-13.5,0-28,10.5-32.5,24
	C570.8,94,626.8,94,626.8,94z"/>
<path d="M627.2,5.5h19.5l48,82.5l29-34h20l-41,46.5l71,121.5h-19l-63.5-109l-36,40.5h-19.5l47.5-53L627.2,5.5z"/>
<g>
	<path d="M32.8,200l2.5-15h4l-6,37.5h-4l3-18.5h-19l-3,18.5h-4l6-37.5h4l-2.5,15H32.8z"/>
	<path d="M40.3,210.5c1-7,7.5-12.5,14-12.5c7,0,11.5,5.5,10.5,12.5c-1,7-7.5,12.5-14,12.5C43.8,223,39.2,217.5,40.3,210.5z
		 M44.2,210.5c-1,5,2,8.5,7,8.5s9-4,9.5-8.5c1-4.5-2-8.5-7-8.5C49.2,202,45.3,206,44.2,210.5z"/>
	<path d="M74.7,201.5L74.7,201.5c2-2,4.5-3.5,7.5-3.5c6.5,0,7,4.5,6.5,10l-2,14h-4l2-13c0.5-4,1-7-3.5-7c-5.5,0-6.5,5-7.5,9l-1.5,11
		h-4l3.5-23.5h4L74.7,201.5z"/>
	<path d="M96.7,211.5c-0.5,4.5,2,7.5,6.5,7.5c3.5,0,6-2,8-5l3,2c-3,4-7,6.5-12,6.5c-7,0-10.5-5.5-9.5-12c1-7,6-12.5,13.5-12.5
		s10.5,6,9,13H96.7V211.5z M111.7,208c0-3.5-2.5-6-6-6s-7,2.5-8,6H111.7z"/>
	<path d="M130.8,204.5c-0.5-1-1.5-2.5-3-2.5c-1.5,0-3,1-3.5,2.5c-0.5,2,2,3,4.5,4c2.5,1,5,3,4.5,6.5c-0.5,4.5-4.5,7.5-9,7.5
		c-4,0-6.5-2-7.5-6l3.5-1.5c0.5,2,1.5,3.5,4,3.5c2,0,4-1.5,4.5-3.5c1-5-10-3.5-9-11c0.5-4,4.5-6.5,8-6.5c2.5,0,5,2,5.5,4.5
		L130.8,204.5z"/>
	<path d="M141.8,222.5h-4l3-19.5h-2.5l0.5-3.5h2.5l1.5-8.5h4l-1.5,8.5h4l-0.5,3.5h-4L141.8,222.5z"/>
	<path d="M148.2,199h4.5l5.5,16.5l10-16.5h4.5l-23,36.5h-4.5l10-15.5L148.2,199z"/>
	<path d="M195.8,208.5l-0.5,3.5h-10l0.5-3.5H195.8z"/>
	<path d="M251.2,203.5c-1.5,11-12,19.5-22.5,19.5s-18-8.5-16.5-19.5c1.5-10.5,12-19.5,22.5-19.5C245.3,184,252.8,193,251.2,203.5z
		 M216.2,203.5c-1.5,8.5,4.5,15.5,13,15.5c8.5,0,16.5-7,17.5-15.5c1.5-8.5-4.5-15.5-13-15.5C225.8,188,217.8,195,216.2,203.5z"/>
	<path d="M260.2,202L260.2,202c2.5-2.5,5.5-4,8.5-4c7,0,10.5,6,9,12.5c-1,6.5-6,12.5-13,12.5c-3,0-6-1.5-7.5-4l0,0l-2.5,16.5h-4
		l6-36.5h4L260.2,202z M258.8,210.5c-1,4.5,1.5,9,6,9c5,0,8.5-4,9-9c0.5-4.5-1.5-8.5-6.5-8.5C263.2,202,259.2,206,258.8,210.5z"/>
	<path d="M284.8,211.5c-0.5,4.5,2,7.5,6.5,7.5c3.5,0,6-2,8-5l3,2c-3,4-7,6.5-12,6.5c-7,0-10.5-5.5-9.5-12c1-7,6-12.5,13.5-12.5
		s10.5,6,9,13h-18.5V211.5z M299.8,208c0-3.5-2.5-6-6-6s-7,2.5-8,6H299.8z"/>
	<path d="M313.8,201.5L313.8,201.5c2-2,4.5-3.5,7.5-3.5c6.5,0,7,4.5,6.5,10l-2,14h-4l2-13c0.5-4,1-7-3.5-7c-5.5,0-6.5,5-7.5,9
		l-1.5,11h-4l3.5-23.5h4L313.8,201.5z"/>
	<path d="M339.3,201.5L339.3,201.5c2-2,4.5-3.5,7.5-3.5c6.5,0,7,4.5,6.5,10l-2,14h-4l2-13c0.5-4,1-7-3.5-7c-5.5,0-6.5,5-7.5,9
		l-1.5,11h-4l3.5-23.5h4L339.3,201.5z"/>
	<path d="M360.7,211.5c-0.5,4.5,2,7.5,6.5,7.5c3.5,0,6-2,8-5l3,2c-3,4-7,6.5-12,6.5c-7,0-10.5-5.5-9.5-12c1-7,6-12.5,13.5-12.5
		s10.5,6,9,13h-18.5V211.5z M375.7,208c0-3.5-2.5-6-6-6c-3.5,0-7,2.5-8,6H375.7z"/>
	<path d="M394.8,204.5c-0.5-1-1.5-2.5-3-2.5c-1.5,0-3,1-3.5,2.5c-0.5,2,2,3,4.5,4c2.5,1,5,3,4.5,6.5c-0.5,4.5-4.5,7.5-9,7.5
		c-4,0-6.5-2-7.5-6l3.5-1.5c0.5,2,1.5,3.5,4,3.5c2,0,4-1.5,4.5-3.5c1-5-10-3.5-9-11c0.5-4,4.5-6.5,8-6.5c2.5,0,5,2,5.5,4.5
		L394.8,204.5z"/>
	<path d="M413.8,204.5c-0.5-1-1.5-2.5-3-2.5s-3,1-3.5,2.5c-0.5,2,2,3,4.5,4c2.5,1,5,3,4.5,6.5c-0.5,4.5-4.5,7.5-9,7.5
		c-4,0-6.5-2-7.5-6l3.5-1.5c0.5,2,1.5,3.5,4,3.5c2,0,4-1.5,4.5-3.5c1-5-10-3.5-9-11c0.5-4,4.5-6.5,8-6.5c2.5,0,5,2,5.5,4.5
		L413.8,204.5z"/>
	<path d="M443.8,208.5l-0.5,3.5h-10l0.5-3.5H443.8z"/>
	<path d="M469.3,222.5h-4l5.5-33.5h-9l0.5-4h22.5l-0.5,4h-9L469.3,222.5z"/>
	<path d="M487.2,201.5L487.2,201.5c2-2,3-3,6-3c1.5,0,2.5,0.5,3.5,1l-2.5,3.5c-1-0.5-1-1-2-1c-4.5,0-5.5,5.5-6,8.5l-2,11.5h-4
		l3.5-23.5h4L487.2,201.5z"/>
	<path d="M517.2,222.5h-4l0.5-3l0,0c-2.5,2.5-5.5,4-8.5,4c-7,0-10-6-9-12.5c1-6.5,6-12.5,13-12.5c3,0,5.5,1.5,7.5,4l0,0l0.5-3.5h4
		L517.2,222.5z M500.2,210.5c-1,4.5,1.5,9,6,9c5,0,8.5-4,9-9c0.5-4.5-1.5-8.5-6.5-8.5C504.3,202,500.7,206,500.2,210.5z"/>
	<path d="M531.2,201.5L531.2,201.5c2-2,4.5-3.5,7.5-3.5c6.5,0,7,4.5,6.5,10l-2,14h-4.5l2-13c0.5-4,1-7-3.5-7c-5.5,0-6.5,5-7,9l-2,11
		h-4l3.5-23.5h4L531.2,201.5z"/>
	<path d="M561.8,204.5c-0.5-1-1.5-2.5-3-2.5s-3,1-3.5,2.5c-0.5,2,2,3,4.5,4c2.5,1,5,3,4.5,6.5c-0.5,4.5-4.5,7.5-9,7.5
		c-4,0-6.5-2-7.5-6l3.5-1.5c0.5,2,1.5,3.5,4,3.5c2,0,4-1.5,4.5-3.5c1-5-10-3.5-9-11c0.5-4,4.5-6.5,8-6.5c2.5,0,5,2,5.5,4.5
		L561.8,204.5z"/>
	<path d="M575.8,202L575.8,202c2.5-2.5,5.5-4,8.5-4c7,0,10.5,6,9,12.5c-1,6.5-6,12.5-13,12.5c-3,0-6-1.5-7.5-4l0,0l-2.5,16.5h-4
		l6-36.5h4L575.8,202z M574.2,210.5c-1,4.5,1,9,6,9s8.5-4,9-9c0.5-4.5-1.5-8.5-6.5-8.5C578.2,202,574.8,206,574.2,210.5z"/>
	<path d="M617.8,222.5h-4l0.5-3l0,0c-2.5,2.5-5.5,4-8.5,4c-7,0-10-6-9-12.5c1-6.5,6-12.5,13-12.5c3,0,5.5,1.5,7.5,4l0,0l0.5-3.5h4
		L617.8,222.5z M600.8,210.5c-1,4.5,1,9,6,9s8.5-4,9-9c0.5-4.5-1.5-8.5-6.5-8.5C604.8,202,601.2,206,600.8,210.5z"/>
	<path d="M631.8,201.5L631.8,201.5c2-2,3-3,6-3c1.5,0,2.5,0.5,3.5,1l-2.5,3.5c-1-0.5-1-1-2-1c-4.5,0-5.5,5.5-6,8.5l-2,11.5h-4
		l3.5-23.5h4L631.8,201.5z"/>
	<path d="M644.2,211.5c-0.5,4.5,2,7.5,6.5,7.5c3.5,0,6-2,8-5l3,2c-3,4-7,6.5-12,6.5c-7,0-10.5-5.5-9.5-12c1-7,6-12.5,13.5-12.5
		s10.5,6,9,13h-18.5V211.5z M658.8,208c0-3.5-2.5-6-6-6s-7,2.5-8,6H658.8z"/>
	<path d="M672.8,201.5L672.8,201.5c2-2,4.5-3.5,7.5-3.5c6.5,0,7,4.5,6.5,10l-2,14h-4l2-13c0.5-4,1-7-3.5-7c-5.5,0-6.5,5-7.5,9
		l-1.5,11h-4l3.5-23.5h4L672.8,201.5z"/>
	<path d="M710.8,206L710.8,206c-1.5-2.5-3.5-4-7-4c-5,0-9,4-9.5,8.5c-1,4.5,2,8.5,6.5,8.5c3.5,0,6-1.5,8-4l0,0l-1,5.5
		c-2.5,1.5-5,2.5-7.5,2.5c-7,0-11.5-5.5-10.5-12.5c1-7,7.5-12.5,14.5-12.5c2.5,0,5,1,7,2.5L710.8,206z"/>
	<path d="M713.8,199h4.5l5.5,16.5l10-16.5h4.5l-23,36.5h-4.5l10-15.5L713.8,199z"/>
</g>
<polyline class="st0" points="239.2,64.5 307.8,64.5 305.2,79.5 236.8,79.5 "/>
</svg>
