<?xml version="1.0" encoding="utf-8"?>
<!-- Generator: Adobe Illustrator 22.0.0, SVG Export Plug-In . SVG Version: 6.00 Build 0)  -->
<svg version="1.1" id="Layer_1" xmlns="http://www.w3.org/2000/svg" xmlns:xlink="http://www.w3.org/1999/xlink" x="0px" y="0px"
	 viewBox="0 0 540 160" style="enable-background:new 0 0 540 160;" xml:space="preserve">
<style type="text/css">
	.st0{fill:#EF464B;}
</style>
<polygon class="st0" points="82.4,108.7 51.4,108.7 51.4,0.9 82.4,0.9 82.4,41.4 123.5,41.4 123.5,0.9 154.5,0.9 154.5,108.7 
	123.5,108.7 123.5,68.2 82.4,68.2 "/>
<polygon class="st0" points="234.2,54.4 200.6,108.2 168.3,108.2 201.9,54.4 168.3,0.6 200.6,0.6 "/>
<polygon class="st0" points="435.3,38 457.6,0.9 488.6,0.9 488.6,108.7 457.6,108.7 457.6,47.8 435.3,83.5 413.1,47.8 413.1,108.7 
	382.1,108.7 382.1,0.9 413.1,0.9 "/>
<path class="st0" d="M366.4,81.4c-14.8,26-47.7,35-73.4,20.1c-26-14.8-35-47.7-20.1-73.4c14.8-26,47.7-35,73.4-20.1
	c7.9,4.5,14.8,11.1,19.6,19.1l-23.3,15.1l0,0c-6.9-12.5-22.8-17.2-35.2-10.1c-12.5,6.9-17.2,22.8-10.1,35.2
	c7.2,12.5,22.8,17.2,35.2,10.1c4.2-2.4,7.7-5.8,10.1-10.1h0.3L366.4,81.4L366.4,81.4z"/>
<polygon class="st0" points="267.9,0.6 250.4,28.7 248.8,31.1 232.6,5.4 229.7,0.6 "/>
<path class="st0" d="M83.8,145.3H53c-0.8,0-1.3-0.5-1.6-1.1c0,0,0,0,0-0.3c0-0.8,0.8-1.3,1.6-1.3h30.7c0.8,0,1.3,0.5,1.3,1.3
	C84.8,144.7,84.3,145.3,83.8,145.3z M61,147.6c0.5-0.8,1.1-1.1,1.9-0.5c0.5,0.5,0.8,1.3,0.5,1.9c-2.4,3.4-5.3,6.4-8.7,9
	c-0.8,0.5-1.6,0.5-2.1,0s-0.3-1.3,0.5-2.1C56.2,153.7,58.8,150.8,61,147.6z M55.7,129.1c2.4,2.9,4.5,6.4,5.6,10.1
	c0.3,1.1,0,1.6-0.5,2.1c-0.5,0.3-1.3,0.3-1.9-0.5c0,0,0-0.3-0.3-0.3c-1.3-3.4-2.9-6.6-5.3-9.5c-0.5-0.5-0.5-1.1,0-1.6l0,0
	C54.1,128.6,54.9,128.6,55.7,129.1L55.7,129.1z M66.5,127.2c1.6,3.7,2.9,7.4,3.7,11.4c0,0.8-0.5,1.6-1.3,1.9c-0.8,0-1.6-0.5-1.6-1.6
	c-0.5-3.7-1.6-7.2-3.2-10.6c-0.5-0.5-0.3-1.3,0.3-1.9c0,0,0.3,0,0.3-0.3C65.2,126.2,66.3,126.4,66.5,127.2L66.5,127.2z M74.7,147.4
	c2.9,2.9,5.6,5.8,7.9,9.3c0.5,0.8,0.3,1.6-0.5,2.1l0,0c-0.8,0.3-1.3,0-2.1-0.8c-2.1-3.2-4.8-6.1-7.4-8.7c-0.8-0.5-0.8-1.3-0.3-1.9
	C73.2,146.8,74.2,146.8,74.7,147.4L74.7,147.4z M82.2,129.4c-1.3,4-3.2,7.7-5.3,11.1c-0.3,0.8-1.3,1.1-2.1,0.8l0,0
	c-0.8-0.5-0.8-1.1-0.5-2.1c2.1-3.4,3.7-6.9,4.8-10.9c0.3-0.8,1.1-1.6,2.1-1.3l0,0C82.2,127.5,82.4,128.3,82.2,129.4L82.2,129.4z"/>
<path class="st0" d="M140.2,127.8v28.1h9.5c0.8,0,1.1,0.5,1.3,1.3c0,0.8-0.3,1.3-1.3,1.6H119c-0.8,0-1.1-0.5-1.1-1.6
	c0-0.8,0.5-1.3,1.3-1.3c0,0,0,0,0.3,0h9.8V128c0-0.8,0.5-1.1,1.3-1.3c0.8,0,1.3,0.5,1.3,1.3v27.8h5.6v-28.1c0-0.8,0.5-1.3,1.3-1.3
	C139.4,126.4,140.2,127,140.2,127.8L140.2,127.8z M121.9,133.6c2.4,5,4.2,10.3,5.8,15.9c0.3,0.8-0.3,1.6-1.1,2.1
	c-0.5,0.3-1.3,0-1.6-0.5v-0.3c-1.3-5.3-3.4-10.6-5.6-15.6c-0.5-0.5-0.3-1.6,0.3-1.9c0,0,0.3,0,0.3-0.3
	C120.6,132.8,121.6,133.1,121.9,133.6L121.9,133.6z M146.8,133.3c0.3-0.8,1.1-1.3,1.9-1.3c0.8,0.3,1.3,1.3,1.1,2.1
	c-1.3,5.6-3.2,10.9-5.8,15.9c-0.5,1.1-1.3,1.6-2.1,1.1c-0.8-0.3-1.1-1.1-0.5-2.4C143.4,143.7,145.2,138.6,146.8,133.3L146.8,133.3z"
	/>
<path class="st0" d="M191,127.5v6.4h2.9c0.5,0,0.8,0.5,1.1,1.3s-0.3,1.1-1.1,1.3H191v7.2c0.8-0.5,1.6-1.1,2.4-1.6
	c0.5-0.3,1.3-0.3,1.9,0.5c0.3,0.5,0.3,1.3-0.3,1.6c0,0,0,0-0.3,0c-0.3,0.3-0.5,0.3-0.8,0.5l-2.9,1.6v9.3c0,2.6-1.6,3.4-5,2.4
	c-0.8-0.3-1.3-1.1-1.3-1.9l0,0c0.3-0.8,0.8-1.1,1.9-0.8c1.3,0.5,2.1,0.5,1.9,0v-7.7c-1.6,0.8-2.4,1.3-2.9,1.3s-1.1,0-1.6-0.8
	c-0.3-0.5,0-1.3,0.5-1.6l0,0l1.9-1.1c0.5-0.3,1.3-0.5,1.9-1.1V136H185c-0.5,0-1.1-0.5-1.1-1.3c0-0.5,0.5-1.1,1.1-1.3h3.2V127
	c0-0.5,0.5-0.8,1.3-1.1C190.3,125.6,191,127,191,127.5z M209.9,143.1h-13c-0.8,0-1.1-0.5-1.3-1.3c0-0.8,0.5-1.3,1.3-1.3h14
	c2.4,0.3,2.9,1.6,2.1,4c-1.3,3.2-3.4,5.8-6.1,8.2c2.6,1.9,5.8,2.9,9.3,2.9c0.8,0,1.3,0.5,1.3,1.6c0,0.8-0.5,1.3-1.3,1.3l0,0
	c-4-0.5-7.9-2.1-11.4-4c-3.2,1.9-6.6,3.2-10.1,4c-1.1,0.3-1.9-0.3-2.1-1.1s0-1.3,1.1-1.6c2.9-0.5,5.8-1.6,8.5-3.2
	c-2.1-1.9-4-4-5.3-6.4c-0.5-0.5-0.5-1.6,0-2.1c0,0,0,0,0.3-0.3c0.8-0.5,1.9-0.3,2.4,0.5c1.3,2.4,3.2,4.8,5.6,6.6
	c2.4-1.9,4.5-4,5.8-6.9C210.4,143.7,210.4,143.4,209.9,143.1z M200.6,127.2h7.9c1.6,0,2.4,0.8,2.4,2.4v5.6c-0.3,0.8,0.3,1.3,1.1,1.1
	h2.9c0.8,0,1.3,0.5,1.3,1.3c0,0.5-0.3,1.1-0.8,1.3h-0.3h-4c-2.4,0.3-3.2-0.8-2.9-3.4v-4.8c0-0.5-0.3-0.8-0.8-0.8H201
	c-0.5,0-0.8,0.3-0.8,0.8v2.1c0,3.2-1.9,6.1-4.8,7.7c-1.1,0.5-1.9,0.5-2.1,0c-0.5-0.8-0.3-1.6,0.8-2.1c2.4-1.1,3.7-3.4,4-5.8v-2.4
	C197.9,128.3,198.7,127.5,200.6,127.2L200.6,127.2z"/>
<path class="st0" d="M258.3,135.5c0.5-0.5,1.3-0.5,1.9,0l0,0c0.5,0.5,0.5,1.3,0,1.9l-0.3,0.3c-2.4,1.9-5,3.2-7.7,4.2
	c-1.1,0.3-1.9,0.3-2.1-0.5c-0.3-0.8,0-1.6,0.8-1.9l0,0C253.8,138.4,256.2,137,258.3,135.5z M268.1,147.4
	c-0.8,7.4-5.8,11.4-15.6,11.7c-0.8,0-1.6-0.5-1.9-1.3c0-0.8,0.3-1.3,1.3-1.3c8.2-0.3,12.7-3.4,13.2-9.3c0-0.8,0.8-1.3,1.6-1.3
	C267.9,145.8,268.1,146.6,268.1,147.4C268.1,147.1,268.1,147.1,268.1,147.4L268.1,147.4z M252.8,127.5c2.6,1.1,4.8,1.9,6.1,2.1
	c0.8,0.3,1.1,1.1,0.8,1.9c-0.5,0.8-1.1,1.1-1.9,0.8c-1.9-0.8-3.7-1.6-5.6-1.9c-0.3,0-0.3,0-0.5,0c-0.8-0.3-1.1-0.8-1.1-1.6
	C251.2,128,252,127.5,252.8,127.5z M279.5,144.7v8.5c0,0.8-0.5,1.3-1.3,1.3c0,0,0,0-0.3,0c-0.8,0-1.3-0.5-1.3-1.6v-7.2
	c0-0.5-0.3-1.1-1.3-1.1h-17.5c-0.8,0-1.1,0.3-1.1,0.8v7.7c0,0.8-0.5,1.3-1.3,1.3c0,0,0,0-0.3,0c-0.8,0-1.3-0.5-1.3-1.3v-8.7
	c0-1.6,0.8-2.1,2.4-2.1h19.6C278.5,142.3,279.5,143.1,279.5,144.7z M265.8,128.8h14c1.9,0,2.4,0.8,2.1,2.4c-0.5,1.9-1.6,3.4-2.6,4.8
	c-0.8,0.8-1.3,0.8-2.1,0.5c-0.5-0.5-0.5-1.1,0-2.1c1.9-2.1,2.1-2.9,1.3-2.9h-6.4c0,0,0,0.3,0,0.5c0,0.5-0.3,0.8-0.3,1.3
	c2.4,3.7,6.4,6.1,10.6,6.9c0.8,0.3,1.3,0.8,1.1,1.6c-0.3,0.8-0.8,1.1-1.6,0.8c-4.5-0.5-8.5-3.2-11.1-6.9c-2.1,3.4-5.6,5.8-9.8,6.4
	c-1.1,0.3-1.6,0-1.9-0.8s0-1.3,1.1-1.6c5.3-1.6,8.5-4.2,9.3-8.2h-5c-0.3,0.3-0.3,0.5-0.5,0.5c-0.5,0.8-1.1,1.6-1.9,2.1
	s-1.6,0.8-2.1,0c-0.5-0.5-0.5-1.3,0.3-1.9c1.6-1.6,2.9-3.4,4-5.6c0.3-0.8,0.8-1.1,1.6-0.8c0.8,0.3,1.1,1.3,0.8,1.9
	C266.3,128,266,128.6,265.8,128.8z M269.7,152.1c4,1.3,7.9,2.9,11.7,4.8c0.8,0.3,1.1,1.1,0.8,1.9l0,0c-0.3,0.5-1.1,0.8-1.6,0.5h-0.3
	c-3.4-2.1-7.4-3.7-11.4-4.8c-0.8-0.3-1.1-0.8-1.1-1.6c0,0,0,0,0-0.3C268.4,152.1,269.2,151.9,269.7,152.1L269.7,152.1z"/>
<path class="st0" d="M324.6,142.9c0-4.5,0.5-9,1.9-13.2c0.5-1.1,1.1-1.6,1.6-1.6s1.1,0.3,1.3,1.1c0,0.3-0.3,0.8-0.5,1.3
	c0,0.3,0,0.3,0,0.5c-1.1,4-1.6,7.9-1.3,11.9c0,2.4,0,4.5,0.3,6.9c0,1.6,0.5,3.2,1.1,4.8v0.3c0.3,0.5,0.3,1.1,0.5,1.6
	c0,0.5-0.5,1.1-1.3,1.1c-0.5,0-1.1-0.5-1.6-1.6C324.8,151.6,324.3,147.1,324.6,142.9z"/>
<path class="st0" d="M376.5,134.1v2.6h8.5c1.6,0,2.6,1.1,2.6,2.6v6.9h2.9c0.8,0,1.3,0.5,1.3,1.3c0,0,0,0,0,0.3
	c0,0.8-0.5,1.3-1.3,1.3h-13.2c3.7,3.4,8.2,5.8,13.2,7.2c1.1,0.3,1.6,0.8,1.3,1.6c-0.3,0.8-1.1,1.3-1.9,1.1l0,0
	c-5.6-1.6-10.6-4.5-14.8-8.2c-1.6,4-6.4,6.6-14.3,8.5c-1.1,0-1.6-0.3-1.9-1.1s0.3-1.3,1.3-1.6c7.4-1.3,11.7-3.7,13-7.4h-13.5
	c-0.8,0-1.1-0.5-1.3-1.3c0-0.8,0.5-1.3,1.3-1.3h2.9v-6.4c-0.3-1.3,0.5-2.9,2.1-3.2c0.3,0,0.5,0,0.8,0h8.7v-2.6
	c0-0.5,0.5-1.1,1.3-1.1C376.2,132.8,376.5,133.1,376.5,134.1z M369.4,127.5v1.3h12.2v-1.3c0-0.8,0.5-1.1,1.3-1.3
	c0.8,0,1.3,0.5,1.3,1.3v1.3h6.1c0.8,0,1.3,0.5,1.3,1.3s-0.5,1.3-1.3,1.3h-6.1v1.6c0,0.8-0.5,1.3-1.3,1.3s-1.3-0.5-1.3-1.3v-1.6
	h-12.2v1.9c0,0.8-0.5,1.3-1.3,1.3c0,0,0,0-0.3,0c-0.8,0-1.3-0.5-1.3-1.3v-1.9h-6.6c-0.8,0-1.3-0.5-1.3-1.3s0.8-1.3,1.6-1.3h6.6v-1.3
	c0-0.8,0.5-1.1,1.3-1.3C368.8,126.2,369.4,127,369.4,127.5L369.4,127.5z M373.9,142.1v-2.6H366c-0.8,0-1.1,0.5-1.1,1.1v5.8h8.7
	C373.6,145,373.9,143.7,373.9,142.1z M376.2,146.3h9v-5.8c0-0.5-0.5-1.1-1.1-1.1h-7.7v2.6C376.5,143.7,376.2,145.3,376.2,146.3
	L376.2,146.3z"/>
<path class="st0" d="M427.4,127.5h25.4c1.3,0,2.1,0.8,2.1,2.4v24.6c0,1.9-0.8,2.9-2.4,2.6h-24.9c-1.6,0-2.4-0.8-2.4-2.6v-24.6
	C425,128.3,425.5,127.5,427.4,127.5z M427.9,131.7v22c-0.3,0.8,0.3,1.3,1.6,1.3H451c1.1,0,1.6-0.3,1.3-1.3v-21.5
	c0-1.3-0.5-2.1-1.6-1.9h-21.5C428.2,130.2,427.9,130.7,427.9,131.7L427.9,131.7z M432.1,133.3h16.4c0.5,0,1.1,0.5,1.1,1.3
	s-0.3,1.3-1.1,1.3h-7.7v4h6.9c0.8,0,1.3,0.5,1.3,1.3s-0.5,1.3-1.3,1.3h-6.9v6.4h8.5c0.8,0,1.3,0.5,1.3,1.3s-0.5,1.3-1.3,1.3H431
	c-0.8,0-1.3-0.3-1.3-1.1v-0.3c0-0.8,0.5-1.3,1.3-1.3h7.2v-6.4h-5.6c-0.8,0-1.3-0.5-1.3-1.3s0.5-1.3,1.1-1.3c0,0,0,0,0.3,0h5.6v-4
	h-5.8c-0.8,0-1.3-0.5-1.6-1.1l0,0C430.6,134.1,431.1,133.3,432.1,133.3L432.1,133.3L432.1,133.3z M444.1,143.9
	c1.1,0.8,2.1,1.6,2.9,2.4c0.5,0.5,0.5,1.3,0,1.9c-0.5,0.5-1.1,0.5-1.6,0l-0.3-0.3l-2.6-2.1c-0.5-0.3-0.8-1.1-0.3-1.6c0,0,0,0,0-0.3
	C442.7,143.7,443.5,143.7,444.1,143.9L444.1,143.9z"/>
<path class="st0" d="M488.6,142.9c0,4.2-0.5,8.7-2.1,13c-0.3,1.1-0.8,1.6-1.6,1.6c-0.5,0-1.1-0.3-1.3-1.1c0-0.5,0-1.1,0.3-1.6
	c0-0.3,0.3-0.3,0.3-0.3c1.1-3.7,1.6-7.7,1.3-11.7c0-4-0.3-7.9-1.3-11.9c0-0.3-0.3-0.3-0.3-0.5c-0.3-0.5-0.3-0.8-0.3-1.3
	s0.5-0.8,1.3-1.1c0.8,0,1.3,0.3,1.6,1.6C488,133.9,488.6,138.4,488.6,142.9z"/>
</svg>
