<?xml version="1.0" encoding="utf-8"?>
<!-- Generator: Adobe Illustrator 22.0.1, SVG Export Plug-In . SVG Version: 6.00 Build 0)  -->
<svg version="1.1" id="Layer_1" xmlns="http://www.w3.org/2000/svg" xmlns:xlink="http://www.w3.org/1999/xlink" x="0px" y="0px"
	 viewBox="0 0 800 240" style="enable-background:new 0 0 800 240;" xml:space="preserve">
<style type="text/css">
	.st0{fill:#84C225;}
</style>
<g>
	<g>
		<path d="M66.5,162.1v-35.5H43v49.5C50,171.6,58,166.6,66.5,162.1z"/>
	</g>
</g>
<g>
	<g>
		<path d="M103,148.1v-44H79.5v52.5C86.5,153.1,94.5,150.1,103,148.1z"/>
	</g>
</g>
<path d="M136.5,141.1V72.6H113v73C120,143.6,128,142.1,136.5,141.1z"/>
<path d="M232,193.1c0,0,13,3,24.5-3l0,0l32-18c-196.5-78-285,53.5-285,53.5C78,158.6,194,182.6,232,193.1L232,193.1z"/>
<g>
	<g>
		<path class="st0" d="M262.5,100.1c-3.5,12-11.5,18.5-24,19c-15,1-25-4.5-30-17c-6.5-16-6.5-32.5,0-49C213,42.6,222,37.6,233,36.6
			c11.5-1,21,1.5,27.5,13c1.5,3,5,6,8,6.5c5.5,1,11.5,0.5,17.5,0.5c-1.5-17-9-30-24-37c-10-5-21-5.5-32-5c-20,2-34,11-42.5,27.5
			c-5.5,10-9,22.5-9,35.5c0,10.5,2,20.5,6,29l0,0c3.5,8.5,8.5,15.5,14.5,21.5l0,0l0,0c18.5,16.5,47,20,69.5,3c11-8,16-20,17-34
			c-8,0-15,0-22.5,0C263.5,98.1,263,99.1,262.5,100.1z"/>
		<path class="st0" d="M171.5,59.1c0-13.5,0-26.5,0-40c-2.5,0-4,0-5.5,0c-15,0-18,3-18,18.5c0,31.5,0,63,0,94.5c0,2,0,4.5,0,6.5
			c8.5,0,16,0,24,0c0-11,0-22,0-33L171.5,59.1L171.5,59.1z"/>
	</g>
</g>
<g>
	<g>
		<path d="M311,133.1v-94c0-3,1-5.5,3-8c2-2,4.5-3.5,7.5-3.5H342l20.5,80.5L383,27.6h31.5v105.5H395v-85l-21,85h-22l-21-85v85H311z"
			/>
		<path d="M471,130.1c-4,2.5-8.5,3.5-13,4c-4.5,0.5-9,1-12.5,1c-7,0-13.5-2-18.5-6c-5.5-4-8-10.5-8-19.5c0-8.5,2.5-14.5,7.5-18.5
			c5-3.5,11-6,18.5-7.5c1,0,2,0,3.5-0.5c1.5-0.5,3-0.5,5-1c9-1,13-4,13-8c0-3-1.5-5-4.5-6c-3-1-6-1.5-8.5-1.5c-3,0-5.5,0.5-7.5,1
			c-2,1-4,2.5-5,4.5h-20c1-6.5,3.5-11.5,8.5-15.5c5.5-4.5,13-7,23-7c11,0,19.5,2,25,6c5.5,4,8.5,9.5,8.5,17v28c0,8-1.5,14.5-4.5,19
			C478.5,124.6,475,127.6,471,130.1z M466,92.1c-3,1.5-6.5,2.5-11.5,4l-7,1.5c-3.5,1-6,2.5-7.5,4c-1.5,2.5-2,4.5-2,6.5
			c0,3,1,5.5,2.5,7.5c2,1.5,4.5,2.5,7.5,2.5c5.5,0,10-1.5,13-5s5-7.5,5-13.5L466,92.1L466,92.1z"/>
		<path d="M490,133.1V93.6c0-8,1-14.5,3.5-20s5.5-9.5,9.5-13c4-3,8-5.5,13-6.5c5-1,10.5-2,15.5-2c0.5,0,1,0,1.5,0c0.5,0,1,0,1.5,0
			v21.5h-7c-5.5,0-10,1.5-13,4.5c-3,3-4,7.5-4,13.5v42H490V133.1z"/>
		<path d="M559,52.1v30l25.5-30h25l-28.5,31l28.5,50h-25L570,105.6c-3-5.5-5.5-8-7.5-7c-2,1-3,2-3,3.5v11.5v19.5h-21v-105H549
			c3,0,5,1,7,3c2,2,3,4.5,3,7V52.1L559,52.1z"/>
		<path d="M670,108.1h15c-2,8.5-6.5,15-12.5,19.5s-14,7-23,7c-11.5,0-20-4-26.5-11.5c-6.5-7.5-9.5-18-9.5-31.5c0-13,3-23,9-30.5
			c6.5-7.5,15-11.5,26.5-11.5c12,0,21,3.5,27.5,11s9.5,18,9.5,31.5c0,1,0,1.5,0,2s0,1,0,1c0,1,0,1.5-0.5,2H634c0,6.5,1.5,11,4.5,14
			c2.5,3,6.5,5,11.5,5c3.5,0,6.5-0.5,8.5-2c0.5,0,1-0.5,1.5-1c0.5-0.5,1-1,1.5-1.5c0-0.5,1-1.5,2.5-2.5
			C665.5,108.6,667.5,108.1,670,108.1z M634,84.6h30.5c-0.5-5.5-2-9.5-4-12c-2.5-3-6.5-4.5-11-4.5c-4.5,0-8,1.5-10.5,4.5
			C636,75.1,634.5,79.1,634,84.6z"/>
		<path d="M726,133.1c-6.5,0.5-13.5,0.5-21.5-0.5c-7.5-0.5-11.5-5.5-11.5-15V28.1h10.5c2.5,0,5,1,7,3c2,2,3,4.5,3,7.5v14h12v4.5
			c0,3-1,5.5-3,7.5c-2,2-4.5,3-7,3h-2v45c0,3.5,2,5,6,5h6.5V133.1L726,133.1z"/>
		<path d="M727.5,106.6H748c0,4,1.5,7,4.5,9c3,2,7,3,12,3c3.5,0,6.5-0.5,9-2s3.5-3.5,3.5-6c0-3.5-4-6.5-12.5-8c-3.5-0.5-6.5-1-8-2
			c-10.5-2.5-17.5-6-21-9.5c-4-3.5-6-8.5-6-14.5c0-7.5,3-14,8.5-19.5c6-4.5,13.5-7,23-7c10.5,0,18.5,2.5,24.5,7c5.5,5,9,11.5,9,20
			h-13c-4,0-6.5-1.5-8.5-5c-1-1-1.5-1.5-2.5-2.5c-2.5-2-5.5-2.5-10-2.5c-4,0-7,0.5-9,2c-2,1-2.5,3-2.5,5.5c0,3,5,6,15.5,8
			c1,0.5,2.5,0.5,3,1c1,0,1.5,0.5,2.5,0.5c10,2.5,17,5.5,21,9c4,3.5,5.5,8.5,5.5,14.5c0,9-3,16-9.5,21c-6,4.5-15,6.5-27,6.5
			c-11.5,0-19.5-2.5-25.5-7c-5.5-4.5-8.5-11.5-8.5-20.5L727.5,106.6L727.5,106.6z"/>
	</g>
</g>
</svg>
