<?xml version="1.0" encoding="utf-8"?>
<!-- Generator: Adobe Illustrator 22.0.1, SVG Export Plug-In . SVG Version: 6.00 Build 0)  -->
<svg version="1.1" id="New" xmlns="http://www.w3.org/2000/svg" xmlns:xlink="http://www.w3.org/1999/xlink" x="0px" y="0px"
	 viewBox="0 0 400 130" style="enable-background:new 0 0 400 130;" xml:space="preserve">
<style type="text/css">
	.st0{fill:#222222;}
	.st1{fill:url(#SVGID_1_);}
	.st2{fill:#D81222;}
</style>
<g>
	<path class="st0" d="M149.9,32.3c0.1,0.1,0.2,0.2,0.2,0.4s-0.1,0.1-0.4,0.1h-24.6c-0.7,0-1.4,0.1-2,0.4l-0.8-1.1
		c1,0.1,1.7,0.1,2.2,0.1h2.5v-6.1c0-0.5,0-1.4-0.1-2.9l1.8,1.3h15.1l0.8-1.2l1.8,1.3c0.1,0.1,0.2,0.2,0.2,0.2s-0.1,0.1-0.2,0.2
		l-0.7,0.5v6.5h1.2l1.2-1.6L149.9,32.3z M147.8,13.3c0.1,0.1,0.1,0.2,0.1,0.2s-0.1,0.1-0.2,0.2l-1,0.5c0,2.2-0.1,4-0.4,5.3
		c-0.2,1.3-0.6,2.2-1.3,2.6c-0.7,0.4-1.2,0.6-1.4,0.6c-0.1,0-0.2-0.1-0.2-0.2c-0.1-0.5-0.5-0.8-0.8-1.1c-0.4-0.2-1.1-0.5-1.8-0.7
		l0.1-0.4c1.2,0.4,2,0.5,2.6,0.5c0.6,0,1.1-0.1,1.3-0.5c0.2-0.4,0.5-1.2,0.6-2.5c0.1-1.3,0.1-2.8,0.1-4.3h-3.4l-0.6,0.7
		c-0.1,0.1-0.2,0.1-0.2,0.1c-0.1,0-0.1,0-0.2-0.1l-1.3-1.2l1.2-0.6l1.2-3.2h-10.4c-0.2,4.6-1.3,8-3.1,10.3c-1.8,2.3-3.6,3.8-5.5,4.8
		l-0.1-0.4c2.2-1.6,3.8-3.4,5.2-5.4c1.3-2,2-5.2,2.3-9.2h-3.7c-0.6,0-1.2,0.1-1.7,0.4l-0.7-1c0.4,0,1,0,1.7,0h16l0.8-1.1l1.6,1.3
		c0.1,0.1,0.1,0.1,0.1,0.2s-0.1,0.1-0.2,0.1l-0.8,0.4l-1.6,3.4h3.5l1-1.2L147.8,13.3z M132.9,32.1v-7h-4.4v7H132.9z M139.5,14.1
		c0.1,0.1,0.1,0.1,0.1,0.2s-0.1,0.1-0.2,0.1l-0.7,0.2c-0.6,1.2-1.2,2.3-1.8,3.1c1.8,1,2.8,1.8,2.8,2.8c0,0.2,0,0.4-0.1,0.6
		c-0.1,0.2-0.2,0.2-0.5,0.2c-0.2,0-0.5-0.2-1-0.7s-1.1-1.1-1.9-1.8c-1.4,1.7-3.7,3.1-6.8,4.7l-0.2-0.4c2.8-1.7,4.8-3.2,6.2-4.9
		c-1.2-0.8-2.3-1.4-3.4-1.8l0.1-0.4c1.2,0.2,2.5,0.6,3.8,1.3c0.7-1,1.2-2,1.7-3.2h-4.3c-0.6,0-1,0-1.2,0.1l-0.7-0.8
		c0.2,0,0.8,0,1.6,0h4.6l0.7-0.8L139.5,14.1z M138.5,32.1v-7h-4.3v7H138.5z M144.4,32.1v-7H140v7H144.4z"/>
	<path class="st0" d="M180.3,32.1c-1.2,0.2-2,0.6-2.4,1.3c-0.1,0.2-0.2,0.4-0.4,0.4s-0.2,0-0.5,0c-4.2,0-7.7-0.1-10.4-0.2
		c-2.8-0.1-4.6-0.5-5.5-1c-1-0.5-1.9-1.6-2.8-3c-0.4-0.5-0.6-0.7-0.8-0.7c-0.4,0-1,0.6-1.8,1.7c-0.8,1.1-1.3,2-1.6,2.9l-1.9-1.1
		c2.9-2.6,4.4-4.1,4.7-4.2V19H155c-0.7,0-1.4,0.1-2,0.4l-0.8-1.1c0.7,0.1,1.4,0.1,2.2,0.1h2.2l0.8-1.2l1.7,1.1
		c0.1,0.1,0.2,0.2,0.2,0.4c0,0.1-0.1,0.2-0.4,0.4l-0.7,0.5v8.9c0.1,0.2,0.2,0.4,0.4,0.6c0.5,1,1.2,1.7,2.2,2.3c1,0.6,2,1,3.4,1.1
		c1.3,0.1,3,0.1,5,0.1c4.1,0,7.7-0.2,11-0.7L180.3,32.1z M154.5,8.3c2.6,1.6,3.8,2.8,3.8,3.8c0,0.4-0.1,0.7-0.2,1
		c-0.2,0.4-0.4,0.5-0.6,0.5c-0.4,0-0.6-0.2-0.7-0.6c-0.2-1.4-1.1-2.9-2.5-4.4L154.5,8.3z M179.7,18.4c-1,0-1.7,0.4-2.2,1
		c-0.1,0.1-0.2,0.1-0.4,0.1c-0.2,0-0.7-0.2-1.6-0.7c-0.8-0.5-1.7-1.2-2.4-2s-1.3-1.8-1.9-3h-1.2c0,1.2,0,2,0,2.8c0,0.6,0,1.1,0,1.1
		c0,0.4-0.2,0.6-0.6,0.7c-0.4,0.1-0.6,0.2-0.7,0.2c-0.1,0-0.1-0.2-0.1-0.6l0.1-4.2h-0.6c-2.5,3-5.3,5.2-8.3,6.5l-0.2-0.4
		c1.2-0.7,2.5-1.7,3.8-2.9c1.3-1.2,2.3-2.3,3-3.2h-2.8c-0.7,0-1.4,0.1-2,0.4l-0.8-1.1c1,0.1,1.7,0.1,2.2,0.1h5.9v-3
		c-2.6,0.2-4.9,0.5-7,0.5v-0.5c5.5-0.6,9.8-1.4,13-2.6l1.4,1.3c0.1,0.1,0.2,0.2,0.2,0.4c0,0.1-0.1,0.1-0.2,0c-0.2,0-0.5-0.1-1-0.1
		c-0.5,0-1.1,0.1-2,0.2c-1,0.1-1.9,0.4-3,0.5V13h5.8l1.2-1.6L179,13c0.2,0.2,0.4,0.4,0.4,0.5s-0.1,0.1-0.5,0.1h-6.7
		c0.7,1.2,1.7,2.3,3.1,3c1.3,0.7,3,1.2,4.8,1.3v0.5H179.7z M176.8,23.9c0.1,0.1,0.2,0.2,0.2,0.4c0,0.1-0.1,0.2-0.4,0.4l-0.5,0.4
		c-0.1,0.6-0.1,1.2-0.4,2c-0.2,0.8-0.4,1.3-0.5,1.7s-0.4,0.6-0.7,1c-0.4,0.4-0.7,0.6-1.1,0.7c-0.5,0.2-0.7,0.2-0.8,0.2
		c-0.1,0-0.2-0.1-0.2-0.2c-0.1-0.4-0.4-0.7-0.7-1c-0.4-0.2-1-0.5-1.9-0.7v-0.5c1.3,0.2,2.3,0.4,2.9,0.4s1-0.1,1.2-0.4
		c0.2-0.2,0.5-0.7,0.7-1.6s0.4-1.7,0.4-2.5h-2.5l-0.4,0.5c-0.1,0.1-0.1,0.1-0.2,0.1c-0.1,0-0.2,0-0.4-0.1l-1.4-0.8l1.1-0.7l0.7-2.2
		h-4.6c-0.2,2.5-0.8,4.4-1.7,5.8c-0.8,1.3-2.4,2.4-4.7,3.5l-0.1-0.2c1.9-1.3,3.2-2.5,4-3.8c0.7-1.3,1.1-2.9,1.1-5.2h-1.1
		c-0.6,0-1.1,0.1-1.4,0.2l-0.8-0.8c0.5,0,1.1,0,1.8,0h7.2l0.8-1.1l1.4,1.1c0.1,0.1,0.2,0.2,0.2,0.2c0,0.1-0.1,0.1-0.4,0.2l-0.6,0.2
		l-0.7,2.4h2.6l0.7-1L176.8,23.9z"/>
	<path class="st0" d="M192.2,25.5c-3,3.2-4.7,5.4-5.2,6.6c-0.1,0.1-0.1,0.2-0.2,0.2s-0.1,0-0.2-0.1l-1.4-1.7c1-0.5,1.3-1.2,1.3-1.9
		v-11l-1.8,0.1c-0.7,0-1.3,0.2-1.9,0.5l-1-1c0.6,0,1.3,0,2.2,0l2.4-0.1l1-1.3l1.8,1.6c0.1,0.1,0.1,0.2,0.1,0.2s-0.1,0.2-0.2,0.4
		l-1.2,0.7v10.1l4-3.5L192.2,25.5z M185.6,7.5c2.5,1.6,3.8,2.9,3.8,4c0,0.4-0.1,0.8-0.4,1.2c-0.2,0.4-0.5,0.6-0.7,0.6
		s-0.4-0.1-0.5-0.2c-0.1-0.1-0.1-0.5-0.2-1.1c-0.1-0.6-0.4-1.2-0.7-2c-0.4-0.7-1-1.4-1.7-2.2L185.6,7.5z M209.9,31.3
		c0.2,0.2,0.4,0.4,0.4,0.5s-0.1,0.1-0.5,0.1h-18c-0.7,0-1.4,0.1-2,0.2l-0.8-1.1c1,0.1,1.7,0.1,2.2,0.1h3.1V19.7c0-1.2,0-2.5-0.1-4.1
		l2.2,1.1c0.2,0.1,0.4,0.2,0.4,0.4c0,0.1-0.1,0.2-0.2,0.4l-0.7,0.5v13.2h4.7V10.3h-5.8c-0.7,0-1.4,0.1-2,0.2l-0.8-1.1
		c1,0.1,1.7,0.1,2.2,0.1h12l1.3-1.8l2,1.8c0.2,0.1,0.2,0.4,0.2,0.5c0,0.1-0.1,0.2-0.5,0.2h-7.3v9h3.8l1.3-1.8l1.7,1.8
		c0.1,0.1,0.2,0.4,0.2,0.5c0,0.1-0.1,0.2-0.4,0.2h-6.8v11h4.9l1.4-1.9L209.9,31.3z"/>
	<path class="st0" d="M240.1,25.1c-1.2,0-2,0.5-2.5,1.4c-0.1,0.1-0.1,0.2-0.2,0.2c-0.2,0-1-0.2-2.2-0.8c-1.2-0.6-2.5-1.4-3.8-2.5
		c-1.3-1.1-2.5-2.4-3.4-4h-5.8c-2,3.5-5.3,6.4-10,8.9L212,28c4-2.5,6.8-5.4,8.6-8.4h-5.9c-0.7,0-1.4,0.1-2,0.4l-0.8-1.1
		c1,0.1,1.7,0.1,2.2,0.1h7c0.6-1.1,1.2-2.3,1.6-3.5h-6.4c-0.7,0-1.4,0.1-2,0.4l-0.8-1.1c1,0.1,1.7,0.1,2.2,0.1h7.2
		c0.7-2,1.3-4.6,1.7-7.6l2.3,1.1c0.1,0.1,0.2,0.1,0.2,0.2c0,0.1-0.1,0.2-0.4,0.4c-0.2,0.1-0.5,0.4-0.6,0.5c-0.1,0.1-0.2,0.4-0.2,0.7
		c-0.4,1.6-0.8,3.1-1.4,4.7h9.8l1.2-1.7l1.7,1.7c0.1,0.1,0.2,0.4,0.2,0.5s-0.1,0.1-0.4,0.1h-12.7c-0.6,1.6-1.1,2.6-1.6,3.5h13.6
		l1.3-1.6l1.7,1.7c0.1,0.1,0.2,0.4,0.2,0.5s-0.1,0.1-0.4,0.1h-10.3c1.6,1.8,3.2,3.2,4.9,4c1.7,0.8,3.8,1.2,6.5,1.2L240.1,25.1
		L240.1,25.1z M232.9,25.5l-0.6,0.4c0,1.1-0.1,2.3-0.2,3.6c-0.1,1.3-0.2,2.3-0.4,2.6c-0.1,0.5-0.4,0.8-0.7,1.1
		c-0.4,0.4-0.8,0.6-1.4,1c-0.6,0.4-1,0.5-1.1,0.5c-0.1,0-0.1,0-0.1-0.1c-0.1-0.6-0.4-1-0.7-1.3c-0.4-0.4-1.2-0.6-2.5-1.1l0.1-0.4
		c1.4,0.4,2.5,0.6,3.2,0.6c0.7,0,1.2-0.1,1.6-0.5c0.4-0.2,0.5-1.3,0.6-2.9c0.1-1.7,0.1-3,0.1-4h-6.8c-0.6,3-1.7,5.3-3.2,6.7
		c-1.6,1.4-4.1,2.6-7.3,3.4l-0.1-0.4c3.1-1.1,5.3-2.4,6.6-3.7c1.3-1.3,2.2-3.4,2.6-6h-1.2c-0.7,0-1.3,0.1-1.9,0.4l-0.8-1.1
		c1,0.1,1.7,0.1,2,0.1h10l0.6-0.7l1.7,1.2c0.1,0.1,0.2,0.2,0.2,0.4C233,25.2,233,25.3,232.9,25.5z M216.5,8.3c1.1,0.5,2.2,1.2,3,1.9
		c0.8,0.7,1.3,1.4,1.3,2c0,0.4-0.1,0.7-0.4,1.1c-0.2,0.4-0.5,0.5-0.7,0.5c-0.4,0-0.6-0.4-0.7-1.1c-0.2-1.3-1.2-2.6-2.6-4L216.5,8.3z
		 M233.7,9.6c0.1,0.1,0.2,0.1,0.2,0.2c0,0-0.1,0.1-0.4,0.1s-0.5,0.1-0.7,0.2s-0.5,0.4-1,0.8l-3.2,3.2l-0.5-0.2c1.6-2,2.8-4,3.6-5.6
		L233.7,9.6z"/>
</g>
<path class="st0" d="M130.7,80.4h-7.2V45.8h7.2V80.4z"/>
<path class="st0" d="M157.6,56.2c1.7,1.4,2.5,3.7,2.5,6.9v17.3h-6.9V64.8c0-1.3-0.2-2.4-0.5-3.1c-0.7-1.3-1.9-2-3.7-2
	c-2.3,0-3.8,1-4.6,2.9c-0.4,1-0.7,2.3-0.7,3.9v13.9H137V54.8h6.5v3.7c0.9-1.3,1.7-2.3,2.4-2.8c1.4-1,3.1-1.6,5.2-1.6
	C153.8,54.1,155.9,54.8,157.6,56.2z"/>
<path class="st0" d="M163.3,59.7v-4.8h3.6v-7.1h6.6v7.1h4.2v4.8h-4.2v13.5c0,1,0.1,1.7,0.4,2s1.1,0.4,2.4,0.4c0.2,0,0.4,0,0.6,0
	s0.4,0,0.7,0v5l-3.2,0.1c-3.2,0.1-5.3-0.4-6.5-1.6c-0.8-0.8-1.1-2-1.1-3.5V59.7H163.3z"/>
<path class="st0" d="M198.3,55.3c1.8,0.8,3.3,2.1,4.4,3.8c1,1.5,1.7,3.3,2,5.3c0.2,1.2,0.3,2.9,0.2,5.1h-18.7c0.1,2.6,1,4.4,2.7,5.4
	c1,0.6,2.3,1,3.7,1c1.5,0,2.8-0.4,3.7-1.2c0.5-0.4,1-1,1.4-1.8h6.8c-0.2,1.5-1,3.1-2.5,4.6c-2.3,2.5-5.5,3.7-9.6,3.7
	c-3.4,0-6.4-1.1-9-3.2c-2.6-2.1-3.9-5.5-3.9-10.3c0-4.4,1.2-7.8,3.5-10.2c2.4-2.4,5.4-3.6,9.2-3.6C194.5,54.1,196.5,54.5,198.3,55.3
	z M188.3,61c-0.9,1-1.5,2.3-1.8,4H198c-0.1-1.8-0.7-3.1-1.8-4s-2.4-1.4-4-1.4S189.2,60.1,188.3,61z"/>
<path class="st0" d="M223.2,54.1c0.1,0,0.3,0,0.6,0V61c-0.4,0-0.8-0.1-1.1-0.1s-0.6,0-0.8,0c-2.7,0-4.5,0.9-5.4,2.6
	c-0.5,1-0.8,2.5-0.8,4.6v12.2H209V54.7h6.4v4.5c1-1.7,1.9-2.9,2.7-3.5c1.3-1.1,2.9-1.6,4.9-1.6C223,54.1,223.1,54.1,223.2,54.1z"/>
<path class="st0" d="M237.7,64.8c1.2-0.2,2.1-0.4,2.7-0.6c1-0.4,1.4-1,1.4-1.9c0-1-0.4-1.8-1.1-2.2c-0.7-0.4-1.8-0.6-3.3-0.6
	c-1.6,0-2.7,0.4-3.4,1.2c-0.5,0.6-0.8,1.4-1,2.4h-6.5c0.1-2.2,0.8-4.1,1.9-5.5c1.8-2.3,4.8-3.4,9.2-3.4c2.8,0,5.3,0.6,7.5,1.7
	c2.2,1.1,3.3,3.2,3.3,6.3V74c0,0.8,0,1.8,0,3c0,0.9,0.2,1.5,0.4,1.8s0.5,0.6,1,0.8v1h-7.3c-0.2-0.5-0.3-1-0.4-1.5s-0.1-1-0.2-1.6
	c-0.9,1-2,1.9-3.2,2.6c-1.4,0.8-3.1,1.2-4.9,1.2c-2.3,0-4.3-0.7-5.8-2s-2.3-3.2-2.3-5.6c0-3.1,1.2-5.4,3.7-6.8
	c1.3-0.8,3.3-1.3,5.9-1.6L237.7,64.8z M241.8,67.9c-0.4,0.3-0.9,0.5-1.3,0.6c-0.4,0.2-1,0.3-1.8,0.5l-1.5,0.3
	c-1.4,0.3-2.5,0.6-3.1,0.9c-1.1,0.6-1.6,1.6-1.6,2.8c0,1.1,0.3,2,1,2.5c0.6,0.5,1.4,0.8,2.4,0.8c1.5,0,2.8-0.4,4-1.3
	c1.2-0.8,1.9-2.4,1.9-4.6L241.8,67.9L241.8,67.9z"/>
<path class="st0" d="M269.6,63.9c-0.1-1-0.4-1.8-1-2.6c-0.8-1-1.9-1.6-3.5-1.6c-2.3,0-3.8,1.1-4.6,3.4c-0.4,1.2-0.7,2.8-0.7,4.7
	s0.2,3.4,0.7,4.5c0.8,2.1,2.3,3.2,4.5,3.2c1.6,0,2.7-0.4,3.3-1.3c0.7-0.8,1.1-1.9,1.2-3.3h6.8c-0.2,2-0.9,4-2.2,5.8
	c-2.1,2.9-5.2,4.4-9.3,4.4s-7.2-1.2-9.1-3.7c-1.9-2.4-2.9-5.6-2.9-9.5c0-4.4,1.1-7.8,3.2-10.3c2.2-2.4,5.1-3.7,8.9-3.7
	c3.2,0,5.8,0.7,7.9,2.2c2,1.4,3.3,4,3.6,7.6h-6.8L269.6,63.9L269.6,63.9z"/>
<path class="st0" d="M278.6,59.7v-4.8h3.6v-7.1h6.6v7.1h4.2v4.8h-4.2v13.5c0,1,0.1,1.7,0.4,2s1.1,0.4,2.4,0.4c0.2,0,0.4,0,0.6,0
	c0.2,0,0.4,0,0.7,0v5l-3.2,0.1c-3.2,0.1-5.3-0.4-6.5-1.6c-0.8-0.8-1.1-2-1.1-3.5V59.7H278.6z"/>
<path class="st0" d="M304.2,51.7h-6.8v-6.2h6.8V51.7z M297.4,54.7h6.8v25.6h-6.8V54.7z"/>
<path class="st0" d="M326,54.7h7.2L324,80.3h-7.1l-9.2-25.6h7.5l5.3,18.9L326,54.7z"/>
<path class="st0" d="M352.7,55.3c1.8,0.8,3.3,2.1,4.4,3.8c1,1.5,1.7,3.3,2,5.3c0.2,1.2,0.3,2.9,0.2,5.1h-18.7c0.1,2.6,1,4.4,2.7,5.4
	c1,0.6,2.3,1,3.7,1c1.5,0,2.8-0.4,3.7-1.2c0.5-0.4,1-1,1.4-1.8h6.8c-0.2,1.5-1,3.1-2.5,4.6c-2.3,2.5-5.5,3.7-9.6,3.7
	c-3.4,0-6.4-1.1-9-3.2s-3.9-5.5-3.9-10.3c0-4.4,1.2-7.8,3.5-10.2c2.4-2.4,5.4-3.6,9.2-3.6C348.9,54.1,350.9,54.5,352.7,55.3z
	 M342.7,61c-0.9,1-1.5,2.3-1.8,4h11.5c-0.1-1.8-0.7-3.1-1.8-4s-2.4-1.4-4-1.4C344.9,59.6,343.6,60.1,342.7,61z"/>
<path class="st0" d="M123.3,93.8h14.9c4.1,0,7,1.2,8.7,3.6c1,1.4,1.5,3.1,1.5,4.9c0,2.2-0.6,4-1.9,5.4c-0.6,0.7-1.6,1.4-2.8,2
	c1.8,0.7,3.1,1.4,4,2.3c1.5,1.5,2.3,3.6,2.3,6.2c0,2.2-0.7,4.2-2.1,6c-2.1,2.7-5.4,4-10,4h-14.7V93.8H123.3z M136.5,108.4
	c2,0,3.5-0.3,4.7-0.8c1.7-0.9,2.6-2.4,2.6-4.7c0-2.3-0.9-3.8-2.8-4.6c-1-0.4-2.6-0.7-4.7-0.7h-8.4v10.7L136.5,108.4L136.5,108.4z
	 M138.1,124.4c2.9,0,5-0.8,6.2-2.5c0.8-1,1.2-2.3,1.2-3.8c0-2.5-1.1-4.2-3.4-5.1c-1.2-0.5-2.8-0.7-4.8-0.7h-9.4v12.1
	C127.9,124.4,138.1,124.4,138.1,124.4z"/>
<path class="st0" d="M155,103.2h4v4.3c0.3-0.8,1.1-1.9,2.4-3.1c1.3-1.2,2.8-1.8,4.4-1.8c0.1,0,0.2,0,0.4,0s0.5,0,1,0.1v4.5
	c-0.2,0-0.5-0.1-0.7-0.1s-0.4,0-0.7,0c-2.1,0-3.8,0.7-4.9,2.1c-1.1,1.4-1.7,2.9-1.7,4.7v14.5H155L155,103.2L155,103.2z"/>
<path class="st0" d="M188.9,105.7c2.2,2.2,3.3,5.3,3.3,9.5c0,4.1-1,7.4-2.9,10c-2,2.6-5,4-9.1,4c-3.4,0-6.2-1.2-8.2-3.5
	c-2-2.3-3-5.5-3-9.4c0-4.2,1.1-7.6,3.2-10.1s5-3.8,8.6-3.8C184,102.5,186.7,103.5,188.9,105.7z M186.3,122.4c1-2.1,1.5-4.5,1.5-7.1
	c0-2.3-0.4-4.3-1.1-5.7c-1.2-2.3-3.2-3.5-6.1-3.5c-2.6,0-4.4,1-5.6,3s-1.7,4.4-1.7,7.1c0,2.7,0.6,4.9,1.7,6.7c1.2,1.8,3,2.7,5.5,2.7
	C183.4,125.6,185.3,124.6,186.3,122.4z"/>
<path class="st0" d="M197,93.8h4.1v20l10.8-10.7h5.4l-9.7,9.4l10.2,15.8h-5.4l-7.9-12.8l-3.5,3.4v9.4h-4.1L197,93.8L197,93.8z"/>
<path class="st0" d="M235.5,103.9c1.7,0.8,2.9,1.9,3.8,3.3c0.8,1.3,1.4,2.8,1.7,4.4c0.2,1.2,0.4,3,0.4,5.5h-18.3
	c0.1,2.6,0.7,4.6,1.8,6.2c1.1,1.5,2.9,2.3,5.2,2.3c2.2,0,3.9-0.7,5.2-2.2c0.7-0.8,1.2-1.8,1.6-3h4.2c-0.1,0.9-0.5,2-1.1,3.1
	s-1.3,2.1-2.1,2.8c-1.3,1.3-2.9,2.1-4.7,2.5c-1,0.3-2.2,0.4-3.4,0.4c-3.1,0-5.8-1.1-7.9-3.4c-2.2-2.3-3.2-5.5-3.2-9.6
	c0-4,1.1-7.3,3.3-9.8c2.2-2.5,5-3.8,8.5-3.8C232.1,102.6,233.8,103,235.5,103.9z M237,113.8c-0.2-1.8-0.6-3.3-1.2-4.4
	c-1.1-2-3.1-3.1-5.8-3.1c-1.9,0-3.5,0.7-4.8,2.1c-1.3,1.4-2,3.2-2.1,5.3L237,113.8L237,113.8z"/>
<path class="st0" d="M246.3,103.2h4v4.3c0.3-0.8,1.1-1.9,2.4-3.1c1.3-1.2,2.8-1.8,4.4-1.8c0.1,0,0.2,0,0.4,0c0.2,0,0.5,0,1,0.1v4.5
	c-0.2,0-0.5-0.1-0.7-0.1s-0.4,0-0.7,0c-2.1,0-3.8,0.7-4.9,2.1c-1.1,1.4-1.7,2.9-1.7,4.7v14.5h-4.2L246.3,103.2L246.3,103.2z"/>
<path class="st0" d="M264.8,120.5c0.1,1.4,0.5,2.5,1.1,3.2c1.1,1.4,3,2,5.7,2c1.6,0,3-0.3,4.2-1s1.8-1.7,1.8-3.2
	c0-1.1-0.5-1.9-1.5-2.5c-0.6-0.3-1.8-0.7-3.7-1.2L269,117c-2.2-0.5-3.8-1.1-4.8-1.8c-1.8-1.1-2.8-2.7-2.8-4.7c0-2.4,0.9-4.3,2.6-5.8
	s4.1-2.2,7-2.2c3.8,0,6.6,1.1,8.3,3.3c1.1,1.4,1.6,2.9,1.5,4.6h-4c-0.1-1-0.4-1.8-1-2.6c-1-1.1-2.7-1.7-5.2-1.7
	c-1.6,0-2.9,0.3-3.7,0.9c-0.8,0.6-1.3,1.4-1.3,2.4c0,1.1,0.6,2,1.7,2.6c0.6,0.4,1.6,0.7,2.8,1l2.8,0.7c3.1,0.7,5.2,1.4,6.2,2.1
	c1.6,1.1,2.5,2.8,2.5,5.1c0,2.2-0.9,4.2-2.6,5.8s-4.3,2.4-7.9,2.4c-3.8,0-6.5-0.9-8.1-2.6c-1.6-1.7-2.4-3.8-2.5-6.3h4.3V120.5z"/>
<g>
	
		<linearGradient id="SVGID_1_" gradientUnits="userSpaceOnUse" x1="591.8392" y1="1816.25" x2="648.2392" y2="1816.25" gradientTransform="matrix(-1 0 0 1 688.9446 -1719)">
		<stop  offset="0" style="stop-color:#D81222"/>
		<stop  offset="1" style="stop-color:#A50B1A"/>
	</linearGradient>
	<polygon class="st1" points="97.1,128.3 40.7,128.3 40.7,66.1 	"/>
	<circle class="st2" cx="89.3" cy="81.3" r="16.8"/>
	<polygon class="st2" points="97.1,0.7 40.7,66.1 40.7,128.3 	"/>
</g>
</svg>
