<?xml version="1.0" encoding="utf-8"?>
<!-- Generator: Adobe Illustrator 22.0.1, SVG Export Plug-In . SVG Version: 6.00 Build 0)  -->
<svg version="1.1" id="图层_1" xmlns="http://www.w3.org/2000/svg" xmlns:xlink="http://www.w3.org/1999/xlink" x="0px" y="0px"
	 viewBox="0 0 600 150" style="enable-background:new 0 0 600 150;" xml:space="preserve">
<style type="text/css">
	.st0{fill:#FF7700;}
	.st1{fill:#FFFFFF;}
</style>
<g>
	<circle class="st0" cx="81.9" cy="75" r="70"/>
	<path class="st1" d="M79.7,47.7L79.7,47.7c4.8,0,8.8,3.9,8.8,8.8v48.1c0,4.8-3.9,8.8-8.8,8.8l0,0c-4.8,0-8.8-3.9-8.8-8.8V56.4
		C71,51.6,74.9,47.7,79.7,47.7z"/>
	<path class="st1" d="M51.3,64.1L51.3,64.1c4.8,0,8.8,3.9,8.8,8.8v31.7c0,4.8-3.9,8.8-8.8,8.8l0,0c-4.8,0-8.8-3.9-8.8-8.8V72.8
		C42.6,68,46.5,64.1,51.3,64.1z"/>
	<path class="st1" d="M108.2,32.3L108.2,32.3c4.8,0,8.8,3.9,8.8,8.8v63.4c0,4.8-3.9,8.8-8.8,8.8l0,0c-4.8,0-8.8-3.9-8.8-8.8V41.1
		C99.4,36.3,103.3,32.3,108.2,32.3z"/>
	<path d="M188.6,45.4c-1.3,0-2.6-0.3-3.7-0.7c-1.2-0.5-2.2-1.2-3.1-2.1c-0.9-0.9-1.6-1.9-2.1-3.1c-0.5-1.2-0.7-2.4-0.7-3.8
		c0-1.4,0.2-2.7,0.8-3.8c0.5-1.1,1.2-2.2,2.1-3.1c0.9-0.9,1.9-1.6,3.1-2.1c1.2-0.5,2.5-0.8,3.7-0.8c2.7,0,5,0.9,6.9,2.8
		c1.9,1.9,2.9,4.2,2.9,6.9c0,2.7-1,5-2.9,6.9S191.3,45.4,188.6,45.4z M181.1,110V53.6h15.1V110L181.1,110L181.1,110z M245.3,111.3
		v-8.1c-1.4,2.4-3.5,4.4-6.5,6.1c-2.9,1.7-6.5,2.5-10.8,2.5c-3.6,0-7-0.7-10.3-2.2c-3.3-1.5-6.2-3.6-8.6-6.2
		c-2.5-2.7-4.5-5.8-5.9-9.5c-1.5-3.7-2.2-7.7-2.2-12.1c0-4.4,0.7-8.4,2.2-12.1c1.5-3.7,3.4-6.9,5.9-9.5c2.4-2.6,5.4-4.7,8.6-6.2
		c3.2-1.5,6.8-2.3,10.3-2.2c4.3,0,7.9,0.8,10.8,2.5c2.9,1.7,5.1,3.7,6.5,6.1l0-6.8h15.1v81.3h-15.1L245.3,111.3L245.3,111.3z
		 M231.1,97.9c2,0,3.9-0.4,5.7-1.1c1.8-0.7,3.4-1.8,4.8-3.2c1.4-1.4,2.5-3.1,3.3-5.1s1.3-4.3,1.3-6.8s-0.4-4.8-1.3-6.8
		c-0.8-2-2-3.7-3.3-5.1c-1.4-1.4-3-2.4-4.8-3.2c-1.8-0.7-3.7-1.1-5.7-1.1c-2,0-3.9,0.4-5.7,1.2c-1.8,0.8-3.4,1.9-4.8,3.2
		c-1.4,1.4-2.5,3.1-3.3,5.1s-1.3,4.2-1.3,6.7s0.4,4.7,1.3,6.7s2,3.7,3.3,5.1c1.4,1.4,3,2.5,4.8,3.2C227.2,97.6,229.2,98,231.1,97.9z
		 M314.3,51.7c4.4,0,8.4,0.7,12,2.2c3.6,1.5,6.8,3.6,9.4,6.2c2.6,2.7,4.7,5.8,6.2,9.5c1.5,3.7,2.2,7.7,2.2,12.1s-0.8,8.4-2.2,12.1
		c-1.5,3.7-3.6,6.9-6.2,9.5c-2.6,2.7-5.8,4.7-9.4,6.2c-3.6,1.5-7.7,2.2-12,2.2c-4.4,0-8.4-0.7-12-2.2c-3.6-1.5-6.8-3.6-9.4-6.2
		c-2.6-2.7-4.7-5.8-6.2-9.5c-1.5-3.7-2.2-7.7-2.2-12.1c0-4.4,0.8-8.4,2.2-12.1c1.5-3.7,3.6-6.9,6.2-9.5s5.8-4.7,9.4-6.2
		C305.9,52.5,309.9,51.7,314.3,51.7z M314.3,97.9c1.9,0,3.8-0.4,5.6-1.1c1.8-0.7,3.4-1.8,4.8-3.2c1.4-1.4,2.5-3.1,3.3-5.1
		c0.8-2,1.2-4.3,1.2-6.8s-0.4-4.8-1.2-6.8c-0.8-2-1.9-3.7-3.3-5.1c-1.4-1.4-3-2.4-4.8-3.2c-1.8-0.7-3.7-1.1-5.6-1.1
		c-2,0-3.9,0.4-5.6,1.1c-1.8,0.7-3.4,1.8-4.7,3.2c-1.4,1.4-2.5,3.1-3.3,5.1c-0.8,2-1.2,4.3-1.2,6.8s0.4,4.8,1.2,6.8
		c0.8,2,1.9,3.7,3.3,5.1c1.3,1.4,3,2.4,4.7,3.2C310.4,97.6,312.3,97.9,314.3,97.9z M347.6,53.6h15.1v6.8c1.4-2.4,3.5-4.4,6.4-6.1
		c2.9-1.7,6.5-2.5,10.8-2.5c3.6,0,7,0.7,10.3,2.2c3.3,1.5,6.2,3.6,8.6,6.2c2.5,2.7,4.5,5.8,5.9,9.5c1.5,3.7,2.2,7.7,2.2,12.1
		s-0.7,8.4-2.2,12.1c-1.5,3.7-3.4,6.9-5.9,9.5c-2.4,2.6-5.4,4.7-8.6,6.2c-3.2,1.5-6.8,2.3-10.3,2.2c-4.3,0-7.9-0.8-10.8-2.5
		s-5.1-3.7-6.5-6.1v31.7h-15.1L347.6,53.6L347.6,53.6z M376.8,97.9c2,0,3.9-0.4,5.7-1.2c1.8-0.8,3.4-1.9,4.8-3.2
		c1.4-1.4,2.5-3.1,3.3-5.1s1.3-4.2,1.3-6.7s-0.4-4.7-1.3-6.7s-2-3.7-3.3-5.1c-1.4-1.4-3-2.5-4.8-3.2c-1.8-0.8-3.7-1.2-5.7-1.2
		c-2,0-3.9,0.4-5.7,1.1c-1.8,0.7-3.4,1.8-4.8,3.2c-1.4,1.4-2.5,3.1-3.3,5.1s-1.3,4.3-1.3,6.8s0.4,4.8,1.3,6.8c0.8,2,2,3.7,3.3,5.1
		c1.4,1.4,3,2.4,4.8,3.2C372.9,97.6,374.9,98,376.8,97.9z M415.3,66.5h-9.9V53.6h9.9V36.3h15.1v17.3h13.8v12.9h-13.8v21.9
		c0,1.3,0.1,2.5,0.4,3.6c0.3,1.1,0.8,2.1,1.6,2.8c1.1,1.2,2.6,1.8,4.6,1.8c1.3,0,2.3-0.1,3.1-0.4c0.8-0.3,1.5-0.6,2.2-1.1l4.3,13.2
		c-1.8,0.9-3.7,1.5-5.7,1.9c-2,0.4-4.3,0.6-6.7,0.6c-2.8,0-5.4-0.4-7.7-1.3c-2.3-0.9-4.2-2.1-5.7-3.6c-3.6-3.5-5.4-8.4-5.4-14.7
		C415.3,91.3,415.3,66.5,415.3,66.5z M458.9,45.4c-1.3,0-2.6-0.3-3.7-0.7c-1.2-0.5-2.2-1.2-3.1-2.1c-0.9-0.9-1.6-1.9-2.1-3.1
		c-0.5-1.2-0.8-2.4-0.8-3.8c0-1.4,0.2-2.7,0.8-3.8c0.5-1.1,1.2-2.2,2.1-3.1c0.9-0.9,1.9-1.6,3.1-2.1c1.2-0.5,2.5-0.8,3.7-0.8
		c2.7,0,5,0.9,6.9,2.8s2.9,4.2,2.9,6.9c0,2.7-1,5-2.9,6.9S461.6,45.4,458.9,45.4z M451.5,110V53.6h15.1V110L451.5,110L451.5,110z
		 M501.2,51.7c4.4,0,8.4,0.7,12,2.2c3.6,1.5,6.8,3.6,9.4,6.2c2.7,2.7,4.7,5.8,6.2,9.5c1.5,3.7,2.2,7.7,2.2,12.1s-0.7,8.4-2.2,12.1
		c-1.5,3.7-3.6,6.9-6.2,9.5c-2.6,2.7-5.8,4.7-9.4,6.2c-3.6,1.5-7.7,2.2-12,2.2c-4.4,0-8.4-0.7-12-2.2c-3.6-1.5-6.8-3.6-9.4-6.2
		s-4.7-5.8-6.2-9.5c-1.5-3.7-2.2-7.7-2.2-12.1c0-4.4,0.7-8.4,2.2-12.1c1.5-3.7,3.6-6.9,6.2-9.5s5.8-4.7,9.4-6.2
		C492.8,52.5,496.8,51.7,501.2,51.7L501.2,51.7z M501.2,97.9c1.9,0,3.8-0.4,5.6-1.1c1.8-0.7,3.4-1.8,4.8-3.2
		c1.4-1.4,2.5-3.1,3.3-5.1c0.8-2,1.2-4.3,1.2-6.8s-0.4-4.8-1.2-6.8c-0.8-2-1.9-3.7-3.3-5.1c-1.4-1.4-3-2.4-4.8-3.2
		c-1.8-0.7-3.7-1.1-5.6-1.1c-2,0-3.9,0.4-5.6,1.1c-1.8,0.7-3.4,1.8-4.7,3.2c-1.4,1.4-2.5,3.1-3.3,5.1c-0.8,2-1.2,4.3-1.2,6.8
		s0.4,4.8,1.2,6.8c0.8,2,1.9,3.7,3.3,5.1c1.3,1.4,3,2.4,4.7,3.2C497.3,97.6,499.2,97.9,501.2,97.9z M548.6,61h0.9
		c1.8-2.8,4.1-5.1,7.1-6.7c3-1.7,6.4-2.5,10.3-2.5c3.5,0,6.6,0.6,9.3,1.7c2.7,1.2,4.9,2.8,6.6,4.9c1.7,2.1,3,4.6,3.9,7.6
		c0.9,3,1.3,6.2,1.3,9.9V110H573V77.7c0-4.1-0.9-7.1-2.7-9c-1.8-2-4.4-2.9-7.9-2.9c-2.1,0-3.9,0.4-5.5,1.3c-1.6,0.9-3,2.1-4,3.6
		c-1.1,1.5-2,3.3-2.5,5.3c-0.6,2-0.9,4.2-0.9,6.5V110h-15.1V53.6h14.2V61L548.6,61z"/>
</g>
</svg>
