<?xml version="1.0" encoding="utf-8"?>
<!-- Generator: Adobe Illustrator 22.0.1, SVG Export Plug-In . SVG Version: 6.00 Build 0)  -->
<svg version="1.1" id="图层_1" xmlns="http://www.w3.org/2000/svg" xmlns:xlink="http://www.w3.org/1999/xlink" x="0px" y="0px"
	 viewBox="0 0 500 200" style="enable-background:new 0 0 500 200;" xml:space="preserve">
<style type="text/css">
	.st0{fill:#ED1C24;}
</style>
<path class="st0" d="M451,0.3c15.5,0,31,0,46.5,0c0,15.5,0,31,0,46.5C481.9,31.4,466.4,15.9,451,0.3z"/>
<path class="st0" d="M2.5,33.3c8.3,0,16.7,0,25,0c0,38.7,0,77.3,0,116c-8.3,0-16.7,0-25,0C2.5,110.7,2.5,72,2.5,33.3z"/>
<path class="st0" d="M262.5,33.3c27,0,54,0,81,0c0,7.3,0,14.7,0,22c-18.7,0-37.3,0-56,0c0-2.8,0-5.6,0-8.3
	c-6.9,6-13.4,12.5-20.3,18.4c6.8,6,13.2,12.5,20.3,18.2c0-2.5,0-4.9,0-7.4c11.3,0,22.6,0,34,0c0-3,0-6,0.2-8.9
	c7.3,6.5,14.6,13.1,21.7,19.8c-3.1,2.9-6,6-9.4,8.6c-4.3,3.6-7.9,7.9-12.4,11.1c-0.1-2.9-0.1-5.8-0.1-8.7c-11,0-22,0-33,0
	c0,16.7,0,33.3,0,50c-8.7,0-17.3,0-26,0C262.5,110,262.5,71.7,262.5,33.3z"/>
<path class="st0" d="M347.7,33.4c9.9-0.2,19.8,0,29.6-0.1c7.6,12,14.6,24.4,22.5,36.3c7.5-12.2,15.3-24.2,23-36.3
	c9.4,0.1,18.8-0.1,28.2,0.1c-12.1,18.4-24.7,36.5-36.8,54.9c13.2,20,26.7,39.8,39.8,59.9c-10.2,0.2-20.5,0.1-30.7,0.1
	c-8.2-13-16.5-26.1-24.7-39.1c-8.5,13-16.8,26.1-25.2,39.1c-9.6,0-19.2,0.1-28.8-0.1c13.4-19.9,26.3-40.2,39.9-60
	c-9.1-13.3-18.1-26.6-27-39.9C354.3,43.4,350.6,38.6,347.7,33.4z"/>
<path class="st0" d="M126.9,62.6c3.8-0.8,7.7,0.3,11.5,0.7c10.4,1.4,20.5,6.9,26.6,15.6c6.1,8.1,8.1,18.4,8.6,28.4
	c-0.6,11.7-4,24-12.7,32.4c-7.8,8.1-19.4,11.3-30.4,11.7c-13.1-0.1-27.1-5.1-35-16.1c-6.3-8.2-8.3-18.8-8.9-28.9
	c0.7-5.6,1.2-11.4,3.1-16.8c4.1-12.5,15-22.3,27.7-25.4C120.5,63.3,123.8,63.2,126.9,62.6 M127,80.8c-9,0.9-14.8,9.6-16,17.9
	c-1.2,9.1-1,19.1,4,27.1c6,9.3,20.8,10.2,28.2,2.2c5.2-5.9,6.7-14.1,6.3-21.7c0.4-6.9-1.3-14.1-5.6-19.5
	C139.9,82,133.1,79.7,127,80.8z"/>
<path class="st0" d="M54.5,78.6c4.2-8,12.2-13.8,21.2-15.2c3.4-0.3,6.7-0.1,10.1-0.1c0.1,7.4,0.1,14.8,0,22.1
	c-6.7-1.8-14.4-2-20.5,1.7c-6.6,3.9-9.5,11.8-9.8,19.1c0,14.1,0,28.2,0,42.3c-8,0.1-16,0.1-24,0c0-27.8,0-55.5,0-83.2
	c7.7,0,15.3,0,23,0C54.5,69.7,54.5,74.2,54.5,78.6z"/>
<path class="st0" d="M198.8,75.8c6.3-8,16.3-13.3,26.6-12.8c9-0.5,18.7,2.7,24.1,10.3c4.3,5.8,5.2,13.1,5.9,20.1
	c0,18.4,0,36.8,0,55.2c-8,0.2-16,0-24,0.1c0-16.5,0-32.9,0-49.4c0.1-4.7-0.7-9.6-3.6-13.5c-2.6-2.8-6.7-3.7-10.5-3.5
	c-5.4-0.3-11.3,2-14.2,6.8c-2.7,4.2-3.3,9.3-3.5,14.2c0,15.1,0,30.2,0,45.3c-7.8,0-15.6,0.1-23.3,0c0-27.8,0-55.5,0-83.3
	c7.4,0,14.9,0,22.3,0C198.8,68.8,198.8,72.3,198.8,75.8z"/>
<path class="st0" d="M11.9,172.5c3.2-0.7,6.5,0,9.6,0.9c0,2,0,4,0,6.1c-2.7-1-5.7-1.3-8.6-1.2c-0.1,0.6-0.4,1.8-0.5,2.5
	c4.1,2.2,10.1,3.4,11,8.8c1.1,4.6-2.3,9.6-7.1,9.9c-3.6,0.3-8,0.5-10.8-2.3c-0.2-2-0.2-4-0.4-6c3.3,1.9,7.2,3.5,11,2.5
	c0.1-0.8,0.2-2.4,0.2-3.2c-3.6-2-8.3-3-10.1-7.1C4.1,179,7.6,173.9,11.9,172.5z"/>
<path class="st0" d="M49.8,172.5c3.9-0.8,7.9,0,11.3,2.1c4.8,3.4,7.1,9.9,5.3,15.5c-2.6,9.8-16.6,12.8-23.5,5.7
	c-3.9-3.4-5.1-9.3-3.4-14.1C40.8,176.9,45.2,173.6,49.8,172.5 M51,178.7c-5.2,1.4-6.8,8.6-3.3,12.4c3.2,4.2,10.7,2.6,12.1-2.5
	C62.1,183.3,56.5,176.6,51,178.7z"/>
<path class="st0" d="M116.5,172.3c2.3,0,4.7,0,7,0c0,9,0,18,0,27c-2.3,0-4.7,0-7,0C116.5,190.3,116.5,181.3,116.5,172.3z"/>
<path class="st0" d="M285.6,172.3c1.4,0,2.8,0,4.1,0c3.8,8.8,7.2,17.9,10.5,26.9c-2.2,0-4.4,0.1-6.6,0.1c-0.7-1.9-1.4-3.8-2.1-5.7
	c-2.6,0-5.1,0-7.7-0.1c-0.8,1.9-1.7,3.8-2.5,5.8c-2.1,0-4.2,0-6.3,0C278.4,190.3,281.9,181.3,285.6,172.3 M285.3,188.3
	c1.5,0,2.9,0,4.4,0c-0.8-1.9-1.5-3.9-2.2-5.8C286.8,184.5,286,186.4,285.3,188.3z"/>
<path class="st0" d="M355.5,172.3c2.3,0,4.7,0,7,0c0,9,0,18,0,27c-2.3,0-4.7,0-7,0C355.5,190.3,355.5,181.3,355.5,172.3z"/>
<path class="st0" d="M424.2,178.1c4.5-6.3,13.7-7.4,20.3-4c0,2.1,0,4.2,0,6.3c-3.4-1.7-7.7-3.2-11.3-1.3c-3.8,1.5-6,6.7-3.7,10.3
	c1.4,4,6.2,4.9,10,4.3c0-0.8,0-2.5,0-3.3c-1.3,0-2.7,0-4,0.1c0-2,0-4,0-6c3.6,0,7.2-0.1,10.8,0.2c0.2,4.1,0.7,8.3-0.1,12.3
	c-3.3,3.1-8.3,3-12.5,2.6c-4.4-0.4-8.1-3.3-10.2-7C421.1,187.9,421.6,182.3,424.2,178.1z"/>
<path class="st0" d="M83.5,173.1c2.3-0.1,4.7-0.1,7-0.1c0,6.8,0,13.6,0,20.3c3.4,0,6.9,0,10.3,0c0,2,0,4-0.1,6
	c-5.7-0.1-11.4,0.2-17.1-0.2C83.3,190.5,83.6,181.8,83.5,173.1z"/>
<path class="st0" d="M141.5,173c5.7,0.2,12-1.2,17.1,2.1c3.7,2.3,6.3,6.7,6,11.1c0.2,5.2-3.6,9.9-8.3,11.8c-4.6,2.1-9.8,1-14.7,1.2
	C141.5,190.6,141.5,181.8,141.5,173 M148.5,178.5c0,5-0.1,10.1,0,15.1c2.6-0.5,5.4-1,7.4-2.8c1.9-2.1,2-5.4,1.1-8
	C155.5,179.5,151.6,179.2,148.5,178.5z"/>
<path class="st0" d="M202.2,173c7.4,0,14.9-0.1,22.3,0.1c0,1.8,0,3.5,0,5.2c-2.7,0-5.3,0-8,0c0,7,0,14,0,21.1
	c-2.3,0-4.5-0.1-6.8-0.3c-0.4-6.9-0.1-13.9-0.2-20.8c-2.5,0-4.9,0-7.3,0C202.2,176.6,202.2,174.8,202.2,173z"/>
<path class="st0" d="M239.5,173.1c4.3,0,8.6-0.4,12.8,0.2c4.1,0.7,6.6,4.9,6.2,8.8c-0.5,2.3-2.3,4-3.8,5.7c2.8,3.8,5.6,7.6,8.1,11.5
	c-2.5,0-5,0-7.5,0c-2.8-3.6-4.8-8-8.6-10.7c-0.4,3.6-0.3,7.2-0.3,10.8c-2.3,0-4.5-0.1-6.8-0.3C239.3,190.4,239.6,181.8,239.5,173.1
	 M246.6,178c0,1.8-0.1,3.6-0.1,5.4c1.6-0.1,3.1-0.1,4.7-0.2c0.1-1.3,0.3-2.7,0.4-4C249.9,178.7,248.3,178.3,246.6,178z"/>
<path class="st0" d="M315.5,173.1c4.5,0,9.2-0.5,13.7,0.4c5.2,1.3,9.8,6.3,9.6,11.8c0.4,5-2.3,10.4-7.2,12.2
	c-4.9,2.5-10.6,1.8-15.9,1.5C315.3,190.4,315.6,181.8,315.5,173.1 M322.5,178.5c0,5-0.1,10,0,15.1c3.5-0.3,8.1-1.1,9-5.1
	c1.2-2.6,0.1-5.5-1.6-7.6C327.9,179.1,325,179.2,322.5,178.5z"/>
<path class="st0" d="M380.5,173c1.9,0.1,3.9-0.3,5.6,0.4c4.5,4,8.4,8.8,12.3,13.4c0-4.6,0-9.2,0-13.8c2.3,0,4.7,0,7,0.1
	c0,8.7,0,17.5,0,26.2c-1.3,0-2.5,0-3.8,0c-5-5-9.3-10.5-14.2-15.5c0,5.2,0,10.3,0,15.5c-2.3,0-4.7,0-7,0
	C380.5,190.5,380.5,181.8,380.5,173z"/>
</svg>
