<?xml version="1.0" encoding="utf-8"?>
<!-- Generator: Adobe Illustrator 22.0.1, SVG Export Plug-In . SVG Version: 6.00 Build 0)  -->
<svg version="1.1" id="图层_1" xmlns="http://www.w3.org/2000/svg" xmlns:xlink="http://www.w3.org/1999/xlink" x="0px" y="0px"
	 viewBox="0 0 480 140" style="enable-background:new 0 0 480 140;" xml:space="preserve">
<style type="text/css">
	.st0{fill:#00ADBB;}
</style>
<g id="_x23_00adbbff">
	<path class="st0" d="M201.8,20.7c19.2-5.3,41.1,0.4,54.8,15.1c-4.7,4.2-8.5,9.2-13.2,13.4c-6.7-7.2-16.3-11.4-26-12.1
		c-8.8-0.3-17.9,2.9-24,9.2c-13.8,12.2-13.2,36.7,0.8,48.5c8.9,8,22.1,10,33.3,6.4c8.7-2.9,15.6-9.4,21.4-16.3
		c6.6-7.8,11.5-16.8,16.9-25.4c4.9-7.7,8.8-16.1,15.1-22.9c7.7-9.1,18.6-15.3,30.4-17.1c12.5-1.6,25.6-0.5,37,5.3
		c5.8,3.1,10.9,7.5,15.3,12.4c-4.4,4.5-8.8,9-13.4,13.4c-7.4-8-17.9-13.6-29-13.1c-10.5-0.3-21,5-27,13.6
		c-10,14.2-17.7,29.9-28.5,43.5c-6.1,8.2-13.8,15.1-22.6,20.3c-8.1,4.6-17.5,6.6-26.8,6.2c-11.7,0.5-23.6-2.9-32.8-10.3
		c-9.7-7.4-16.2-18.7-18-30.7c-1.9-13.2-0.3-27.4,7.3-38.6C179.4,31.4,190.1,23.9,201.8,20.7z"/>
	<path class="st0" d="M110.1,21c6.2,0,12.3,0,18.4,0c0.1,26.5-0.1,53,0.1,79.5c12.7-0.2,25.3,0.1,38-0.1c4,7.6,10.6,13.2,17.3,18.4
		c-24.6,0.4-49.2,0.1-73.9,0.2V21H110.1z"/>
	<path class="st0" d="M326,69c14.7,0,29.3,0,44,0v10.3c-2.5,18.8-16.3,36.3-35.2,40.5c-13.7,2.8-28.7,1.6-41-5.5
		c-8.7-5.1-16-12.9-19.8-22.3c3.5-5.5,7.1-11,10.9-16.4c2.3,6.5,5.6,12.9,10.8,17.7c8.7,8.2,21.6,10.9,33.2,9.2
		c8.7-1.3,16.2-7.4,19.7-15.4c-7.5-0.3-15-0.1-22.5-0.1C326,81,326,75,326,69z"/>
</g>
</svg>
