<?xml version="1.0" encoding="utf-8"?>
<!-- Generator: Adobe Illustrator 22.0.1, SVG Export Plug-In . SVG Version: 6.00 Build 0)  -->
<svg version="1.1" id="logo" xmlns="http://www.w3.org/2000/svg" xmlns:xlink="http://www.w3.org/1999/xlink" x="0px" y="0px"
	 viewBox="0 0 640 180" style="enable-background:new 0 0 640 180;" xml:space="preserve">
<style type="text/css">
	.st0{fill:url(#orange_1_);}
	.st1{fill:#FFFFFF;}
	.st2{fill:#222222;}
</style>
<linearGradient id="orange_1_" gradientUnits="userSpaceOnUse" x1="-5482.7529" y1="244.8357" x2="-5482.7529" y2="246.4607" gradientTransform="matrix(98.4615 0 0 -98.4615 539921.875 24276.9004)">
	<stop  offset="0" style="stop-color:#FF5208"/>
	<stop  offset="1" style="stop-color:#FFA408"/>
</linearGradient>
<path id="orange" class="st0" d="M123.4,10c23.4,0,38.2,14.8,38.2,38.2v83.7c0,23.4-14.8,38.2-38.2,38.2H39.7
	c-23.4,0-38.2-15.4-38.2-38.2V48.2C1.5,24.8,16.3,10,39.7,10H123.4z"/>
<path id="sign" class="st1" d="M25.5,118.9v-17.2L52,75.8h45.5l39.4-40.6v17.2l-34.5,34.5H57.5L25.5,118.9L25.5,118.9z M25.5,146.6
	v-17.2l35.1-35.1h45.5l31.4-31.4v17.2L111.1,106H65.5L25.5,146.6L25.5,146.6z"/>
<path id="lab" class="st2" d="M213.2,120.2h39.4v12.3h-54.2V46.3h14.8C213.2,46.3,213.2,120.2,213.2,120.2z M279.1,131.8h-14.2v-64
	h14.2V131.8z M263.7,51.2c0-1.8,0.6-4.3,1.8-5.5c1.2-1.2,3.7-1.8,6.2-1.8c2.5,0,4.9,0.6,6.2,1.8c1.2,1.2,1.8,3.1,1.8,5.5
	c0,1.8-0.6,4.3-1.8,5.5c-1.2,1.2-3.7,1.8-6.2,1.8c-2.5,0-4.9-0.6-6.2-1.8C264.3,55.5,263.7,53.7,263.7,51.2L263.7,51.2z
	 M351.7,102.9c0,9.8-1.8,16-6.8,21.5c-4.9,5.5-10.5,8.6-18.5,8.6c-7.4,0-13.5-2.5-17.2-8v7.4h-12.9V41.4h14.2v33.2
	c4.3-4.9,9.8-7.4,16.6-7.4c8,0,14.2,2.5,18.5,8.6C350.5,83.2,351.7,94.9,351.7,102.9z M333.8,83.8c-2.5-3.7-6.2-4.9-10.5-4.9
	c-6.2,0-10.5,2.5-12.9,8v26.5c2.5,5.5,6.8,8.6,13.5,8.6c4.3,0,8-1.8,10.5-4.9c2.5-3.1,3.7-8.6,3.7-15.4
	C338.2,101.7,338.2,88.8,333.8,83.8z M393.5,133.1c-9.2,0-16.6-2.5-22.2-8.6c-5.5-6.2-8.6-13.5-8.6-22.8v-1.8
	c0-6.2,1.2-12.3,3.7-17.2c2.5-4.9,6.2-8.6,10.5-11.7c4.3-3.1,9.2-4.3,14.8-4.3c8.6,0,15.4,2.5,20.3,8.6c4.9,5.5,6.8,13.5,6.8,23.4
	v5.5h-41.8c0.6,5.5,1.8,9.2,5.5,12.9c3.1,3.1,6.8,4.9,11.7,4.9c6.8,0,12.3-2.5,16-8l8,7.4c-2.5,3.7-6.2,6.8-10.5,8.6
	C403.4,132.5,399.1,133.1,393.5,133.1L393.5,133.1z M391.7,78.3c-4.3,0-6.8,1.2-9.8,4.3c-2.5,2.5-4.3,6.8-4.9,11.7h27.7v-1.2
	c0-4.9-1.8-8.6-3.7-11.1C399.1,79.5,396,78.3,391.7,78.3L391.7,78.3z M464.9,81.4c-1.8,0-3.7-0.6-6.2-0.6c-6.8,0-11.1,2.5-13.5,7.4
	v43.7h-14.2v-64h14.2l0.6,7.4c3.7-5.5,8-8.6,14.8-8.6c1.8,0,3.7,0,4.9,0.6L464.9,81.4z M496.3,52.5v15.4h11.1v10.5h-11.1v36.3
	c0,2.5,0.6,4.3,1.2,5.5c0.6,1.2,2.5,1.8,4.9,1.8c1.8,0,3.1,0,4.9-0.6v11.1c-3.1,0.6-6.2,1.2-9.2,1.2c-11.1,0-16.6-6.2-16.6-18.5
	V78.9h-10.5V68.5h10.5v-16H496.3L496.3,52.5L496.3,52.5z M548,133.1c-9.2,0-16.6-2.5-22.2-8.6c-5.5-6.2-8.6-13.5-8.6-22.8v-1.8
	c0-6.2,1.2-12.3,3.7-17.2s6.2-8.6,10.5-11.7c4.3-3.1,9.2-4.3,14.8-4.3c8.6,0,15.4,2.5,20.3,8.6c4.9,5.5,6.8,13.5,6.8,23.4v5.5h-41.8
	c0.6,5.5,1.8,9.2,5.5,12.9c3.1,3.1,6.8,4.9,11.7,4.9c6.8,0,12.3-2.5,16-8l8,7.4c-2.5,3.7-6.2,6.8-10.5,8.6
	C558.5,132.5,553.5,133.1,548,133.1L548,133.1z M546.8,78.3c-4.3,0-6.8,1.2-9.8,4.3c-2.5,2.5-4.3,6.8-4.9,11.7h27.7v-1.2
	c0-4.9-1.8-8.6-3.7-11.1C553.5,79.5,550.5,78.3,546.8,78.3L546.8,78.3z M609.5,89.4l12.3-20.9h16l-19.7,31.4l20.3,32.6h-15.4
	l-12.9-21.5l-12.9,21.5h-16l20.3-32.6l-19.7-31.4h16L609.5,89.4z"/>
</svg>
