<?xml version="1.0" encoding="utf-8"?>
<!-- Generator: Adobe Illustrator 19.1.0, SVG Export Plug-In . SVG Version: 6.00 Build 0)  -->
<svg version="1.1" id="Layer_1" xmlns="http://www.w3.org/2000/svg" xmlns:xlink="http://www.w3.org/1999/xlink" x="0px" y="0px"
	 viewBox="0 0 442 66.9" style="enable-background:new 0 0 442 66.9;" xml:space="preserve">
<style type="text/css">
	.st0{fill:#053C50;}
	.st1{fill:#0AB45B;}
</style>
<g>
	<polygon class="st0" points="0,1.5 51,1.5 51,17 17.7,17 17.7,27.8 47.8,27.8 47.8,42.5 17.7,42.5 17.7,65.2 0,65.2 	"/>
	<path class="st0" d="M136.6,1.5h30.1c9.7,0,16.5,2.6,20.8,6.9c3.7,3.6,5.6,8.6,5.6,14.8v0.2c0,9.7-5.2,16.2-13.1,19.6l15.2,22.2
		h-20.4L162,45.9h-0.2h-7.6v19.3h-17.7V1.5z M165.9,32.1c6,0,9.5-2.9,9.5-7.6v-0.2c0-5-3.6-7.6-9.6-7.6h-11.6v15.3H165.9z"/>
	<polygon class="st0" points="202.1,1.5 253.4,1.5 253.4,16.5 219.6,16.5 219.6,26.2 250.2,26.2 250.2,40.1 219.6,40.1 219.6,50.2 
		253.8,50.2 253.8,65.2 202.1,65.2 	"/>
	<polygon class="st0" points="281.5,32.8 260.5,1.5 280.8,1.5 292.1,19.4 303.5,1.5 323.3,1.5 302.4,32.6 324.3,65.2 304,65.2 
		291.8,46 279.5,65.2 259.6,65.2 	"/>
	<path class="st0" d="M341.6,35L341.6,35c0-7.3,5.6-13.4,13.6-13.4c5.2,0,8.7,2.3,10.9,5.7l-6.1,4.5c-1.2-1.7-2.6-2.7-4.7-2.7
		c-2.9,0-5,2.5-5,5.6v0.1c0,3.3,2.1,5.8,5.1,5.8c2.1,0,3.5-1,4.9-2.6l6,4.3c-2.4,3.5-5.7,5.8-11.3,5.8
		C347.2,48.2,341.6,42.2,341.6,35"/>
	<path class="st0" d="M368.6,35L368.6,35c0-7.3,5.9-13.4,14.1-13.4c8.1,0,14,6,14,13.2v0.1c0,7.2-5.9,13.3-14.1,13.3
		C374.5,48.2,368.6,42.2,368.6,35 M388,35L388,35c0-3.2-2.3-5.8-5.4-5.8c-3.2,0-5.3,2.6-5.3,5.6v0.1c0,3.1,2.3,5.7,5.4,5.7
		C386,40.6,388,38,388,35"/>
	<path class="st0" d="M400.9,22.1h8.9v3.5c1.6-2.1,4-4,7.6-4c3.4,0,6,1.5,7.3,4.1c2.2-2.5,4.8-4.1,8.5-4.1c5.4,0,8.7,3.4,8.7,9.3
		v16.7H433V33.7c0-2.8-1.4-4.2-3.5-4.2c-2.1,0-3.7,1.5-3.7,4.2v13.8H417V33.7c0-2.8-1.4-4.2-3.5-4.2c-2.1,0-3.6,1.5-3.6,4.2v13.8
		h-8.9V22.1z"/>
	<path class="st1" d="M56,33.6C56,13.2,68.8,0,88.6,0c20.3,0,32.7,12.8,32.7,33.2c0,20.5-12.9,33.6-32.7,33.6
		C68.4,66.9,56,54.2,56,33.6 M102.5,33.4c0-13.5-4-24.2-14.2-24.2C78,9.3,74.8,20,74.8,33.4c0,13.4,4,24.2,14.2,24.2
		C99.3,57.6,102.5,46.9,102.5,33.4"/>
	<polygon class="st1" points="129.2,37.1 91.6,37.1 89.5,42.9 127.1,42.9 	"/>
	<polygon class="st1" points="130.8,25.5 93.2,25.5 91.2,31.3 128.8,31.3 	"/>
	<path class="st0" d="M329.2,42.8c0-1.3,0.5-2.3,1.4-3.3c0.9-0.9,2-1.4,3.3-1.4c1.3,0,2.4,0.5,3.3,1.4c0.9,0.9,1.4,2,1.4,3.3
		c0,1.3-0.5,2.4-1.4,3.3c-0.9,0.9-2,1.3-3.3,1.3c-1.3,0-2.4-0.4-3.3-1.3C329.6,45.3,329.2,44.2,329.2,42.8"/>
</g>
</svg>
