<?xml version="1.0" encoding="utf-8"?>
<!-- Generator: Adobe Illustrator 22.0.1, SVG Export Plug-In . SVG Version: 6.00 Build 0)  -->
<svg version="1.1" id="图层_1" xmlns="http://www.w3.org/2000/svg" xmlns:xlink="http://www.w3.org/1999/xlink" x="0px" y="0px"
	 viewBox="0 0 370 100" style="enable-background:new 0 0 370 100;" xml:space="preserve">
<style type="text/css">
	.st0{fill:#97D700;}
</style>
<path d="M209.6,21.8h6.1L248.8,70h0.2V21.8h5.4v56.9h-6.1l-33.2-48.2h-0.2v48.2h-5.4L209.6,21.8L209.6,21.8z M200.6,78.8h5.8
	l-22.3-56.9H178l-23,56.9h5.8l4.9-12.5h30L200.6,78.8L200.6,78.8z M167.6,61.6l13.2-33.9l13.1,33.9H167.6z M127.6,20.5
	c-17,0-28.9,13.3-28.9,29.6s12,29.6,28.9,29.6c17.2,0,29-13.3,29-29.6C156.6,33.7,144.4,20.5,127.6,20.5z M127.6,74.7
	c-14.1,0-24.1-11-24.1-24.7c0-13.6,9.9-24.7,24.1-24.7c14.1,0,24.2,11,24.2,24.7S141.9,74.7,127.6,74.7z M261.8,21.8h18.1
	c17.1,0.4,28.6,13.6,28.6,29.4c0,14.7-11.5,27.5-28.6,27.5h-18.1V21.8z M267.1,73.8h12.4c15.4,0,23.8-11.7,23.8-22.9
	c0-11.9-7.6-24.2-23.8-24.2h-12.4V73.8z M361.1,78.8h6.5l-47.8-56.9h-5.5v56.9h5.4V66.3h31L361.1,78.8z M319.8,61.6V30.1h0.5
	l26.5,31.5H319.8z"/>
<path class="st0" d="M26.3,82.2c3.1,0.9,6.3,1.4,9.7,1.4c7,0,13.6-2.2,19-5.9l-28.7-34C26.2,43.7,26.2,82.2,26.3,82.2z M2.4,50.1
	c0,9.2,3.7,17.5,9.6,23.5v-47C6,32.6,2.4,40.9,2.4,50.1z M26.3,21.8l38.4,45.7c3.1-5.1,4.9-11.1,4.9-17.5c0-18.5-15-33.6-33.6-33.6
	c-6.7,0-12.9,2-18.1,5.3C17.9,21.7,26.3,21.8,26.3,21.8z"/>
</svg>
