<?xml version="1.0" encoding="utf-8"?>
<!-- Generator: Adobe Illustrator 22.0.1, SVG Export Plug-In . SVG Version: 6.00 Build 0)  -->
<svg version="1.1" id="图层_1" xmlns="http://www.w3.org/2000/svg" xmlns:xlink="http://www.w3.org/1999/xlink" x="0px" y="0px"
	 viewBox="0 0 600 140" style="enable-background:new 0 0 600 140;" xml:space="preserve">
<style type="text/css">
	.st0{fill:#3F5364;}
	.st1{fill:#F6303E;}
</style>
<path class="st0" d="M232.2,1.2h1.5c1.9,0.6,4.1,1.2,5.3,2.9c1.5,2,1.3,4.7,1.4,7.1c-0.1,12.1,0,24.2-0.1,36.2
	c8.4-8.6,19.6-14.5,31.5-16.1c16.3-2.4,33.5,3.2,45.2,14.7c10.5,10.1,16.6,24.5,16.4,39.1c0,14.5-6.2,28.8-16.8,38.7
	c-10.5,10.1-25.2,15.6-39.7,14.9c-13.7-0.5-27-6.7-36.5-16.6c-0.2,2.8,0.2,5.9-1.1,8.5c-2.7,4.6-10.4,4.7-13.1,0.1
	c-1.4-3-0.8-6.4-0.9-9.6c0.1-37.7-0.1-75.4,0.1-113C225.3,4.3,228.8,1.9,232.2,1.2 M273.4,45.9c-14.8,2.2-27.7,13.6-31.7,27.9
	c-2.8,10.4-1.6,22.1,4.2,31.3c7.5,12.6,22.5,20.2,37.1,18.6c13.2-1,25.5-9.4,31.4-21.2c4.8-9.2,5.6-20.4,2.3-30.3
	C311.1,54.6,291.8,42.7,273.4,45.9z"/>
<path class="st0" d="M96,31.3c13.2-2,27.1,1.1,38.2,8.7c12.2,8.2,20.8,21.5,23.1,36.1c2.5,14.6-1.5,30.2-10.6,41.8
	c-9.4,12.2-24.3,20.1-39.8,20.8c-11.9,0.7-24-2.8-33.8-9.6c-10.6-7.3-18.3-18.5-21.5-31c-3.4-13.6-1.5-28.5,5.7-40.5
	C65.4,43.6,80.1,33.7,96,31.3 M94.3,46.7c-10.4,2.7-19.6,9.7-24.7,19.2c-6.4,11.5-6.5,26.2,0,37.7c6.9,13,21.6,21.3,36.4,20.4
	c11.7-0.4,22.9-6.6,29.8-16c6.6-8.9,9.2-20.8,6.7-31.6c-2.6-12.1-11.4-22.7-22.8-27.6C111.7,45.2,102.7,44.6,94.3,46.7z"/>
<path class="st0" d="M347.6,59.7c7.7-14.9,22.7-25.7,39.2-28.3c15-2.5,30.9,1.8,42.6,11.4c12.6,10,20.1,25.9,20.1,42
	c-31.2,0-62.3,0-93.5,0c0.1,12.4,6.3,24.6,16.4,31.8c11.8,8.8,28.7,9.8,41.6,2.7c3.4-1.8,6.4-4.3,9.3-6.8c6.2,0,12.3,0,18.5,0
	c-7.1,11.4-18.2,20.4-31.2,24.1c-13.7,4.1-28.9,2.4-41.3-4.6c-14-7.7-24.2-21.9-27-37.6C340.1,82.6,342,70.2,347.6,59.7 M380.1,48.6
	c-9.6,4-17.3,12-21.2,21.6c24.4,0.2,48.7,0.1,73.1,0.1c-3.5-8.2-9.6-15.4-17.4-19.7C404.2,44.6,391.1,43.9,380.1,48.6z"/>
<path class="st0" d="M535.7,34.9c1.9-2.4,4.9-4.7,8.1-3.7c3.1,0.6,5.1,3.5,6.1,6.3v2.4c-1,2.1-2.2,4-3.6,5.8
	c-10.7,13-21.2,26.1-31.8,39.1c8.8,10.8,17.6,21.7,26.3,32.5c3.2,4,6.7,7.7,9.1,12.3v2.3c-0.8,3.4-3.3,6.6-7,6.9
	c-3.2,0.6-5.6-1.9-7.4-4.1c-10.2-12.7-20.5-25.3-30.7-37.9c3.2-4,6.4-8,9.7-11.9c-3.2-4-6.5-7.9-9.7-11.9
	C515.1,60.2,525.5,47.6,535.7,34.9z"/>
<path class="st0" d="M190.8,51.1c5.5-5.5,13.7-7.3,21.3-6.6c4.2,0.4,7.1,5.8,4.6,9.4c-1.8,3.6-6.3,3.1-9.7,3.5
	c-7.1,0.3-14,4.1-17.7,10.1c-3.6,5.5-4.7,12.2-4.7,18.7c0,15,0,30,0,45c0.2,2.5-0.8,5.1-3.1,6.3c-4.3,2.9-12,0.6-11.8-5.3
	c-0.1-26.3-0.1-52.7,0-79c-0.3-7.1,10.9-9.6,14.1-3.7c1.5,3.7,0.7,7.9,0.8,11.8C186.2,57.7,187.9,53.9,190.8,51.1z"/>
<g id="_x23_f6303eff">
	<path class="st1" d="M451.3,42.7c-3.7-4.7,1-12.1,6.7-11.7c2.7,0.1,4.7,2,6.3,4c13.5,16.7,27.1,33.2,40.6,49.8
		c-14,17.1-27.8,34.3-41.8,51.4c-2.6,3.6-8.3,3.2-11-0.1c-2.5-2.7-2.7-7.2-0.1-10c11.1-13.8,22.2-27.7,33.5-41.4
		C474.1,70.7,462.5,56.8,451.3,42.7z"/>
</g>
</svg>
