<?xml version="1.0" encoding="utf-8"?>
<!-- Generator: Adobe Illustrator 22.0.1, SVG Export Plug-In . SVG Version: 6.00 Build 0)  -->
<svg version="1.1" id="Layer_1" xmlns="http://www.w3.org/2000/svg" xmlns:xlink="http://www.w3.org/1999/xlink" x="0px" y="0px"
	 viewBox="0 0 240 60" style="enable-background:new 0 0 240 60;" xml:space="preserve">
<style type="text/css">
	.st0{fill:#10192A;}
	.st1{clip-path:url(#SVGID_2_);}
	.st2{clip-path:url(#SVGID_4_);fill:#EE3139;}
	.st3{clip-path:url(#SVGID_6_);fill:#FFFFFF;}
</style>
<path class="st0" d="M77.4,32.8h-3.6V39h-4.3V17.6h7.9c5.1,0,7.7,2.5,7.7,7.5c0,2.5-0.7,4.4-1.9,5.8C81.7,32.1,79.9,32.8,77.4,32.8z
	 M73.9,29h3.5c2.2,0,3.3-1.3,3.3-4c0-1.3-0.3-2.3-0.8-2.9c-0.5-0.6-1.3-0.9-2.5-0.9h-3.5V29z M91.9,35c0.5,0.4,1.2,0.7,2.1,0.7
	c1.9,0,3.7-0.1,5.3-0.2l0.9-0.1l0.1,3.2c-2.4,0.6-4.6,0.9-6.5,0.9c-2.4,0-4.1-0.7-5.2-1.9s-1.6-3.4-1.6-6.1c0-5.7,2.3-8.4,7-8.4
	c4.6,0,6.9,2.4,6.9,7.1l-0.3,3h-9.3C91.1,33.9,91.4,34.6,91.9,35z M96.6,29.7c0-1.2-0.2-2.1-0.6-2.6c-0.4-0.5-1.1-0.8-2.1-0.8
	c-1,0-1.7,0.3-2.1,0.8c-0.4,0.5-0.7,1.3-0.7,2.6C91.1,29.7,96.6,29.7,96.6,29.7z M103.8,45.6V23.3h4.2v0.9c1.3-0.9,2.6-1.2,3.6-1.2
	c2.1,0,3.6,0.7,4.7,1.9c1.1,1.2,1.5,3.5,1.5,6.5s-0.6,5.2-1.6,6.3c-1.2,1.2-3,1.8-5.5,1.8c-0.7,0-1.4-0.1-2.2-0.2l-0.4-0.1v6.5
	L103.8,45.6C103.8,45.7,103.8,45.6,103.8,45.6z M110.7,26.6c-0.8,0-1.5,0.2-2.4,0.5l-0.4,0.2v8.3c1,0.1,1.7,0.2,2.3,0.2
	c1.2,0,2-0.4,2.5-1.1c0.5-0.7,0.7-1.9,0.7-3.6C113.5,28.1,112.5,26.6,110.7,26.6z M120.9,45.6V23.3h4.2v0.9c1.3-0.9,2.6-1.2,3.6-1.2
	c2.1,0,3.6,0.7,4.7,1.9c1.1,1.2,1.5,3.5,1.5,6.5s-0.6,5.2-1.6,6.3c-1.2,1.2-3,1.8-5.5,1.8c-0.7,0-1.4-0.1-2.2-0.2l-0.4-0.1v6.5
	L120.9,45.6C120.9,45.7,120.9,45.6,120.9,45.6z M127.9,26.6c-0.8,0-1.5,0.2-2.4,0.5l-0.4,0.2v8.3c1,0.1,1.7,0.2,2.3,0.2
	c1.2,0,2-0.4,2.5-1.1c0.5-0.7,0.7-1.9,0.7-3.6C130.7,28.1,129.7,26.6,127.9,26.6z M142.3,35c0.5,0.4,1.2,0.7,2.1,0.7
	c1.9,0,3.7-0.1,5.3-0.2l0.9-0.1l0.1,3.2c-2.4,0.6-4.6,0.9-6.5,0.9c-2.4,0-4.1-0.7-5.2-1.9c-1.1-1.2-1.6-3.4-1.6-6.1
	c0-5.7,2.3-8.4,7-8.4c4.6,0,6.9,2.4,6.9,7.1l-0.3,3h-9.3C141.6,33.9,141.8,34.6,142.3,35z M147,29.7c0-1.2-0.2-2.1-0.6-2.6
	c-0.4-0.5-1.1-0.8-2.1-0.8s-1.7,0.3-2.1,0.8c-0.4,0.5-0.7,1.3-0.7,2.6H147z M154.2,39V23.3h4.2v1.6c1.7-1.1,3.5-1.7,5.1-2v4.2
	c-1.7,0.4-3.2,0.8-4.4,1.2l-0.7,0.2V39C158.4,39,154.2,39,154.2,39z M177.2,27.2c-2.6-0.3-4.4-0.5-5.5-0.5c-1.1,0-1.7,0.1-2,0.3
	c-0.3,0.2-0.5,0.5-0.5,0.9s0.2,0.7,0.6,0.9s1.4,0.4,3.2,0.7c1.7,0.3,2.9,0.8,3.6,1.5c0.7,0.7,1.1,1.8,1.1,3.4c0,3.4-2.1,5.1-6.3,5.1
	c-1.3,0-3.1-0.2-5.1-0.6l-1.1-0.2l0.1-3.6c2.6,0.3,4.4,0.5,5.5,0.5c1.1,0,1.7-0.1,2.1-0.3c0.4-0.2,0.6-0.5,0.6-0.9
	c0-0.4-0.2-0.7-0.6-0.9c-0.4-0.2-1.4-0.4-3.1-0.7s-2.9-0.8-3.6-1.3c-0.8-0.7-1.2-1.8-1.2-3.5c0-1.6,0.6-3,1.7-3.7
	c1.2-0.9,2.6-1.2,4.4-1.2c1.2,0,3,0.2,5.1,0.6l1.1,0.2C177.3,23.8,177.2,27.2,177.2,27.2z M189.5,26.8h-3.8v7.8c0,0,0.2,0.5,0.4,0.7
	c0.2,0.2,0.5,0.3,1,0.3l2.4-0.1l0.2,3.4c-1.4,0.3-2.5,0.5-3.3,0.5c-1.9,0-3.2-0.4-3.8-1.2c-0.7-0.9-1.1-2.4-1.1-4.7v-6.5h-1.8v-3.6
	h1.8v-4.4h4.2v4.4h3.8C189.5,23.3,189.5,26.8,189.5,26.8z M193.2,25c1.2-1.4,3-2.2,5.6-2.2s4.5,0.8,5.6,2.2c1.2,1.4,1.6,3.5,1.6,6
	c0,5.6-2.4,8.3-7.3,8.3c-4.8,0-7.3-2.8-7.3-8.3C191.5,28.4,192,26.4,193.2,25z M196.4,34.7c0.5,0.8,1.2,1.2,2.3,1.2
	c1.1,0,1.9-0.4,2.3-1.2c0.5-0.8,0.7-1.9,0.7-3.6c0-1.6-0.2-2.8-0.7-3.6c-0.4-0.8-1.2-1.2-2.3-1.2c-1.1,0-1.9,0.4-2.3,1.2
	c-0.4,0.8-0.7,1.9-0.7,3.6C195.8,32.8,196,33.9,196.4,34.7z M213.3,39h-4.2V23.3h4.2v0.9c1.4-0.9,2.8-1.2,3.9-1.2
	c2.1,0,3.6,0.6,4.3,1.8c0.8,1.2,1.2,3.2,1.2,5.8V39h-4.2v-8.4c0-1.3-0.2-2.3-0.5-3c-0.3-0.7-1-1-1.9-1c-0.9,0-1.7,0.2-2.5,0.5
	l-0.4,0.1C213.2,27.2,213.3,39,213.3,39z M230.8,35c0.5,0.4,1.2,0.7,2.1,0.7c1.9,0,3.7-0.1,5.3-0.2l0.9-0.1l0.1,3.2
	c-2.4,0.6-4.6,0.9-6.5,0.9c-2.4,0-4.1-0.7-5.2-1.9c-1.1-1.2-1.6-3.4-1.6-6.1c0-5.7,2.3-8.4,7-8.4c4.6,0,6.9,2.4,6.9,7.1l-0.3,3h-9.3
	C230,33.9,230.3,34.6,230.8,35z M235.4,29.7c0-1.2-0.2-2.1-0.6-2.6c-0.4-0.5-1.1-0.8-2.1-0.8c-1,0-1.7,0.3-2.1,0.8
	c-0.4,0.5-0.7,1.3-0.7,2.6H235.4z"/>
<g>
	<g>
		<g>
			<defs>
				<path id="SVGID_1_" d="M11.7,3C22.6,3.3,43,7.7,52.8,13.3s9,12.5,3.7,20.9c-5.2,8.5-14.9,18.6-24.1,21.7
					c-9.1,3.2-17.8-0.7-23.3-9.4S1.1,24.1,0.4,15.3C-0.3,6.6,0.9,2.7,11.7,3z"/>
			</defs>
			<clipPath id="SVGID_2_">
				<use xlink:href="#SVGID_1_"  style="overflow:visible;"/>
			</clipPath>
			<g id="logo_2_" class="st1">
				<g>
					<defs>
						<rect id="SVGID_3_" x="-0.3" y="2.7" width="62.9" height="56.4"/>
					</defs>
					<clipPath id="SVGID_4_">
						<use xlink:href="#SVGID_3_"  style="overflow:visible;"/>
					</clipPath>
					<path class="st2" d="M-21.3-16.2h91.2V90.7h-91.2L-21.3-16.2z"/>
				</g>
				<g>
					<defs>
						<path id="SVGID_5_" d="M11.7,3C22.6,3.3,43,7.7,52.8,13.3s9,12.5,3.7,20.9c-5.2,8.5-14.9,18.6-24.1,21.7
							c-9.1,3.2-17.8-0.7-23.3-9.4S1.1,24.1,0.4,15.3C-0.3,6.6,0.9,2.7,11.7,3z"/>
					</defs>
					<clipPath id="SVGID_6_">
						<use xlink:href="#SVGID_5_"  style="overflow:visible;"/>
					</clipPath>
					<path class="st3" d="M31.5,37.9c1.4,0,2.7-0.1,3.8-0.4c1.2-0.3,2.2-0.7,3.1-1.2c1-0.5,1.7-1.2,2.4-1.8c0.7-0.8,1.2-1.5,1.7-2.5
						c0.5-1,0.9-2,1.1-3.3c0.2-1.2,0.4-2.5,0.4-3.9c0-2.1-0.3-3.9-0.8-5.5c-0.5-1.5-1.3-2.8-2.3-3.8c-1.1-1.1-2.3-1.8-3.8-2.3
						c-1.5-0.5-3.4-0.8-5.5-0.8H11.8l-2.2,6.1h21.9c1,0,1.8,0.1,2.6,0.4c0.8,0.3,1.4,0.7,1.9,1.2c0.5,0.6,0.9,1.2,1.2,2
						c0.3,0.8,0.4,1.7,0.4,2.8s-0.1,2-0.4,2.9c-0.3,0.9-0.7,1.6-1.2,2.2c-0.5,0.7-1.2,1.1-1.9,1.4c-0.8,0.2-1.6,0.3-2.6,0.3H25V21.6
						h-6.3v26.9H25V37.9H31.5z"/>
				</g>
			</g>
		</g>
	</g>
</g>
</svg>
