<?xml version="1.0" encoding="utf-8"?>
<!-- Generator: Adobe Illustrator 22.0.0, SVG Export Plug-In . SVG Version: 6.00 Build 0)  -->
<svg version="1.1" id="Layer_1" xmlns="http://www.w3.org/2000/svg" xmlns:xlink="http://www.w3.org/1999/xlink" x="0px" y="0px"
	 viewBox="0 0 800 250" style="enable-background:new 0 0 800 250;" xml:space="preserve">
<style type="text/css">
	.st0{fill:#233B74;}
	.st1{fill:#888888;}
	.st2{font-family:'SimHei';}
	.st3{font-size:48px;}
</style>
<path class="st0" d="M434.4,22.6h-21.1V3.9h-32.6v18.7h-21.2v30.6h21.2v18.7h32.6V53.2h21.1V22.6z M96.7,76.8v33.1h22
	c0.6,0,1.2-0.2,1.7-0.6s1-0.9,1.4-1.5s0.7-1.2,0.9-1.9c0.2-0.7,0.3-1.3,0.3-1.9V82c0-0.8-0.1-1.5-0.4-2.2c-0.2-0.6-0.6-1.2-1-1.5
	c-0.4-0.5-0.9-0.9-1.4-1.1s-1.1-0.4-1.6-0.4H96.7z M59.8,136.3v-77h78.6c1.4,0,2.8,0.1,4.3,0.3c1.5,0.2,2.9,0.5,4.3,0.9
	c1.4,0.5,2.7,1.1,4.1,1.8c1.3,0.8,2.5,1.6,3.6,2.6c0.8,0.9,1.5,1.8,2.2,2.9c0.7,1,1.3,2.2,1.8,3.5s0.9,2.7,1.1,4.2s0.4,3.2,0.4,5
	v26.4c0,1.7-0.1,3.3-0.4,4.7c-0.3,1.5-0.6,2.8-1.1,4c-0.4,1.2-0.9,2.3-1.6,3.3s-1.4,2-2.2,2.8c-0.9,0.9-1.9,1.7-2.9,2.3
	c-1,0.7-2.2,1.2-3.3,1.7c-1.5,0.6-3,1-4.6,1.3s-3.2,0.4-4.7,0.4H96.7v37.8H59.8V136.3L59.8,136.3z M255.8,87.1v58.8
	c0,0.5,0.1,1,0.4,1.5c0.3,0.6,0.6,1,1,1.4c0.5,0.4,1,0.7,1.6,1c0.5,0.3,1.1,0.4,1.6,0.4h16.2c0.5,0,1-0.1,1.6-0.3
	c0.5-0.2,1-0.5,1.4-0.9s0.7-0.8,1-1.3c0.3-0.4,0.4-0.9,0.4-1.4v-59h36v78.2h-75.8c-1.7,0-3.3-0.2-4.7-0.5c-1.5-0.3-2.9-0.8-4.2-1.4
	c-1.3-0.7-2.5-1.5-3.6-2.5c-1.1-0.9-2.1-1.9-3-3s-1.7-2.3-2.4-3.6s-1.4-2.7-1.9-4.1c-0.4-1.4-0.7-2.8-1-4.2s-0.4-2.8-0.4-4.2V87.1
	L255.8,87.1L255.8,87.1z M413.1,87.4v14.4h-47.8c-0.3,0-0.7,0.1-1.1,0.2c-0.5,0.2-0.9,0.3-1.3,0.5s-0.7,0.4-1,0.7
	c-0.3,0.3-0.4,0.6-0.4,1v4.3c0,0.4,0.1,0.7,0.4,1c0.3,0.2,0.6,0.5,1,0.7s0.8,0.4,1.3,0.5s0.9,0.1,1.3,0.1h35.2
	c1.1,0,2.2,0.1,3.3,0.3c1.1,0.2,2.2,0.4,3.2,0.7c1.1,0.4,2.1,0.9,3,1.5c0.9,0.6,1.8,1.3,2.6,2.1c0.7,0.7,1.3,1.5,1.9,2.4
	c0.5,0.9,1,1.9,1.4,3c0.4,1,0.7,2.1,0.9,3.4c0.2,1.3,0.3,2.7,0.3,4.2v18.2c0,1.4-0.1,2.7-0.4,4c-0.2,1.3-0.6,2.5-1.1,3.7
	c-0.4,1.1-1,2.1-1.6,3c-0.7,1-1.4,1.8-2.1,2.6c-0.9,0.8-1.8,1.5-2.8,2.2c-1,0.6-2,1.2-3,1.7c-1.4,0.6-2.8,1-4.2,1.3
	c-1.4,0.2-2.8,0.4-4.2,0.4h-68.8v-14.1h51c0.4,0,0.8-0.1,1.3-0.3c0.4-0.2,0.8-0.4,1.1-0.7c0.4-0.2,0.7-0.5,0.9-0.9
	c0.2-0.4,0.3-0.8,0.3-1.2V144c0-0.4-0.1-0.8-0.3-1.1c-0.2-0.3-0.5-0.6-0.9-0.8c-0.4-0.3-0.8-0.5-1.2-0.7c-0.4-0.2-0.8-0.2-1.2-0.2
	h-35.2c-1.4,0-2.8-0.1-4.2-0.4c-1.4-0.2-2.8-0.7-4.2-1.3c-0.9-0.4-1.8-0.9-2.6-1.5s-1.6-1.3-2.1-2.1c-0.6-0.7-1.1-1.5-1.6-2.3
	c-0.4-0.8-0.8-1.7-1.1-2.6c-0.2-0.8-0.3-1.6-0.4-2.5s-0.1-1.8-0.1-2.8v-20.8c0-1.4,0.1-2.6,0.4-3.8c0.3-1.1,0.7-2.2,1.2-3.3
	c0.6-1,1.2-1.9,1.9-2.8c0.7-0.9,1.5-1.7,2.4-2.4c0.9-0.8,1.9-1.5,2.9-2.1s2.1-1.1,3.2-1.5c1.4-0.5,2.8-0.9,4.3-1.2
	c1.5-0.3,2.9-0.4,4.3-0.4L413.1,87.4L413.1,87.4z M521.4,68.1v16h-56.5l-1,19.1h39.8c2.5,0,4.9,0.4,7.1,1.1c1.4,0.5,2.6,1.1,3.7,1.8
	s2.2,1.6,3.1,2.6c0.8,0.8,1.5,1.7,2.2,2.7c0.6,1,1.1,2,1.5,3.1c0.4,1.2,0.8,2.4,1,3.6c0.2,1.2,0.4,2.5,0.4,3.9v25.5
	c0,1.4-0.1,2.8-0.4,3.9c-0.2,1.2-0.6,2.3-1,3.4c-0.5,1.4-1.1,2.6-1.9,3.6c-0.8,1.1-1.7,2-2.6,2.8c-0.9,0.6-1.9,1.2-2.8,1.8
	c-1,0.5-2,0.9-3.1,1.2c-1.1,0.4-2.2,0.6-3.4,0.8c-1.2,0.2-2.4,0.3-3.5,0.3h-70.8v-15.8h52.4c0.5,0,1-0.2,1.4-0.6
	c0.4-0.4,0.7-0.9,1-1.6c0.3-0.6,0.4-1.3,0.5-2s0.1-1.3,0.1-1.8v-19.1c0-0.8-0.1-1.6-0.3-2.2c-0.2-0.6-0.5-1.1-0.9-1.5
	c-0.3-0.4-0.8-0.8-1.3-1s-1-0.3-1.6-0.3h-53.3l0.7-51.5h89.5V68.1z M591.8,84.2h-18.1c-0.6,0-1.3,0.2-2,0.5
	c-0.7,0.4-1.3,0.8-1.7,1.4c-0.5,0.5-1,1.1-1.3,1.8c-0.3,0.6-0.5,1.3-0.5,2v53.8c0,0.7,0.2,1.4,0.6,2.1c0.4,0.7,0.9,1.2,1.4,1.7
	c0.5,0.6,1.2,1,1.9,1.4s1.5,0.5,2.2,0.5h17.4c0.5,0,1.1-0.1,1.7-0.4c0.6-0.3,1.2-0.6,1.7-1.1c0.4-0.3,0.8-0.8,1.1-1.3
	s0.5-1.1,0.5-1.6V88.7c0-0.5-0.2-1.1-0.5-1.6s-0.7-1-1.1-1.3c-0.5-0.5-1.1-0.8-1.7-1.1C593,84.4,592.4,84.2,591.8,84.2 M555.5,67.9
	h55.3c1.6,0,3.1,0.2,4.5,0.5s2.7,0.7,3.9,1.1c1.4,0.6,2.6,1.4,3.7,2.2c1.1,0.9,2,1.8,2.9,2.9c1.1,1.3,2,2.7,2.6,4.2
	c0.7,1.5,1.2,3.1,1.7,4.6c0.5,1.6,0.8,3.3,0.9,4.9c0.2,1.6,0.3,3.2,0.3,4.8v47c0,1.7-0.1,3.4-0.3,5s-0.5,3.1-0.9,4.5
	c-0.5,1.7-1.1,3.4-1.8,4.9c-0.8,1.6-1.6,2.9-2.5,4.1c-0.9,1.1-1.9,2.1-3,2.9c-1.1,0.9-2.2,1.6-3.4,2.1c-1.3,0.6-2.6,1.1-3.9,1.4
	c-1.3,0.3-2.7,0.4-4,0.4h-56.2c-1.5,0-3.1-0.2-4.6-0.5c-1.6-0.3-3-0.8-4.4-1.5c-1.3-0.7-2.6-1.6-3.8-2.7c-1.2-1-2.3-2.3-3.3-3.7
	c-0.7-1.2-1.4-2.5-2-3.9c-0.7-1.4-1.1-3-1.5-4.7c-0.3-1.4-0.5-2.8-0.7-4.3s-0.3-3.1-0.3-4.8V94.5c0-1.7,0.1-3.5,0.4-5.2
	c0.2-1.8,0.6-3.5,1-5.2s0.9-3.4,1.6-5s1.6-3,2.6-4.3c0.9-1.2,2-2.3,3.1-3.2c1.2-1,2.5-1.7,4.1-2.2c1.1-0.4,2.3-0.8,3.7-1.1
	C552.5,68.1,553.9,67.9,555.5,67.9 M700.7,84.2h-18.1c-0.6,0-1.3,0.2-2,0.5c-0.7,0.4-1.2,0.8-1.7,1.4c-0.5,0.5-1,1.1-1.3,1.8
	c-0.3,0.6-0.5,1.3-0.5,2v53.8c0,0.7,0.2,1.4,0.6,2.1c0.4,0.7,0.9,1.2,1.4,1.7c0.6,0.6,1.2,1,1.9,1.4s1.4,0.5,2.2,0.5h17.4
	c0.5,0,1.1-0.1,1.7-0.4c0.6-0.3,1.2-0.6,1.7-1.1c0.5-0.3,0.8-0.8,1.2-1.3c0.3-0.5,0.5-1.1,0.5-1.6V88.7c0-0.5-0.2-1.1-0.5-1.6
	s-0.7-1-1.2-1.3c-0.5-0.5-1.1-0.8-1.7-1.1C701.8,84.4,701.2,84.2,700.7,84.2 M664.2,67.9h55.3c1.6,0,3.2,0.2,4.6,0.5
	c1.4,0.3,2.7,0.7,3.9,1.1c1.4,0.6,2.6,1.4,3.7,2.2c1.1,0.9,2,1.8,2.9,2.9c1.1,1.3,2,2.7,2.6,4.2c0.7,1.5,1.2,3.1,1.7,4.6
	c0.4,1.6,0.8,3.3,1,4.9s0.3,3.2,0.3,4.8v47c0,1.7-0.1,3.4-0.3,5s-0.5,3.1-1,4.5c-0.5,1.7-1.1,3.4-1.8,4.9c-0.8,1.6-1.6,2.9-2.5,4.1
	c-0.9,1.1-1.9,2.1-3,2.9c-1.1,0.9-2.2,1.6-3.4,2.1c-1.3,0.6-2.6,1.1-3.9,1.4c-1.3,0.3-2.6,0.4-4,0.4H664c-1.5,0-3.1-0.2-4.6-0.5
	s-3-0.8-4.3-1.5c-1.4-0.7-2.6-1.6-3.8-2.7c-1.2-1-2.3-2.3-3.3-3.7c-0.7-1.2-1.4-2.5-2-3.9s-1.1-3-1.5-4.7c-0.3-1.4-0.5-2.8-0.7-4.3
	s-0.3-3.1-0.3-4.8V94.5c0-1.7,0.1-3.5,0.3-5.2c0.2-1.8,0.6-3.5,1-5.2s0.9-3.4,1.6-5c0.7-1.6,1.6-3,2.6-4.3c0.9-1.2,1.9-2.3,3.1-3.2
	c1.2-1,2.5-1.7,4.1-2.2c1.1-0.4,2.3-0.8,3.7-1.1C661.2,68.1,662.7,67.9,664.2,67.9 M208.1,165c0,0-17.7,0.2-19.1,0
	c-1.5-0.2-2.9-1.1-4.2-1.9c-1.3-0.9-2.5-2-3.6-3.2s-2.1-2.6-3-4c-0.9-1.5-1.7-3.1-2.5-4.8c-0.7-1.8-1.4-3.6-1.9-5.4
	c-0.4-1.8-0.7-3.7-1-5.6c-0.3-1.9-0.4-3.8-0.4-5.6V62H208L208.1,165z"/>
<text transform="matrix(1 0 0 1 40 238.6502)" class="st1 st2 st3">差价合约服务，您的资金存在风险</text>
</svg>
