<?xml version="1.0" encoding="utf-8"?>
<!-- Generator: Adobe Illustrator 22.0.1, SVG Export Plug-In . SVG Version: 6.00 Build 0)  -->
<svg version="1.1" id="图层_1" xmlns="http://www.w3.org/2000/svg" xmlns:xlink="http://www.w3.org/1999/xlink" x="0px" y="0px"
	 viewBox="0 0 480 100" style="enable-background:new 0 0 480 100;" xml:space="preserve">
<style type="text/css">
	.st0{fill:url(#SVGID_1_);}
	.st1{fill:url(#SVGID_2_);}
</style>
<g>
	<linearGradient id="SVGID_1_" gradientUnits="userSpaceOnUse" x1="26.0497" y1="165.31" x2="26.0497" y2="110.71" gradientTransform="matrix(1.2821 0 0 -1.2821 18.7821 226.9359)">
		<stop  offset="0" style="stop-color:#007FB8"/>
		<stop  offset="1" style="stop-color:#005695"/>
	</linearGradient>
	<path class="st0" d="M61.7,70.9H33.5V85h37.4L61.7,70.9z"/>
	
		<linearGradient id="SVGID_2_" gradientUnits="userSpaceOnUse" x1="172.55" y1="165.31" x2="172.55" y2="110.71" gradientTransform="matrix(1.2821 0 0 -1.2821 18.7821 226.9359)">
		<stop  offset="0" style="stop-color:#007FB8"/>
		<stop  offset="1" style="stop-color:#005695"/>
	</linearGradient>
	<path class="st1" d="M61.7,15H0.9v70h16.4V29.1h44.4v14.1H33.5v14.1h27.9c7.7,0,14.1-6.2,14.1-14.1V29.1C75.5,21.2,69.4,15,61.7,15
		z M411.2,35.5c-10.8,0-17.7,5.4-17.7,16.4v9.5c0,10.5,6.4,15.6,19.2,15.6h4.1v-5.9h-4.1c-9.5,0-12.3-2.6-12.3-10.3v-5.1h27.7v-4.1
		C428.1,40.9,421.4,35.5,411.2,35.5z M410.9,41.4c6.7,0,10.5,3.3,10.5,8.7h-21C400.9,44.5,403.7,41.4,410.9,41.4L410.9,41.4z
		 M368.8,53.7v23.3h6.9V53.7c0-8.7,2.3-12.3,12.1-12.3v-5.9C374,35.5,368.8,41.4,368.8,53.7z M456.3,51.2l-12.8-14.9h-8.7l17.4,19.5
		l-19.7,21.3h9l13.8-16.9l14.9,16.9h9l-19.7-21.3l17.4-19.5h-8.5L456.3,51.2z M258.1,35.5c-11.5,0-17.4,5.6-17.4,16.9v8.2
		c0,11.3,5.9,16.9,17.4,16.9c11.8,0,17.4-5.4,17.4-16.7v-8.7C275.3,41.4,269.6,35.5,258.1,35.5z M257.8,41.2
		c7.7,0,10.5,4.1,10.5,11.5v7.9c0,7.4-3.1,11.5-10.5,11.5c-7.4,0-10.5-4.1-10.5-11.5v-7.9C247.3,45.3,250.4,41.2,257.8,41.2z
		 M103.2,24.7v52.3h6.9V54.5h7.4l15.6,22.6h8.5L125,53.7c7.7-1.8,13.1-4.9,13.1-14.4c0-9.7-6.7-14.6-20.5-14.6
		C117.6,24.7,103.2,24.7,103.2,24.7z M110.4,30.4h7.4c7.9,0,13.6,1.5,13.6,9c0,8.2-6.4,9.2-13.6,9.2h-7.4V30.4z M340.9,35.5
		c-11.5,0-17.4,5.6-17.4,16.9v8.2c0,11.3,5.9,16.9,17.4,16.9c11.8,0,17.4-5.4,17.4-16.7v-8.7C358.1,41.4,352.4,35.5,340.9,35.5z
		 M340.6,41.2c7.7,0,10.5,4.1,10.5,11.5v7.9c0,7.4-3.1,11.5-10.5,11.5s-10.5-4.1-10.5-11.5v-7.9C330.1,45.3,333.2,41.2,340.6,41.2z
		 M286.3,30.6v46.4h6.9V53.2h22.1v-5.9h-22.1V30.6h22.1v-5.9h-29C286.3,24.7,286.3,30.6,286.3,30.6z M194.7,19.4v42.1
		c0,10.5,6.2,16.2,17.7,16.2s16.9-5.4,16.9-16.7v-9.2c0.3-10.5-5.6-16.2-15.6-16.2c-5.1,0-8.7,1.5-12.1,4.4V19.4
		C201.7,19.4,194.7,19.4,194.7,19.4z M212.2,41.4c7.7,0,10.5,4.1,10.5,10.8v9.2c0,6.7-2.3,10.8-10.5,10.8c-7.2,0-10.5-3.6-10.5-10.8
		v-9.2C201.7,45,205.3,41.4,212.2,41.4z M166.8,35.5c-11.5,0-17.4,5.6-17.4,16.9v8.2c0,11.3,5.9,16.9,17.4,16.9
		c11.8,0,17.4-5.4,17.4-16.7v-8.7C184,41.4,178.3,35.5,166.8,35.5z M166.5,41.2c7.7,0,10.5,4.1,10.5,11.5v7.9
		c0,7.4-3.1,11.5-10.5,11.5S156,68.1,156,60.6v-7.9C156,45.3,159.1,41.2,166.5,41.2z"/>
</g>
</svg>
