<?xml version="1.0" encoding="utf-8"?>
<!-- Generator: Adobe Illustrator 22.0.1, SVG Export Plug-In . SVG Version: 6.00 Build 0)  -->
<svg version="1.1" id="Layer_1" xmlns="http://www.w3.org/2000/svg" xmlns:xlink="http://www.w3.org/1999/xlink" x="0px" y="0px"
	 viewBox="0 0 500 220" style="enable-background:new 0 0 500 220;" xml:space="preserve">
<style type="text/css">
	.st0{fill:#070707;}
	.st1{fill:url(#SVGID_1_);}
	.st2{fill:#BEC0C2;}
	.st3{fill:#FFFFFF;}
</style>
<rect x="116.8" y="110" class="st0" width="266.5" height="97.8"/>
<linearGradient id="SVGID_1_" gradientUnits="userSpaceOnUse" x1="250" y1="687.02" x2="250" y2="589.22" gradientTransform="matrix(1 0 0 1 0 -578)">
	<stop  offset="0" style="stop-color:#79C0E3"/>
	<stop  offset="0.23" style="stop-color:#3372CC"/>
	<stop  offset="0.3" style="stop-color:#2B5FB5"/>
	<stop  offset="0.45" style="stop-color:#1D3E8E"/>
	<stop  offset="0.6" style="stop-color:#12246F"/>
	<stop  offset="0.74" style="stop-color:#0A1259"/>
	<stop  offset="0.88" style="stop-color:#06074C"/>
	<stop  offset="1" style="stop-color:#040347"/>
</linearGradient>
<rect x="116.8" y="12.2" class="st1" width="266.5" height="97.8"/>
<path class="st2" d="M108.2,3.7v212.6h283.5V3.7H108.2z M383.2,207.8H116.8V12.2h266.5V207.8z"/>
<path class="st3" d="M160.4,57.4c-7.2-2.8-10.4-4.7-10.4-8.9c0-3.1,2.7-6.5,9-6.5c2,0,3.9,0.1,10,1.7c0.4,0.1,0.8-0.1,0.9-0.5l0,0
	c0.1-0.4,1.7-6.1,1.8-6.6c0.1-0.3-0.1-0.7-0.4-0.8h-0.1c-6.1-1.7-9.1-1.9-12-1.9c-11.7,0-19.1,6.7-19.1,15.5
	c0,7.8,5.7,12.5,14.6,15.7c6.9,2.5,9.6,4.9,9.6,9c0,4.4-3.5,7.4-9.9,7.4c-1.9,0-4.8-0.1-12.2-2.3c-0.4-0.1-0.8,0.1-0.9,0.4l0,0
	l-2.1,6.6c-0.1,0.3,0,0.7,0.4,0.8h0.1c7.6,2.4,11.3,2.6,14,2.6c14,0,20.7-7.6,20.7-16.3C174.4,65.7,169.8,60.9,160.4,57.4z
	 M220.4,35.3c-0.1-0.3-0.4-0.4-0.7-0.4h-11.5c-0.3,0-0.6,0.1-0.7,0.4c0,0.4-16.6,52.2-16.7,52.6c-0.1,0.4,0.1,0.8,0.4,0.9
	c0.1,0,0.1,0,0.2,0h8.6c0.4,0,0.8-0.3,0.9-0.7c0.2-0.5,3.7-12.2,3.7-12.2h18.5c0,0,3.8,12,3.9,12.4c0.1,0.3,0.4,0.6,0.7,0.6h9.1
	c0.4,0,0.7-0.2,0.7-0.6c0-0.1,0-0.2,0-0.3C237.4,87.3,220.6,35.6,220.4,35.3z M206.1,69.3c0,0,3.9-13.6,4.7-16.5
	c1.2-4.2,2.1-7.9,2.5-9.6c0.2-0.7,0.5-0.7,0.7,0c0.5,1.8,1.5,5.7,2.7,9.6c1.6,5.5,4.9,16.5,4.9,16.5H206.1z M283.2,62
	c-0.7-1.1-0.7-2.6,0.1-3.7l11.9-22.2c0.4-0.7,0.2-1.2-0.5-1.2h-8.3c-0.5-0.1-1,0.2-1.2,0.6c-0.2,0.5-6.6,13.1-9.8,19.3
	c-0.5,1-0.9,1-1.4,0c-3.9-8.1-9-18.5-9.3-19.1c-0.3-0.6-0.8-0.9-1.5-0.8h-9.2c-0.7,0-1.1,0.4-0.7,1.1c0.4,0.7,12.4,21.7,12.8,22.3
	c0.8,1.1,0.9,2.6,0.1,3.8l-13.6,25.6c-0.3,0.6,0,1,0.5,1h8.9c0.5,0.1,1-0.3,1.2-0.8c0.3-0.6,7.6-15.1,10.6-21.1c0.4-0.8,1-0.8,1.4,0
	c1.7,3.4,10.3,20.5,10.6,21.1s0.6,0.8,1,0.8h9.7c0.6,0,0.9-0.3,0.6-1S284,63.3,283.2,62z M337.6,34.2c-15.4,0-24.2,12-24.2,27
	c0,16,7.7,28.5,24.2,28.5s24.2-12.5,24.2-28.5C361.9,46.2,353,34.2,337.6,34.2L337.6,34.2z M337.6,82C326.3,82,324,71.4,324,61.1
	c0-9.9,2.9-19.3,13.7-19.3s13.6,9.5,13.6,19.4C351.4,71.4,349,82,337.6,82L337.6,82z"/>
<path class="st3" d="M295.1,131.3h-7.8c-0.4,0-0.7,0.3-0.7,0.7l0,0v18c0,7.8,0.3,17.6,0.9,24.8c0,0.5-0.1,0.4-0.2,0
	c-0.6-2.1-2.8-8.3-8.5-20.3c-8-16.8-10-20.9-10.8-22.7c-0.1-0.2-0.4-0.4-0.6-0.4h-12.2c-0.4,0-0.7,0.3-0.7,0.7v52.4
	c0,0.4,0.3,0.7,0.7,0.7h7.6c0.4,0,0.7-0.3,0.7-0.7v-18.8c0-8.5-0.2-19.1-0.6-26.2c0-0.3,0.1-0.4,0.2,0c0.7,1.9,2.8,7.5,9.3,21.7
	c7.2,15.8,10.6,23.1,10.8,23.4c0.1,0.3,0.4,0.4,0.7,0.4H295c0.4,0,0.7-0.3,0.7-0.7v-52.4C295.9,131.6,295.5,131.3,295.1,131.3
	L295.1,131.3z M220.4,131.7c-0.1-0.3-0.4-0.5-0.7-0.4h-11.5c-0.3,0-0.6,0.2-0.7,0.4l-16.8,52.5c-0.1,0.4,0.1,0.7,0.4,0.9
	c0.1,0,0.1,0,0.2,0h8.6c0.4,0,0.8-0.3,0.9-0.7c0.2-0.5,3.7-12.2,3.7-12.2H223c0,0,3.8,12,3.9,12.4c0.1,0.3,0.4,0.6,0.7,0.6h9.1
	c0.3,0,0.7-0.2,0.7-0.5c0-0.1,0-0.2,0-0.3C237.4,183.7,220.6,132,220.4,131.7L220.4,131.7z M206.1,165.7c0,0,3.9-13.6,4.7-16.5
	c1.2-4.2,2.1-7.9,2.5-9.7c0.2-0.7,0.5-0.7,0.7,0c0.5,1.9,1.5,5.7,2.7,9.6c1.6,5.5,4.9,16.5,4.9,16.5L206.1,165.7z M361.4,184.4
	l-22.6-27.9c0,0,20.4-23.8,20.8-24.4c0.4-0.6,0.1-0.9-0.5-0.9h-8.8c-0.7,0-0.8,0.1-1.3,0.7s-18.3,21.8-18.7,22.3s-1,0.6-1-0.5v-21.8
	c0-0.4-0.1-0.7-0.6-0.7h-8.3c-0.5,0-0.6,0.2-0.6,0.7v52.4c0,0.5,0.2,0.7,0.7,0.7h8.2c0.4,0,0.6-0.3,0.6-0.7v-25.1c0-1,0.5-1.2,1-0.5
	s18.9,25,19.3,25.6c0.3,0.5,0.8,0.8,1.3,0.7h9.9C361.5,185.1,361.5,184.8,361.4,184.4L361.4,184.4z M164.6,156.1
	c-0.4,0-0.4-0.2,0-0.4c4-1.3,10.4-4.8,10.4-13c0-7.3-6.6-11.4-15.7-11.4h-17.7c-0.4,0-0.7,0.3-0.7,0.7l0,0v52.5
	c0,0.4,0.2,0.7,0.6,0.7h0.1h16.1c12.7,0,20.5-6.6,20.5-15.9C178.1,161.2,171.1,156.7,164.6,156.1z M150.8,137.7h5.5
	c4.7,0,8.8,2.3,8.8,7c0,5-4.8,9.1-11.1,9.1h-3.3v-16.1H150.8z M156.1,178.6h-5.4v-18.5h5.3c5.9,0,11,2.9,11,9.2
	C167.1,175.3,162.1,178.6,156.1,178.6L156.1,178.6z"/>
</svg>
