<?xml version="1.0" encoding="utf-8"?>
<!-- Generator: Adobe Illustrator 22.0.1, SVG Export Plug-In . SVG Version: 6.00 Build 0)  -->
<svg version="1.1" id="图层_1" xmlns="http://www.w3.org/2000/svg" xmlns:xlink="http://www.w3.org/1999/xlink" x="0px" y="0px"
	 viewBox="0 0 350 70" style="enable-background:new 0 0 350 70;" xml:space="preserve">
<style type="text/css">
	.st0{fill:none;}
	.st1{fill:#FA5B35;}
	.st2{fill:#323232;}
</style>
<path class="st0" d="M1.4,3h56v64h-56V3z"/>
<path class="st1" d="M29.4,7c15.5,0,28,12.5,28,28s-12.5,28-28,28s-28-12.5-28-28C1.3,19.6,13.7,7.1,29,7C29.1,7,29.3,7,29.4,7z
	 M15.4,23.3V28h27.9v-4.6L15.4,23.3L15.4,23.3z M43.3,46.7v-14H15.4v14H20v-5.3c0-1.5,0.4-2.3,0.9-3c1.3-1.4,3.5-1.5,5-0.2
	c0.1,0.1,0.2,0.1,0.2,0.2c0.5,0.6,0.9,1.4,0.9,3v5.3h4.7v-5.3c0-1.5,0.4-2.3,0.9-3c1.3-1.4,3.5-1.5,5-0.2c0.1,0.1,0.2,0.1,0.2,0.2
	c0.5,0.6,0.9,1.4,0.9,3v5.3L43.3,46.7L43.3,46.7z"/>
<path class="st2" d="M75.4,23.1c0,5.1,7.3,6.1,12.7,9.3c3.4,1.9,6.2,5.1,6.2,10.4c0,7.6-6.2,12.4-13.1,12.4
	c-6.9,0-11.9-3.3-13.8-5.4l2.7-5.8h0.2c2.7,2.8,6.5,4.3,10.4,4.4c3,0,6.2-1.8,6.2-5.2c0-5.1-7.3-6.2-12.7-9.3
	c-3.4-1.9-6.2-5.1-6.2-10.4C68,15.8,74.3,11,81.3,11c4.8,0,9.5,1.8,13,5.1l-2.7,5.8h-0.2c-2.4-2.1-5.3-4.1-9.4-4.1
	C78.6,17.8,75.4,19.6,75.4,23.1L75.4,23.1z M95.4,30.1h7.1l4.2,12.3h0.2l6-17.1h4.8l6.3,17.3h0.2l6.1-17.3h6.8l-10.4,29.1h-4.7
	L115.5,36h-0.2l-6.4,18.3H104L95.4,30.1L95.4,30.1z M140.2,13.1h7.2v7h-7.2V13.1L140.2,13.1z M140.3,25.2h7v29.1h-7V25.2z
	 M163.5,55.2c-4,0-7.9-1.5-10.9-4.2l1.9-5.2h0.2c2.2,1.9,5,3.5,8.2,3.5c2.4,0,4-1,4-2.8c0-1.9-2-2.6-4.5-3.4c-4-1.3-9.3-3.2-9.3-9.3
	c0-5.6,4.4-9.4,10.6-9.4c3.5,0,6.9,1.3,9.7,3.5l-1.9,5.3h-0.2c-2.1-1.6-4.7-2.7-7-2.7c-2.7,0-4.3,1-4.3,2.8c0,1.9,2,2.6,4.5,3.4
	c4,1.3,9.3,3.2,9.3,9.3C173.8,51.4,169.4,55.2,163.5,55.2L163.5,55.2z M188.4,55.2c-4,0-7.9-1.5-10.9-4.2l1.9-5.2h0.2
	c2.2,1.9,5,3.5,8.2,3.5c2.4,0,4-1,4-2.8c0-1.9-2-2.6-4.5-3.4c-4-1.3-9.3-3.2-9.3-9.3c0-5.6,4.4-9.4,10.6-9.4c3.5,0,6.9,1.3,9.7,3.5
	l-1.9,5.3h-0.2c-2.1-1.6-4.7-2.7-7-2.7c-2.7,0-4.3,1-4.3,2.8c0,1.9,2,2.6,4.5,3.4c4,1.3,9.3,3.2,9.3,9.3
	C198.7,51.4,194.3,55.2,188.4,55.2L188.4,55.2z M230.7,25.2V67h-7V52.2c-2.1,1.9-4.8,3-7.7,3c-8.2,0-13.5-6.4-13.5-15.1
	c0-8.2,5.6-15.7,14.2-15.7c2.7,0,5.2,1,7.3,2.7h0.2v-1.8H230.7z M223.7,32.8c-1.6-1.4-3.7-2.1-5.9-2.1c-5,0-8.2,3.9-8.2,9.3
	c0,4.9,2.8,8.8,7.7,8.8c2.4,0,4.7-1,6.3-2.7C223.7,46.1,223.7,32.8,223.7,32.8z M243.5,42.6c0,2.5,0.4,3.6,1.1,4.5
	c1.9,2.2,5.3,2.4,7.5,0.5c0.2-0.2,0.4-0.3,0.5-0.5c0.7-0.9,1.1-2,1.1-4.5V25.2h7v16.6c0,4.7-1.3,7.7-3.4,9.8c-2.4,2.3-5.6,3.6-9,3.5
	c-3.2,0-6.2-1.2-8.5-3.4c-2.1-2.1-3.3-5.1-3.3-9.9V25.2h7V42.6L243.5,42.6z M265.6,40.1c0-9.3,6.3-15.7,15.1-15.7
	c8.8,0,15.1,6.5,15.1,15.1c0,9.3-6.3,15.7-15.1,15.7C271.9,55.2,265.6,48.7,265.6,40.1L265.6,40.1z M280.7,30.7c-4.7,0-8,3.9-8,9.1
	s3.3,9.1,8,9.1c4.7,0,8-3.9,8-9.1S285.4,30.7,280.7,30.7z M319.5,48.6V54c-2,0.8-4.1,1.2-6.2,1.2c-3.1,0-5.4-0.9-7-2.5
	c-1.7-1.7-2.5-4.2-2.5-8.6V31.3h-6.7v-6.1h6.7v-9.7h7v9.7h8.8v6.1h-8.8V45c0,1.5,0.3,2.4,0.8,2.9c0.8,1,2.2,1.2,3.8,1.2
	c1.3,0,2.7-0.2,4-0.5H319.5L319.5,48.6z M336.5,55.2c-8.5,0-14.8-6-14.8-15.1c0-8.4,5.1-15.7,14.1-15.7c7.7,0,12.8,6.1,12.8,14.5
	v2.3H329c0.2,4.5,3.3,7.9,7.9,7.9c3,0,5.7-1.2,8.2-3.3h0.2l2.6,4.8C345.2,53.6,341.1,55.2,336.5,55.2L336.5,55.2z M341.7,35.7
	c-0.1-3.1-2.6-5.5-5.7-5.4c0,0,0,0,0,0c-3.5,0-5.9,2.4-6.6,5.4H341.7L341.7,35.7z"/>
</svg>
