<?xml version="1.0" encoding="utf-8"?>
<!-- Generator: Adobe Illustrator 22.0.1, SVG Export Plug-In . SVG Version: 6.00 Build 0)  -->
<svg version="1.1" id="Layer_1" xmlns="http://www.w3.org/2000/svg" xmlns:xlink="http://www.w3.org/1999/xlink" x="0px" y="0px"
	 viewBox="0 0 650 120" style="enable-background:new 0 0 650 120;" xml:space="preserve">
<style type="text/css">
	.st0{fill:url(#SVGID_1_);}
	.st1{fill:#FFFFFF;}
	.st2{fill:#231F20;}
	.st3{fill:#67942D;}
</style>
<g>
	<g>
		<g>
			<g>
				
					<radialGradient id="SVGID_1_" cx="-374.8634" cy="-178.9673" r="11.3949" gradientTransform="matrix(4.7602 0 0 -4.8306 1840.4164 -804.5194)" gradientUnits="userSpaceOnUse">
					<stop  offset="0" style="stop-color:#BBD765"/>
					<stop  offset="0.9839" style="stop-color:#7AB34D"/>
				</radialGradient>
				<ellipse class="st0" cx="56.3" cy="60" rx="54.2" ry="55"/>
				<g>
					<path class="st1" d="M87.3,20.8C66.1,3.2,34.7,7,17.5,28.6C0.7,50.2,3.9,81.6,25.1,99s52.6,13.8,69.4-7.8
						C111.7,69.8,108.5,38,87.3,20.8z M91.7,89c-15.6,20-44.6,23.2-64.2,7.4S4.5,51,20.1,31c16-20,45-23.2,64.6-7.4
						C104.5,40,107.7,69,91.7,89z"/>
				</g>
			</g>
		</g>
		<g>
			<g>
				<path class="st1" d="M53.9,29c0,1.6,1.2,2.4,2.4,2.8V27c-2.4-0.4-3.6-1.2-3.6-3.2s1.6-3.6,3.6-3.6V19h0.8v1
					c2,0.4,2.8,1.6,3.2,3.2h-1.6c-0.4-1.2-0.8-1.6-2-2v4l1.2,0.4c0.8,0.4,2.8,1.2,2.8,3.2s-1.6,3.6-3.6,3.6V34h-0.8v-0.8
					c-2.4-0.4-3.6-1.6-4-4h1.6V29z M56.3,21.8c-1.2,0-2,0.8-2,2s0.8,1.6,2,2V21.8z M57.1,31.8c1.2,0,2-0.8,2-2s-0.8-1.6-2-2V31.8z"
					/>
			</g>
		</g>
		<g>
			<g>
				<path class="st1" d="M28.7,82.8h0.8c-0.4-0.8-0.8-1.6-0.8-2.8c0-2,2-3.6,4-3.6c2.4,0,4,1.6,4,4.4h-1.6c0-2-0.8-3.2-2.4-3.2
					c-1.2,0-2.4,0.8-2.4,2.4c0,1.2,0.4,1.6,0.8,2.8h2.8v0.8h-2.4c0,0.4,0.4,0.8,0.4,1.2c0,1.6-0.8,2.4-2,3.2l0,0
					c0.4-0.4,1.2-0.4,1.6-0.4c0.8,0,1.2,0,1.6,0.4c0.4,0,0.8,0.4,1.6,0.4c0.4,0,1.2-0.4,1.6-0.8l0.8,1.2c-0.8,0.4-1.6,0.8-2.4,0.8
					c-0.4,0-1.2,0-1.6-0.4c-0.4,0-1.2-0.4-1.6-0.4c-0.8,0-1.2,0.4-1.6,0.4l-1.2-0.8c0.8-0.8,2-1.6,2-3.2c0-0.4-0.4-1.2-0.4-1.6h-1.6
					C28.7,83.6,28.7,82.8,28.7,82.8z"/>
			</g>
		</g>
		<g>
			<g>
				<path class="st1" d="M83.7,78.4c-0.8-0.8-1.6-1.2-2.4-1.2s-1.6,0.4-2,1.2c-0.4,0.4-0.8,1.2-0.8,2.4h4.8L82.9,82h-4.4v0.4v0.4
					h4.4L82.5,84h-3.6c0.4,2.4,1.6,3.6,3.2,3.6c0.4,0,1.2,0,1.6-0.4c0.4,0,0.8-0.4,1.2-0.8V88c-1.6,0.4-2.8,0.4-3.6,0.4
					c-2.8,0-4.4-1.6-4.8-4.8h-1.2l0.4-1.2h0.8V82c0-0.4,0-0.4,0-0.4h-1.2l0.4-1.2h0.8c0.4-1.2,0.8-2.4,1.6-3.2
					c0.8-0.8,2-1.2,3.2-1.2s2,0.4,3.2,1.2L83.7,78.4z"/>
			</g>
		</g>
		<g>
			<g>
				<path class="st1" d="M25.5,53h-2.4v-1.2h2.4V51l-0.4-0.4h-2v-1.2h1.6l-2.8-5.8h2l2.8,6.2l2.8-6.2h1.6l-3.2,6.2h1.6V51h-2
					l-0.4,0.4v0.8h2.4v1.2h-2v2.8h-2C25.5,56.2,25.5,53,25.5,53z"/>
			</g>
		</g>
		<g>
			<g>
				<path class="st1" d="M87.7,47.8h-1.2c-0.8,0-0.8,0.4-1.2,0.8L84.9,51h1.6l-0.4,1.2h-1.6l-0.8,5.2c-0.4,3.2-1.2,4-3.2,4h-1.2
					l0.4-1.2c1.6,0,2,0,2.4-1.6l1.2-6.6h-1.6l0.4-1.2h1.6l0.4-2.4c0.4-1.2,1.2-2.4,2.8-2.4h1.2L87.7,47.8z"/>
			</g>
		</g>
		<path class="st1" d="M56.3,37.2c-9.2,0-16.4,7.8-16.4,16.8c0,5.8,7.2,13.8,7.2,17.6c0,2,0,1.6,0,3.2c0,2,1.6,3.2,3.2,3.2
			c0.8,0,10.8,0,12,0c2,0,3.2-1.6,3.2-3.2c0-2,0-1.2,0-3.2c0-3.6,7.2-11.4,7.2-17.6C72.7,45,65.5,37.2,56.3,37.2z M56.3,91.4
			c1.2,0,2.8-0.4,3.6-1.6c-2.4,0-4.8,0-7.2,0C53.5,91,54.7,91.4,56.3,91.4z M62.3,80c-1.2,0-10.8,0-12,0s-2,0.8-2,2s0.8,2,2,2
			s10.8,0,12,0s2-0.8,2-2S63.1,80,62.3,80z M62.3,84.8c-1.2,0-10.8,0-12,0s-2,0.8-2,2s0.8,2,2,2s10.8,0,12,0s2-0.8,2-2
			C64.3,85.6,63.1,84.8,62.3,84.8z"/>
	</g>
	<g>
		<path class="st2" d="M112.9,25.4h57.4V34h-24v63.2h-9.6V34h-24v-8.6H112.9z"/>
		<path class="st2" d="M216.5,97h-8.8V62.8c0-7-2-11.8-10.4-11.8c-7.2,0-14.4,4-14.4,17.6v28.6h-8.8V25.4l8.8-1.2V52l0,0
			c2.4-3.2,6.8-8.6,15.2-8.6c8,0,18,3.2,18,18.4v35.4h0.4V97z"/>
		<path class="st2" d="M221.7,35.2v-9.8h8.8v10.2h-8.8V35.2z M230.5,97h-8.8V45h8.8V97z"/>
		<path class="st2" d="M277.5,97h-8.8V64.8c0-9-2.4-13.8-10.8-13.8c-4.8,0-13.6,3.2-13.6,17.6v28.6h-8.8V45l8-1.2v8.6l0,0
			c2-2.8,6.8-9,15.6-9c8,0,18,3.2,18,18.4v35.4h0.4L277.5,97L277.5,97z"/>
		<path class="st2" d="M325.3,97h-11.2l-16-26.4l-7.2,6.6v20h-8.4V25.4l8.4-1.2V67l22-22h10.8l-19.6,19.6L325.3,97z"/>
	</g>
	<g>
		<path class="st3" d="M392.7,97.4h-12V43.2l0,0l-14,54.2h-11.6l-13.6-54.2l0,0v54.2h-12V25h19.6l12.4,52.2l0,0l12-52.2h19.2
			C392.7,25,392.7,97.4,392.7,97.4z"/>
		<path class="st3" d="M442.9,86.8c0,6.2,1.2,7.8,3.2,8.2v2h-14.8c-0.8-2.4-0.8-3.2-1.2-6.2c-3.2,3.2-7.6,7.8-16.8,7.8
			c-7.6,0-15.6-4.4-15.6-15.4c0-10.2,6.4-15.4,15.2-16.8l12.4-2c2-0.4,4.8-1.2,4.8-4c0-5.8-5.6-6.2-8.8-6.2c-6.8,0-8,4-8.4,7.4
			h-13.2c1.6-16.2,12.4-18.4,23.2-18.4c7.2,0,20.8,2.4,20.8,15v28.6C443.7,86.8,442.9,86.8,442.9,86.8z M429.7,71.8
			c-1.2,1.2-3.6,2-9.2,2.8c-5.2,0.8-9.2,2-9.2,7.8c0,4.8,3.6,6.6,6.4,6.6c6,0,12-4,12-10.6C429.7,78.4,429.7,71.8,429.7,71.8z"/>
		<path class="st3" d="M449.7,44.6h10.8v9l0,0c2.8-5.2,6-10.6,14.4-10.6c0.8,0,1.6,0,2.8,0v14.2c-1.2,0-2.8,0-4,0
			c-10.8,0-12.4,7-12.4,12.6V97h-11.2V44.6H449.7z"/>
		<path class="st3" d="M493.1,97.4h-10.8V25l10.8-1.6v42.4L510.7,45h15.2l-18.8,21.2l18.4,31.4h-14.8l-12-22l-5.6,5.8L493.1,97.4
			L493.1,97.4z"/>
		<path class="st3" d="M570.9,82c-3.6,12.6-14,16.8-22.8,16.8c-14.4,0-25.6-7-25.6-29c0-6.6,2-26.4,24.8-26.4
			c10.4,0,24.4,4.8,24.4,29v2.4h-36.8c0.4,4,2.4,13,13.2,13c3.6,0,8.8-2,10-5.8H570.9z M558.5,65.8c-0.8-8.6-7.2-11-11.6-11
			c-6.4,0-10.8,4-11.6,11H558.5z"/>
		<g>
			<path class="st3" d="M598.3,54.2v-9.8h-9.2V30.2l-10.8,1.6v12.6h-10.4c2,2.4,4,5.8,5.2,9.8h5.2v32.6c0,6.6,0.8,11,12.4,11h1.6
				c2,0,4,0,6.4,0V87.6c-0.8,0-2,0-2.8,0c-5.2,0-6.8-1.2-6.8-4V54.2C589.1,54.2,598.3,54.2,598.3,54.2z"/>
		</g>
		<path class="st3" d="M632.9,61.6c-0.4-3.2-2-7.8-9.2-7.8s-8.4,2.8-8.4,5.2c0,8.2,32.6,2.4,32.6,21.6c0,15.4-14.4,18.4-22.8,18.4
			c-11.6,0-22-2.8-22.4-16.8h11.6c0,4.4,2.4,6.2,11.2,6.2c7.2,0,8.8-3.6,8.8-5.2c0-9-32.2-2-32.2-22c0-7.8,4.8-17.6,20.8-17.6
			c10,0,21.2,3.2,22.4,18.4h-12.4V61.6z"/>
	</g>
</g>
</svg>
