<?xml version="1.0" encoding="utf-8"?>
<!-- Generator: Adobe Illustrator 22.0.1, SVG Export Plug-In . SVG Version: 6.00 Build 0)  -->
<svg version="1.1" id="图层_1" xmlns="http://www.w3.org/2000/svg" xmlns:xlink="http://www.w3.org/1999/xlink" x="0px" y="0px"
	 viewBox="0 0 380 100" style="enable-background:new 0 0 380 100;" xml:space="preserve">
<style type="text/css">
	.st0{fill:#303030;}
	.st1{fill:#CC0000;}
</style>
<path class="st0" d="M111.3,37.2v33.8h-9.4V37.2H90.1V29h33.1v8.1C123.2,37.2,111.3,37.2,111.3,37.2z M130,29h9.4V71H130
	C130,71,130,29.1,130,29z M168.9,62.7c4.6,0,8.4-1.8,11.3-5.5l6,6.2c-4.8,5.4-10.4,8-16.8,8c-6.5,0-11.8-2-16-6.1s-6.3-9.2-6.3-15.4
	s2.1-11.4,6.4-15.6c4.3-4.2,9.5-6.2,15.6-6.2c6.9,0,12.6,2.6,17.3,7.9l-5.8,6.6c-3-3.7-6.6-5.5-11-5.5c-3.5,0-6.5,1.1-9,3.4
	s-3.7,5.4-3.7,9.3s1.2,7,3.5,9.4S165.6,62.7,168.9,62.7z M193.6,29.1h9.4v17.2l15.8-17.2h11.6l-16.7,18.5c1.4,2,4.1,5.7,8,11.2
	s6.8,9.5,8.7,12.2h-10.9l-12.3-16.6l-4.2,4.7V71h-9.4L193.6,29.1L193.6,29.1z M273.7,44.6l-11.3,22.9h-5.6l-11.3-22.9V71h-9.4V29.1
	h12.7l10.8,23l10.9-23h12.6V71h-9.4L273.7,44.6L273.7,44.6z M293.4,29.1h9.4V71h-9.4V29.1z M313.1,71V29.1h9.4v33.6h17.9v8.3
	C340.4,70.9,313.1,70.9,313.1,71z M347.2,71V29.1h9.4v33.6h17.9v8.3C374.5,70.9,347.2,70.9,347.2,71z"/>
<path class="st1" d="M22.2,42c0-0.8,0.6-1.8,1.3-2.2l13.8-8c0.7-0.4,1.8-0.4,2.5,0l12.1,7l17-9.8c-0.1-0.1-0.2-0.2-0.4-0.3
	L41.6,12.8c-1.7-1-4.5-1-6.1,0L8.6,28.8c-1.7,1-3.1,3.5-3.1,5.5v31.3l16.7-9.6C22.2,55.9,22.2,42,22.2,42z M54.8,44.2v13.9
	c0,0.8-0.6,1.8-1.3,2.2l-13.8,8c-0.7,0.4-1.8,0.4-2.5,0l-12.1-7l-17,9.8c0.1,0.1,0.2,0.2,0.4,0.3l26.9,15.8c1.7,1,4.5,1,6.1,0
	l27-15.8c1.7-1,3.1-3.5,3.1-5.5V34.6L54.8,44.2z"/>
</svg>
