<?xml version="1.0" encoding="utf-8"?>
<!-- Generator: Adobe Illustrator 22.0.1, SVG Export Plug-In . SVG Version: 6.00 Build 0)  -->
<svg version="1.1" id="图层_1" xmlns="http://www.w3.org/2000/svg" xmlns:xlink="http://www.w3.org/1999/xlink" x="0px" y="0px"
	 viewBox="0 0 500 100" style="enable-background:new 0 0 500 100;" xml:space="preserve">
<style type="text/css">
	.st0{fill:#F37621;}
	.st1{fill:#1F2427;}
</style>
<g id="_x23_f37621ff">
	<path class="st0" d="M432.6,7.9c7.8-3.6,17.9,2.7,17.9,11.3c0.6,6.9-5.3,13.5-12.2,13.6c-6.6,0.5-12.9-4.9-13.5-11.5
		C423.9,15.8,427.4,10.1,432.6,7.9z"/>
</g>
<g id="_x23_1f2427ff">
	<path class="st1" d="M217.9,13.2c2.2-0.3,4.3-0.6,6.5-0.9c0,25.7,0,51.4,0,77.1c-8.6,2.4-17.9,3.8-26.7,1.8
		c-9.3-2.2-16.2-10.6-17.5-19.9c-1.5-9.5-0.2-20.5,6.9-27.7c7.9-8.1,21.4-7.9,30.6-2.4C217.8,31.8,217.4,22.5,217.9,13.2
		 M193.8,46.3c-5.3,3.8-6.8,10.8-7.1,16.9c-0.2,7.1,1.5,15.1,7.7,19.4c6.8,4.8,15.6,3.5,23.3,2c-0.2-12.3,0.4-24.7-0.3-36.9
		C210.7,43,200.8,41.4,193.8,46.3z"/>
	<path class="st1" d="M49.5,20.5c17.3,0,34.5,0,51.8,0c0,2.1,0,4.1,0,6.2c-7.4,0-14.9,0-22.3,0c0,21.4,0,42.8,0,64.2
		c-2.3,0-4.7,0-7.1,0.1c0-21.4,0-42.8,0-64.2c-7.5,0-14.9,0-22.4,0C49.5,24.6,49.5,22.5,49.5,20.5z"/>
	<path class="st1" d="M291.1,25.6c7.6-8.6,23-7.6,29.8,1.6c5.3,7,4.7,17.9-1.9,23.9c4.4,2.9,8.5,7,9.7,12.3
		c1.7,7.8-0.5,16.6-6.1,22.4c-9.6,10.4-28.9,9.3-36.9-2.5c-2.8-3.9-3.9-8.6-4.5-13.3c4.3,0,8.5,0,12.8,0c0.9,2.9,1.5,6.1,3.8,8.2
		c3.6,3.3,9.4,3.4,13.5,1.2c6.8-4.1,6.6-15.5-0.1-19.6c-3.2-2.2-7.2-1.8-10.8-1.9c0-4,0-8,0-12c3.1-0.3,6.7,0.2,9.1-2.2
		c3.7-3.5,2.4-12-3.5-12c-4-0.7-6.3,3-7.2,6.3c-4.2,0-8.5,0-12.7,0C286.6,33.6,287.7,28.9,291.1,25.6z"/>
	<path class="st1" d="M390.2,32.4c4.8-10.2,17.8-15.5,28.2-11.1c1,4.5,2.7,9,6.3,12c2.5,2.5,6.2,2.9,9.1,4.6
		c1.4,2.9,1.1,6.2,1.1,9.3c-0.1,8,0.1,16.1-0.1,24.1c-0.2,5.7-2.7,11.3-6.8,15.3c-9.9,9.8-28.5,8.4-36.3-3.3
		c-5.4-7.5-4.1-17.2-4.2-25.9C387.9,49,386.5,40.2,390.2,32.4 M407,32.5c-4.3,1.6-6.2,6.3-6.3,10.6c-0.2,7.4,0,14.8-0.1,22.2
		c0.1,3.8-0.1,7.9,2,11.3c3.8,6.2,14.6,6,17.9-0.6c2.5-4.8,1.4-10.5,1.6-15.7c-0.3-7,0.6-14-0.6-21C420.3,32.9,412.6,30,407,32.5z"
		/>
	<path class="st1" d="M337.4,54.9c6.6-11.5,14.4-22.2,21.4-33.4c5,0,10.1,0,15.1,0c-5.1,7.7-10.1,15.5-15.3,23.2
		c5.4-0.2,11.2,0.7,15.4,4.4c8.9,7.1,10.8,20.5,5.9,30.5c-3.1,6.1-8.6,11-15.3,12.7c-6.9,1.8-14.6,0.8-20.5-3.3
		C333.4,81.7,330.8,65.8,337.4,54.9 M355.2,56.9c-7.4,1.6-10.8,10.8-7.4,17.2c2.4,5.6,9.4,8.6,15,6c7.5-3.1,9.1-14,3.9-19.8
		C363.9,57.1,359.3,56,355.2,56.9z"/>
	<path class="st1" d="M104.2,40.5c8.7-3.6,18.5-4,27.6-1.9c-0.4,1.8-0.8,3.7-1.2,5.6c-6.7-1-13.6-1.5-20.1,0.5c0,15.4,0,30.7,0,46.1
		c-2.2,0-4.5,0-6.7,0c0-15.2,0-30.4,0-45.6C103.8,43.7,103.6,42,104.2,40.5z"/>
	<path class="st1" d="M138.3,39.1c7.9-2.1,16.9-3.5,24.5,0.2c5.9,2.9,8.3,9.7,8.4,15.9c0.1,11.5,0,23,0.1,34.4
		c-7.4,1.5-15,2.7-22.6,2.1c-4.5-0.4-9.2-1.8-12.3-5.2c-3.8-4.1-4.6-10.2-3.4-15.5c1.1-4.8,5-8.4,9.5-10c7.1-2.5,14.8-2.2,22-0.5
		c-0.1-5.6,0.2-12.6-5.4-15.8c-6.2-3.2-13.6-1.6-19.9,0.4C138.9,43.2,138.6,41.1,138.3,39.1 M144.5,67c-7.1,3.2-6.7,15.2,0.8,17.8
		c6.2,2.1,12.9,1,19.2,0.4c0-6.2,0-12.4,0-18.6C158,64.9,150.8,64.1,144.5,67z"/>
	<path class="st1" d="M240,44.6c7.7-9.5,24.1-10.2,32.1-0.8c5,6.2,5.5,14.5,5.2,22.2c-12.3,0.1-24.6,0-36.9,0
		c0.5,6.4,2.1,14,8.2,17.4c7.4,3.9,16.4,2.8,23.9-0.2c0.4,2,0.8,4,1.1,5.9c-8.6,3.2-18.5,4.1-27.1,0.4c-6.2-2.7-10.6-8.7-12-15.2
		C232.2,64.3,233.1,52.7,240,44.6 M247.2,46.6c-4.1,3.4-6,8.7-6.4,13.8c9.9-0.7,19.9-0.2,29.9-0.4c-0.5-4.4-1.1-9.1-4.1-12.6
		C261.8,41.8,252.5,41.7,247.2,46.6z"/>
</g>
</svg>
