<?xml version="1.0" encoding="utf-8"?>
<!-- Generator: Adobe Illustrator 22.0.1, SVG Export Plug-In . SVG Version: 6.00 Build 0)  -->
<svg version="1.1" id="图层_1" xmlns="http://www.w3.org/2000/svg" xmlns:xlink="http://www.w3.org/1999/xlink" x="0px" y="0px"
	 viewBox="0 0 660 100" style="enable-background:new 0 0 660 100;" xml:space="preserve">
<style type="text/css">
	.st0{fill:#0089CF;}
</style>
<g id="_x23_0089cfff">
	<path class="st0" d="M544.5,0.6c5.9-2,12.8,3.1,11.7,9.4c-0.6,7.1-10.4,9.9-15.3,5.2C536,11,538.1,1.9,544.5,0.6z"/>
	<path class="st0" d="M363,16c1.8-7,8.3-11.9,15.2-13.5c10.2-2.3,21.4-0.9,30.7,4c-1.5,4.3-3.1,8.6-4.6,12.9
		c-6.5-2.6-13.8-4.9-20.8-3c-3.1,0.7-5.1,4.5-3.3,7.2c1.9,2.2,4.8,3,7.4,3.9c6.9,2.1,14.1,4.2,19.4,9.4c5.5,5.7,6.1,14.8,3.2,21.9
		c-3.1,7-10.6,11-18,12c-10.5,1.4-21.6,0-31-5c1.5-4.4,3.1-8.7,4.6-13.1c6.7,3,14.1,4.9,21.4,4.1c3.1-0.4,7.1-2.2,6.9-5.9
		c0.2-3.4-3.5-4.8-6.1-5.8c-6.9-2.3-14.5-3.9-20.1-9C362.4,31.2,361.3,22.9,363,16z"/>
	<path class="st0" d="M0.9,25.3c0-11.5,9.6-22.1,21.2-22.6c12.2-0.3,24.5,0,36.7-0.1C51.1,24.2,43.3,46,35.6,67.7
		c-11.4-10.6-15.1-28.1-9-42.5C18,25.3,9.4,25.3,0.9,25.3z"/>
	<path class="st0" d="M57.8,25.3c2.7-7.6,5.4-15.1,8.1-22.8c10.9,0,21.9,0,32.9,0c0.3,11-8.6,21.3-19.6,22.5
		C72,25.6,64.9,25.1,57.8,25.3z"/>
	<path class="st0" d="M128.6,5.7c3-2.3,6.9-2.9,10.6-2.9c14.8,0,29.6,0,44.4,0c-0.4,5-2.6,10-7,12.6c-4.5,3-10.1,2-15.2,2.1
		c0,17.5,0,35,0,52.5c-6,0-12,0-18,0c0-17.5,0-35,0-52.5c-6.9,0-13.8,0-20.7,0C122.8,12.9,124.7,8.3,128.6,5.7z"/>
	<path class="st0" d="M289.3,2.5c5.3,0,10.7,0,16,0c0,22.5,0,45,0,67.5c-5,0-10,0-15,0c-0.1-1.5-0.2-3-0.3-4.6
		c-7.2,8.9-22.3,7.4-28.8-1.5c-5.5-7.2-6.4-17.2-3.9-25.7c2.6-8.5,10.6-15.7,19.7-15.3c4.6-0.3,9,1.8,12.3,5
		C289.3,19.5,289.3,11,289.3,2.5 M278.5,37.6c-4.8,1.3-7.2,6.8-6.3,11.4c0.5,5.5,6.5,9.5,11.7,7.6c6.6-2,8.1-11.4,3.9-16.4
		C285.6,37.6,281.8,36.6,278.5,37.6z"/>
	<path class="st0" d="M418.3,12.5c5.3,0,10.7,0,16,0c0,3.9,0,7.8,0,11.8c5,0,10,0,15,0c-0.5,3.5-1.5,7.2-4.4,9.6
		c-2.8,2.8-6.9,3.3-10.6,3.3c0.5,5.8-0.9,12,1,17.6c2.7,4.1,8.6,2.1,12.4,0.8c0.5,4.5,1.1,9,1.6,13.5c-6.8,2.5-14.5,3.4-21.5,1.3
		c-5.3-1.7-8.6-6.9-9.1-12.3c-0.7-6.9-0.1-13.9-0.3-20.9c-1.5,0-3,0-4.5,0c0-4.2,0-8.5,0-12.8c1.5,0,3,0,4.5,0
		C418.3,20.3,418.3,16.4,418.3,12.5z"/>
	<path class="st0" d="M503.3,12.5c5.3,0,10.7,0,16,0c0,3.9,0,7.8,0,11.8c4.9,0,9.8,0,14.7,0.1c-0.4,4-1.9,8.1-5.4,10.4
		c-2.6,2.1-6.1,2.3-9.4,2.3c0.1,4.9-0.1,9.8,0.1,14.8c0.1,2,1,4.2,3.1,4.8c3.4,0.9,6.8-0.1,10-1.2c0.5,4.5,1.1,8.9,1.6,13.4
		c-7.1,2.7-15.4,3.7-22.6,0.9c-5.5-2.2-8.1-8.2-8.2-13.8c-0.1-6.3,0-12.6,0-18.9c-1.6,0-3.2,0-4.8,0c0-4.2,0-8.5,0-12.7
		c1.6,0,3.2,0,4.8,0C503.3,20.3,503.3,16.4,503.3,12.5z"/>
	<path class="st0" d="M212.1,26.4c8.5-3.6,18.4-4.7,27.2-1.6c6.7,2.4,11,9.1,11.5,16.1c0.6,9.7,0.1,19.5,0.3,29.2
		c-4.9,0-9.9,0-14.8,0c0-1,0.1-2.9,0.1-3.9c-5.8,6.1-15.9,7.1-23,2.8c-8-5.3-7.5-19,0.6-24c6.6-4.4,15.1-3.4,22.3-1.3
		c-0.9-2.7-1.8-5.9-4.7-7c-6.5-2.5-13.7-0.4-19.4,3C212.1,35.2,212,30.8,212.1,26.4 M222.9,54.1c-2,4.2,3,7.7,6.8,6.4
		c3.8-0.7,5.6-4.5,6.4-8C231.9,51.2,225.8,49.8,222.9,54.1z"/>
	<path class="st0" d="M314.7,32.6c4.2-6.3,11.9-9.8,19.4-9.6c6.8-0.3,14,2.2,18.1,7.8c4.4,5.8,5.2,13.5,4.1,20.5
		c-10.1,0.1-20.2-0.1-30.2,0.1c1.5,3,3.8,5.7,7.1,6.6c7.2,1.9,14.8,0.6,21.6-2.1c0,4.3,0,8.5,0,12.8c-8.9,3-18.6,3.8-27.7,1.3
		c-7.6-2.1-14.1-8.2-15.9-16C309.7,46.8,310.4,38.7,314.7,32.6 M325.9,41.5c5.4,0,10.7,0.1,16.1-0.1c-0.8-4.1-4.4-8-8.9-7.1
		C329.1,34.5,326.9,38.1,325.9,41.5z"/>
	<path class="st0" d="M457.1,26.4c8.5-3.7,18.4-4.7,27.2-1.6c6.7,2.4,11,9.1,11.4,16.1c0.6,9.7,0.1,19.5,0.3,29.2
		c-4.9,0-9.9,0-14.8,0c0-1,0.1-3,0.1-3.9c-5.6,6-15.3,7-22.4,3.2c-6-3.4-7.6-11.5-5.4-17.6c2-5.6,7.7-9,13.4-9.7
		c4.8-0.8,9.6,0.4,14.2,1.7c-0.8-2.8-1.9-5.9-4.8-7.1c-6.4-2.5-13.6-0.4-19.4,3C457.1,35.2,457,30.8,457.1,26.4 M471.5,51.5
		c-2,0.5-4.3,2.1-4,4.5c-0.3,3.9,4.8,5.7,7.9,4.3c3.5-1,4.8-4.6,5.7-7.7C478,51.6,474.7,50.7,471.5,51.5z"/>
	<path class="st0" d="M578.5,23.6c8.6-1.8,18.4-0.1,24.7,6.3c9,8.7,9.3,24.7,0.6,33.8c-9.7,10.5-28.5,10.3-38-0.4
		c-7.2-8-7.9-20.7-2-29.6C567.1,28.5,572.6,25,578.5,23.6 M582.5,37.6c-6.5,1.8-8.5,10.6-4.8,15.7c2.8,4.3,9.5,5,13.1,1.6
		c3.4-3.2,4.1-8.7,2-12.8C591.1,38.3,586.4,36.4,582.5,37.6z"/>
	<path class="st0" d="M630,29.4c5-7.6,16.7-8.5,23.6-3.1c5.7,5.2,5.5,13.6,5.4,20.7c0,7.7,0,15.4,0,23c-5.3,0-10.7,0-16,0
		c0-7.7,0-15.4,0-23c-0.1-2.5,0-5.3-1.5-7.5c-2.1-3-7.1-3-9.3-0.1c-1.8,2.1-1.9,5-2,7.6c0,7.7,0,15.4,0,23.1c-5.3,0-10.7,0-16,0
		c0-15.2,0-30.5,0-45.8c5.2,0,10.5,0,15.8,0C630.1,26,630,27.7,630,29.4z"/>
	<path class="st0" d="M175.3,24.3c5.1,0,10.3,0,15.5,0c0.1,2,0.2,4,0.3,6c2.8-5.6,9.3-7.8,15.2-6.5c0,5.2,0,10.5,0,15.7
		c-3.6-0.9-7.9-1.9-11.1,0.6c-3.1,2.3-3.8,6.4-3.9,10c0,6.7,0,13.4,0,20c-5.3,0-10.7,0-16,0C175.3,54.8,175.3,39.5,175.3,24.3z"/>
	<path class="st0" d="M539.1,24.3c5.4,0,10.8,0,16.2,0c0.1,15.2,0,30.5,0,45.8c-5.4,0-10.8,0-16.2,0
		C539.1,54.8,539.1,39.5,539.1,24.3z"/>
	<path class="st0" d="M31.2,99.9C39.1,77.6,47.1,55.3,55,33c5.6,4.8,10.1,11,12.2,18.1c3.7,11.9,1.2,25.6-6.9,35.2
		C53.3,94.9,42.3,99.9,31.2,99.9z"/>
</g>
</svg>
