<?xml version="1.0" encoding="utf-8"?>
<!-- Generator: Adobe Illustrator 22.0.1, SVG Export Plug-In . SVG Version: 6.00 Build 0)  -->
<svg version="1.1" id="图层_1" xmlns="http://www.w3.org/2000/svg" xmlns:xlink="http://www.w3.org/1999/xlink" x="0px" y="0px"
	 viewBox="0 0 600 140" style="enable-background:new 0 0 600 140;" xml:space="preserve">
<style type="text/css">
	.st0{fill:#EA1D2C;}
</style>
<g id="_x23_ea1d2cff">
	<path class="st0" d="M49.9,4.3c15.5-2.6,31.3,2,44.5,10.2c15.8,9.9,28.4,24.8,36,41.9c6.1,14,8.6,29.9,5.3,45
		c-2.8,13.1-11.5,25.1-23.8,30.8c-12.8,6-27.8,5.2-40.8,0.5c-19.3-7-35.3-21.7-45.7-39.2c-9.3-15.8-14.1-34.7-10.8-52.9
		c2.1-10.9,7.8-21.4,16.7-28.1C36.8,8.2,43.2,5.5,49.9,4.3 M52,44.7c3.8,5.8,7.5,11.6,11.2,17.5c13.2,0,26.4,0,39.6,0
		c4-5.9,8.1-11.7,12.2-17.5C94.1,44.6,73.1,44.6,52,44.7 M28.9,44.7c10,16.1,19.9,32.3,29.8,48.5c3.2-5.2,7-10.1,9.7-15.6
		c-6.6-11.2-13.8-21.9-20.7-32.9C41.5,44.7,35.2,44.6,28.9,44.7 M81.8,66.7C75.2,76.9,68.7,87.3,62,97.5c3.3,5.5,6.7,11,9.9,16.5
		c9.9-15.6,19.1-31.6,28.9-47.3C94.4,66.6,88.1,66.7,81.8,66.7z"/>
</g>
<g id="_x23_000000ff">
	<path d="M406.3,43.2c12.4-5.2,28-2.3,36.9,8.1c-2.6,2.4-5.1,4.9-7.6,7.4c-4.5-4.6-10.6-7.8-17.2-7.5c-6.7,0.1-13.2,3.9-16.4,9.7
		c-3.7,6.5-2.8,15.3,2,21.1c5.7,7.1,16.6,9.2,24.6,4.9c2.8-1.6,4.7-4.4,6.4-7.1c-5.4-0.1-10.8,0-16.2,0c0-3.4,0-6.8,0-10.2
		c9.4,0,18.7,0,28.1,0c0.6,7.9-2.3,15.9-7.8,21.6c-9.6,10.3-26.9,10.4-38.1,2.6c-9.1-6.5-13.6-18.5-11.6-29.4
		C391.2,55.1,397.8,47,406.3,43.2z"/>
	<path d="M195.6,42.2c3.7-0.1,7.3,0,11,0c-6.5,18.6-13.3,37.2-20,55.8c-3.4,0-6.8,0-10.2,0c-6.6-18.6-13.3-37.2-19.8-55.8
		c3.7,0,7.3,0,11,0c4.7,13.2,9.4,26.3,13.9,39.5C186.2,68.5,191,55.4,195.6,42.2z"/>
	<path d="M220.4,42.1c3.6,0,7.1,0,10.7,0c7.3,18.5,14.3,37.2,21.5,55.8c-3.7,0-7.4,0-11.1,0c-1.4-3.9-2.8-7.8-4.5-11.6
		c-7.4,0-14.8,0-22.2,0c-1.7,3.8-3.2,7.8-4.8,11.6c-3.7,0-7.4,0-11.1,0C206.1,79.3,213.2,60.7,220.4,42.1 M225.7,57.2
		c-2.3,6.3-4.8,12.5-7.2,18.8c4.9,0,9.8,0,14.8,0C230.7,69.8,228.5,63.4,225.7,57.2z"/>
	<path d="M256.9,42.1c3.4,0,6.7,0,10.1,0c8,12.1,15.9,24.3,23.8,36.5c0.1-12.2,0-24.4,0.1-36.5c3.6,0,7.2,0,10.8,0
		c0,18.6,0,37.1,0,55.7c-3.4,0-6.9,0-10.3,0c-7.9-12.1-15.9-24.1-23.6-36.3c-0.1,12.1,0,24.2-0.1,36.3c-3.6,0-7.2,0-10.8,0
		C256.9,79.3,256.9,60.7,256.9,42.1z"/>
	<path d="M537.8,42.1c4,0,8,0,12,0c4,5.9,7.9,11.9,11.8,17.9c3.9-6,7.8-12,11.9-17.9c4,0,8,0,11.9,0c-6,9-11.9,18-17.7,27.1
		c6.3,9.5,12.5,19.2,18.8,28.7c-4,0-8,0-12,0c-4.4-6.5-8.6-13.1-12.9-19.6c-4.2,6.6-8.5,13.1-12.8,19.6c-4,0-8.1,0-12.1,0
		c6.3-9.5,12.6-19,18.7-28.6C549.9,60,543.6,51.2,537.8,42.1z"/>
	<path d="M308,52.8c0-3.6,0-7.1,0-10.7c10.3,0.1,20.5,0,30.8,0c0,3.6,0,7.1,0,10.7c-3.4,0-6.7,0-10.1,0c0.1,15,0,30,0,45.1
		c-3.6,0-7.3,0-10.9,0c0-15,0-30.1,0-45.1C314.5,52.8,311.2,52.8,308,52.8z"/>
	<path d="M335.7,97c7.4-18.2,14.2-36.7,21.4-54.9c3.6,0,7.1,0,10.7,0c7.3,18.5,14.2,37.2,21.5,55.8c-3.7,0-7.4,0-11.1,0
		c-1.5-3.9-3-7.8-4.5-11.6c-7.5,0-14.9,0-22.4,0c-1.6,3.9-3.1,7.7-4.7,11.6c-3,0-6-0.1-9,0.1C336.8,100.1,336.2,98.2,335.7,97
		 M355.6,74.8c-0.3,0.3-0.8,0.8-1,1c5.1,0.2,10.2,0.1,15.4,0.1c-2.6-6.3-5-12.7-7.5-19C360.3,63,357.9,68.9,355.6,74.8z"/>
	<path d="M452,42.1c10,0,19.9,0.1,29.9,0c0.2,0.3,0.5,1,0.7,1.3c-0.4,3-0.3,5.9,0.1,8.9c-6.6,1-13.3,0.3-20,0.5c0,3.3,0,6.7,0,10
		c6.6,0,13.3-0.1,19.9,0.1c0,3.4-0.1,6.7-0.4,10.1c-6.5,0-13,0-19.5,0c0,4.8,0,9.6,0,14.5c6.5,0,13,0,19.5,0
		c0.5,3.5,0.5,7.1,0.1,10.6c-10.1,0-20.2,0-30.2,0C452,79.3,452,60.7,452,42.1z"/>
	<path d="M507.6,78.5c0.3-12.1,0-24.3,0.1-36.4c9.2,0.1,18.3,0,27.5,0c0,3.5,0,7.1,0,10.6c-5.7,0-11.3,0-17,0c0,3.4,0,6.7,0,10.1
		c5.7,0,11.4,0,17.1,0c0,3.4,0,6.8,0,10.2c-5.7-0.1-11.4,0-17,0c0,8.4,0,16.7,0,25c-3.5,0-7,0-10.4,0
		C507.6,91.4,507.8,85,507.6,78.5z"/>
</g>
</svg>
