<?xml version="1.0" encoding="utf-8"?>
<!-- Generator: Adobe Illustrator 22.0.1, SVG Export Plug-In . SVG Version: 6.00 Build 0)  -->
<svg version="1.1" id="Layer_1" xmlns="http://www.w3.org/2000/svg" xmlns:xlink="http://www.w3.org/1999/xlink" x="0px" y="0px"
	 viewBox="0 0 360 100" style="enable-background:new 0 0 360 100;" xml:space="preserve">
<style type="text/css">
	.st0{fill:#FF0000;}
</style>
<g>
	<g>
		<g>
			<polygon points="198,27.6 190,10 162,10 179.2,45.4 			"/>
			<path d="M264.2,10h-49.8l-68.2,80h27.2l17.8-21.2L201,90h46.8l6.2-35.6l5.6,19.6l17-20.4L264.2,10z M226,83.6l-16.6-35.4l28.8-33
				L226,83.6z"/>
			<polygon points="306.8,10 261.2,79.2 284,79.2 301.4,52 294.8,90 317.8,90 331.8,10 			"/>
		</g>
		<g>
			<path class="st0" d="M64.2,13c-0.4,3.4-0.8,7.6-0.6,11.2c0.6,5.2,3.8,8,8.2,9.6c1.4,0.6,3.2,1.2,5,0.8c0.8-0.2,1.4-0.8,1.8-1
				c1.4-1,3.2-1.8,5.4-2c3.2-0.4,6.4,0.4,8.8,1c2.2,0.6,5.2,1.6,7.2,2.8c1,0.6,1.8,1.6,2.4,2.6c1,1.6,1.4,4.6,3.6,5
				c0.6-2.4,0.2-4.8,0.2-7.4c0.2-2.4,0.6-4.8,1-6.8c0.6-3,1.4-6.2,2.4-9.2c0.2-0.4,0.6-2.8,1.4-2.4c0.4,0.2,0.4,1.2,0.2,1.6
				c0,2-0.2,3.4-0.4,5.4c-0.4,4.8-0.4,10.2,0.4,14.2c0.4,2.2,1,4.4,0.8,6.8c0,0.6-0.4,1.4-0.6,2.2c-0.2,0.6,0,1-0.2,1.6
				s-0.8,1.6-1.4,2.4c-0.2,0.2-0.4,0.6-0.6,1.2c-0.2,0.4-0.6,0.6-0.6,1.2c0,0.8,1.6,2.2,2.2,2.4c3.2,1,7,1.4,8.8,3.4
				c1.2,1.2,2,2.6,2.2,4.6c0.2,1.8-0.4,3.2-1.2,4.8c-0.4,1-1,3.6-1.6,4.2c-0.6,0.4-1.6,0.2-2.2,0.6c-0.2,1-0.6,1.6-0.8,2.8
				c-0.6,0.8-1.4,1.2-2,2c0.2,1.8-1,2.2-2.4,2.2c-4.2,3.4-12.8,1.2-16.4-1.2c-1.8,1.2-3.8,2.4-3.6,5.6c1.6,0.8,2.8,1.8,4.6,2.4
				c2.4,0.8,5.4,0.4,7,1.8c0.2,0.2,0.2,0.2,0.4,0.4h12.2l34.8-40.4L132.4,10h-68C64.2,11,64.2,12,64.2,13z"/>
			<path class="st0" d="M32.2,89.4c2.2-2.4,5.4-4,8.6-5.2c2.4-1,5-2,6.8-3.6c0.8-0.6,1.6-1.4,2.4-1.6c2-0.2,3.8,0.6,5.2,0.8
				c4,0.8,7-1.2,9-3.2c1-1,2.2-2,2.8-3.6c0.8-1.8,0.4-4,0.4-6.4c0-4.6,1.8-7.8,1.8-12c0-2.2-0.6-4.4-0.2-6.6c-2.2-1-4.8-2-6.6-4
				c-1.8-2-3.8-5.6-3.2-8.8c-1.4-2-2.6-5-2.6-8.2s1-6,1.8-9c0.8-2.6,1.6-5.2,2.4-7.8H45.4L28.2,89.8h3.6C32,89.6,32,89.6,32.2,89.4z
				"/>
		</g>
	</g>
</g>
</svg>
