<?xml version="1.0" encoding="utf-8"?>
<!-- Generator: Adobe Illustrator 22.0.1, SVG Export Plug-In . SVG Version: 6.00 Build 0)  -->
<svg version="1.1" id="图层_1" xmlns="http://www.w3.org/2000/svg" xmlns:xlink="http://www.w3.org/1999/xlink" x="0px" y="0px"
	 viewBox="0 0 1000 320" style="enable-background:new 0 0 1000 320;" xml:space="preserve">
<style type="text/css">
	.st0{fill:#f8313e;}
</style>
<g id="_x23_c23325ff">
	<path class="st0" d="M102.5,10c100.6,0,201.2,0,301.8,0c0,100,0,200,0,300c-100.6,0-201.2,0-301.8,0C102.5,210,102.5,110,102.5,10
		 M296.3,96.3c-1.9,0.3-3.2,1.8-4.5,3c-10.6,9.8-22,18.7-33.6,27.2c-9.3-5.1-18.7-9.9-28.3-14.5c-1.4-0.6-2.8-1.5-4.4-1
		c-30.6,6.1-61.1,12.2-91.7,18.3c25.7,6.8,50.8,15.6,74.8,26.9c-27.7,14.7-57.4,25.4-87.7,33.5c29.9,6.1,59.9,11.9,89.8,18
		c1.6,0.3,3.3,0.8,4.8-0.1c14.9-7,29.5-14.8,43.6-23.3c16.5,10.9,32.2,23,46.7,36.4c1.2,1.2,2.7,2,4.3,2.2
		c25.4,4.7,50.8,9.7,76.2,14.3c-23.5-31.8-52.3-59.4-84.3-82.6c26.8-21.1,51-45.5,71.3-72.9C347.7,86.6,322,91.4,296.3,96.3z"/>
</g>
<g id="_x23_000000ff">
	<path d="M648.2,24.4c15.1,0,30.1,0,45.2,0c0,14.1,0,28.2,0,42.3c7.8,0,15.5,0,23.3,0c0,11.5,0,22.9,0,34.4c-7.8,0-15.5,0-23.2,0
		c0,16.1,0,32.2,0,48.3c0,6-0.3,12.1,1.2,17.9c0.8,3,2.4,5.9,5.2,7.3c5,2.8,10.9,2,16.3,1.9c0,9.7,0,19.4,0,29.1
		c-14,3-28.9,5.2-43,1.5c-8.7-2.2-16.5-7.9-20.6-15.9c-4.7-9.1-5-19.7-4.4-29.7c0.1-20.1,0-40.2,0-60.3c-6.2,0-12.3,0-18.5,0
		c0-11.5,0-22.9,0-34.4c6.2,0,12.3,0,18.5,0C648.2,52.7,648.2,38.6,648.2,24.4z"/>
	<path d="M753,24.5c15.1-0.1,30.2,0,45.3-0.1c0,19.8,0,39.6,0,59.4c6.3-9.6,16.2-16.7,27.4-19.4c15.1-3.7,32-1.2,44.5,8.2
		c14.8,10.8,23,28.4,25.9,46.1c2.8,18.1,1.8,37.1-5.1,54.2c-5.2,12.9-14.6,24.4-27.2,30.7c-11.7,5.9-25.4,7.1-38.1,4.1
		c-11.4-2.8-21.2-10.5-27.3-20.4c0.1,6.1,0,12.2,0,18.3c-15.2,0-30.3,0-45.5,0C753,145.2,753,84.9,753,24.5 M817.6,99.3
		c-7.6,1.8-13.6,8-16.4,15.1c-3.5,8.5-3.8,17.9-3.2,27c0.7,8.7,2.7,17.9,8.7,24.6c6.9,7.5,18.8,8.6,27.9,4.7
		c6.8-3.1,11.2-9.8,13.4-16.7c2.4-7.8,2.9-16.2,2.4-24.3c-0.7-9.1-3.3-18.6-10-25.1C834.4,98.8,825.4,97.2,817.6,99.3z"/>
	<path d="M458.3,66.8c17.9,0,35.8,0,53.7,0c6.3,11,12.6,22.1,18.9,33.1c6.4-11.1,12.9-22.1,19.4-33.1c17.8,0,35.5,0,53.2,0
		c-15.7,22.1-31.3,44.3-46.9,66.4c16.3,24,32.7,48,49,72.1c-17.7,0-35.5,0-53.2,0c-7.3-12.6-14.5-25.2-21.7-37.8
		c-7.1,12.6-14.1,25.2-21.2,37.8c-17.7,0-35.3,0-53,0c16.2-24.1,32.6-48.1,48.8-72.2C489.5,111.1,473.9,89,458.3,66.8z"/>
	<path d="M541.5,237.2c1.5,0,3,0,4.5,0c0,16.9,0,33.7,0,50.6c-1.5,0-3,0-4.5,0C541.5,271,541.5,254.1,541.5,237.2z"/>
	<path d="M557.5,237.2c1.5,0,3,0,4.5,0c0,2.2,0,4.5,0,6.7c-1.5,0-3,0-4.5,0C557.5,241.7,557.5,239.5,557.5,237.2z"/>
	<path d="M781,237.2c1.5,0,3,0,4.5,0c0,16.9,0,33.7,0,50.6c-1.5,0-3,0-4.5,0c0-1.9,0-3.7,0-5.6c-4.6,7.4-15.6,8.7-22.3,3.6
		c-4.1-3.2-5.9-8.4-6.3-13.4c-0.5-6,0.5-12.7,4.7-17.4c6.3-6.8,19.3-6.2,24,2.2C780.8,250.6,781,243.9,781,237.2 M765.7,254.8
		c-5.2,1.2-8.2,6.5-8.6,11.5c-0.5,5.5-0.1,11.9,4.2,15.8c5.2,4.7,15,3.6,18-3.1c2.7-5.8,2.7-12.8,0-18.6
		C777,255.3,770.8,253.4,765.7,254.8z"/>
	<path d="M796.7,237.3c1.4,0,2.8,0,4.2,0c0,2.2,0,4.5,0,6.7c-1.4,0-2.8,0-4.2,0C796.7,241.7,796.7,239.5,796.7,237.3z"/>
	<path d="M672.7,251.4c0-3.5,0-7,0-10.4c1.1,0,3.2,0,4.2,0c0,3.5,0,7,0,10.5c2.2,0,4.5,0,6.8,0c0,1.2,0,2.5,0,3.7
		c-2.3,0-4.5,0-6.8,0c0.1,9.3-0.3,18.6,0.2,27.9c0.3,3.5,4.5,1.6,6.6,1.4c0,0.9-0.1,2.8-0.1,3.8c-2.8,0.3-5.9,1.2-8.5,0
		c-2.3-1.1-2.5-3.9-2.4-6.1c0-9,0-17.9,0-26.9c-1.7,0-3.4-0.1-5.1-0.1c0-1.2,0-2.5,0.1-3.7C669.4,251.4,671.1,251.4,672.7,251.4z"/>
	<path d="M471.7,250.9c5.7-1.2,12.4-0.2,16.6,4.2c4.2,4.6,5,11.2,4.6,17.1c-0.4,5.9-3,12.3-8.6,14.9c-7.2,3.4-17.5,2.1-21.9-5.2
		c-3.4-5.6-3.5-12.7-2.3-19C461.2,257.1,465.7,251.9,471.7,250.9 M472.7,254.9c-4.8,1-7.6,5.8-8.3,10.3c-0.8,4.9-0.6,10.4,2.1,14.8
		c3.9,6.3,14,6.7,18.6,1.1c2.5-3.1,3.2-7.2,3.3-11c0-4.3-0.7-9-3.8-12.1C481.6,254.6,476.8,253.8,472.7,254.9z"/>
	<path d="M506.2,256.5c4.2-6.6,14-7.9,20.4-3.7c3.1,2,4,5.9,3.9,9.3c0,8.6,0,17.1,0,25.7c-1.5,0-3,0-4.5,0c0-7.9,0-15.7,0-23.6
		c-0.1-2.7-0.2-5.7-2.1-7.7c-3.1-2.7-7.8-2.6-11.5-1.1c-4.1,1.8-6.1,6.4-6.1,10.7c-0.1,7.3,0,14.5,0,21.8c-1.5,0-3,0-4.5,0
		c0-12.1,0-24.2,0-36.4c1.5,0,3,0,4.5,0C506.2,253.1,506.2,254.8,506.2,256.5z"/>
	<path d="M577.3,256.5c2.4-2.7,5.2-5.4,9-5.8c6.1-1.3,14.6,1.4,15.3,8.6c0.4,9.5,0,19,0.2,28.5c-1.4,0-2.8,0-4.3,0
		c-0.1-7.9,0.2-15.7-0.1-23.6c-0.2-3.1-0.5-7-3.5-8.7c-4.7-2.2-11.1-1.2-14.1,3.2c-2,2.7-2.2,6.2-2.3,9.4c0,6.6,0,13.2,0,19.8
		c-1.4,0-2.8,0-4.2,0c0-12.1,0-24.3,0-36.4c1.4,0,2.9,0,4.3,0C577.5,253.1,577.4,254.8,577.3,256.5z"/>
	<path d="M613.1,258.1c4.2-8.7,17.2-10.1,24.1-3.9c4.3,4.3,5.2,10.6,5.1,16.4c-9.1,0-18.1,0-27.2,0c0.3,3.4,0.7,7,2.8,9.8
		c3.7,5.7,13.2,6,17.4,0.7c1.2-1.4,1.6-3.2,2.2-4.8c1.5,0,2.9,0,4.4,0.1c-0.7,3-1.7,6.1-4,8.4c-7,6.5-20.4,5.5-24.8-3.5
		C609.7,274.1,609.7,265.2,613.1,258.1 M618.8,257.7c-2.5,2.4-3.2,5.9-3.8,9.2c7.6,0,15.1,0,22.7,0c-0.5-3.2-1.1-6.6-3.3-9.1
		C630.5,253.3,622.8,253.3,618.8,257.7z"/>
	<path d="M696.3,256.9c2-4.4,6.7-6.6,11.4-6.6c0,1.6,0,3.2,0.1,4.7c-5.2-0.5-10.4,3-11,8.3c-1,8.1-0.2,16.3-0.5,24.5
		c-1.5,0-3,0-4.5,0c0-12.1,0-24.2,0-36.3c1.5,0,3,0,4.5,0C696.2,253.2,696.3,255.1,696.3,256.9z"/>
	<path d="M717.8,254.7c4.4-4.6,11.6-5,17.5-3.5c4.1,0.9,7.4,4.6,7.5,8.9c0.5,8,0,16.1,0.3,24.1c1.3,0.2,2.6,0.4,3.9,0.5
		c0,1.1,0,2.2,0,3.3c-2.3,0.1-4.9,0.6-6.8-0.8c-1.3-0.9-1.3-2.7-1.8-4c-5.1,5.2-13.5,7.3-20.2,3.9c-6.4-3.3-6.8-13.9-0.4-17.5
		c6.2-4,14.6-0.9,20.7-5.2c0-3.2,0.1-7.3-3.3-9c-4-1.6-9.1-1.6-12.8,0.8c-2.1,1.3-2.6,3.9-3.2,6.1c-1.5,0-2.9,0-4.3,0
		C715.1,259.6,715.7,256.7,717.8,254.7 M720.1,273.1c-3.7,2.6-3,9,1.2,10.8c5.1,2,11.7,0.7,15.1-3.8c2.5-3.1,2.1-7.3,1.8-11.1
		C732.3,270.9,725.3,269.1,720.1,273.1z"/>
	<path d="M816.4,257.1c3.8-7.3,14.5-8.7,20.8-4c3.2,2.2,3.8,6.4,3.8,10c0,8.2,0,16.5,0,24.7c-1.5,0-3,0-4.5,0c0-7.9,0-15.8,0-23.7
		c-0.1-3-0.4-6.6-3.2-8.4c-6.1-3.6-15.4,0-16.2,7.4c-0.8,8.2-0.1,16.5-0.3,24.7c-1.5,0-3,0-4.5,0c0-12.1,0-24.2,0-36.4
		c1.4,0,2.8,0,4.2,0C816.5,253.3,816.5,255.2,816.4,257.1z"/>
	<path d="M854.9,254.8c6.4-6.6,19-5.8,23.7,2.4c-0.1-1.9-0.1-3.9-0.1-5.8c1.1,0,3.4,0,4.5,0c0,11.2,0,22.4,0,33.6
		c0,5.1-1,11-5.3,14.3c-5.2,3.9-12.4,4.2-18.4,2.5c-4.7-1.1-8-5.3-8.4-10.1c1.5,0,2.9,0,4.4,0c0.8,2.7,2.3,5.3,5.2,6.1
		c5.2,1.7,11.9,1.1,15.6-3.3c2.8-3.5,2.5-8.3,2.6-12.6c-4.7,8.2-17.3,9-23.8,2.5c-3.7-3.8-4.9-9.3-5-14.4
		C849.7,264.7,850.9,258.8,854.9,254.8 M863.7,254.7c-5.4,0.9-8.7,6.3-9.1,11.4c-0.5,5.2-0.2,11.1,3.4,15.2c4.5,5,13.7,4.8,17.7-0.7
		c2.7-3.5,3.2-8.2,3-12.5c-0.2-4-1.3-8.3-4.5-11C871.5,254.6,867.3,254,863.7,254.7z"/>
	<path d="M557.5,251.4c1.5,0,3,0,4.5,0c0,12.1,0,24.3,0,36.4c-1.5,0-3,0-4.5,0C557.5,275.7,557.5,263.6,557.5,251.4z"/>
	<path d="M796.7,251.4c1.4,0,2.8,0,4.2,0c0,12.1,0,24.3,0,36.4c-1.4,0-2.8,0-4.2,0C796.7,275.7,796.7,263.6,796.7,251.4z"/>
</g>
</svg>
