<?xml version="1.0" encoding="utf-8"?>
<!-- Generator: Adobe Illustrator 22.0.1, SVG Export Plug-In . SVG Version: 6.00 Build 0)  -->
<svg version="1.1" id="Layer_1" xmlns="http://www.w3.org/2000/svg" xmlns:xlink="http://www.w3.org/1999/xlink" x="0px" y="0px"
	 viewBox="0 0 880 220" style="enable-background:new 0 0 880 220;" xml:space="preserve">
<style type="text/css">
	.st0{fill:#3D3D3D;}
	.st1{fill:#CB5D27;}
	.st2{fill:#FF7200;}
</style>
<path class="st0" d="M408.9,53.5V39h109.5v14.5h-45.5v104h-18.5v-104H408.9L408.9,53.5z"/>
<path class="st0" d="M525.4,64.5V84h0.5c4-7.5,9-13,14.5-16.5s18-6,27-5.5v16c-6.5,0-17,1.5-21.5,3s-8.5,4-11,7.5c-3,3-5,7-6,11.5
	c-1.5,4.5-2,10-2,16v41.5h-16.5V65h15V64.5z"/>
<path class="st0" d="M632.9,112.5c-3.5,0.5-7,1-10.5,1.5s-7.5,1-11.5,1.5s-7,1.5-10,2.5s-5.5,3-7.5,5s-3,5-3,9
	c0,2.5,0.5,4.5,1.5,6.5c1,1.5,2.5,3,4.5,4s4,2,6.5,2.5s5,0.5,7.5,0.5c5.5,0,10-0.5,14-2s7-3,9.5-5s4.5-4.5,5.5-7s2-4.5,2-7V109
	C638.9,110.5,635.9,111.5,632.9,112.5z M655.9,158.5c-4.5,0-8-1-10.5-3.5c-2.5-2-4-6-4-11c-4.5,5-10,8.5-16,11s-12.5,3.5-19.5,3.5
	c-4.5,0-9-0.5-13-1.5s-7.5-2.5-10.5-4.5s-5.5-4.5-7.5-8s-2.5-7-2.5-12s1-9.5,3-13s4.5-6,8-8c3-2,7-3.5,11-4.5s8.5-2,12.5-2.5
	c4.5-1,9-1.5,13-2s8-1,11-2c3-0.5,5.5-2,7.5-3.5s3-3.5,3-6.5c0-3.5-0.5-6-2-8s-3-3.5-5.5-4.5c-2-1-4.5-2-7.5-2
	c-2.5-0.5-5.5-0.5-8-0.5c-7,0-13,1-17.5,3.5s-7.5,7-7.5,14h-16.5c0-5.5,1.5-10.5,4-14.5s5.5-7,9.5-9.5s8.5-4,13.5-5s10.5-1.5,16-1.5
	c4.5,0,9,0.5,13.5,1s8.5,2,12,3.5c3.5,2,6.5,4.5,9,8c2,3.5,3.5,7.5,3.5,13v47.5c0,3.5,0,6,0.5,8c0.5,1.5,2,2.5,4.5,2.5
	c1.5,0,3-0.5,5-1v12C664.9,158,660.9,158.5,655.9,158.5z"/>
<path class="st0" d="M754.4,124c-1,4-3,7.5-6,10.5s-6.5,5.5-10.5,7.5c-4.5,2-9.5,3-16,3c-6,0-11-1-15.5-2.5c-4.5-2-8-4-11-7.5
	c-3-3-5-6.5-6.5-10.5s-2-8-2-12s0.5-8.5,1.5-12.5s3-7.5,5.5-11c2.5-3,6-5.5,10.5-7.5s9.5-3,16-3s12,1,16,3c4.5,2,8,4.5,11,7.5
	s5,6.5,6,10.5c1.5,4,2,8,2,12.5C756.4,116,755.4,120,754.4,124z M755.4,35.5v44h-0.5c-2-2.5-4-5-7-6.5s-5.5-3-9-4.5
	c-3-1-6-2-9.5-2.5c-3-0.5-6-0.5-8.5-0.5c-8,0-15,1-21,3.5s-11,6-15,10s-7,9-9,14.5s-3,11.5-3,18s1,12.5,3,18s5,10.5,9,15
	c4,4,9,7.5,15,10s13,4,21,4c7.5,0,14-1,20-3.5s10.5-5.5,13.5-10.5h0.5V157h17V35.5H755.4L755.4,35.5z"/>
<path class="st0" d="M857.9,91.5c-1.5-3-3.5-6-6-8.5s-5.5-4-9-5.5s-7.5-2-11.5-2c-4.5,0-8,0.5-11.5,2s-6.5,3.5-9,5.5
	c-2.5,2.5-4.5,5-6,8.5c-1.5,3-2.5,6.5-2.5,10h58C860.4,98,859.4,95,857.9,91.5z M861.9,151c-7.5,5-17,8-28.5,8c-8,0-15-1-21-3.5
	s-11-5.5-15-10c-4-4-7-9.5-9-15.5s-3-12.5-3.5-19.5c0-7,1-13.5,3.5-19.5s5.5-11,10-15c4-4,9.5-7.5,15-10c6-2.5,12-3.5,19-3.5
	c9,0,16.5,1.5,22.5,5s10.5,7.5,14.5,13s6,11,7.5,17s2,12,1.5,17.5h-76c0,4,0.5,8,1.5,11.5s3,7,5.5,9.5c2.5,3,6,5,10,6.5
	s9,2.5,14.5,2.5c7,0,13-1.5,17.5-4.5s7.5-7.5,9-13.5h16.5C874.4,138,869.4,145.5,861.9,151z"/>
<path class="st1" d="M257.9,157V39h40v118H257.9z"/>
<path class="st1" d="M384.9,157v-15c-1,1-2.5,2-4.5,3.5s-4.5,3-7.5,4.5s-6.5,2.5-10.5,3.5s-9,1.5-14.5,1.5c-3,0-5.5,0-8-0.5
	s-5-1-8-1.5c-6-1.5-10.5-4-13.5-7s-5.5-6-7-9.5s-2.5-6.5-2.5-9.5c-0.5-3-0.5-5-0.5-7V64h40v47c0,2.5-2.5,5-2,7.5s1.5,5,4,7.5
	c2,2,4,3,7,3.5s5,1,7,1c2.5,0,5-0.5,8-1c3-1,5-2.5,7-4.5c2-2.5,3.5-5,4-8s0.5-5.5,0.5-8V64h40v92.5h-39V157z"/>
<path class="st1" d="M211.4,157v-15c-1,1-2.5,2-4.5,3.5s-4.5,3-7.5,4.5s-6.5,2.5-10.5,3.5s-9,1.5-14.5,1.5c-2.5,0-5.5,0-8-0.5
	s-5-1-8-1.5c-6-1.5-8.5-5.5-12-8.5c-3-3-7-4.5-8.5-8s-2.5-6.5-2.5-9.5c-0.5-3-0.5-5-0.5-7V64h40v47c0,2.5-2.5,4.5-2,7.5
	c0.5,2.5,1.5,5,4,7.5c2,2,4,3,7,3.5s5,1,7,1c2.5,0,5-0.5,8-1c3-1,5-2.5,7-4.5c2-2.5,3.5-5,4-8s0.5-5.5,0.5-8V64h40v92.5h-39V157z"/>
<path class="st1" d="M130.4,39.5V39c0,0-0.5-0.5-1-0.5H6.9c-0.5,0-0.5,0-0.5,0.5c-0.5,0-0.5,0.5-0.5,0.5v27c0,0,0,0.5,0.5,0.5
	c0,0,0,0.5,0.5,0.5h63.5l-69,63v0.5c0,0,0,0,0,0.5V156v0.5c0,0,0.5,0.5,1,0.5h90.5c-3,3-3.5,4-6,7c-0.5,0-0.5,0.5-0.5,0.5
	c0,0.5,0,0.5,0.5,1l19,19c0,0,0.5,0,1,0c0,0,0.5,0,1,0l40-41c0,0,0-0.5,0-1V142l-41.5-42.5h-0.5c0,0,0,0-0.5,0h-0.5l-17.5,18
	c-0.5,0.5-0.5,0.5-0.5,1c0,0,0,0.5,0.5,0.5l7.5,8h-36l72.5-65l0,0c0,0,0,0,0-0.5v-22H130.4z"/>
<path class="st2" d="M260.4,157V41h37.5v116H260.4L260.4,157z"/>
<path class="st2" d="M387.4,157v-13c-1,1-2.5,2-4.5,3.5s-4.5,3-7.5,4.5s-6.5,2.5-10.5,3.5s-9,1.5-14.5,1.5c-2.5,0-5.5,0-8-0.5
	s-5-1-8-1.5c-6-1.5-10.5-4-13.5-7s-5.5-6-7-9.5s-2.5-6.5-2.5-9.5c-0.5-3-0.5-5-0.5-7V64.5h37.5V113c0,2.5,0,5,0.5,7.5s1.5,5,4,7.5
	c2,2,4,3,7,3.5s5,1,7,1c2.5,0,5-0.5,8-1c3-1,5-2.5,7-4.5c2-2.5,3.5-5,4-8s0.5-5.5,0.5-8V64.5h37V157H387.4L387.4,157z"/>
<path class="st2" d="M213.9,157v-13c-1,1-2.5,2-4.5,3.5s-4.5,3-7.5,4.5s-6.5,2.5-10.5,3.5s-9,1.5-14.5,1.5c-2.5,0-5.5,0-8-0.5
	s-5-1-8-1.5c-6-1.5-10.5-4-13.5-7s-5.5-6-7-9.5s-2.5-6.5-2.5-9.5c-0.5-3-0.5-5-0.5-7V64.5h37.5V113c0,2.5,0,5,0.5,7.5s1.5,5,4,7.5
	c2,2,4,3,7,3.5s5,1,7,1c2.5,0,5-0.5,8-1c3-1,5-2.5,7-4.5c2-2.5,3.5-5,4-8s0.5-5.5,0.5-8V64.5h37V157H213.9L213.9,157z"/>
<path class="st2" d="M130.4,41.5V41c0,0-0.5-0.5-1-0.5H9.4c-0.5,0-0.5,0-0.5,0.5c-0.5,0-0.5,0.5-0.5,0.5v25c0,0,0,0.5,0.5,0.5
	c0,0,0,0.5,0.5,0.5h65L3.9,132v0.5c0,0,0,0,0,0.5v22.5v0.5c0,0,0.5,0.5,1,0.5h92c-3,3-5.5,6-8,8.5c-0.5,0-0.5,0.5-0.5,0.5
	c0,0.5,0,0.5,0.5,1l16.5,17c0,0,0.5,0,1,0c0,0,0.5,0,1,0l39.5-41c0,0,0-0.5,0-1V141l-39.5-40.5h-0.5c0,0,0,0-0.5,0h-0.5L89.4,119
	c-0.5,0.5-0.5,0.5-0.5,1c0,0,0,0.5,0.5,0.5l7.5,8h-36l70-65l0,0c0,0,0,0,0-0.5V41.5H130.4z"/>
</svg>
