<svg xmlns="http://www.w3.org/2000/svg" xmlns:xlink="http://www.w3.org/1999/xlink" width="108" height="108" viewBox="0 0 108 108"><defs><circle id="a" cx="54" cy="54" r="54"/><path id="c" d="M0 0h96v68H0z"/></defs><g fill="none" fill-rule="evenodd"><mask id="b" fill="#fff"><use xlink:href="#a"/></mask><use fill="#EAEFEF" xlink:href="#a"/><g mask="url(#b)"><g transform="translate(10 9)" stroke="#368A79" stroke-width="2"><path fill="#B7E1CC" stroke-linejoin="round" d="M0 2.7C3.677 1.512 7.35.918 11.02.918s7.344.594 11.02 1.782V90H0V2.7z"/><path fill="#A3D4FF" fill-opacity=".6" stroke-linejoin="round" d="M0 65.204h22.041v9.184H0z"/><path fill="#B7E1CC" stroke-linejoin="round" d="M22.04 2.7C25.719 1.512 29.392.918 33.062.918s7.344.594 11.02 1.782V90h-22.04V2.7z"/><path fill="#A3D4FF" fill-opacity=".6" stroke-linejoin="round" d="M22.041 65.204h22.041v9.184H22.041z"/><path fill="#D6ECF6" stroke-linejoin="round" d="M45.193 5.922c3.57.311 6.981.031 10.233-.84s6.347-2.335 9.283-4.39l22.343 83.386c-3.57-.311-6.981-.03-10.233.84s-6.348 2.335-9.283 4.39L45.193 5.922z"/><path stroke-linecap="round" d="m53.581 12.387 17.987 67.127m-10.89-69.028 17.987 67.127"/><circle cx="11.02" cy="16.531" r="6.429" fill="#51C22C" fill-opacity=".5" stroke-linejoin="round"/><circle cx="33.061" cy="16.531" r="6.429" fill="#51C22C" fill-opacity=".5" stroke-linejoin="round"/><path d="M4.592 31.224h12.857M4.592 35.816h12.857m9.184-4.592H39.49m-12.857 4.592H39.49" stroke-linecap="round"/></g></g><g transform="translate(3 6)"><mask id="d" fill="#fff"><use xlink:href="#c"/></mask><g mask="url(#d)"><g transform="translate(7 3)" stroke="#368A79" stroke-width="2"><path fill="#B7E1CC" stroke-linejoin="round" d="M0 2.7C3.677 1.512 7.35.918 11.02.918s7.344.594 11.02 1.782V90H0V2.7z"/><path fill="#A3D4FF" fill-opacity=".6" stroke-linejoin="round" d="M0 65.204h22.041v9.184H0z"/><path fill="#B7E1CC" stroke-linejoin="round" d="M22.04 2.7C25.719 1.512 29.392.918 33.062.918s7.344.594 11.02 1.782V90h-22.04V2.7z"/><path fill="#A3D4FF" fill-opacity=".6" stroke-linejoin="round" d="M22.041 65.204h22.041v9.184H22.041z"/><path fill="#D6ECF6" stroke-linejoin="round" d="M45.193 5.922c3.57.311 6.981.031 10.233-.84s6.347-2.335 9.283-4.39l22.343 83.386c-3.57-.311-6.981-.03-10.233.84s-6.348 2.335-9.283 4.39L45.193 5.922z"/><path stroke-linecap="round" d="m53.581 12.387 17.987 67.127m-10.89-69.028 17.987 67.127"/><circle cx="11.02" cy="16.531" r="6.429" fill="#A8E095" stroke-linejoin="round"/><circle cx="33.061" cy="16.531" r="6.429" fill="#A8E095" stroke-linejoin="round"/><path d="M4.592 31.224h12.857M4.592 35.816h12.857m9.184-4.592H39.49m-12.857 4.592H39.49" stroke-linecap="round"/></g></g></g></g></svg>