<svg xmlns="http://www.w3.org/2000/svg" xmlns:xlink="http://www.w3.org/1999/xlink" width="120" height="109" viewBox="0 0 120 109"><defs><circle id="a" cx="54" cy="54.408" r="54"/></defs><g fill="none" fill-rule="evenodd"><mask id="b" fill="#fff"><use xlink:href="#a"/></mask><use fill="#EAEFEF" xlink:href="#a"/><g stroke-width="2" mask="url(#b)"><path fill="#4BB380" fill-opacity=".6" stroke="#368A79" stroke-linejoin="round" d="M79.888 87.226a12 12 0 0 1 7.418 11.091v11.581H22V98.672c0-4.976 3.07-9.435 7.719-11.21 4.703-1.797 9.345-3.118 13.926-3.964 3.11 2.478 7.13 3.971 11.518 3.971 4.467 0 8.55-1.546 11.682-4.102 4.41.802 8.758 2.089 13.043 3.86z"/><path stroke="#368A79" stroke-linecap="round" d="M73.531 99.714v8.164m-35.204-8.164v8.164"/><path fill="#FFF" stroke="#247BA0" stroke-linejoin="round" d="M54.653 79.816C62.343 79.816 72 70.68 72 59.408S64.234 39 54.653 39c-9.58 0-17.347 9.137-17.347 20.408s9.658 20.408 17.347 20.408z"/><path fill="#D6ECF6" stroke="#247BA0" stroke-linejoin="round" d="M56.362 39.004c.576.022 5.794.698 10.344 5.543 4.684 4.988 5.422 12.232 5.278 13.277-.145 1.045-10.298 2.986-13.956-5.498a34.512 34.512 0 0 1-.917-2.354c-.262 2.128-.89 4.173-2.145 5.72-4.406 5.432-17.637 4.958-17.653 4.44-.016-.52-.28-9.108 4.97-15.004 3.714-4.173 7.707-5.668 10.677-5.95 1.608-.153 2.923-.09 3.3-.127.024-.03.045-.046.062-.047h.021c.004-.009.01-.008.018 0z"/></g><g transform="translate(69 4.408)"><path fill="#ADDE9C" stroke="#368A79" stroke-linejoin="round" stroke-width="2" d="M28.939 0c11.598 0 21 9.402 21 21v.857c0 11.598-9.402 21-21 21h-6.98c-.36 0-.718-.009-1.074-.027l-9.035 9.034a1 1 0 0 1-1.707-.707V39.265l.003-.043C4.6 35.442.959 29.075.959 21.857V21c0-11.598 9.402-21 21-21h6.98z"/><circle cx="12.694" cy="21.429" r="2.551" fill="#368A79"/><circle cx="24.939" cy="21.429" r="2.551" fill="#368A79"/><circle cx="37.184" cy="21.429" r="2.551" fill="#368A79"/></g></g></svg>