<svg xmlns="http://www.w3.org/2000/svg" viewBox="0 0 156.3 36.7" style="enable-background:new 0 0 156.3 36.7" xml:space="preserve"><path d="M50.2 27.1h-2.7v-6.5l-5.9-11h3.1c2.5 5.1 3.9 8.1 4.2 8.8.2-.5 1.2-2.6 3-6.2l1.3-2.6h3.1l-6 11v6.5zm20.2-6.6c0 2-.6 3.6-1.7 4.9-1.1 1.3-2.7 1.9-4.6 1.9-1.9 0-3.5-.6-4.6-1.9-1.1-1.3-1.7-2.9-1.7-4.8s.6-3.6 1.7-4.9c1.1-1.3 2.7-2 4.6-2 1.9 0 3.5.6 4.5 1.9 1.2 1.3 1.8 2.9 1.8 4.9zm-2.7 0c0-1.4-.3-2.5-.9-3.3-.6-.9-1.5-1.3-2.7-1.3-1.2 0-2.1.4-2.7 1.3-.6.9-.9 2-.9 3.3 0 1.3.3 2.4 1 3.3.6.9 1.5 1.3 2.7 1.3s2-.4 2.6-1.3c.6-.8.9-1.9.9-3.3zm13.7-6.6H84v13.2h-2.5v-2.3c-.7 1.6-2.1 2.4-4.1 2.4-1.3 0-2.3-.4-3.1-1.2-.8-.8-1.1-1.8-1.1-3.2v-9h2.6v8.4c0 .9.2 1.6.7 2.1.4.5 1.1.7 2 .7.9 0 1.6-.3 2.2-1 .6-.7.9-1.7.9-2.9v-7.2zm8.7 0v2.3c.6-1.6 1.8-2.4 3.5-2.4.2 0 .5 0 .8.1v2.5c-.4-.2-.8-.2-1.2-.2-.9 0-1.6.4-2.2 1.2-.6.8-.9 1.7-.9 2.8v7h-2.5V13.9h2.5zm15.5 10.8h7.2v2.4h-9.9V9.6h2.7v15.1zm21.5-4.2c0 2-.6 3.6-1.7 4.9-1.1 1.3-2.7 1.9-4.6 1.9-1.9 0-3.5-.6-4.6-1.9-1.1-1.3-1.7-2.9-1.7-4.8s.6-3.6 1.7-4.9c1.1-1.3 2.7-2 4.6-2 1.9 0 3.5.6 4.5 1.9 1.2 1.3 1.8 2.9 1.8 4.9zm-2.7 0c0-1.4-.3-2.5-.9-3.3-.6-.9-1.5-1.3-2.7-1.3-1.2 0-2.1.4-2.7 1.3-.6.9-.9 2-.9 3.3 0 1.3.3 2.4 1 3.3s1.5 1.3 2.7 1.3c1.1 0 2-.4 2.6-1.3.6-.8.9-1.9.9-3.3zm14.1-6.6h2.5V26c0 2-.6 3.6-1.7 4.6s-2.6 1.5-4.4 1.5c-1.8 0-3.2-.3-4.4-.9v-2.6c1.1.7 2.5 1.1 4 1.1 2.6 0 3.9-1.3 3.9-3.8v-1.4c-.8 1.4-2.1 2.1-3.7 2.1s-2.9-.5-4-1.7-1.6-2.6-1.6-4.6c0-2 .5-3.6 1.5-4.8 1-1.3 2.3-1.9 4-1.9s2.9.7 3.7 2.2v-1.9zm-6.6 6.5c0 1.3.3 2.4.9 3.1.6.7 1.4 1.1 2.3 1.1s1.7-.4 2.3-1.1c.7-.7 1-1.8 1-3.2 0-1.4-.3-2.5-.9-3.2s-1.4-1.1-2.4-1.1-1.7.4-2.3 1.2c-.6.8-.9 1.8-.9 3.2zm24.4.1c0 2-.6 3.6-1.7 4.9-1.1 1.3-2.7 1.9-4.6 1.9-1.9 0-3.5-.6-4.6-1.9-1.1-1.3-1.7-2.9-1.7-4.8s.6-3.6 1.7-4.9c1.1-1.3 2.7-2 4.6-2 1.9 0 3.5.6 4.5 1.9 1.2 1.3 1.8 2.9 1.8 4.9zm-2.7 0c0-1.4-.3-2.5-.9-3.3-.6-.9-1.5-1.3-2.7-1.3-1.2 0-2.1.4-2.7 1.3-.6.9-.9 2-.9 3.3 0 1.3.3 2.4 1 3.3s1.5 1.3 2.7 1.3c1.1 0 2-.4 2.6-1.3.6-.8.9-1.9.9-3.3zM15.9 0 0 9.2v18.4l15.9 9.2 15.9-9.2V9.2L15.9 0zm0 8.9 8.2 4.7V23l-8.2 4.7L7.7 23v-9.4l8.2-4.7zm-1.3-2.1-9.4 5.4v12.3l9.4 5.4v3.2l-12.1-7V10.6l12.1-7v3.2zM17.1 30l9.5-5.5V12.2l-9.5-5.5V3.6l12.2 7v15.5l-12.2 7V30z" style="fill:#fff"/></svg>