<svg id="图层_1" data-name="图层 1" xmlns="http://www.w3.org/2000/svg" viewBox="0 0 420.61 98.46"><defs><style>.cls-2{fill:#2f73ff}.cls-3{isolation:isolate}.cls-4{fill:#fff}</style></defs><path d="M12.45 78.51c0-3.14.92-6.6-.29-9-1-2-4.49-2.82-7.28-4.39 1-2.46 3.11-5.34 2.86-8-.24-2.36-3.12-4.48-5.12-7.07l6.22-8.76-4.26-6.11a5.41 5.41 0 0 1 1.15-.75c5.49-1.8 8.64-5 7.28-11.27a3.1 3.1 0 0 1 1.8-2.47C20.47 19.61 24 17 22.27 10.2c2.16 0 3.74-.13 5.28 0 4.13.41 7.57-.09 9-4.83.31-.82 2.31-1.61 3.53-1.55 1.66 0 3.31 1.28 5 1.27a11.9 11.9 0 0 0 4.81-1.52A38.81 38.81 0 0 0 54.21.63a14.62 14.62 0 0 1 2.57 1.69c3.22 3.24 6.71 3.78 10.6 1.3 1.91-1.21 3.34-.56 4.25 1.22 2.14 4.16 5.43 5.86 10 5 3.05-.56 4.39 1.05 4.81 3.77.62 4 2.54 6.33 7 6.38 1.19 0 3.48 1.86 3.38 2.63-.73 5.89 1 10 8.26 11.29-6.76 6.83-3 11.24 2.79 14.92a20.94 20.94 0 0 1-2.05 2.17c-5.7 4.25-5.85 4.3-2.93 10.25 1.17 2.39.63 3.75-1.48 4.76-4.12 2-5.68 5.16-4.93 9.59.52 3-1 4.2-3.82 3.69-4.66-.82-6.53 1.36-6.59 5.7-.06 3.39-1.56 5.22-5.15 4.43-5.76-1.26-8.37 2.2-10.19 7.43-6.29-5.26-11.44-3.85-15.61 2.24-1.11-.81-1.87-1.3-2.54-1.89-4-3.45-8-6.47-12.53-.64a11.88 11.88 0 0 1-2.36-2.06C35 90.11 31.3 88 25.88 88.68c-1.12.14-3-2.23-3.79-3.8-2.87-5.61-2.75-5.67-9.64-6.37zm43 6.23c2.08-.28 5.38-.6 8.63-1.16 19.58-3.4 35-27.41 27-45.54-5.64-12.8-14.34-21-27.94-23.75-16.69-3.37-30.43 2.24-40.51 15.58-9.21 12.2-6.32 32.48 2.59 41.39 8.28 8.29 17.47 12.91 30.26 13.48z" transform="translate(-2.62 -.63)" style="fill:#e00"/><path class="cls-2" d="M55.48 84.56c-12.79-.56-22-5.18-30.26-13.48-8.91-8.9-11.8-29.19-2.59-41.39 10.08-13.34 23.82-19 40.54-15.58 13.6 2.75 22.3 11 27.94 23.76 8 18.12-7.42 42.13-27 45.53-3.25.6-6.55.88-8.63 1.16zm.52-60.4h-2c-1.58 3.37-3.7 6.61-4.58 10.15-1.14 4.58-3.39 6.3-8 5.63a34 34 0 0 0-7.55 0 16.79 16.79 0 0 0-3.87 1.3c.8 1.23 1.36 2.78 2.46 3.62a75.42 75.42 0 0 0 8 5.13c2.33 1.35 3 2.95 2 5.53a76 76 0 0 0-3.16 9.3c-.28 1.07.28 2.36.46 3.55a10.45 10.45 0 0 0 3.31-.73 114.56 114.56 0 0 0 9.56-6.33c1.93-1.46 3.25-.87 4.91.31 3 2.13 6.1 4.18 9.27 6.07.9.54 2.2.41 3.31.59.15-1.11.64-2.32.37-3.32-.93-3.43-2-6.82-3.26-10.16a3.15 3.15 0 0 1 1.3-4.25h.1c3.3-2.19 6.52-4.5 9.68-6.89.71-.53 1-1.6 1.5-2.42-.77-.38-1.52-1.06-2.3-1.1a75.35 75.35 0 0 0-10.73-.17c-4 .38-6-.88-6.91-4.9C59 31.3 57.28 27.82 56 24.16z" transform="translate(-2.62 -.63)"/><path class="cls-2" d="M56 24.16c1.32 3.61 3 7.14 3.87 10.86.91 4 2.91 5.28 6.91 4.9a75.35 75.35 0 0 1 10.73.17c.78 0 1.53.72 2.3 1.1-.49.82-.79 1.89-1.5 2.42-3.16 2.39-6.38 4.7-9.68 6.89a3.14 3.14 0 0 0-1.45 4.2v.1c1.23 3.34 2.33 6.73 3.26 10.16.27 1-.22 2.21-.37 3.32-1.11-.18-2.41 0-3.31-.59-3.17-1.89-6.26-3.94-9.27-6.07-1.66-1.18-3-1.77-4.91-.31a113.73 113.73 0 0 1-9.51 6.33 10.46 10.46 0 0 1-3.26.75c-.18-1.19-.74-2.48-.46-3.55a75.77 75.77 0 0 1 3.08-9.39c1-2.58.37-4.18-2-5.53a75.42 75.42 0 0 1-8-5.13C31.34 44 30.78 42.4 30 41.17a16.79 16.79 0 0 1 3.89-1.3 34 34 0 0 1 7.55 0c4.64.67 6.89-1 8-5.63.88-3.54 3-6.78 4.58-10.15z" transform="translate(-2.62 -.63)"/><g id="开户通" class="cls-3"><g class="cls-3"><path class="cls-2" d="M216.9 38.74q0 1.73-2.5 6.9a26.23 26.23 0 0 1-5 7.55 8.63 8.63 0 0 1-6.17 2.37q-3.67 0-9.18-2.69a19.29 19.29 0 0 0-7.25-2 1.92 1.92 0 0 0-1.94 1.13 6.49 6.49 0 0 0-.51 2.69q0 1.57.31 9.06t.3 12.19a40.78 40.78 0 0 1-.46 7.06 3.52 3.52 0 0 1-2.19 3 9.57 9.57 0 0 1-3 .59 2.36 2.36 0 0 1-2.65-2.69 5.64 5.64 0 0 1 .1-1.08 47.49 47.49 0 0 0 .51-8l-.1-5.94q0-5.93.3-9.59c.21-2.45.31-4.14.31-5.07 0-2.38-.46-3.81-1.38-4.32s-3-.75-6.37-.75a26.39 26.39 0 0 0-6.69.54 3.08 3.08 0 0 0-2.14 2.32 72.09 72.09 0 0 0-.92 9.54q-.47 7.77-2.24 11.92a12 12 0 0 1-5.06 6 17.32 17.32 0 0 1-8.57 1.84 18.38 18.38 0 0 1-8.57-1.73c-2.18-1.15-3.26-2-3.26-2.59 0-.35.52-.68 1.58-1a59.68 59.68 0 0 0 7.18-2.99 56.72 56.72 0 0 0 7.45-4 12 12 0 0 0 3.21-3.35 17.05 17.05 0 0 0 2-5.18 24.39 24.39 0 0 0 .77-5.61 5.5 5.5 0 0 0-.61-3.18 2.79 2.79 0 0 0-2.25-.76 38.46 38.46 0 0 0-6.38 1 72.38 72.38 0 0 0-9 2.53 22.57 22.57 0 0 1-5.44 1.55 1.69 1.69 0 0 1-1.64-.75 12.73 12.73 0 0 1-.41-4.32 10 10 0 0 1 1.28-5.5c.85-1.29 1.75-1.94 2.7-1.94a2.39 2.39 0 0 1 1.13.27 2.68 2.68 0 0 0 1.27.27 5.22 5.22 0 0 0 2-.54q3.17-1.62 13-2.37a7.57 7.57 0 0 0 3.83-1.12 5.05 5.05 0 0 0 1.75-3q1.34-4.53 2.76-4.53 1.94 0 3.06 4.1c.41 1.51 1 2.43 1.79 2.75s3 .48 6.78.48 6.11-.27 7.09-.8 1.48-1.84 1.48-3.89a9.44 9.44 0 0 0-.56-4 3.08 3.08 0 0 0-2.4-1.24 48.9 48.9 0 0 0-6.22-.27q-14.38 0-22.25 3.56-6.12 2.81-9.74 2.8a6.16 6.16 0 0 1-5.36-2.42 9.57 9.57 0 0 1-1.73-5.72 8.64 8.64 0 0 1 1.3-5.15c.89-1.23 1.79-1.84 2.71-1.84s1.48.25 1.68.76a3.23 3.23 0 0 0 2.86 1.18 29.09 29.09 0 0 0 5.61-.75q11.13-2.7 30.82-2.7a187.79 187.79 0 0 1 22.19 1.14q9.44 1.13 10.72 2a2.82 2.82 0 0 1 1.27 2.38 16.85 16.85 0 0 1-.51 3.66 4 4 0 0 1-2.19 3 14.62 14.62 0 0 1-5.51.75 76.23 76.23 0 0 1-8.57-.53c-3.17-.36-5.17-.54-6-.54a1.71 1.71 0 0 0-1.74 1.13 11.11 11.11 0 0 0-.46 3.83c0 1.8.19 2.91.56 3.34s2 .79 4.75 1.08 5.08.59 6.89.92a28.91 28.91 0 0 0 5.05.48 25.56 25.56 0 0 0 6-.92 20.44 20.44 0 0 0 5.51-2 6.26 6.26 0 0 1 2.55-1.14c.47-.03.71.26.71.84zm98.17-16.51c2.17 0 3.53.51 4.08 1.51A6.77 6.77 0 0 1 320 27q0 3.45-2.14 4.53c-1.09.72-2.41 2.34-4 4.85s-2.34 4.32-2.34 5.4a4.29 4.29 0 0 0 .1.91 8.52 8.52 0 0 1 .1 1.46 10.62 10.62 0 0 1-.61 2.91 4.34 4.34 0 0 1-1.74 2.59 7.33 7.33 0 0 1-3.52.65q-2.4 0-5.92-.27t-7.5-.27a139.18 139.18 0 0 0-18.77 1.34 62.78 62.78 0 0 0-16.23 4.16 4.11 4.11 0 0 0-1.83 1.83 6.46 6.46 0 0 0-.92 2.81q-.61 11.74-1.89 16a16.66 16.66 0 0 1-3.67 6.8 7 7 0 0 1-5.1 2.53c-1.81 0-4.17-.92-7.1-2.75s-4.38-3.18-4.38-4c0-.29.18-.51.56-.65a2.89 2.89 0 0 1 1.27-.16h1q3.06 0 6-3.72t4.85-11.43a62.09 62.09 0 0 0 1.89-14.78q0-7.07-1.89-10.19a12.64 12.64 0 0 1-1.89-6.63 16.08 16.08 0 0 1 .41-4.59 1.56 1.56 0 0 1 1.58-1.08 15.22 15.22 0 0 1 3.73.76 4.36 4.36 0 0 0 1.58.43q.56 0 7.86-1.08l7.95-1.18c.45-.08 1.09-.71 1.94-1.89s1.19-2.07 1-2.64a6.27 6.27 0 0 1-.25-1.78 2.08 2.08 0 0 1 .82-1.62 3.3 3.3 0 0 1 2.24-.7q7.25 0 13.16 5.82a2.66 2.66 0 0 0 1.33.81 22.42 22.42 0 0 0 3.57.16q10 0 14.08 1a13.89 13.89 0 0 0 3.12.33 6.45 6.45 0 0 0 3-.7 7.62 7.62 0 0 1 3.62-.74zm-14.49 17.48a3.9 3.9 0 0 0 2.24-.43 8.31 8.31 0 0 0 1.43-2.38 8 8 0 0 0 .92-3.23c0-1.58-1.23-2.59-3.67-3a53 53 0 0 0-9-.65 117.54 117.54 0 0 0-20.92 1.94q-10.69 1.93-13.58 3.16t-2.9 3.62l.1 4.53c0 1.15.24 1.72.71 1.72a4.08 4.08 0 0 0 1.33-.21 122.79 122.79 0 0 1 14.85-3.35A120.07 120.07 0 0 1 285 40q5.48-.29 15.58-.29zM423.23 75.3a5.07 5.07 0 0 1-1.17 2.1 51 51 0 0 1-6.06 5.77 61.85 61.85 0 0 1-6.89 5.39 10 10 0 0 1-5.16 1.19q-5.51 0-12.75-4-18.17-9.92-32.7-9.92t-20-.33c-3.64-.21-5.89-.61-6.74-1.18s-1.27-1.73-1.27-3.45a3 3 0 0 1 2.19-3.24 44.72 44.72 0 0 0 8.11-4.21q5.93-3.55 11.53-7.65a3.64 3.64 0 0 1 1.94-.76c.54 0 .82.38.82 1.13a4.65 4.65 0 0 1-.67 2.32A24.49 24.49 0 0 1 351.7 62a23.38 23.38 0 0 1-2.91 3c-.58.43-.87.83-.87 1.19 0 .65.79 1 2.35 1a14.33 14.33 0 0 0 2.71-.32 18.35 18.35 0 0 1 3.72-.33l5.31.33a2.2 2.2 0 0 0 1.93-1.08q.72-1.08 2-8.2a75 75 0 0 0 1.28-13.16q0-8.73-2.35-11.43a3.39 3.39 0 0 1-1-1.94c0-1.08 1.12-1.62 3.37-1.62l5 .22a19.63 19.63 0 0 0 3-.38 14.37 14.37 0 0 0 2.4-.54.62.62 0 0 0 .3-.59c0-.51-.63-1.33-1.88-2.48a5.4 5.4 0 0 0-3.44-1.67 4.33 4.33 0 0 0-.72.11 35.55 35.55 0 0 1-4.94.32 6.1 6.1 0 0 1-4.5-1.78 5.1 5.1 0 0 1-1.78-3.56 4.6 4.6 0 0 1 .61-2.64 1.74 1.74 0 0 1 2.76-.32 1.73 1.73 0 0 0 1.32.54 7.72 7.72 0 0 0 2.35-.54Q374.56 14 385.58 14q7.35 0 9.69 1a15.16 15.16 0 0 0 4.08.32 55.83 55.83 0 0 0 5.82-.27 40.74 40.74 0 0 1 4.08-.27c1.9 0 2.86.54 2.86 1.62a2.79 2.79 0 0 1-1.11 1.79 8.28 8.28 0 0 1-2.5 1.62 51.66 51.66 0 0 0-5.63 3.19c-2.82 1.73-4.44 2.77-4.84 3.13s-.62.66-.62.91.67.49 2 .7a35.78 35.78 0 0 1 3.58.76 9.75 9.75 0 0 0 2.34.43 3.62 3.62 0 0 0 1.58-.38 3.52 3.52 0 0 1 1.43-.37c1.29 0 1.94.79 1.94 2.37a6.41 6.41 0 0 1-1.53 4.21q-3.47 4.2-3.47 16.82 0 2.05-.51 7.44a85.92 85.92 0 0 1-1.22 8.85c-.48 2.3-.94 3.59-1.38 3.88a2.81 2.81 0 0 1-1.58.43c-1.09 0-1.64-1.15-1.64-3.45a62.13 62.13 0 0 1 .31-6.36l.31-5.18a1.48 1.48 0 0 0-.31-1.13 4.26 4.26 0 0 0-1.73-.49 31.71 31.71 0 0 0-4.24-.21 9.81 9.81 0 0 0-3.52.37 1.7 1.7 0 0 0-.82 1.46 97.34 97.34 0 0 1-1.58 10.14 18.26 18.26 0 0 0-.66 3.34c0 .5.31.83.92 1q10.92 2.81 14.69 5.72a3.46 3.46 0 0 0 2.09.43 6.91 6.91 0 0 0 2.81-.54 16.23 16.23 0 0 1 4.39-.86 21.31 21.31 0 0 1 4.23-.17 15.93 15.93 0 0 0 2.4.17 6.72 6.72 0 0 0 2.81-.7 6.76 6.76 0 0 1 1.83-.71q.35-.01.35.29zM357 34.21q0 1.18-6.38 4.31t-10.26 3.13a7.16 7.16 0 0 1-3.87-1 2.85 2.85 0 0 1-1.49-2.4 4.26 4.26 0 0 1 .77-2.53 4.34 4.34 0 0 1 1.43-1.41 4.2 4.2 0 0 1 1.78-.32 5.36 5.36 0 0 0 1.94-.32 29.24 29.24 0 0 1 5.41-.65c3.06-.22 5.19-.32 6.38-.32a9.53 9.53 0 0 1 3.06.43c.81.29 1.23.64 1.23 1.08zm.91-11.44q0 1.95-3.72 3a27.57 27.57 0 0 1-7.3 1c-1.42 0-3.21-.1-5.35-.32a6 6 0 0 1-4.7-2.53 7.42 7.42 0 0 1-1.47-3.92 7.87 7.87 0 0 1 .67-3.24c.44-1 1-1.51 1.63-1.51a1.2 1.2 0 0 1 1.22 1.08c.17.72.73 1.08 1.69 1.08a2.73 2.73 0 0 0 1.32-.41 7 7 0 0 1 2.81-.37 15.27 15.27 0 0 1 4.8.91 14.31 14.31 0 0 1 4.54 2.46 4.93 4.93 0 0 0 2.5 1.19 1.46 1.46 0 0 1 1.37 1.58zM355 45c0 .86-.76 2-2.29 3.4a38.43 38.43 0 0 1-7.4 4.85c-3.4 1.84-5.61 2.75-6.63 2.75a3.24 3.24 0 0 1-2.4-.86 2.86 2.86 0 0 1-.87-2.1 3.39 3.39 0 0 1 .72-2.16 3.94 3.94 0 0 1 2.55-1.24 21.74 21.74 0 0 0 5.41-2.16 16.45 16.45 0 0 1 5.41-2 9.69 9.69 0 0 0 3.67-1.14 3.05 3.05 0 0 1 1.17-.21c.4 0 .66.29.66.87zm27.66 19.52a20.77 20.77 0 0 1 .41-4.9 10.5 10.5 0 0 0 .4-2.43c0-.58-.23-.86-.71-.86a60.77 60.77 0 0 0-6.12 1.13q-5.42 1.13-5.77 2.21c-.24.72-.56 1.89-1 3.51a16.82 16.82 0 0 0-.61 3.55c0 .76.34 1.17 1 1.24 3.47.51 6.21 1 8.22 1.41s3.11.64 3.31.64a1.1 1.1 0 0 0 .72-.43 2.12 2.12 0 0 0 .25-1.67 29.93 29.93 0 0 1-.14-3.41zm-9.8-11.86c.14 0 1.07-.22 2.81-.65s3.83-.82 6.27-1.18a3 3 0 0 0 2-1.14 6.94 6.94 0 0 0 .52-3.29c0-.93-.29-1.4-.87-1.4a33.18 33.18 0 0 0-4.7.86q-3.83.87-5.05 1.3a2.26 2.26 0 0 0-1.53 1.56 9.94 9.94 0 0 0-.3 2.54c-.01.92.27 1.39.81 1.39zm1.53-11.86c.21 0 1-.13 2.35-.38s3.26-.49 5.71-.7a3 3 0 0 0 2.15-1 5.43 5.43 0 0 0 .51-2.81c0-1.36-.26-2-.77-2a44.06 44.06 0 0 0-5.1.92 24.6 24.6 0 0 0-5.26 1.46c-.61.36-.91 1.29-.91 2.8-.07 1.12.4 1.7 1.28 1.7zm11-13.06a7.49 7.49 0 0 0 4.7-1.88 33 33 0 0 1 4.33-3c1.33-.76 2-1.31 2-1.67q0-1.31-7.34-1.3c-5.38 0-8.06.76-8.06 2.27a3.85 3.85 0 0 0 .61 1.18q.61 1 1.53 2.7c.58 1.12 1.33 1.69 2.21 1.69zm13.37 22.11a1.61 1.61 0 0 0 1.79-1.45 14 14 0 0 0 .25-2.32 1.58 1.58 0 0 0-.36-1.19 5.57 5.57 0 0 0-2.55-.37q-2.19-.06-4.38-.06a19.26 19.26 0 0 0-3 .16c-.55.11-.82.85-.82 2.22a4.53 4.53 0 0 0 .46 2.58 1.37 1.37 0 0 0 1.32.43 37.41 37.41 0 0 1 4.14 0zm1.53-10.56a1.63 1.63 0 0 0 1.53-1 5.91 5.91 0 0 0 .51-2.64c0-1-.76-1.65-2.29-1.94a31.17 31.17 0 0 0-5.67-.43c-2.24 0-3.57.19-4 .59a3.44 3.44 0 0 0-.61 2.43 4.12 4.12 0 0 0 .41 2.31 1.91 1.91 0 0 0 1.53.49z" transform="translate(-2.62 -.63)"/></g></g><path class="cls-4" d="M54.14 84.25c-21 0-38.1-15.82-38.1-35.33s17.05-35.34 38.1-35.34 38.1 15.82 38.1 35.34-17.06 35.33-38.1 35.33zm0-64.24C36.92 20 23 33 23 48.92s14 28.91 31.18 28.91 31.17-13 31.17-28.91C85.31 33 71.35 20 54.14 20z" transform="translate(-2.62 -.63)"/><path class="cls-4" d="M55.07 58.39a9 9 0 0 0 4.47-1 3 3 0 0 0 1.73-2.77 2.33 2.33 0 0 0-1-2.2 5.62 5.62 0 0 0-2.82-.7l-5.59-.45a11.2 11.2 0 0 1-6.5-2.49 7.28 7.28 0 0 1-2.61-5.85 7.71 7.71 0 0 1 3.46-6.78 14.5 14.5 0 0 1 8.33-2.24 25.77 25.77 0 0 1 3.93.25 20.12 20.12 0 0 1 3.26.79A20.66 20.66 0 0 1 64 36a2.69 2.69 0 0 1 1.14 3.81 2.6 2.6 0 0 1-.33.43l-.13.14a3.15 3.15 0 0 1-3.73.61c-.59-.29-1.19-.56-1.82-.8a14.12 14.12 0 0 0-4.62-.71 6.68 6.68 0 0 0-4.17 1A3.13 3.13 0 0 0 49.08 43a2 2 0 0 0 1 1.71 5.68 5.68 0 0 0 3.22 1.05l5.2.37a10.17 10.17 0 0 1 7.15 2.78 9 9 0 0 1 2.05 6 7.52 7.52 0 0 1-3.76 6.57 17 17 0 0 1-9.34 2.42 20.45 20.45 0 0 1-11-3.13 2.67 2.67 0 0 1-.86-3.87 2.74 2.74 0 0 1 .39-.45A3.23 3.23 0 0 1 47 56.1a14.17 14.17 0 0 0 8.07 2.29z" transform="translate(-2.62 -.63)"/><path class="cls-4" d="M54.14 28q3.47 0 3.46 3.21v3.21q0 3.21-3.46 3.21-3.47 0-3.47-3.21v-3.17q0-3.25 3.47-3.25zm0 32.16q3.47 0 3.46 3.21v3.21c0 2.14-1.15 3.22-3.46 3.22s-3.47-1.08-3.47-3.22v-3.21q0-3.21 3.47-3.21z" transform="translate(-2.62 -.63)"/></svg>